<?xml version="1.0" encoding="utf-8"?><svg viewBox="0 0 24 25" xmlns="http://www.w3.org/2000/svg" xmlns:xlink="http://www.w3.org/1999/xlink"><style>:root>svg{display:none}:root>svg:target{display:block}</style><svg viewBox="0 0 24 25" id="arrow" xmlns="http://www.w3.org/2000/svg"><path d="M4.93 1.713a2.36 2.36 0 100 4.71h10.02L1.7 19.693a2.36 2.36 0 003.33 3.33L18.3 9.763v10.02a2.361 2.361 0 104.71 0V1.713H4.93z"/></svg><svg viewBox="0 0 24 21" id="telegram" xmlns="http://www.w3.org/2000/svg"><path d="M1.676 9.389C8.193 6.616 12.49 4.674 14.57 3.843 20.672 1.347 22.06.792 22.891.792c.138 0 .554 0 .832.277.277.139.277.416.277.555v.832c-.277 3.466-1.803 12.063-2.496 15.946-.277 1.664-.97 2.218-1.525 2.218-1.248.14-2.219-.832-3.467-1.664-1.94-1.247-3.05-2.08-4.991-3.327-2.219-1.387-.832-2.219.415-3.467.278-.277 5.963-5.546 6.102-5.962 0 0 0-.278-.14-.416-.138-.139-.276-.139-.415 0-.139 0-3.328 2.08-9.29 6.24-.832.554-1.664.97-2.358.832-.831 0-2.357-.416-3.466-.832-1.387-.416-2.496-.694-2.357-1.526.138-.277.693-.693 1.664-1.109z"/></svg><svg viewBox="0 0 24 25" id="viber" xmlns="http://www.w3.org/2000/svg"><g clip-path="url(#cclip0_10650_29)"><path d="M20.811 3.053c-.593-.549-3.006-2.3-8.374-2.322 0 0-6.332-.383-9.42 2.448C1.303 4.9.695 7.414.632 10.53c-.063 3.113-.144 8.96 5.486 10.543h.005l-.005 2.417s-.036.976.608 1.179c.778.243 1.237-.5 1.98-1.305a66.73 66.73 0 001.4-1.58c3.852.324 6.813-.418 7.15-.526.779-.252 5.18-.815 5.896-6.656.738-6.022-.36-9.829-2.34-11.548zm.653 11.116c-.603 4.878-4.172 5.184-4.829 5.396-.279.09-2.88.738-6.152.522 0 0-2.439 2.938-3.2 3.703-.116.122-.256.167-.35.144-.13-.031-.167-.189-.167-.414 0-.324.023-4.018.023-4.018-4.766-1.319-4.492-6.292-4.438-8.893.054-2.601.545-4.739 1.999-6.174 2.61-2.363 7.988-2.012 7.988-2.012 4.54.018 6.718 1.386 7.223 1.845 1.674 1.436 2.529 4.87 1.903 9.9z"/><path d="M14.646 10.7a.299.299 0 01-.301-.289c-.05-1.03-.536-1.535-1.526-1.589a.306.306 0 01-.288-.32.303.303 0 01.32-.287c1.31.067 2.034.814 2.101 2.165a.306.306 0 01-.288.32c-.009-.005-.013 0-.018 0z"/><path d="M16.203 11.221H16.2a.305.305 0 01-.297-.31c.022-1.04-.275-1.877-.905-2.57-.63-.689-1.498-1.067-2.646-1.148a.302.302 0 11.045-.603c1.292.095 2.318.55 3.047 1.346.733.8 1.089 1.809 1.066 2.992a.307.307 0 01-.306.293z"/><path d="M17.8 11.842a.302.302 0 01-.3-.302c-.014-1.831-.563-3.29-1.634-4.333-1.071-1.044-2.426-1.58-4.028-1.593a.305.305 0 01-.301-.306c0-.167.134-.302.301-.302 1.764.014 3.258.608 4.446 1.764 1.193 1.161 1.8 2.763 1.818 4.761 0 .171-.135.311-.301.311zM12.891 14.461s.428.036.657-.247l.45-.563c.216-.279.738-.459 1.247-.175.382.22.756.454 1.111.71.338.248 1.035.829 1.035.829.329.279.405.688.18 1.12v.01c-.247.431-.562.818-.931 1.147-.005 0-.005.004-.01.004-.319.27-.638.423-.944.46-.045.008-.09.008-.14.008-.135 0-.274-.018-.4-.063l-.01-.013c-.476-.135-1.273-.473-2.6-1.206a15.31 15.31 0 01-2.188-1.445c-.346-.27-.67-.562-.985-.873l-.032-.031L9.3 14.1l-.032-.031-.031-.032c-.31-.31-.599-.639-.873-.985a15.318 15.318 0 01-1.445-2.188c-.733-1.327-1.07-2.124-1.206-2.6l-.013-.01a1.353 1.353 0 01-.063-.4.486.486 0 01.009-.14c.04-.31.193-.625.459-.95 0-.004.004-.004.004-.008.329-.37.72-.684 1.148-.932h.009c.432-.225.841-.148 1.12.18 0 0 .58.698.828 1.035.257.36.49.734.711 1.116.284.509.108 1.035-.17 1.247l-.563.45c-.284.23-.248.657-.248.657s.828 3.155 3.947 3.951z"/></g><defs><clipPath id="cclip0_10650_29"><path fill="#fff" transform="translate(.619 .713)" d="M0 0h22.762v24H0z"/></clipPath></defs></svg></svg>