<svg width="198" height="208" viewBox="0 0 198 208" fill="none" xmlns="http://www.w3.org/2000/svg">
<rect y="0.911621" width="198" height="207" rx="64" fill="#2B2B42"/>
<path d="M130.34 30.3062V175.912H90.1055V80.5015C83.5951 85.4494 77.2799 89.4533 71.1602 92.5132C65.1055 95.5731 57.4883 98.5028 48.3086 101.302V68.6851C61.8503 64.3231 72.3646 59.0822 79.8516 52.9624C87.3385 46.8426 93.1979 39.2905 97.4297 30.3062H130.34Z" fill="white"/>
<path d="M146.51 -6.4082H148.51V-8.4082H146.51V-6.4082ZM146.51 212V214H148.51V212H146.51ZM86.1582 212H84.1582V214H86.1582V212ZM86.1582 68.8848H88.1582V64.8527L84.948 67.2924L86.1582 68.8848ZM57.7402 86.9023L56.8458 85.1135L56.8381 85.1173L57.7402 86.9023ZM23.4629 100.086H21.4629V102.787L24.0463 101.999L23.4629 100.086ZM23.4629 51.1602L22.8497 49.2565L21.4629 49.7032V51.1602H23.4629ZM97.1445 -6.4082V-8.4082H95.8758L95.3352 -7.26043L97.1445 -6.4082ZM144.51 -6.4082V212H148.51V-6.4082H144.51ZM146.51 210H86.1582V214H146.51V210ZM88.1582 212V68.8848H84.1582V212H88.1582ZM84.948 67.2924C75.2628 74.6532 65.8954 80.5887 56.8458 85.1135L58.6347 88.6912C67.9445 84.0363 77.5223 77.9601 87.3684 70.4771L84.948 67.2924ZM56.8381 85.1173C47.8908 89.6391 36.5805 93.9946 22.8795 98.1729L24.0463 101.999C37.8844 97.7788 49.4256 93.3453 58.6423 88.6873L56.8381 85.1173ZM25.4629 100.086V51.1602H21.4629V100.086H25.4629ZM24.0761 53.0638C44.5245 46.4771 60.5507 38.5184 72.0431 29.1247L69.5116 26.0277C58.543 34.9933 43.0263 42.7573 22.8497 49.2565L24.0761 53.0638ZM72.0431 29.1247C83.5107 19.7511 92.4827 8.18278 98.9539 -5.55598L95.3352 -7.26043C89.111 5.95394 80.5049 17.0418 69.5116 26.0277L72.0431 29.1247ZM97.1445 -4.4082H146.51V-8.4082H97.1445V-4.4082Z" fill="white"/>
</svg>
