<svg width="198" height="208" viewBox="0 0 198 208" fill="none" xmlns="http://www.w3.org/2000/svg">
<rect y="0.911621" width="198" height="207" rx="64" fill="#2B2B42"/>
<path d="M156.609 175.912H37.2734C38.6406 164.128 42.7747 153.06 49.6758 142.708C56.6419 132.292 69.6628 120.02 88.7383 105.892C100.392 97.2332 107.846 90.6577 111.102 86.1655C114.357 81.6733 115.984 77.409 115.984 73.3726C115.984 69.0106 114.357 65.2996 111.102 62.2397C107.911 59.1147 103.875 57.5522 98.9922 57.5522C93.9141 57.5522 89.7474 59.1473 86.4922 62.3374C83.3021 65.5275 81.1536 71.159 80.0469 79.2319L40.2031 76.0093C41.7656 64.8114 44.6302 56.0874 48.7969 49.8374C52.9635 43.5223 58.8229 38.7046 66.375 35.3843C73.9922 31.9989 84.5065 30.3062 97.918 30.3062C111.915 30.3062 122.788 31.9012 130.535 35.0913C138.348 38.2814 144.467 43.1968 148.895 49.8374C153.387 56.4129 155.633 63.8022 155.633 72.0054C155.633 80.7293 153.061 89.0627 147.918 97.0054C142.84 104.948 133.562 113.672 120.086 123.177C112.078 128.711 106.707 132.585 103.973 134.798C101.303 137.012 98.1458 139.909 94.5 143.49H156.609V175.912Z" fill="white"/>
<path d="M185.914 212V214H187.914V212H185.914ZM6.91016 212L4.92348 211.77L4.6647 214H6.91016V212ZM25.5137 162.195L23.8512 161.084L23.8496 161.086L25.5137 162.195ZM84.1074 106.971L85.2977 108.578L85.3002 108.576L84.1074 106.971ZM117.652 41.4922L116.253 42.9209L116.268 42.9353L116.283 42.9494L117.652 41.4922ZM80.7383 41.6387L79.3384 40.2102L79.3312 40.2173L79.3241 40.2245L80.7383 41.6387ZM71.0703 66.9805L70.9091 68.974L72.7948 69.1265L73.0518 67.2521L71.0703 66.9805ZM11.3047 62.1465L9.32388 61.8701L9.03099 63.9691L11.1434 64.14L11.3047 62.1465ZM24.1953 22.8887L25.8594 23.9981L25.8647 23.9901L24.1953 22.8887ZM50.5625 1.20898L51.3675 3.03986L51.3748 3.03661L50.5625 1.20898ZM146.803 0.769531L146.041 2.6189L146.047 2.62112L146.803 0.769531ZM174.342 22.8887L172.678 23.9981L172.684 24.0075L172.69 24.0169L174.342 22.8887ZM172.877 93.6406L171.198 92.5535L171.192 92.5633L172.877 93.6406ZM131.129 132.898L132.266 134.544L132.274 134.538L132.282 134.533L131.129 132.898ZM106.959 150.33L105.701 148.776L105.691 148.783L105.682 148.791L106.959 150.33ZM92.75 163.367L91.3486 161.94L87.8594 165.367H92.75V163.367ZM185.914 163.367H187.914V161.367H185.914V163.367ZM185.914 210H6.91016V214H185.914V210ZM8.89683 212.23C10.9093 194.884 16.9929 178.582 27.1778 163.305L23.8496 161.086C13.3313 176.863 7.01253 193.764 4.92348 211.77L8.89683 212.23ZM27.1762 163.307C37.4295 147.975 56.7346 129.732 85.2977 108.578L82.9171 105.363C54.2537 126.592 34.4963 145.166 23.8512 161.084L27.1762 163.307ZM85.3002 108.576C102.763 95.6012 114.185 85.5737 119.272 78.5544L116.033 76.2073C111.354 82.6646 100.413 92.3636 82.9146 105.365L85.3002 108.576ZM119.272 78.5544C124.311 71.5998 126.977 64.7995 126.977 58.1914H122.977C122.977 63.6927 120.759 69.6853 116.033 76.2073L119.272 78.5544ZM126.977 58.1914C126.977 51.0816 124.296 44.9924 119.022 40.0349L116.283 42.9494C120.774 47.1716 122.977 52.2153 122.977 58.1914H126.977ZM119.052 40.0635C113.856 34.9739 107.282 32.4609 99.4883 32.4609V36.4609C106.343 36.4609 111.878 38.6355 116.253 42.9209L119.052 40.0635ZM99.4883 32.4609C91.4129 32.4609 84.6392 35.0155 79.3384 40.2102L82.1381 43.0671C86.603 38.6916 92.3293 36.4609 99.4883 36.4609V32.4609ZM79.3241 40.2245C74.0662 45.4823 70.7663 54.4735 69.0888 66.7088L73.0518 67.2521C74.6947 55.2687 77.84 47.3653 82.1525 43.0529L79.3241 40.2245ZM71.2316 64.987L11.4659 60.153L11.1434 64.14L70.9091 68.974L71.2316 64.987ZM13.2855 62.4229C15.6068 45.7867 19.8391 33.0285 25.8594 23.9981L22.5312 21.7793C16.0515 31.4988 11.69 44.9126 9.32388 61.8701L13.2855 62.4229ZM25.8647 23.9901C31.8836 14.8676 40.3585 7.87999 51.3674 3.03985L49.7576 -0.621878C38.1102 4.49892 29.007 11.9644 22.5259 21.7872L25.8647 23.9901ZM51.3748 3.03661C62.436 -1.87948 77.889 -4.4082 97.877 -4.4082V-8.4082C77.6305 -8.4082 61.5406 -5.8588 49.7502 -0.618639L51.3748 3.03661ZM97.877 -4.4082C118.764 -4.4082 134.771 -2.02189 146.041 2.61889L147.564 -1.07982C135.593 -6.00936 118.982 -8.4082 97.877 -8.4082V-4.4082ZM146.047 2.62112C157.418 7.26431 166.272 14.3893 172.678 23.9981L176.006 21.7793C169.131 11.4662 159.625 3.84506 147.559 -1.08205L146.047 2.62112ZM172.69 24.0169C179.194 33.5373 182.449 44.2256 182.449 56.1406H186.449C186.449 43.4462 182.966 31.9666 175.993 21.7605L172.69 24.0169ZM182.449 56.1406C182.449 68.8081 178.722 80.9347 171.198 92.5536L174.556 94.7277C182.462 82.5184 186.449 69.645 186.449 56.1406H182.449ZM171.192 92.5633C163.782 104.153 150.114 117.061 129.976 131.264L132.282 134.533C152.574 120.221 166.738 106.956 174.562 94.7179L171.192 92.5633ZM129.992 131.253C117.987 139.549 109.87 145.401 105.701 148.776L108.217 151.885C112.251 148.619 120.248 142.849 132.266 134.544L129.992 131.253ZM105.682 148.791C101.62 152.159 96.8405 156.546 91.3486 161.94L94.1514 164.794C99.597 159.446 104.29 155.142 108.236 151.87L105.682 148.791ZM92.75 165.367H185.914V161.367H92.75V165.367ZM183.914 163.367V212H187.914V163.367H183.914Z" fill="white"/>
</svg>
