<svg width="198" height="208" viewBox="0 0 198 208" fill="none" xmlns="http://www.w3.org/2000/svg">
<rect y="0.911621" width="198" height="207" rx="64" fill="#2B2B42"/>
<path d="M78.7773 74.1538L41.1797 67.4155C44.3047 55.4364 50.2943 46.2567 59.1484 39.8765C68.0677 33.4963 80.6654 30.3062 96.9414 30.3062C115.626 30.3062 129.135 33.7892 137.469 40.7554C145.802 47.7215 149.969 56.478 149.969 67.0249C149.969 73.2098 148.276 78.8088 144.891 83.8218C141.505 88.8348 136.395 93.2293 129.559 97.0054C135.092 98.3726 139.324 99.9676 142.254 101.791C147.007 104.72 150.685 108.594 153.289 113.412C155.958 118.164 157.293 123.861 157.293 130.501C157.293 138.835 155.112 146.843 150.75 154.525C146.388 162.142 140.105 168.034 131.902 172.201C123.699 176.302 112.924 178.353 99.5781 178.353C86.5573 178.353 76.2708 176.823 68.7188 173.763C61.2318 170.703 55.0469 166.244 50.1641 160.384C45.3464 154.46 41.6354 147.038 39.0312 138.119L78.7773 132.845C80.3398 140.853 82.7487 146.419 86.0039 149.544C89.3242 152.604 93.5234 154.134 98.6016 154.134C103.94 154.134 108.367 152.181 111.883 148.275C115.464 144.369 117.254 139.16 117.254 132.65C117.254 126.009 115.529 120.866 112.078 117.22C108.693 113.574 104.07 111.751 98.2109 111.751C95.0859 111.751 90.7891 112.533 85.3203 114.095L87.3711 85.6772C89.5846 86.0028 91.3099 86.1655 92.5469 86.1655C97.7552 86.1655 102.085 84.5054 105.535 81.1851C109.051 77.8647 110.809 73.9259 110.809 69.3687C110.809 65.0067 109.507 61.5236 106.902 58.9194C104.298 56.3153 100.717 55.0132 96.1602 55.0132C91.4727 55.0132 87.6641 56.4455 84.7344 59.3101C81.8047 62.1095 79.819 67.0575 78.7773 74.1538Z" fill="white"/>
<path d="M69.166 59.3633L68.8132 61.3319L70.845 61.6961L71.1448 59.6537L69.166 59.3633ZM12.7695 49.2559L10.8343 48.751L10.2885 50.8431L12.4167 51.2245L12.7695 49.2559ZM39.7227 7.94727L38.5591 6.32059L38.5534 6.32465L39.7227 7.94727ZM145.338 93.6406L144.371 91.89L139.903 94.358L144.858 95.5822L145.338 93.6406ZM164.381 100.818L163.324 102.516L163.331 102.521L164.381 100.818ZM180.934 118.25L179.174 119.201L179.182 119.215L179.19 119.229L180.934 118.25ZM177.125 179.92L178.861 180.914L178.864 180.907L177.125 179.92ZM148.854 206.434L149.748 208.222L149.759 208.217L148.854 206.434ZM54.0781 208.777L53.3215 210.629L53.3271 210.631L54.0781 208.777ZM26.2461 188.709L24.6944 189.971L24.702 189.98L24.7097 189.989L26.2461 188.709ZM9.54688 155.311L9.28382 153.328L6.97398 153.634L7.62703 155.871L9.54688 155.311ZM69.166 147.4L71.129 147.017L70.7686 145.17L68.903 145.418L69.166 147.4ZM80.0059 172.449L78.6208 173.892L78.6355 173.906L78.6505 173.92L80.0059 172.449ZM118.824 170.545L117.35 169.193L117.344 169.2L117.338 169.207L118.824 170.545ZM119.117 123.963L117.652 125.324L117.658 125.331L117.665 125.338L119.117 123.963ZM78.9805 119.275L76.9857 119.131L76.7798 121.984L79.5299 121.198L78.9805 119.275ZM82.0566 76.6484L82.3476 74.6697L80.2169 74.3564L80.0618 76.5045L82.0566 76.6484ZM109.303 69.9102L107.929 68.4561L107.923 68.4625L107.916 68.469L109.303 69.9102ZM78.1016 37.0977L79.4833 38.5436L79.4916 38.5357L79.4998 38.5277L78.1016 37.0977ZM69.5188 57.3946L13.1224 47.2872L12.4167 51.2245L68.8132 61.3319L69.5188 57.3946ZM14.7048 49.7607C19.2915 32.1782 28.0387 18.8317 40.8919 9.56988L38.5534 6.32465C24.8441 16.2034 15.6226 30.396 10.8343 48.751L14.7048 49.7607ZM40.8863 9.57393C53.7974 0.338205 72.2236 -4.4082 96.4121 -4.4082V-8.4082C71.7725 -8.4082 52.4057 -3.5843 38.5591 6.3206L40.8863 9.57393ZM96.4121 -4.4082C124.278 -4.4082 143.961 0.802685 155.92 10.8001L158.486 7.73115C145.445 -3.16987 124.601 -8.4082 96.4121 -8.4082V-4.4082ZM155.92 10.8001C167.981 20.8824 173.953 33.4622 173.953 48.6699H177.953C177.953 32.2371 171.425 18.5473 158.486 7.73115L155.92 10.8001ZM173.953 48.6699C173.953 57.5579 171.528 65.5648 166.678 72.7459L169.993 74.9846C175.3 67.1266 177.953 58.3367 177.953 48.6699H173.953ZM166.678 72.7459C161.821 79.9384 154.426 86.3357 144.371 91.89L146.305 95.3913C156.758 89.6174 164.694 82.8312 169.993 74.9846L166.678 72.7459ZM144.858 95.5822C153.07 97.611 159.186 99.9418 163.324 102.516L165.437 99.1202C160.786 96.2262 154.208 93.7718 145.818 91.699L144.858 95.5822ZM163.331 102.521C170.168 106.735 175.438 112.289 179.174 119.201L182.693 117.299C178.617 109.758 172.852 103.691 165.43 99.1158L163.331 102.521ZM179.19 119.229C182.993 126 184.939 134.192 184.939 143.885H188.939C188.939 133.655 186.882 124.757 182.677 117.271L179.19 119.229ZM184.939 143.885C184.939 156.018 181.768 167.691 175.386 178.932L178.864 180.907C185.567 169.102 188.939 156.752 188.939 143.885H184.939ZM175.389 178.926C169.05 189.997 159.922 198.568 147.948 204.65L149.759 208.217C162.394 201.799 172.114 192.695 178.861 180.914L175.389 178.926ZM147.959 204.645C136.029 210.61 120.207 213.662 100.367 213.662V217.662C120.566 217.662 137.068 214.562 149.748 208.222L147.959 204.645ZM100.367 213.662C80.9576 213.662 65.8188 211.376 54.8292 206.924L53.3271 210.631C64.9937 215.358 80.7143 217.662 100.367 217.662V213.662ZM54.8348 206.926C43.8881 202.452 34.8848 195.951 27.7825 187.429L24.7097 189.989C32.2559 199.045 41.8072 205.923 53.3215 210.629L54.8348 206.926ZM27.7978 187.447C20.7717 178.807 15.314 167.927 11.4667 154.75L7.62703 155.871C11.5922 169.452 17.2673 180.838 24.6944 189.971L27.7978 187.447ZM9.80993 157.293L69.4291 149.383L68.903 145.418L9.28382 153.328L9.80993 157.293ZM67.203 147.783C69.5701 159.915 73.284 168.769 78.6208 173.892L81.3909 171.006C76.9621 166.755 73.4494 158.91 71.129 147.017L67.203 147.783ZM78.6505 173.92C84.0471 178.893 90.8504 181.334 98.9023 181.334V177.334C91.7199 177.334 85.9256 175.185 81.3612 170.979L78.6505 173.92ZM98.9023 181.334C107.467 181.334 114.651 178.171 120.311 171.883L117.338 169.207C112.45 174.637 106.353 177.334 98.9023 177.334V181.334ZM120.299 171.896C126.081 165.588 128.881 157.254 128.881 147.107H124.881C124.881 156.493 122.31 163.783 117.35 169.193L120.299 171.896ZM128.881 147.107C128.881 136.805 126.199 128.535 120.57 122.588L117.665 125.338C122.387 130.328 124.881 137.488 124.881 147.107H128.881ZM120.583 122.602C115.059 116.653 107.554 113.76 98.3164 113.76V117.76C106.657 117.76 113.019 120.335 117.652 125.324L120.583 122.602ZM98.3164 113.76C93.3494 113.76 86.6922 114.992 78.431 117.352L79.5299 121.198C87.675 118.871 93.9084 117.76 98.3164 117.76V113.76ZM80.9753 119.419L84.0515 76.7924L80.0618 76.5045L76.9857 119.131L80.9753 119.419ZM81.7657 78.6272C85.1186 79.1202 87.8193 79.3809 89.8203 79.3809V75.3809C88.1104 75.3809 85.6353 75.1532 82.3476 74.6697L81.7657 78.6272ZM89.8203 79.3809C98.1003 79.3809 105.107 76.7234 110.689 71.3513L107.916 68.469C103.147 73.0579 97.1654 75.3809 89.8203 75.3809V79.3809ZM110.676 71.3642C116.322 66.0317 119.213 59.6083 119.213 52.1855H115.213C115.213 58.4347 112.83 63.8276 107.929 68.4561L110.676 71.3642ZM119.213 52.1855C119.213 45.2173 117.117 39.4471 112.768 35.0975L109.939 37.9259C113.402 41.3888 115.213 46.0679 115.213 52.1855H119.213ZM112.768 35.0975C108.402 30.7313 102.473 28.6523 95.2402 28.6523V32.6523C101.679 32.6523 106.493 34.4796 109.939 37.9259L112.768 35.0975ZM95.2402 28.6523C87.7678 28.6523 81.526 30.9521 76.7033 35.6676L79.4998 38.5277C83.4662 34.6494 88.6502 32.6523 95.2402 32.6523V28.6523ZM76.7198 35.6517C71.836 40.3184 68.7701 48.2896 67.1872 59.0728L71.1448 59.6537C72.687 49.1479 75.578 42.2753 79.4833 38.5436L76.7198 35.6517Z" fill="white"/>
</svg>
