<svg width="113" height="33" viewBox="0 0 113 33" fill="none" xmlns="http://www.w3.org/2000/svg">
<path d="M2.25659 12.4142H13.0711V15.4487L9.00434 15.7604C2.43503 16.2519 0.380066 17.9873 0.380066 22.8553V23.8366C0.380066 27.3996 2.88259 29.5479 6.72487 29.5479C9.76418 29.5479 11.5069 28.8336 13.6525 26.647H14.0094V28.9673H18.3438V7.68433H2.25659V12.4142ZM13.0711 22.6772C11.7329 24.0132 9.71956 24.904 8.06609 24.904C6.28176 24.904 5.51895 24.2345 5.56356 22.7617C5.60817 20.7101 6.36799 20.2186 9.80879 19.9069L13.0711 19.5951V22.6772Z" fill="#FF8800"/>
<path fill-rule="evenodd" clip-rule="evenodd" d="M27.4581 7.68567H35.8147V12.0132H40.3722V28.9672H35.055V12.4601H27.4581V28.9672H22.1394V1.30493H27.4581V7.68567ZM105.218 16.2517L102.001 15.9384C100.216 15.7603 99.7701 15.3149 99.7701 13.8868C99.7701 12.2805 100.396 11.8782 102.893 11.8782C105.123 11.8782 105.752 12.236 106.066 13.7532H111.071C110.937 8.66701 109.373 7.36948 103.16 7.36948C96.368 7.36948 94.6697 8.66404 94.6697 13.8838C94.6697 18.6583 95.9203 19.9514 100.972 20.4427L103.608 20.7099C105.977 20.9326 106.556 21.3795 106.556 22.8076C106.556 24.5477 105.841 24.9929 102.937 24.9929C100.39 24.9929 99.7194 24.5922 99.5857 22.9413H94.5301C94.6638 28.2056 96.2727 29.5447 102.708 29.5447C109.858 29.5447 111.645 28.1166 111.645 22.3163C111.652 17.9916 110.357 16.7416 105.218 16.2517ZM77.8413 16.6527C77.8413 9.78193 75.4742 7.37246 68.6803 7.37246C61.9771 7.37246 59.3408 10.4901 59.3408 18.2589C59.3408 26.7374 61.6648 29.5418 69.1725 29.5418C74.5804 29.5418 76.8584 27.8909 77.6182 23.2501H72.4794C71.898 24.6842 71.2735 24.996 69.0907 24.996C65.7837 24.996 64.9346 24.0591 64.7562 20.0879H77.4918C77.7051 18.9547 77.822 17.8054 77.8413 16.6527ZM64.7934 15.8939C64.838 12.9055 66.0439 11.7906 68.9048 11.7906C71.6303 11.7906 72.7471 12.9055 72.8377 15.8939H64.7934ZM80.937 8.62097V28.9672H86.2558V12.2359H92.6498V7.6842H86.2558V7.10521C86.299 5.85518 86.6128 5.49889 87.6402 5.49889H93.4497V1.30493H87.1912C82.9474 1.30493 80.937 2.59801 80.937 8.62097ZM49.5894 28.9672H44.272V7.6857H57.4999V12.6828H49.5894V28.9672Z" fill="#054ADA"/>
</svg>
