<svg width="104" height="20" viewBox="0 0 104 20" fill="none" xmlns="http://www.w3.org/2000/svg">
<path d="M10.741 0.705272H14.641V18.9053H10.741V17.6833C9.82238 18.7406 8.53105 19.2693 6.86705 19.2693C5.15105 19.2693 3.68638 18.6106 2.47305 17.2933C1.25971 15.9586 0.653047 14.3293 0.653047 12.4053C0.653047 10.4813 1.25971 8.86061 2.47305 7.54327C3.68638 6.20861 5.15105 5.54127 6.86705 5.54127C8.53105 5.54127 9.82238 6.06994 10.741 7.12727V0.705272ZM5.41105 14.7193C5.98305 15.2913 6.72838 15.5773 7.64705 15.5773C8.56571 15.5773 9.31105 15.2913 9.88305 14.7193C10.455 14.1473 10.741 13.3759 10.741 12.4053C10.741 11.4346 10.455 10.6633 9.88305 10.0913C9.31105 9.51927 8.56571 9.23327 7.64705 9.23327C6.72838 9.23327 5.98305 9.51927 5.41105 10.0913C4.83905 10.6633 4.55305 11.4346 4.55305 12.4053C4.55305 13.3759 4.83905 14.1473 5.41105 14.7193ZM21.4023 8.21927C21.6449 7.38727 22.1303 6.75461 22.8583 6.32127C23.6036 5.87061 24.4183 5.64527 25.3023 5.64527V10.0653C24.3489 9.90927 23.4563 10.0739 22.6243 10.5593C21.8096 11.0273 21.4023 11.8506 21.4023 13.0293V18.9053H17.5023V5.90527H21.4023V8.21927ZM37.8725 17.2933C36.5378 18.6106 34.9085 19.2693 32.9845 19.2693C31.0605 19.2693 29.4311 18.6106 28.0965 17.2933C26.7618 15.9586 26.0945 14.3293 26.0945 12.4053C26.0945 10.4813 26.7618 8.86061 28.0965 7.54327C29.4311 6.20861 31.0605 5.54127 32.9845 5.54127C34.9085 5.54127 36.5378 6.20861 37.8725 7.54327C39.2071 8.86061 39.8745 10.4813 39.8745 12.4053C39.8745 14.3293 39.2071 15.9586 37.8725 17.2933ZM30.8525 14.6153C31.4245 15.1873 32.1351 15.4733 32.9845 15.4733C33.8338 15.4733 34.5445 15.1873 35.1165 14.6153C35.6885 14.0433 35.9745 13.3066 35.9745 12.4053C35.9745 11.5039 35.6885 10.7673 35.1165 10.1953C34.5445 9.62327 33.8338 9.33727 32.9845 9.33727C32.1351 9.33727 31.4245 9.62327 30.8525 10.1953C30.2805 10.7673 29.9945 11.5039 29.9945 12.4053C29.9945 13.3066 30.2805 14.0433 30.8525 14.6153ZM49.8544 5.54127C51.5704 5.54127 53.0351 6.20861 54.2484 7.54327C55.4617 8.86061 56.0684 10.4813 56.0684 12.4053C56.0684 14.3293 55.4617 15.9586 54.2484 17.2933C53.0351 18.6106 51.5704 19.2693 49.8544 19.2693C48.1904 19.2693 46.8991 18.7406 45.9804 17.6833V24.1053H42.0804V5.90527H45.9804V7.12727C46.8991 6.06994 48.1904 5.54127 49.8544 5.54127ZM46.8384 14.7193C47.4277 15.2913 48.1731 15.5773 49.0744 15.5773C49.9757 15.5773 50.7124 15.2913 51.2844 14.7193C51.8737 14.1473 52.1684 13.3759 52.1684 12.4053C52.1684 11.4346 51.8737 10.6633 51.2844 10.0913C50.7124 9.51927 49.9757 9.23327 49.0744 9.23327C48.1731 9.23327 47.4277 9.51927 46.8384 10.0913C46.2664 10.6633 45.9804 11.4346 45.9804 12.4053C45.9804 13.3759 46.2664 14.1473 46.8384 14.7193ZM61.7177 9.70127C61.7177 9.96127 61.9344 10.1779 62.3677 10.3513C62.8184 10.5073 63.3557 10.6719 63.9797 10.8453C64.6037 11.0013 65.2277 11.2093 65.8517 11.4693C66.4757 11.7293 67.0044 12.1626 67.4377 12.7693C67.8884 13.3586 68.1137 14.1039 68.1137 15.0053C68.1137 16.4093 67.5937 17.4753 66.5537 18.2033C65.5137 18.9139 64.231 19.2693 62.7057 19.2693C59.967 19.2693 58.1037 18.2379 57.1157 16.1753L60.4957 14.2513C60.8424 15.2739 61.579 15.7853 62.7057 15.7853C63.6417 15.7853 64.1097 15.5166 64.1097 14.9793C64.1097 14.7193 63.8844 14.5026 63.4337 14.3293C63.0004 14.1559 62.4717 13.9913 61.8477 13.8353C61.2237 13.6619 60.5997 13.4453 59.9757 13.1853C59.3517 12.9079 58.8144 12.4833 58.3637 11.9113C57.9304 11.3393 57.7137 10.6373 57.7137 9.80527C57.7137 8.45327 58.199 7.40461 59.1697 6.65927C60.1577 5.91394 61.371 5.54127 62.8097 5.54127C63.8844 5.54127 64.8637 5.78394 65.7477 6.26927C66.6317 6.73727 67.3424 7.42194 67.8797 8.32327L64.5517 10.1173C64.1357 9.35461 63.555 8.97327 62.8097 8.97327C62.0817 8.97327 61.7177 9.21594 61.7177 9.70127ZM69.81 13.0033V9.25927H79.69V13.0033H69.81ZM89.83 4.08527C88.218 3.94661 87.412 4.55327 87.412 5.90527H89.83V9.64927H87.412V18.9053H83.512V9.64927H81.77V5.90527H83.512C83.512 4.03327 84.0407 2.61194 85.098 1.64127C86.1553 0.653273 87.7327 0.219939 89.83 0.341272V4.08527ZM97.242 7.10127C99.0274 7.10127 100.509 7.63861 101.688 8.71327C102.884 9.77061 103.482 11.2613 103.482 13.1853C103.482 15.0919 102.841 16.5826 101.558 17.6573C100.275 18.7319 98.7067 19.2693 96.852 19.2693C95.344 19.2693 94.018 18.9486 92.874 18.3073C91.73 17.6486 90.8894 16.6693 90.352 15.3693L93.94 13.2893C94.3907 14.5719 95.3614 15.2133 96.852 15.2133C97.6667 15.2133 98.282 15.0226 98.698 14.6413C99.114 14.2599 99.322 13.7746 99.322 13.1853C99.322 12.5959 99.1227 12.1106 98.724 11.7293C98.3254 11.3479 97.7447 11.1573 96.982 11.1573H91.288L92.042 0.705272H102.572V4.60527H95.942L95.76 7.10127H97.242Z" fill="white"/>
</svg>
