<svg class="w-100" viewBox="0 0 288 90" fill="none" xmlns="http://www.w3.org/2000/svg">
	<style>
		.meterG text{
			opacity: 0.5;
		}
	</style>
	<g clip-path="url(#clip0_10538_2793)">
	<rect y="0.712891" width="288" height="89" rx="16" fill="#2B2B42"></rect>
	<mask id="path-2-outside-1_10538_2793" maskUnits="userSpaceOnUse" x="-2" y="0.712891" width="74" height="89" fill="black">
	<rect fill="white" x="-2" y="0.712891" width="74" height="89"></rect>
	<path d="M0 0.712891H72V89.7129H0V0.712891Z"></path>
	</mask>
	<path d="M0 0.712891H72V89.7129H0V0.712891Z" fill="url(#paint0_linear_10538_2793)" fill-opacity="0.2"></path>
	<path d="M2 89.7129V0.712891H-2V89.7129H2Z" fill="url(#paint1_linear_10538_2793)" mask="url(#path-2-outside-1_10538_2793)"></path>
	<path d="M33.68 58.2929C32.0267 58.0796 30.48 57.6662 29.04 57.0529C27.6267 56.4129 26.4133 55.5862 25.4 54.5729L27.72 51.3729C28.7067 52.3596 29.9467 53.1462 31.44 53.7329C32.96 54.2929 34.52 54.5729 36.12 54.5729C37.7467 54.5729 39.0267 54.2929 39.96 53.7329C40.92 53.1462 41.4 52.3462 41.4 51.3329C41.4 50.6396 41.2267 50.0662 40.88 49.6129C40.5333 49.1329 40.0667 48.7329 39.48 48.4129C38.8933 48.0662 38.2 47.7596 37.4 47.4929C36.6267 47.2262 35.7867 46.9729 34.88 46.7329C33.3067 46.2796 31.96 45.8129 30.84 45.3329C29.7467 44.8529 28.8533 44.3196 28.16 43.7329C27.4667 43.1196 26.96 42.4529 26.64 41.7329C26.32 40.9862 26.16 40.1596 26.16 39.2529C26.16 38.3196 26.3333 37.4662 26.68 36.6929C27.0267 35.8929 27.5067 35.1862 28.12 34.5729C28.76 33.9329 29.52 33.4129 30.4 33.0129C31.28 32.5862 32.24 32.2929 33.28 32.1329V28.2129H36.92V32.0529C38.44 32.2129 39.8533 32.5729 41.16 33.1329C42.4667 33.6662 43.6267 34.3729 44.64 35.2529L42.52 38.4529C41.5867 37.6529 40.4533 37.0129 39.12 36.5329C37.8133 36.0529 36.4667 35.8129 35.08 35.8129C33.64 35.8129 32.4933 36.1062 31.64 36.6929C30.8133 37.2796 30.4 38.0396 30.4 38.9729C30.4 39.9062 30.8667 40.6662 31.8 41.2529C32.76 41.8396 34.3467 42.4396 36.56 43.0529C38.2133 43.5329 39.6133 44.0396 40.76 44.5729C41.9333 45.0796 42.88 45.6529 43.6 46.2929C44.3467 46.9062 44.88 47.5996 45.2 48.3729C45.5467 49.1196 45.72 49.9729 45.72 50.9329C45.72 51.9462 45.5067 52.8929 45.08 53.7729C44.68 54.6262 44.1067 55.3862 43.36 56.0529C42.64 56.6929 41.76 57.2129 40.72 57.6129C39.7067 58.0129 38.5733 58.2662 37.32 58.3729V62.2129H33.68V58.2929Z" fill="white"></path>
	<mask id="path-5-outside-2_10538_2793" maskUnits="userSpaceOnUse" x="70" y="0.712891" width="74" height="89" fill="black">
		<rect fill="white" x="70" y="0.712891" width="74" height="89"></rect>
		<path d="M72 0.712891H144V89.7129H72V0.712891Z"></path>
	</mask>
	<path d="M72 0.712891H144V89.7129H72V0.712891Z" fill="url(#paint2_linear_10538_2793)" fill-opacity="0.2"></path>
	<path d="M74 89.7129V0.712891H70V89.7129H74Z" fill="url(#paint3_linear_10538_2793)" mask="url(#path-5-outside-2_10538_2793)"></path>
	<mask id="path-10-outside-3_10538_2793" maskUnits="userSpaceOnUse" x="142" y="0.712891" width="74" height="89" fill="black">
	<rect fill="white" x="142" y="0.712891" width="74" height="89"></rect>
	<path d="M144 0.712891H216V89.7129H144V0.712891Z"></path>
	</mask>
	<path d="M144 0.712891H216V89.7129H144V0.712891Z" fill="url(#paint4_linear_10538_2793)" fill-opacity="0.2"></path>
	<path d="M146 89.7129V0.712891H142V89.7129H146Z" fill="url(#paint5_linear_10538_2793)" mask="url(#path-10-outside-3_10538_2793)"></path>
	<mask id="path-15-outside-4_10538_2793" maskUnits="userSpaceOnUse" x="214" y="0.712891" width="74" height="89" fill="black">
	<rect fill="white" x="214" y="0.712891" width="74" height="89"></rect>
	<path d="M216 0.712891H288V89.7129H216V0.712891Z"></path>
	</mask>
	<path d="M216 0.712891H288V89.7129H216V0.712891Z" fill="url(#paint6_linear_10538_2793)" fill-opacity="0.2"></path>
	<path d="M218 89.7129V0.712891H214V89.7129H218Z" fill="url(#paint7_linear_10538_2793)" mask="url(#path-15-outside-4_10538_2793)"></path>
	</g>

	<g text-anchor="middle" fill="white" font-size="38" class="meterG">
		<!-- Первая цифра. Цифра на которой нужно остановиться должна быть в предпоследнем тэге text. Во всех остальных
        так же нужно изменить значенья на один меньше от предыдущего, либо на один больше если это последний text -->
		<text x="105" y="-2">
			8
			<animate id="a1" begin="a0.begin+200ms;5ms" attributeName="opacity" values="0.5;1;0.5" dur="500ms" fill="freeze"/>
			<animate begin="a0.begin+200ms;5ms" attributeName="y" values="-2;58;120" dur="500ms" fill="freeze"/>
		</text>
		<text x="105" y="-2">
			9
			<animate id="a2" begin="a1.begin+200ms" attributeName="opacity" values="0.5;1;0.5" dur="500ms" fill="freeze"/>
			<animate begin="a1.begin+200ms" attributeName="y" values="-2;58;120" dur="500ms" fill="freeze"/>
		</text>
		<text x="105" y="-2">
			0
			<animate id="a3" begin="a2.begin+200ms" attributeName="opacity" values="0.5;1;0.5" dur="500ms" fill="freeze"/>
			<animate begin="a2.begin+200ms" attributeName="y" values="-2;58;120" dur="500ms" fill="freeze"/>
		</text>
		<text x="105" y="-2">
			1
			<animate id="a4" begin="a3.begin+200ms" attributeName="opacity" values="0.5;1;0.5" dur="500ms" fill="freeze"/>
			<animate begin="a3.begin+200ms" attributeName="y" values="-2;58;120" dur="500ms" fill="freeze"/>
		</text>
		<text x="105" y="-2">
			2
			<animate id="a5" begin="a4.begin+200ms" attributeName="opacity" values="0.5;1;0.5" dur="500ms" fill="freeze"/>
			<animate begin="a4.begin+200ms" attributeName="y" values="-2;58;120" dur="500ms" fill="freeze"/>
		</text>
		<text x="105" y="-2">
			3
			<animate id="a6" begin="a5.begin+200ms" attributeName="opacity" values="0.5;1;0.5" dur="500ms" fill="freeze"/>
			<animate begin="a5.begin+200ms" attributeName="y" values="-2;58;120" dur="500ms" fill="freeze"/>
		</text>
		<text x="105" y="-2">
			4
			<animate id="a7" begin="a6.begin+200ms" attributeName="opacity" values="0.5;1;0.5" dur="500ms" fill="freeze"/>
			<animate begin="a6.begin+200ms" attributeName="y" values="-2;58;120" dur="500ms" fill="freeze"/>
		</text>
		<text x="105" y="-2">
			5
			<animate id="a8" begin="a7.begin+200ms" attributeName="opacity" values="0.5;1;0.5" dur="450ms" fill="freeze"/>
			<animate begin="a7.begin+200ms" attributeName="y" values="-2;58;98" dur="450ms" fill="freeze"/>
			<animate begin="a8.end+2s" attributeName="y" values="98;120" dur="50ms" fill="freeze"/>
		</text>
		<text x="105" y="-2">
			6
			<animate id="a9" begin="a8.begin+200ms" attributeName="opacity" values="0.5;1" dur="250ms" fill="freeze"/>
			<animate begin="a8.begin+200ms" attributeName="y" values="-2;58" dur="250ms" fill="freeze"/>
			<animate id="a9_b" begin="a9.end+2s" attributeName="opacity" values="1;0.5" dur="250ms" fill="freeze"/>
			<animate begin="a9.end+2s" attributeName="y" values="58;120" dur="250ms" fill="freeze"/>
		</text>
		<text x="105" y="-2">
			7
			<animate begin="a9.begin+200ms" attributeName="y" values="-2;18" dur="50ms" fill="freeze"/>
			<animate id="a0" begin="a9_b.begin" attributeName="opacity" values="0.5;1;0.5" dur="450ms" fill="freeze"/>
			<animate begin="a9_b.begin" attributeName="y" values="18;58;120" dur="450ms" fill="freeze"/>
		</text>
		<!-- Вторая цифра -->
		<text x="178" y="-2">
			7
			<animate id="b1" begin="b0.begin+200ms;500ms" attributeName="opacity" values="0.5;1;0.5" dur="500ms" fill="freeze"/>
			<animate begin="b0.begin+200ms;500ms" attributeName="y" values="-2;58;120" dur="500ms" fill="freeze"/>
		</text>
		<text x="178" y="-2">
			8
			<animate id="b2" begin="b1.begin+200ms" attributeName="opacity" values="0.5;1;0.5" dur="500ms" fill="freeze"/>
			<animate begin="b1.begin+200ms" attributeName="y" values="-2;58;120" dur="500ms" fill="freeze"/>
		</text>
		<text x="178" y="-2">
			9
			<animate id="b3" begin="b2.begin+200ms" attributeName="opacity" values="0.5;1;0.5" dur="500ms" fill="freeze"/>
			<animate begin="b2.begin+200ms" attributeName="y" values="-2;58;120" dur="500ms" fill="freeze"/>
		</text>
		<text x="178" y="-2">
			0
			<animate id="b4" begin="b3.begin+200ms" attributeName="opacity" values="0.5;1;0.5" dur="500ms" fill="freeze"/>
			<animate begin="b3.begin+200ms" attributeName="y" values="-2;58;120" dur="500ms" fill="freeze"/>
		</text>
		<text x="178" y="-2">
			1
			<animate id="b5" begin="b4.begin+200ms" attributeName="opacity" values="0.5;1;0.5" dur="500ms" fill="freeze"/>
			<animate begin="b4.begin+200ms" attributeName="y" values="-2;58;120" dur="500ms" fill="freeze"/>
		</text>
		<text x="178" y="-2">
			2
			<animate id="b6" begin="b5.begin+200ms" attributeName="opacity" values="0.5;1;0.5" dur="500ms" fill="freeze"/>
			<animate begin="b5.begin+200ms" attributeName="y" values="-2;58;120" dur="500ms" fill="freeze"/>
		</text>
		<text x="178" y="-2">
			3
			<animate id="b7" begin="b6.begin+200ms" attributeName="opacity" values="0.5;1;0.5" dur="500ms" fill="freeze"/>
			<animate begin="b6.begin+200ms" attributeName="y" values="-2;58;120" dur="500ms" fill="freeze"/>
		</text>
		<text x="178" y="-2">
			4
			<animate id="b8" begin="b7.begin+200ms" attributeName="opacity" values="0.5;1;0.5" dur="450ms" fill="freeze"/>
			<animate begin="b7.begin+200ms" attributeName="y" values="-2;58;98" dur="450ms" fill="freeze"/>
			<animate begin="b8.end+2s" attributeName="y" values="98;120" dur="50ms" fill="freeze"/>
		</text>
		<text x="178" y="-2">
			5
			<animate id="b9" begin="b8.begin+200ms" attributeName="opacity" values="0.5;1" dur="250ms" fill="freeze"/>
			<animate begin="b8.begin+200ms" attributeName="y" values="-2;58" dur="250ms" fill="freeze"/>
			<animate id="b9_b" begin="b9.end+2s" attributeName="opacity" values="1;0.5" dur="250ms" fill="freeze"/>
			<animate begin="b9.end+2s" attributeName="y" values="58;120" dur="250ms" fill="freeze"/>
		</text>
		<text x="178" y="-2">
			6
			<animate begin="b9.begin+200ms" attributeName="y" values="-2;18" dur="50ms" fill="freeze"/>
			<animate id="b0" begin="b9_b.begin" attributeName="opacity" values="0.5;1;0.5" dur="450ms" fill="freeze"/>
			<animate begin="b9_b.begin" attributeName="y" values="18;58;120" dur="450ms" fill="freeze"/>
		</text>
		<!-- Третяя цифра -->
		<text x="250" y="-2">
			2
			<animate id="f1" begin="f0.begin+200ms;1000ms" attributeName="opacity" values="0.5;1;0.5" dur="500ms" fill="freeze"/>
			<animate begin="f0.begin+200ms;1000ms" attributeName="y" values="-2;58;120" dur="500ms" fill="freeze"/>
		</text>
		<text x="250" y="-2">
			3
			<animate id="f2" begin="f1.begin+200ms" attributeName="opacity" values="0.5;1;0.5" dur="500ms" fill="freeze"/>
			<animate begin="f1.begin+200ms" attributeName="y" values="-2;58;120" dur="500ms" fill="freeze"/>
		</text>
		<text x="250" y="-2">
			4
			<animate id="f3" begin="f2.begin+200ms" attributeName="opacity" values="0.5;1;0.5" dur="500ms" fill="freeze"/>
			<animate begin="f2.begin+200ms" attributeName="y" values="-2;58;120" dur="500ms" fill="freeze"/>
		</text>
		<text x="250" y="-2">
			5
			<animate id="f4" begin="f3.begin+200ms" attributeName="opacity" values="0.5;1;0.5" dur="500ms" fill="freeze"/>
			<animate begin="f3.begin+200ms" attributeName="y" values="-2;58;120" dur="500ms" fill="freeze"/>
		</text>
		<text x="250" y="-2">
			6
			<animate id="f5" begin="f4.begin+200ms" attributeName="opacity" values="0.5;1;0.5" dur="500ms" fill="freeze"/>
			<animate begin="f4.begin+200ms" attributeName="y" values="-2;58;120" dur="500ms" fill="freeze"/>
		</text>
		<text x="250" y="-2">
			7
			<animate id="f6" begin="f5.begin+200ms" attributeName="opacity" values="0.5;1;0.5" dur="500ms" fill="freeze"/>
			<animate begin="f5.begin+200ms" attributeName="y" values="-2;58;120" dur="500ms" fill="freeze"/>
		</text>
		<text x="250" y="-2">
			8
			<animate id="f7" begin="f6.begin+200ms" attributeName="opacity" values="0.5;1;0.5" dur="500ms" fill="freeze"/>
			<animate begin="f6.begin+200ms" attributeName="y" values="-2;58;120" dur="500ms" fill="freeze"/>
		</text>
		<text x="250" y="-2">
			9
			<animate id="f8" begin="f7.begin+200ms" attributeName="opacity" values="0.5;1;0.5" dur="450ms" fill="freeze"/>
			<animate begin="f7.begin+200ms" attributeName="y" values="-2;58;98" dur="450ms" fill="freeze"/>
			<animate begin="f8.end+2s" attributeName="y" values="98;120" dur="50ms" fill="freeze"/>
		</text>
		<text x="250" y="-2">
			0
			<animate id="f9" begin="f8.begin+200ms" attributeName="opacity" values="0.5;1" dur="250ms" fill="freeze"/>
			<animate begin="f8.begin+200ms" attributeName="y" values="-2;58" dur="250ms" fill="freeze"/>
			<animate id="f9_b" begin="f9.end+2s" attributeName="opacity" values="1;0.5" dur="250ms" fill="freeze"/>
			<animate begin="f9.end+2s" attributeName="y" values="58;120" dur="250ms" fill="freeze"/>
		</text>
		<text x="250" y="-2">
			1
			<animate begin="f9.begin+200ms" attributeName="y" values="-2;18" dur="50ms" fill="freeze"/>
			<animate id="f0" begin="f9_b.begin" attributeName="opacity" values="0.5;1;0.5" dur="450ms" fill="freeze"/>
			<animate begin="f9_b.begin" attributeName="y" values="18;58;120" dur="450ms" fill="freeze"/>
		</text>
	</g>
	

	<defs>
	<linearGradient id="paint0_linear_10538_2793" x1="36" y1="0.712891" x2="36" y2="89.7129" gradientUnits="userSpaceOnUse">
	<stop stop-color="white"></stop>
	<stop offset="0.52" stop-color="white" stop-opacity="0"></stop>
	<stop offset="1" stop-color="white"></stop>
	</linearGradient>
	<linearGradient id="paint1_linear_10538_2793" x1="36" y1="0.712891" x2="36" y2="89.7129" gradientUnits="userSpaceOnUse">
	<stop stop-color="#88889E" stop-opacity="0"></stop>
	<stop offset="0.495" stop-color="#88889E"></stop>
	<stop offset="1" stop-color="#88889E" stop-opacity="0"></stop>
	</linearGradient>
	<linearGradient id="paint2_linear_10538_2793" x1="108" y1="0.712891" x2="108" y2="89.7129" gradientUnits="userSpaceOnUse">
	<stop stop-color="white"></stop>
	<stop offset="0.52" stop-color="white" stop-opacity="0"></stop>
	<stop offset="1" stop-color="white"></stop>
	</linearGradient>
	<linearGradient id="paint3_linear_10538_2793" x1="108" y1="0.712891" x2="108" y2="89.7129" gradientUnits="userSpaceOnUse">
	<stop stop-color="#88889E" stop-opacity="0"></stop>
	<stop offset="0.495" stop-color="#88889E"></stop>
	<stop offset="1" stop-color="#88889E" stop-opacity="0"></stop>
	</linearGradient>
	<linearGradient id="paint4_linear_10538_2793" x1="180" y1="0.712891" x2="180" y2="89.7129" gradientUnits="userSpaceOnUse">
	<stop stop-color="white"></stop>
	<stop offset="0.52" stop-color="white" stop-opacity="0"></stop>
	<stop offset="1" stop-color="white"></stop>
	</linearGradient>
	<linearGradient id="paint5_linear_10538_2793" x1="180" y1="0.712891" x2="180" y2="89.7129" gradientUnits="userSpaceOnUse">
	<stop stop-color="#88889E" stop-opacity="0"></stop>
	<stop offset="0.495" stop-color="#88889E"></stop>
	<stop offset="1" stop-color="#88889E" stop-opacity="0"></stop>
	</linearGradient>
	<linearGradient id="paint6_linear_10538_2793" x1="252" y1="0.712891" x2="252" y2="89.7129" gradientUnits="userSpaceOnUse">
	<stop stop-color="white"></stop>
	<stop offset="0.52" stop-color="white" stop-opacity="0"></stop>
	<stop offset="1" stop-color="white"></stop>
	</linearGradient>
	<linearGradient id="paint7_linear_10538_2793" x1="252" y1="0.712891" x2="252" y2="89.7129" gradientUnits="userSpaceOnUse">
	<stop stop-color="#88889E" stop-opacity="0"></stop>
	<stop offset="0.495" stop-color="#88889E"></stop>
	<stop offset="1" stop-color="#88889E" stop-opacity="0"></stop>
	</linearGradient>
	<clipPath id="clip0_10538_2793">
	<rect y="0.712891" width="288" height="89" rx="16" fill="white"></rect>
	</clipPath>
	</defs>
</svg>