<svg width="18" height="17" viewBox="0 0 18 17" fill="none" xmlns="http://www.w3.org/2000/svg">
<path d="M16.023 4.11869C14.8778 2.85294 13.2504 2.31048 12.045 3.45568C10.1162 5.32416 9.45322 4.11869 8.36829 2.67212C7.16282 1.04474 5.41489 -0.221008 3.18477 0.502274C1.07519 1.22556 0.593004 3.15431 0.231363 5.02279C-0.190552 7.19264 0.532731 9.18167 1.37656 11.1104C1.7382 11.9542 2.58203 12.9789 2.34094 13.5816C1.01492 16.7159 3.24504 16.2337 5.35461 16.2939C9.9354 16.2939 13.7929 14.0638 16.686 10.146C18.1326 8.09674 17.6504 5.98717 16.023 4.11869ZM14.3354 8.94057C12.5874 11.231 10.3573 12.8584 7.58474 13.6419C7.10255 13.7625 6.56009 13.8227 6.25872 13.2803C4.99297 10.9296 3.60668 8.57893 3.36559 5.98717C3.42586 5.02279 3.42586 3.99814 4.20942 3.69677C5.17379 3.33513 5.8368 4.17896 6.37926 4.90224C6.74091 5.38443 6.982 5.92689 7.22309 6.46936C8.91075 10.568 8.91075 10.568 12.045 7.19264C12.5874 6.5899 13.0696 5.38443 14.1546 6.22826C15.0587 7.01182 14.9984 8.09674 14.3354 8.94057Z" fill="#FF3347"/>
</svg>
