<svg width="40" height="41" viewBox="0 0 40 41" fill="none" xmlns="http://www.w3.org/2000/svg">
<path fill-rule="evenodd" clip-rule="evenodd" d="M20 0.911743C31.0375 0.911743 40 9.87424 40 20.9117C40 31.9492 31.0375 40.9117 20 40.9117C8.9625 40.9117 0 31.9492 0 20.9117C0 9.87424 8.9625 0.911743 20 0.911743ZM23.3275 30.9117C24.7025 30.9117 25.8175 29.7967 25.8175 28.4217C25.8175 27.0467 24.7025 25.9292 23.3275 25.9292H22.495V17.8042C22.495 16.6967 21.8975 15.9117 20.795 15.9117C20.7875 15.9117 16.7075 15.9117 16.7075 15.9117C15.3225 15.9117 14.195 17.0367 14.195 18.4242C14.195 19.8117 15.3225 20.9367 16.7075 20.9367H17.4875V25.9292H16.635C15.26 25.9292 14.1425 27.0467 14.1425 28.4217C14.1425 29.7967 15.26 30.9117 16.635 30.9117H23.3275ZM20 7.55674C21.8525 7.55674 23.355 9.05924 23.355 10.9117C23.355 12.7642 21.8525 14.2667 20 14.2667C18.1475 14.2667 16.645 12.7642 16.645 10.9117C16.645 9.05924 18.1475 7.55674 20 7.55674Z" fill="#2B2B42"/>
</svg>
