<svg width="49" height="48" viewBox="0 0 49 48" fill="none" xmlns="http://www.w3.org/2000/svg">
<path d="M24.5 0C17.9 0 11.9 2.7 7.544 7.056C3.2 11.4 0.5 17.4 0.5 24C0.5 30.6 3.2 36.6 7.544 40.944C11.9 45.3 17.9 48 24.5 48C31.1 48 37.1 45.3 41.456 40.944C45.8 36.6 48.5 30.6 48.5 24C48.5 10.8 37.7 0 24.5 0ZM35.06 30.6C34.94 31.44 34.46 32.16 33.86 32.76C33.14 33.36 32.3 33.6 31.46 33.6H17.66C16.7 33.6 15.86 33.36 15.26 32.76C14.66 32.16 14.18 31.44 14.06 30.6L12.5 22.08C12.5 21.6 12.5 21.24 12.74 20.64C12.98 20.28 13.22 19.92 13.58 19.68C13.94 19.44 14.3 19.2 14.78 19.2C15.26 19.2 15.74 19.2 16.1 19.44L19.46 21.12L22.58 15.6C22.7 15.12 23.06 14.88 23.42 14.64C23.78 14.4 24.14 14.28 24.62 14.28C24.98 14.28 25.46 14.4 25.82 14.64C26.18 14.88 26.42 15.24 26.66 15.6L29.66 21.12L33.02 19.56C33.5 19.32 33.86 19.32 34.34 19.32C34.82 19.32 35.18 19.56 35.54 19.8C35.9 20.04 36.14 20.4 36.38 20.88C36.5 21.24 36.5 21.6 36.5 22.08L35.06 30.6Z" fill="#2B2B42"/>
</svg>
