<svg width="110" height="65" viewBox="0 0 110 65" fill="none" xmlns="http://www.w3.org/2000/svg">
<rect y="0.712891" width="110" height="64" rx="16" fill="url(#paint0_linear_10538_3104)"/>
<rect x="0.5" y="1.21289" width="109" height="63" rx="15.5" stroke="url(#paint1_linear_10538_3104)" stroke-opacity="0.6"/>
<path d="M23.1311 26.6129H27.6671C28.3511 26.6129 28.9751 26.7149 29.5391 26.9189C30.1031 27.1109 30.5831 27.3869 30.9791 27.7469C31.3871 28.1069 31.6991 28.5449 31.9151 29.0609C32.1431 29.5649 32.2571 30.1289 32.2571 30.7529V30.8609C32.2571 31.4969 32.1431 32.0729 31.9151 32.5889C31.6991 33.1049 31.3931 33.5489 30.9971 33.9209C30.6011 34.2809 30.1211 34.5629 29.5571 34.7669C28.9931 34.9589 28.3691 35.0549 27.6851 35.0549H25.4891V39.2129H23.1311V26.6129ZM27.5051 33.1109C28.2611 33.1109 28.8431 32.9129 29.2511 32.5169C29.6591 32.1089 29.8631 31.5689 29.8631 30.8969V30.7889C29.8631 30.1409 29.6651 29.6309 29.2691 29.2589C28.8731 28.8749 28.3031 28.6829 27.5591 28.6829H25.4351V33.1109H27.5051ZM34.2054 26.6129H39.0114C39.6354 26.6129 40.2054 26.6909 40.7214 26.8469C41.2374 26.9909 41.6754 27.2069 42.0354 27.4949C42.4074 27.7709 42.6954 28.1009 42.8994 28.4849C43.1034 28.8689 43.2054 29.2949 43.2054 29.7629V29.8889C43.2054 30.4289 43.0854 30.9149 42.8454 31.3469C42.6054 31.7789 42.2214 32.1629 41.6934 32.4989C42.3894 32.7869 42.9174 33.2009 43.2774 33.7409C43.6494 34.2809 43.8354 34.8989 43.8354 35.5949V35.7029C43.8354 36.2309 43.7334 36.7109 43.5294 37.1429C43.3254 37.5749 43.0374 37.9469 42.6654 38.2589C42.2934 38.5589 41.8374 38.7929 41.2974 38.9609C40.7694 39.1289 40.1814 39.2129 39.5334 39.2129H34.2054V26.6129ZM38.9574 31.9049C39.5694 31.9049 40.0434 31.7609 40.3794 31.4729C40.7154 31.1729 40.8834 30.7769 40.8834 30.2849V30.1769C40.8834 29.7089 40.7214 29.3369 40.3974 29.0609C40.0734 28.7849 39.6054 28.6469 38.9934 28.6469H36.4734V31.9049H38.9574ZM39.4074 37.1789C40.0554 37.1789 40.5594 37.0289 40.9194 36.7289C41.2914 36.4289 41.4774 36.0209 41.4774 35.5049V35.4149C41.4774 34.8749 41.2854 34.4549 40.9014 34.1549C40.5294 33.8429 40.0194 33.6869 39.3714 33.6869H36.4734V37.1789H39.4074ZM46.1585 26.6129H48.8045L54.0245 35.5589H54.1685V26.6129H56.4545V39.2129H54.0425L48.6065 29.8349H48.4625V39.2129H46.1585V26.6129ZM59.1943 33.3089H64.9543V35.1629H59.1943V33.3089ZM67.6565 26.6129H72.4625C73.0865 26.6129 73.6565 26.6909 74.1725 26.8469C74.6885 26.9909 75.1265 27.2069 75.4865 27.4949C75.8585 27.7709 76.1465 28.1009 76.3505 28.4849C76.5545 28.8689 76.6565 29.2949 76.6565 29.7629V29.8889C76.6565 30.4289 76.5365 30.9149 76.2965 31.3469C76.0565 31.7789 75.6725 32.1629 75.1445 32.4989C75.8405 32.7869 76.3685 33.2009 76.7285 33.7409C77.1005 34.2809 77.2865 34.8989 77.2865 35.5949V35.7029C77.2865 36.2309 77.1845 36.7109 76.9805 37.1429C76.7765 37.5749 76.4885 37.9469 76.1165 38.2589C75.7445 38.5589 75.2885 38.7929 74.7485 38.9609C74.2205 39.1289 73.6325 39.2129 72.9845 39.2129H67.6565V26.6129ZM72.4085 31.9049C73.0205 31.9049 73.4945 31.7609 73.8305 31.4729C74.1665 31.1729 74.3345 30.7769 74.3345 30.2849V30.1769C74.3345 29.7089 74.1725 29.3369 73.8485 29.0609C73.5245 28.7849 73.0565 28.6469 72.4445 28.6469H69.9245V31.9049H72.4085ZM72.8585 37.1789C73.5065 37.1789 74.0105 37.0289 74.3705 36.7289C74.7425 36.4289 74.9285 36.0209 74.9285 35.5049V35.4149C74.9285 34.8749 74.7365 34.4549 74.3525 34.1549C73.9805 33.8429 73.4705 33.6869 72.8225 33.6869H69.9245V37.1789H72.8585ZM78.6917 37.4129C79.0397 37.1969 79.4417 36.9389 79.8977 36.6389C80.3537 36.3389 80.8217 36.0029 81.3017 35.6309C81.7937 35.2469 82.2737 34.8449 82.7417 34.4249C83.2217 33.9929 83.6477 33.5549 84.0197 33.1109C84.3917 32.6549 84.6917 32.1929 84.9197 31.7249C85.1477 31.2569 85.2617 30.8009 85.2617 30.3569C85.2617 29.7809 85.0817 29.3249 84.7217 28.9889C84.3617 28.6409 83.8757 28.4669 83.2637 28.4669C82.6637 28.4669 82.1297 28.6649 81.6617 29.0609C81.2057 29.4569 80.9117 30.0629 80.7797 30.8789L78.5837 30.3929C78.6677 29.7569 78.8417 29.1929 79.1057 28.7009C79.3697 28.2089 79.6997 27.7949 80.0957 27.4589C80.5037 27.1109 80.9777 26.8469 81.5177 26.6669C82.0577 26.4869 82.6397 26.3969 83.2637 26.3969C83.8997 26.3969 84.4817 26.4929 85.0097 26.6849C85.5377 26.8649 85.9937 27.1229 86.3777 27.4589C86.7617 27.7949 87.0557 28.2029 87.2597 28.6829C87.4757 29.1509 87.5837 29.6669 87.5837 30.2309C87.5837 30.9389 87.4037 31.6349 87.0437 32.3189C86.6957 32.9909 86.2517 33.6269 85.7117 34.2269C85.1717 34.8269 84.5837 35.3789 83.9477 35.8829C83.3237 36.3869 82.7297 36.8189 82.1657 37.1789H87.8897V39.2129H78.6917V37.4129Z" fill="white"/>
<defs>
<linearGradient id="paint0_linear_10538_3104" x1="22.6968" y1="99.5236" x2="127.362" y2="48.9684" gradientUnits="userSpaceOnUse">
<stop stop-color="#4CE49B"/>
<stop offset="0.25" stop-color="#4EB5FF"/>
<stop offset="0.5" stop-color="#933FFF"/>
<stop offset="0.75" stop-color="#F20056"/>
<stop offset="1" stop-color="#FFDA44"/>
</linearGradient>
<linearGradient id="paint1_linear_10538_3104" x1="55.0005" y1="0.618644" x2="55.0119" y2="38.2695" gradientUnits="userSpaceOnUse">
<stop stop-color="white"/>
<stop offset="1" stop-color="white" stop-opacity="0"/>
</linearGradient>
</defs>
</svg>
