<svg width="361" height="22" viewBox="0 0 361 22" fill="none" xmlns="http://www.w3.org/2000/svg">
<rect y="11.1274" width="15" height="15" transform="rotate(-45 0 11.1274)" fill="white"/>
<rect x="169.706" y="11.127" width="15" height="15" transform="rotate(-45 169.706 11.127)" fill="white"/>
<rect x="84.8528" y="11.127" width="15" height="15" transform="rotate(-45 84.8528 11.127)" fill="white"/>
<rect x="254.558" y="11.127" width="15" height="15" transform="rotate(-45 254.558 11.127)" fill="white"/>
<rect x="42.4264" y="11.127" width="15" height="15" transform="rotate(-45 42.4264 11.127)" fill="white"/>
<rect x="212.132" y="11.127" width="15" height="15" transform="rotate(-45 212.132 11.127)" fill="white"/>
<rect x="127.279" y="11.127" width="15" height="15" transform="rotate(-45 127.279 11.127)" fill="white"/>
<rect x="296.985" y="11.127" width="15" height="15" transform="rotate(-45 296.985 11.127)" fill="white"/>
<rect x="318.198" y="11.127" width="15" height="15" transform="rotate(-45 318.198 11.127)" fill="white"/>
<rect x="339.411" y="11.127" width="15" height="15" transform="rotate(-45 339.411 11.127)" fill="white"/>
<rect x="21.2132" y="11.127" width="15" height="15" transform="rotate(-45 21.2132 11.127)" fill="white"/>
<rect x="190.919" y="11.127" width="15" height="15" transform="rotate(-45 190.919 11.127)" fill="white"/>
<rect x="106.066" y="11.127" width="15" height="15" transform="rotate(-45 106.066 11.127)" fill="white"/>
<rect x="275.772" y="11.127" width="15" height="15" transform="rotate(-45 275.772 11.127)" fill="white"/>
<rect x="63.6396" y="11.127" width="15" height="15" transform="rotate(-45 63.6396 11.127)" fill="white"/>
<rect x="233.345" y="11.127" width="15" height="15" transform="rotate(-45 233.345 11.127)" fill="white"/>
<rect x="148.492" y="11.127" width="15" height="15" transform="rotate(-45 148.492 11.127)" fill="white"/>
</svg>
