<svg width="608" height="626" viewBox="0 0 608 626" fill="none" xmlns="http://www.w3.org/2000/svg">
<g clip-path="url(#clip0_10538_2922)">
<g filter="url(#filter0_ddddd_10538_2922)">
<path d="M305.281 3.62183C241.477 3.62183 183.474 30.1369 141.364 72.9144C99.3692 115.574 73.2678 174.496 73.2678 239.311C73.2678 304.125 99.3692 363.048 141.364 405.707C183.474 448.485 241.477 475 305.281 475C369.084 475 427.087 448.485 469.198 405.707C511.192 363.048 537.294 304.125 537.294 239.311C537.294 109.682 432.888 3.62183 305.281 3.62183ZM407.366 304.125C406.206 312.375 401.566 319.445 395.766 325.337C388.805 331.23 380.685 333.587 372.564 333.587H239.157C229.876 333.587 221.756 331.23 215.956 325.337C210.155 319.445 205.515 312.375 204.355 304.125L189.274 220.456C189.274 215.742 189.274 212.207 191.594 206.314C193.914 202.779 196.235 199.244 199.715 196.887C203.195 194.53 206.675 192.173 211.315 192.173C215.956 192.173 220.596 192.173 224.076 194.53L256.558 211.028L286.72 156.82C289.759 151.081 291.36 149.749 294.84 147.392C298.32 145.035 301.8 143.857 306.441 143.857C309.921 143.857 314.561 145.035 318.041 147.392C321.522 149.749 323.842 153.284 326.162 156.82L355.163 211.028L387.645 195.708C392.285 193.352 395.766 193.352 400.406 193.352C405.046 193.352 408.526 195.708 412.007 198.065C415.487 200.422 417.807 203.958 420.127 208.671C421.287 212.207 421.287 215.742 421.287 220.456L407.366 304.125Z" fill="url(#paint0_linear_10538_2922)"/>
</g>
<path d="M302.013 0.351562C238.209 0.351562 180.206 26.453 138.096 68.5633C96.1014 110.558 70 168.561 70 232.364C70 296.168 96.1014 354.171 138.096 396.165C180.206 438.276 238.209 464.377 302.013 464.377C365.816 464.377 423.82 438.276 465.93 396.165C507.924 354.171 534.026 296.168 534.026 232.364C534.026 104.757 429.62 0.351562 302.013 0.351562ZM404.099 296.168C402.938 304.288 398.298 311.249 392.498 317.049C385.538 322.849 377.417 325.17 369.297 325.17H235.889C226.609 325.17 218.488 322.849 212.688 317.049C206.888 311.249 202.247 304.288 201.087 296.168L186.006 213.803C186.006 209.163 186.006 205.683 188.327 199.883C190.647 196.402 192.967 192.922 196.447 190.602C199.927 188.282 203.407 185.962 208.048 185.962C212.688 185.962 217.328 185.962 220.808 188.282L253.29 204.523L283.452 151.16C286.491 146.177 288.092 144.2 291.572 141.879C295.053 139.559 298.533 138.399 303.173 138.399C306.653 138.399 311.293 139.559 314.774 141.879C318.254 144.2 320.574 147.68 322.894 151.16L351.896 204.523L384.377 189.442C389.018 187.122 392.498 187.122 397.138 187.122C401.778 187.122 405.259 189.442 408.739 191.762C412.219 194.082 414.539 197.562 416.859 202.203C418.019 205.683 418.019 209.163 418.019 213.803L404.099 296.168Z" fill="url(#paint1_linear_10538_2922)"/>
<path d="M393.778 318.586L393.848 318.527L393.912 318.463C399.872 312.503 404.824 305.176 406.075 296.476L419.991 214.137L420.019 213.971V213.803V213.611C420.02 209.127 420.02 205.36 418.757 201.57L418.712 201.435L418.648 201.308C416.285 196.583 413.773 192.715 409.848 190.098L409.689 189.992C406.309 187.738 402.387 185.122 397.138 185.122H397.047C392.438 185.122 388.559 185.122 383.509 187.64L352.756 201.918L324.651 150.205L324.608 150.126L324.558 150.051L324.462 149.907C322.208 146.525 319.698 142.758 315.883 140.215C312.039 137.653 307.003 136.399 303.173 136.399C298.125 136.399 294.261 137.683 290.463 140.215C286.635 142.768 284.851 145.025 281.744 150.119L281.727 150.147L281.711 150.176L252.484 201.884L221.809 186.546C217.835 183.959 212.717 183.96 208.354 183.962L208.048 183.962C202.799 183.962 198.877 186.578 195.497 188.832L195.338 188.938C191.523 191.481 189.013 195.247 186.758 198.629L186.662 198.773L186.547 198.947L186.47 199.14C184.006 205.298 184.006 209.086 184.006 213.798V213.803V213.985L184.039 214.164L199.113 296.49C200.367 305.184 205.317 312.506 211.274 318.463C217.581 324.771 226.3 327.17 235.889 327.17H369.297C377.81 327.17 386.405 324.73 393.778 318.586ZM139.51 69.9776C181.264 28.2234 238.766 2.35156 302.013 2.35156C428.515 2.35156 532.026 105.862 532.026 232.364C532.026 295.612 506.153 353.114 464.516 394.751C422.762 436.505 365.26 462.377 302.013 462.377C238.766 462.377 181.264 436.505 139.51 394.751C97.8724 353.114 72 295.612 72 232.364C72 169.117 97.8724 111.615 139.51 69.9776Z" stroke="url(#paint2_linear_10538_2922)" stroke-opacity="0.6" stroke-width="4"/>
<g opacity="0.3" filter="url(#filter1_f_10538_2922)">
<path d="M557.231 381.617H475.6C466.984 381.617 460 388.602 460 397.217V397.218C460 405.834 466.984 412.818 475.6 412.818H557.231C565.847 412.818 572.831 405.834 572.831 397.218V397.217C572.831 388.602 565.847 381.617 557.231 381.617Z" fill="black"/>
</g>
<g opacity="0.08" filter="url(#filter2_f_10538_2922)">
<path d="M549.114 371.691H482.931C473.728 371.691 466.267 379.151 466.267 388.355C466.267 397.558 473.728 405.019 482.931 405.019H549.114C558.317 405.019 565.778 397.558 565.778 388.355C565.778 379.151 558.317 371.691 549.114 371.691Z" fill="black"/>
</g>
<rect x="418.5" y="357.213" width="168" height="44" rx="15.5" fill="url(#paint3_linear_10538_2922)"/>
<rect x="418.5" y="357.213" width="168" height="44" rx="15.5" fill="url(#paint4_radial_10538_2922)" fill-opacity="0.15"/>
<rect x="418.5" y="357.213" width="168" height="44" rx="15.5" fill="#F2F2F2"/>
<rect x="418.5" y="357.213" width="168" height="44" rx="15.5" stroke="url(#paint5_linear_10538_2922)"/>
<path d="M442.522 376.353H444.34L446.05 383.733H446.23L448.462 376.353H450.262L452.476 383.769H452.656L454.384 376.353H456.202L453.844 385.713H451.576L449.398 378.729H449.326L447.148 385.713H444.88L442.522 376.353ZM462.156 385.857C461.448 385.857 460.8 385.743 460.212 385.515C459.624 385.275 459.114 384.945 458.682 384.525C458.262 384.105 457.932 383.607 457.692 383.031C457.452 382.455 457.332 381.819 457.332 381.123V380.943C457.332 380.247 457.452 379.611 457.692 379.035C457.932 378.459 458.262 377.961 458.682 377.541C459.114 377.121 459.624 376.797 460.212 376.569C460.8 376.329 461.448 376.209 462.156 376.209H462.264C462.972 376.209 463.62 376.329 464.208 376.569C464.796 376.797 465.3 377.121 465.72 377.541C466.14 377.961 466.47 378.459 466.71 379.035C466.95 379.611 467.07 380.247 467.07 380.943V381.123C467.07 381.819 466.95 382.455 466.71 383.031C466.47 383.607 466.14 384.105 465.72 384.525C465.3 384.945 464.796 385.275 464.208 385.515C463.62 385.743 462.972 385.857 462.264 385.857H462.156ZM462.228 384.309C462.672 384.309 463.074 384.231 463.434 384.075C463.806 383.919 464.124 383.703 464.388 383.427C464.652 383.139 464.856 382.797 465 382.401C465.144 382.005 465.216 381.573 465.216 381.105V380.961C465.216 380.493 465.144 380.061 465 379.665C464.856 379.269 464.652 378.933 464.388 378.657C464.124 378.369 463.806 378.147 463.434 377.991C463.074 377.835 462.672 377.757 462.228 377.757H462.174C461.742 377.757 461.34 377.835 460.968 377.991C460.608 378.147 460.296 378.369 460.032 378.657C459.768 378.933 459.564 379.269 459.42 379.665C459.276 380.061 459.204 380.493 459.204 380.961V381.105C459.204 381.573 459.276 382.005 459.42 382.401C459.564 382.797 459.768 383.139 460.032 383.427C460.296 383.703 460.608 383.919 460.968 384.075C461.34 384.231 461.742 384.309 462.174 384.309H462.228ZM469.456 376.353H470.878C470.938 376.521 470.992 376.725 471.04 376.965C471.088 377.205 471.124 377.433 471.148 377.649C471.508 377.241 471.94 376.923 472.444 376.695C472.96 376.467 473.542 376.353 474.19 376.353H474.352V378.135C474.196 378.075 474.034 378.045 473.866 378.045C473.026 378.045 472.378 378.285 471.922 378.765C471.466 379.233 471.238 379.881 471.238 380.709V385.713H469.456V376.353ZM476.277 372.753H478.059V380.367H478.185L482.325 376.353H484.413L479.859 380.709L484.611 385.713H482.361L478.185 381.177H478.059V385.713H476.277V372.753ZM487.091 374.715C486.767 374.715 486.503 374.619 486.299 374.427C486.095 374.235 485.993 373.983 485.993 373.671C485.993 373.371 486.095 373.119 486.299 372.915C486.503 372.711 486.767 372.609 487.091 372.609C487.415 372.609 487.679 372.711 487.883 372.915C488.099 373.119 488.207 373.371 488.207 373.671C488.207 373.983 488.099 374.235 487.883 374.427C487.679 374.619 487.415 374.715 487.091 374.715ZM486.209 376.353H487.991V385.713H486.209V376.353ZM490.937 376.353H492.341C492.413 376.533 492.473 376.755 492.521 377.019C492.569 377.283 492.605 377.517 492.629 377.721C493.049 377.217 493.553 376.839 494.141 376.587C494.729 376.323 495.353 376.191 496.013 376.191H496.067C497.195 376.191 498.041 376.497 498.605 377.109C499.181 377.721 499.469 378.597 499.469 379.737V385.713H497.687V380.079C497.687 379.359 497.525 378.807 497.201 378.423C496.877 378.027 496.343 377.829 495.599 377.829H495.509C494.681 377.829 494.009 378.075 493.493 378.567C492.977 379.059 492.719 379.719 492.719 380.547V385.713H490.937V376.353ZM501.644 379.539C501.644 379.047 501.746 378.597 501.95 378.189C502.154 377.781 502.436 377.433 502.796 377.145C503.156 376.845 503.582 376.617 504.074 376.461C504.578 376.293 505.124 376.209 505.712 376.209H505.892C506.696 376.209 507.416 376.359 508.052 376.659C508.232 376.155 508.46 375.705 508.736 375.309H510.41L509.258 377.577C509.726 378.141 509.96 378.795 509.96 379.539V379.683C509.96 380.163 509.858 380.607 509.654 381.015C509.45 381.411 509.168 381.759 508.808 382.059C508.448 382.347 508.016 382.575 507.512 382.743C507.02 382.899 506.48 382.977 505.892 382.977H505.82C505.52 382.977 505.256 382.953 505.028 382.905V384.003C505.184 383.979 505.34 383.967 505.496 383.967C505.652 383.967 505.814 383.967 505.982 383.967H506.144C506.756 383.967 507.32 384.027 507.836 384.147C508.364 384.267 508.814 384.441 509.186 384.669C509.57 384.897 509.864 385.179 510.068 385.515C510.284 385.839 510.392 386.205 510.392 386.613V386.793C510.392 387.201 510.284 387.567 510.068 387.891C509.852 388.215 509.552 388.491 509.168 388.719C508.796 388.947 508.346 389.121 507.818 389.241C507.29 389.373 506.72 389.439 506.108 389.439H505.82C505.196 389.439 504.62 389.373 504.092 389.241C503.576 389.121 503.126 388.947 502.742 388.719C502.37 388.491 502.076 388.215 501.86 387.891C501.644 387.567 501.536 387.201 501.536 386.793V386.595C501.536 386.067 501.71 385.605 502.058 385.209C502.418 384.813 502.886 384.501 503.462 384.273V382.473C502.898 382.197 502.454 381.819 502.13 381.339C501.806 380.847 501.644 380.295 501.644 379.683V379.539ZM503.444 379.719C503.444 379.983 503.504 380.229 503.624 380.457C503.744 380.685 503.906 380.883 504.11 381.051C504.314 381.207 504.554 381.333 504.83 381.429C505.118 381.513 505.424 381.555 505.748 381.555H505.892C506.216 381.555 506.516 381.513 506.792 381.429C507.08 381.333 507.326 381.207 507.53 381.051C507.734 380.883 507.896 380.685 508.016 380.457C508.136 380.229 508.196 379.983 508.196 379.719V379.557C508.196 379.281 508.136 379.035 508.016 378.819C507.896 378.591 507.734 378.393 507.53 378.225C507.326 378.057 507.08 377.931 506.792 377.847C506.504 377.751 506.198 377.703 505.874 377.703H505.784C505.448 377.703 505.136 377.751 504.848 377.847C504.572 377.931 504.326 378.057 504.11 378.225C503.906 378.381 503.744 378.573 503.624 378.801C503.504 379.029 503.444 379.281 503.444 379.557V379.719ZM503.336 386.721C503.336 387.105 503.564 387.411 504.02 387.639C504.488 387.879 505.094 387.999 505.838 387.999H506.09C506.846 387.999 507.452 387.879 507.908 387.639C508.376 387.411 508.61 387.105 508.61 386.721V386.595C508.61 386.211 508.376 385.905 507.908 385.677C507.44 385.437 506.834 385.317 506.09 385.317H505.838C505.094 385.317 504.488 385.437 504.02 385.677C503.564 385.905 503.336 386.211 503.336 386.595V386.721ZM516.377 385.857C515.717 385.857 515.111 385.743 514.559 385.515C514.007 385.275 513.527 384.951 513.119 384.543C512.723 384.123 512.411 383.625 512.183 383.049C511.967 382.461 511.859 381.819 511.859 381.123V380.943C511.859 380.247 511.967 379.611 512.183 379.035C512.411 378.447 512.723 377.949 513.119 377.541C513.527 377.121 514.007 376.797 514.559 376.569C515.111 376.329 515.717 376.209 516.377 376.209H516.449C517.121 376.209 517.733 376.329 518.285 376.569C518.849 376.809 519.329 377.145 519.725 377.577V372.753H521.507V385.713H520.103C520.043 385.545 519.983 385.335 519.923 385.083C519.875 384.831 519.839 384.603 519.815 384.399C519.407 384.855 518.915 385.215 518.339 385.479C517.763 385.731 517.133 385.857 516.449 385.857H516.377ZM516.773 384.291C517.661 384.291 518.375 384.003 518.915 383.427C519.455 382.851 519.725 382.077 519.725 381.105V380.961C519.725 379.989 519.455 379.215 518.915 378.639C518.375 378.063 517.661 377.775 516.773 377.775H516.665C515.777 377.775 515.063 378.063 514.523 378.639C513.983 379.215 513.713 379.989 513.713 380.961V381.105C513.713 382.077 513.983 382.851 514.523 383.427C515.063 384.003 515.777 384.291 516.665 384.291H516.773ZM524.458 376.353H525.88C525.94 376.521 525.994 376.725 526.042 376.965C526.09 377.205 526.126 377.433 526.15 377.649C526.51 377.241 526.942 376.923 527.446 376.695C527.962 376.467 528.544 376.353 529.192 376.353H529.354V378.135C529.198 378.075 529.036 378.045 528.868 378.045C528.028 378.045 527.38 378.285 526.924 378.765C526.468 379.233 526.24 379.881 526.24 380.709V385.713H524.458V376.353ZM535.351 385.857C534.643 385.857 533.995 385.743 533.407 385.515C532.819 385.275 532.309 384.945 531.877 384.525C531.457 384.105 531.127 383.607 530.887 383.031C530.647 382.455 530.527 381.819 530.527 381.123V380.943C530.527 380.247 530.647 379.611 530.887 379.035C531.127 378.459 531.457 377.961 531.877 377.541C532.309 377.121 532.819 376.797 533.407 376.569C533.995 376.329 534.643 376.209 535.351 376.209H535.459C536.167 376.209 536.815 376.329 537.403 376.569C537.991 376.797 538.495 377.121 538.915 377.541C539.335 377.961 539.665 378.459 539.905 379.035C540.145 379.611 540.265 380.247 540.265 380.943V381.123C540.265 381.819 540.145 382.455 539.905 383.031C539.665 383.607 539.335 384.105 538.915 384.525C538.495 384.945 537.991 385.275 537.403 385.515C536.815 385.743 536.167 385.857 535.459 385.857H535.351ZM535.423 384.309C535.867 384.309 536.269 384.231 536.629 384.075C537.001 383.919 537.319 383.703 537.583 383.427C537.847 383.139 538.051 382.797 538.195 382.401C538.339 382.005 538.411 381.573 538.411 381.105V380.961C538.411 380.493 538.339 380.061 538.195 379.665C538.051 379.269 537.847 378.933 537.583 378.657C537.319 378.369 537.001 378.147 536.629 377.991C536.269 377.835 535.867 377.757 535.423 377.757H535.369C534.937 377.757 534.535 377.835 534.163 377.991C533.803 378.147 533.491 378.369 533.227 378.657C532.963 378.933 532.759 379.269 532.615 379.665C532.471 380.061 532.399 380.493 532.399 380.961V381.105C532.399 381.573 532.471 382.005 532.615 382.401C532.759 382.797 532.963 383.139 533.227 383.427C533.491 383.703 533.803 383.919 534.163 384.075C534.535 384.231 534.937 384.309 535.369 384.309H535.423ZM542.652 376.353H544.056C544.116 376.521 544.17 376.731 544.218 376.983C544.278 377.235 544.32 377.463 544.344 377.667C544.74 377.211 545.226 376.857 545.802 376.605C546.378 376.341 547.014 376.209 547.71 376.209H547.782C548.43 376.209 549.03 376.329 549.582 376.569C550.134 376.797 550.608 377.121 551.004 377.541C551.412 377.949 551.73 378.447 551.958 379.035C552.186 379.611 552.3 380.247 552.3 380.943V381.123C552.3 381.819 552.186 382.461 551.958 383.049C551.73 383.625 551.412 384.123 551.004 384.543C550.608 384.951 550.134 385.275 549.582 385.515C549.03 385.743 548.43 385.857 547.782 385.857H547.71C547.038 385.857 546.42 385.737 545.856 385.497C545.304 385.257 544.83 384.921 544.434 384.489V389.313H542.652V376.353ZM547.494 384.291C548.382 384.291 549.09 384.003 549.618 383.427C550.158 382.851 550.428 382.077 550.428 381.105V380.961C550.428 379.989 550.158 379.215 549.618 378.639C549.09 378.063 548.382 377.775 547.494 377.775H547.386C546.498 377.775 545.784 378.063 545.244 378.639C544.704 379.215 544.434 379.989 544.434 380.961V381.105C544.434 382.077 544.704 382.851 545.244 383.427C545.784 384.003 546.498 384.291 547.386 384.291H547.494ZM557.775 385.875C556.983 385.875 556.221 385.761 555.489 385.533C554.757 385.293 554.115 384.945 553.563 384.489L554.517 383.175C554.997 383.547 555.519 383.829 556.083 384.021C556.647 384.213 557.223 384.309 557.811 384.309C558.423 384.309 558.891 384.207 559.215 384.003C559.551 383.787 559.719 383.487 559.719 383.103C559.719 382.863 559.647 382.665 559.503 382.509C559.371 382.353 559.179 382.221 558.927 382.113C558.687 382.005 558.399 381.909 558.063 381.825C557.727 381.729 557.361 381.627 556.965 381.519C556.593 381.423 556.227 381.321 555.867 381.213C555.507 381.093 555.183 380.937 554.895 380.745C554.607 380.553 554.373 380.313 554.193 380.025C554.025 379.737 553.941 379.377 553.941 378.945C553.941 378.525 554.019 378.147 554.175 377.811C554.343 377.463 554.577 377.169 554.877 376.929C555.189 376.689 555.555 376.509 555.975 376.389C556.407 376.257 556.881 376.191 557.397 376.191C558.045 376.191 558.693 376.293 559.341 376.497C560.001 376.701 560.577 376.989 561.069 377.361L560.205 378.693C559.821 378.405 559.359 378.177 558.819 378.009C558.291 377.841 557.781 377.757 557.289 377.757C556.749 377.757 556.341 377.859 556.065 378.063C555.801 378.255 555.669 378.507 555.669 378.819C555.669 379.155 555.843 379.419 556.191 379.611C556.551 379.791 557.151 379.983 557.991 380.187C558.399 380.283 558.807 380.391 559.215 380.511C559.635 380.631 560.013 380.799 560.349 381.015C560.685 381.219 560.955 381.483 561.159 381.807C561.375 382.119 561.483 382.521 561.483 383.013C561.483 383.457 561.393 383.859 561.213 384.219C561.033 384.567 560.781 384.867 560.457 385.119C560.133 385.359 559.743 385.545 559.287 385.677C558.831 385.809 558.327 385.875 557.775 385.875Z" fill="#2B2B42"/>
<g opacity="0.46" filter="url(#filter3_f_10538_2922)">
<path d="M336.353 86.2399H122.469C98.7864 86.2399 79.588 105.438 79.588 129.12C79.588 152.802 98.7864 172 122.469 172H336.353C360.035 172 379.233 152.802 379.233 129.12C379.233 105.438 360.035 86.2399 336.353 86.2399Z" fill="black" fill-opacity="0.7"/>
</g>
<path d="M381.634 34.8189H78.2212C64.8435 34.8189 53.9988 45.6636 53.9988 59.0413V119.638C53.9988 133.016 64.8435 143.861 78.2212 143.861H381.634C395.012 143.861 405.857 133.016 405.857 119.638V59.0413C405.857 45.6636 395.012 34.8189 381.634 34.8189Z" fill="white"/>
<path d="M381.634 34.8189H78.2212C64.8435 34.8189 53.9988 45.6636 53.9988 59.0413V119.638C53.9988 133.016 64.8435 143.861 78.2212 143.861H381.634C395.012 143.861 405.857 133.016 405.857 119.638V59.0413C405.857 45.6636 395.012 34.8189 381.634 34.8189Z" fill="url(#paint6_linear_10538_2922)"/>
<path d="M381.634 34.8189H78.2212C64.8435 34.8189 53.9988 45.6636 53.9988 59.0413V119.638C53.9988 133.016 64.8435 143.861 78.2212 143.861H381.634C395.012 143.861 405.857 133.016 405.857 119.638V59.0413C405.857 45.6636 395.012 34.8189 381.634 34.8189Z" stroke="url(#paint7_linear_10538_2922)" stroke-width="1.8"/>
<g filter="url(#filter4_dddddd_10538_2922)">
<path d="M259.878 58.3417H189.617C185.337 58.3417 181.868 61.8114 181.868 66.0914C181.868 70.3715 185.337 73.8412 189.617 73.8412H259.878C264.158 73.8412 267.628 70.3715 267.628 66.0914C267.628 61.8114 264.158 58.3417 259.878 58.3417Z" fill="url(#paint8_linear_10538_2922)"/>
</g>
<g filter="url(#filter5_dddddd_10538_2922)">
<path d="M352.355 86.2399H188.068C184.643 86.2399 181.868 89.0154 181.868 92.4392C181.868 95.8631 184.643 98.6386 188.068 98.6386H352.355C355.779 98.6386 358.555 95.8631 358.555 92.4392C358.555 89.0154 355.779 86.2399 352.355 86.2399Z" fill="url(#paint9_linear_10538_2922)"/>
</g>
<g filter="url(#filter6_dddddd_10538_2922)">
<path d="M352.355 107.938H188.068C184.643 107.938 181.868 110.714 181.868 114.138C181.868 117.561 184.643 120.337 188.068 120.337H352.355C355.779 120.337 358.555 117.561 358.555 114.138C358.555 110.714 355.779 107.938 352.355 107.938Z" fill="url(#paint10_linear_10538_2922)"/>
</g>
<mask id="mask0_10538_2922" style="mask-type:luminance" maskUnits="userSpaceOnUse" x="53" y="36" width="355" height="110">
<path d="M401.463 36.0826H58.6661C55.5368 36.0826 53 38.6194 53 41.7486V139.488C53 142.617 55.5368 145.154 58.6661 145.154H401.463C404.592 145.154 407.129 142.617 407.129 139.488V41.7486C407.129 38.6194 404.592 36.0826 401.463 36.0826Z" fill="white"/>
</mask>
<g mask="url(#mask0_10538_2922)">
<g filter="url(#filter7_ddddd_10538_2922)">
<path d="M118.606 125.428C138.054 125.428 153.819 109.662 153.819 90.2147C153.819 70.767 138.054 55.0015 118.606 55.0015C99.1582 55.0015 83.3928 70.767 83.3928 90.2147C83.3928 109.662 99.1582 125.428 118.606 125.428Z" fill="#005BD1"/>
<path d="M118.606 125.428C138.054 125.428 153.819 109.662 153.819 90.2147C153.819 70.767 138.054 55.0015 118.606 55.0015C99.1582 55.0015 83.3928 70.767 83.3928 90.2147C83.3928 109.662 99.1582 125.428 118.606 125.428Z" fill="url(#paint11_linear_10538_2922)"/>
</g>
<g filter="url(#filter8_i_10538_2922)">
<path d="M96.8397 111.96C98.7449 104.625 105.251 99.211 112.981 99.1897V96.1442C109.669 94.1526 107.442 90.4597 107.442 86.2343V77.5581C107.442 71.2263 112.445 66.0844 118.609 66.0844C124.77 66.0844 129.774 71.2263 129.774 77.5581V86.2357C129.774 90.4611 127.547 94.154 124.235 96.1456V99.1911C132.216 99.2138 138.89 104.98 140.546 112.676C134.632 117.928 126.994 120.824 119.085 120.813C110.809 120.824 102.845 117.654 96.8397 111.96Z" fill="url(#paint12_linear_10538_2922)"/>
</g>
</g>
<g opacity="0.48" filter="url(#filter9_ddddddd_10538_2922)">
<path fill-rule="evenodd" clip-rule="evenodd" d="M378.699 33.2368C378.699 32.1131 378.253 31.0355 377.458 30.2409C376.664 29.4464 375.586 29 374.462 29H359.116C357.992 29 356.915 29.4464 356.12 30.2409C355.326 31.0355 354.879 32.1131 354.879 33.2368V60.0656C354.879 60.5187 355.009 60.9625 355.252 61.3447C355.495 61.727 355.843 62.0319 356.253 62.2237C356.664 62.4156 357.12 62.4863 357.57 62.4277C358.019 62.3691 358.442 62.1836 358.79 61.8929C361.289 59.805 364.332 57.2581 365.843 55.9931C366.108 55.7712 366.443 55.6496 366.789 55.6496C367.134 55.6496 367.469 55.7712 367.734 55.9931L374.787 61.8943C375.135 62.1848 375.558 62.3702 376.007 62.4288C376.457 62.4873 376.913 62.4165 377.324 62.2247C377.735 62.033 378.082 61.7281 378.326 61.346C378.569 60.9638 378.699 60.5202 378.699 60.067V33.2354V33.2368Z" fill="#FB3636"/>
</g>
<path fill-rule="evenodd" clip-rule="evenodd" d="M378.699 32.2438C378.699 29.9037 377.796 29 375.455 29H358.122C355.781 29 354.879 29.9037 354.879 32.2438V60.067C354.879 60.5202 355.009 60.9639 355.252 61.3462C355.495 61.7284 355.843 62.0333 356.253 62.2252C356.664 62.417 357.12 62.4877 357.57 62.4291C358.019 62.3705 358.442 62.185 358.79 61.8943L365.843 55.9931C366.108 55.7712 366.443 55.6496 366.789 55.6496C367.134 55.6496 367.469 55.7712 367.734 55.9931L374.787 61.8943C375.135 62.1848 375.558 62.3702 376.007 62.4288C376.457 62.4873 376.913 62.4165 377.324 62.2247C377.735 62.033 378.082 61.7281 378.326 61.346C378.569 60.9638 378.699 60.5202 378.699 60.067V32.2438Z" fill="#FB3636"/>
<path fill-rule="evenodd" clip-rule="evenodd" d="M378.699 32.2438C378.699 29.9037 377.796 29 375.455 29H358.122C355.781 29 354.879 29.9037 354.879 32.2438V60.067C354.879 60.5202 355.009 60.9639 355.252 61.3462C355.495 61.7284 355.843 62.0333 356.253 62.2252C356.664 62.417 357.12 62.4877 357.57 62.4291C358.019 62.3705 358.442 62.185 358.79 61.8943L365.843 55.9931C366.108 55.7712 366.443 55.6496 366.789 55.6496C367.134 55.6496 367.469 55.7712 367.734 55.9931L374.787 61.8943C375.135 62.1848 375.558 62.3702 376.007 62.4288C376.457 62.4873 376.913 62.4165 377.324 62.2247C377.735 62.033 378.082 61.7281 378.326 61.346C378.569 60.9638 378.699 60.5202 378.699 60.067V32.2438Z" fill="url(#paint13_linear_10538_2922)"/>
<g style="mix-blend-mode:multiply" filter="url(#filter10_f_10538_2922)">
<path d="M163.932 464.447C180.144 464.447 193.287 448.938 193.287 429.808C193.287 410.677 180.144 395.168 163.932 395.168C147.72 395.168 134.577 410.677 134.577 429.808C134.577 448.938 147.72 464.447 163.932 464.447Z" fill="#FF6B00"/>
</g>
<g filter="url(#filter11_f_10538_2922)">
<path d="M193.289 413.841C193.289 431.023 180.145 444.952 163.932 444.952C147.721 444.952 134.577 431.023 134.577 413.841C134.577 396.658 147.721 413.841 163.932 413.841C180.145 413.841 193.289 396.658 193.289 413.841Z" fill="#A65A00" fill-opacity="0.68"/>
</g>
<path d="M163.5 434.713C191.943 434.713 215 411.656 215 383.213C215 354.77 191.943 331.713 163.5 331.713C135.057 331.713 112 354.77 112 383.213C112 411.656 135.057 434.713 163.5 434.713Z" fill="url(#paint14_linear_10538_2922)"/>
<path d="M214.5 383.213C214.5 411.379 191.667 434.213 163.5 434.213C135.333 434.213 112.5 411.379 112.5 383.213C112.5 355.046 135.333 332.213 163.5 332.213C191.667 332.213 214.5 355.046 214.5 383.213Z" stroke="url(#paint15_linear_10538_2922)" stroke-opacity="0.6"/>
<g filter="url(#filter12_ii_10538_2922)">
<path d="M132 413.22C134.746 402.633 144.124 394.818 155.266 394.787V390.391C150.493 387.516 147.283 382.186 147.283 376.086V363.562C147.283 354.422 154.495 347 163.379 347C172.26 347 179.472 354.422 179.472 363.562V376.088C179.472 382.188 176.262 387.518 171.489 390.393V394.789C182.992 394.822 192.613 403.146 195 414.255C186.475 421.836 175.466 426.016 164.065 426C152.136 426.017 140.656 421.44 132 413.22Z" fill="white"/>
<path d="M132 413.22C134.746 402.633 144.124 394.818 155.266 394.787V390.391C150.493 387.516 147.283 382.186 147.283 376.086V363.562C147.283 354.422 154.495 347 163.379 347C172.26 347 179.472 354.422 179.472 363.562V376.088C179.472 382.188 176.262 387.518 171.489 390.393V394.789C182.992 394.822 192.613 403.146 195 414.255C186.475 421.836 175.466 426.016 164.065 426C152.136 426.017 140.656 421.44 132 413.22Z" fill="#FFDE89"/>
<path d="M132 413.22C134.746 402.633 144.124 394.818 155.266 394.787V390.391C150.493 387.516 147.283 382.186 147.283 376.086V363.562C147.283 354.422 154.495 347 163.379 347C172.26 347 179.472 354.422 179.472 363.562V376.088C179.472 382.188 176.262 387.518 171.489 390.393V394.789C182.992 394.822 192.613 403.146 195 414.255C186.475 421.836 175.466 426.016 164.065 426C152.136 426.017 140.656 421.44 132 413.22Z" fill="url(#paint16_linear_10538_2922)" fill-opacity="0.3"/>
</g>
<g opacity="0.5" filter="url(#filter13_f_10538_2922)">
<path d="M266.231 154.191H184.6C175.984 154.191 169 161.176 169 169.792V169.792C169 178.408 175.984 185.392 184.6 185.392H266.231C274.847 185.392 281.831 178.408 281.831 169.792V169.792C281.831 161.176 274.847 154.191 266.231 154.191Z" fill="#FF0000"/>
</g>
<g opacity="0.5" filter="url(#filter14_f_10538_2922)">
<path d="M258.114 144.265H191.931C182.728 144.265 175.267 151.726 175.267 160.929C175.267 170.132 182.728 177.593 191.931 177.593H258.114C267.317 177.593 274.778 170.132 274.778 160.929C274.778 151.726 267.317 144.265 258.114 144.265Z" fill="#9C0000"/>
</g>
<rect x="160" y="132.287" width="130" height="45" rx="16" fill="url(#paint17_linear_10538_2922)"/>
<rect x="160.5" y="132.787" width="129" height="44" rx="15.5" stroke="url(#paint18_linear_10538_2922)" stroke-opacity="0.6"/>
<path d="M189.544 161.485C188.608 161.485 187.708 161.341 186.844 161.053C185.98 160.765 185.218 160.315 184.558 159.703L185.764 157.831C186.292 158.335 186.904 158.713 187.6 158.965C188.296 159.205 188.98 159.325 189.652 159.325C190.336 159.325 190.87 159.193 191.254 158.929C191.65 158.665 191.848 158.305 191.848 157.849C191.848 157.561 191.77 157.321 191.614 157.129C191.47 156.937 191.272 156.769 191.02 156.625C190.768 156.481 190.474 156.355 190.138 156.247C189.814 156.139 189.472 156.031 189.112 155.923C188.608 155.779 188.098 155.617 187.582 155.437C187.078 155.257 186.622 155.023 186.214 154.735C185.818 154.447 185.488 154.093 185.224 153.673C184.972 153.241 184.846 152.713 184.846 152.089C184.846 151.489 184.96 150.967 185.188 150.523C185.428 150.067 185.746 149.689 186.142 149.389C186.538 149.077 186.994 148.849 187.51 148.705C188.026 148.549 188.56 148.471 189.112 148.471C190.012 148.471 190.852 148.609 191.632 148.885C192.412 149.149 193.102 149.533 193.702 150.037L192.46 151.891C192.016 151.471 191.488 151.159 190.876 150.955C190.264 150.751 189.682 150.649 189.13 150.649C188.518 150.649 188.032 150.775 187.672 151.027C187.324 151.279 187.15 151.621 187.15 152.053C187.15 152.305 187.222 152.521 187.366 152.701C187.51 152.881 187.702 153.043 187.942 153.187C188.194 153.319 188.482 153.439 188.806 153.547C189.142 153.643 189.496 153.745 189.868 153.853C190.396 153.997 190.918 154.165 191.434 154.357C191.962 154.537 192.43 154.777 192.838 155.077C193.258 155.365 193.594 155.725 193.846 156.157C194.11 156.577 194.242 157.099 194.242 157.723C194.242 158.335 194.116 158.875 193.864 159.343C193.624 159.811 193.288 160.207 192.856 160.531C192.436 160.843 191.938 161.083 191.362 161.251C190.798 161.407 190.192 161.485 189.544 161.485ZM199.221 148.687H202.317L206.745 161.287H204.225L203.253 158.317H198.285L197.313 161.287H194.775L199.221 148.687ZM202.641 156.373L200.841 151.045H200.697L198.879 156.373H202.641ZM208.241 148.687H210.599V159.199H215.801V161.287H208.241V148.687ZM217.944 148.687H225.72V150.775H220.302V153.925H225.36V155.905H220.302V159.199H225.9V161.287H217.944V148.687ZM237.306 148.687V161.287H235.056V152.467C234.672 152.779 234.228 153.019 233.724 153.187C233.232 153.355 232.698 153.439 232.122 153.439V151.585C232.578 151.561 232.992 151.477 233.364 151.333C233.736 151.177 234.054 150.973 234.318 150.721C234.594 150.469 234.804 150.169 234.948 149.821C235.104 149.473 235.182 149.095 235.182 148.687H237.306ZM244.818 161.485C244.026 161.485 243.312 161.335 242.676 161.035C242.052 160.723 241.512 160.285 241.056 159.721C240.612 159.157 240.27 158.479 240.03 157.687C239.79 156.883 239.67 155.983 239.67 154.987C239.67 153.991 239.79 153.097 240.03 152.305C240.27 151.501 240.612 150.817 241.056 150.253C241.512 149.689 242.052 149.257 242.676 148.957C243.312 148.645 244.026 148.489 244.818 148.489C245.61 148.489 246.318 148.645 246.942 148.957C247.578 149.257 248.118 149.689 248.562 150.253C249.018 150.817 249.366 151.501 249.606 152.305C249.846 153.097 249.966 153.991 249.966 154.987C249.966 155.983 249.846 156.883 249.606 157.687C249.366 158.479 249.018 159.157 248.562 159.721C248.118 160.285 247.578 160.723 246.942 161.035C246.318 161.335 245.61 161.485 244.818 161.485ZM244.818 159.397C245.718 159.397 246.408 159.019 246.888 158.263C247.38 157.495 247.626 156.403 247.626 154.987C247.626 153.571 247.38 152.485 246.888 151.729C246.408 150.961 245.718 150.577 244.818 150.577C243.918 150.577 243.222 150.961 242.73 151.729C242.238 152.485 241.992 153.571 241.992 154.987C241.992 156.403 242.238 157.495 242.73 158.263C243.222 159.019 243.918 159.397 244.818 159.397ZM254.291 155.239C253.859 155.239 253.463 155.161 253.103 155.005C252.743 154.837 252.437 154.609 252.185 154.321C251.933 154.033 251.735 153.691 251.591 153.295C251.447 152.899 251.375 152.473 251.375 152.017V151.765C251.375 151.297 251.447 150.871 251.591 150.487C251.735 150.091 251.933 149.749 252.185 149.461C252.437 149.173 252.743 148.951 253.103 148.795C253.463 148.627 253.859 148.543 254.291 148.543H254.525C254.957 148.543 255.353 148.627 255.713 148.795C256.073 148.951 256.379 149.173 256.631 149.461C256.895 149.749 257.099 150.091 257.243 150.487C257.387 150.871 257.459 151.297 257.459 151.765V152.017C257.459 152.473 257.387 152.899 257.243 153.295C257.099 153.691 256.895 154.033 256.631 154.321C256.379 154.609 256.073 154.837 255.713 155.005C255.353 155.161 254.957 155.239 254.525 155.239H254.291ZM261.905 148.633H264.389L254.525 161.287H252.041L261.905 148.633ZM254.435 153.511C254.795 153.511 255.089 153.361 255.317 153.061C255.545 152.761 255.659 152.389 255.659 151.945V151.837C255.659 151.381 255.545 151.009 255.317 150.721C255.089 150.421 254.795 150.271 254.435 150.271H254.381C254.021 150.271 253.727 150.421 253.499 150.721C253.271 151.009 253.157 151.381 253.157 151.837V151.945C253.157 152.389 253.271 152.761 253.499 153.061C253.727 153.361 254.021 153.511 254.381 153.511H254.435ZM261.887 161.431C261.455 161.431 261.059 161.353 260.699 161.197C260.339 161.029 260.027 160.801 259.763 160.513C259.511 160.225 259.313 159.889 259.169 159.505C259.025 159.109 258.953 158.677 258.953 158.209V157.957C258.953 157.501 259.025 157.075 259.169 156.679C259.313 156.283 259.511 155.941 259.763 155.653C260.027 155.365 260.339 155.143 260.699 154.987C261.059 154.819 261.455 154.735 261.887 154.735H262.103C262.535 154.735 262.931 154.819 263.291 154.987C263.651 155.143 263.957 155.365 264.209 155.653C264.473 155.941 264.677 156.283 264.821 156.679C264.965 157.075 265.037 157.501 265.037 157.957V158.209C265.037 158.677 264.965 159.109 264.821 159.505C264.677 159.889 264.473 160.225 264.209 160.513C263.957 160.801 263.651 161.029 263.291 161.197C262.931 161.353 262.535 161.431 262.103 161.431H261.887ZM262.031 159.703C262.391 159.703 262.679 159.559 262.895 159.271C263.123 158.971 263.237 158.593 263.237 158.137V158.029C263.237 157.585 263.123 157.213 262.895 156.913C262.679 156.613 262.391 156.463 262.031 156.463H261.959C261.599 156.463 261.305 156.613 261.077 156.913C260.861 157.213 260.753 157.585 260.753 158.029V158.137C260.753 158.593 260.861 158.971 261.077 159.271C261.305 159.559 261.599 159.703 261.959 159.703H262.031Z" fill="#F0F0F0"/>
<g style="mix-blend-mode:multiply" filter="url(#filter15_f_10538_2922)">
<path d="M425.789 306.539C436.65 306.539 445.454 296.15 445.454 283.334C445.454 270.519 436.65 260.129 425.789 260.129C414.929 260.129 406.124 270.519 406.124 283.334C406.124 296.15 414.929 306.539 425.789 306.539Z" fill="#0BA248"/>
</g>
<g filter="url(#filter16_f_10538_2922)">
<path d="M445.331 272.829C445.331 284.339 436.526 293.67 425.665 293.67C414.805 293.67 406 284.339 406 272.829C406 261.318 414.805 272.829 425.665 272.829C436.526 272.829 445.331 261.318 445.331 272.829Z" fill="#229E54" fill-opacity="0.68"/>
</g>
<path d="M425.5 286.713C444.554 286.713 460 271.267 460 252.213C460 233.159 444.554 217.713 425.5 217.713C406.446 217.713 391 233.159 391 252.213C391 271.267 406.446 286.713 425.5 286.713Z" fill="url(#paint19_linear_10538_2922)"/>
<path d="M459.5 252.213C459.5 270.991 444.278 286.213 425.5 286.213C406.722 286.213 391.5 270.991 391.5 252.213C391.5 233.435 406.722 218.213 425.5 218.213C444.278 218.213 459.5 233.435 459.5 252.213Z" stroke="url(#paint20_linear_10538_2922)" stroke-opacity="0.6"/>
<g filter="url(#filter17_ii_10538_2922)">
<path d="M404 271.875C405.905 264.541 412.411 259.127 420.141 259.105V256.06C416.829 254.068 414.603 250.375 414.603 246.15V237.474C414.603 231.142 419.606 226 425.769 226C431.931 226 436.934 231.142 436.934 237.474V246.151C436.934 250.377 434.707 254.07 431.395 256.061V259.107C439.376 259.129 446.051 264.896 447.707 272.592C441.792 277.844 434.154 280.74 426.245 280.728C417.969 280.74 410.005 277.57 404 271.875Z" fill="white"/>
<path d="M404 271.875C405.905 264.541 412.411 259.127 420.141 259.105V256.06C416.829 254.068 414.603 250.375 414.603 246.15V237.474C414.603 231.142 419.606 226 425.769 226C431.931 226 436.934 231.142 436.934 237.474V246.151C436.934 250.377 434.707 254.07 431.395 256.061V259.107C439.376 259.129 446.051 264.896 447.707 272.592C441.792 277.844 434.154 280.74 426.245 280.728C417.969 280.74 410.005 277.57 404 271.875Z" fill="#AAFACA"/>
<path d="M404 271.875C405.905 264.541 412.411 259.127 420.141 259.105V256.06C416.829 254.068 414.603 250.375 414.603 246.15V237.474C414.603 231.142 419.606 226 425.769 226C431.931 226 436.934 231.142 436.934 237.474V246.151C436.934 250.377 434.707 254.07 431.395 256.061V259.107C439.376 259.129 446.051 264.896 447.707 272.592C441.792 277.844 434.154 280.74 426.245 280.728C417.969 280.74 410.005 277.57 404 271.875Z" fill="url(#paint21_linear_10538_2922)" fill-opacity="0.3"/>
</g>
</g>
<defs>
<filter id="filter0_ddddd_10538_2922" x="-6.73224" y="3.62183" width="624.026" height="651.378" filterUnits="userSpaceOnUse" color-interpolation-filters="sRGB">
<feFlood flood-opacity="0" result="BackgroundImageFix"/>
<feColorMatrix in="SourceAlpha" type="matrix" values="0 0 0 0 0 0 0 0 0 0 0 0 0 0 0 0 0 0 127 0" result="hardAlpha"/>
<feOffset dy="3.435"/>
<feGaussianBlur stdDeviation="1.374"/>
<feColorMatrix type="matrix" values="0 0 0 0 0.0784314 0 0 0 0 0.0784314 0 0 0 0 0.0784314 0 0 0 0.108506 0"/>
<feBlend mode="normal" in2="BackgroundImageFix" result="effect1_dropShadow_10538_2922"/>
<feColorMatrix in="SourceAlpha" type="matrix" values="0 0 0 0 0 0 0 0 0 0 0 0 0 0 0 0 0 0 127 0" result="hardAlpha"/>
<feOffset dy="8.687"/>
<feGaussianBlur stdDeviation="3.475"/>
<feColorMatrix type="matrix" values="0 0 0 0 0.0784314 0 0 0 0 0.0784314 0 0 0 0 0.0784314 0 0 0 0.05 0"/>
<feBlend mode="normal" in2="effect1_dropShadow_10538_2922" result="effect2_dropShadow_10538_2922"/>
<feColorMatrix in="SourceAlpha" type="matrix" values="0 0 0 0 0 0 0 0 0 0 0 0 0 0 0 0 0 0 127 0" result="hardAlpha"/>
<feOffset dx="3" dy="17.721"/>
<feGaussianBlur stdDeviation="7.088"/>
<feColorMatrix type="matrix" values="0 0 0 0 0.0784314 0 0 0 0 0.0784314 0 0 0 0 0.0784314 0 0 0 0.08 0"/>
<feBlend mode="normal" in2="effect2_dropShadow_10538_2922" result="effect3_dropShadow_10538_2922"/>
<feColorMatrix in="SourceAlpha" type="matrix" values="0 0 0 0 0 0 0 0 0 0 0 0 0 0 0 0 0 0 127 0" result="hardAlpha"/>
<feOffset dy="36.502"/>
<feGaussianBlur stdDeviation="14.601"/>
<feColorMatrix type="matrix" values="0 0 0 0 0.0784314 0 0 0 0 0.0784314 0 0 0 0 0.0784314 0 0 0 0.17 0"/>
<feBlend mode="normal" in2="effect3_dropShadow_10538_2922" result="effect4_dropShadow_10538_2922"/>
<feColorMatrix in="SourceAlpha" type="matrix" values="0 0 0 0 0 0 0 0 0 0 0 0 0 0 0 0 0 0 127 0" result="hardAlpha"/>
<feOffset dy="100"/>
<feGaussianBlur stdDeviation="40"/>
<feColorMatrix type="matrix" values="0 0 0 0 0.0784314 0 0 0 0 0.0784314 0 0 0 0 0.0784314 0 0 0 0.07 0"/>
<feBlend mode="normal" in2="effect4_dropShadow_10538_2922" result="effect5_dropShadow_10538_2922"/>
<feBlend mode="normal" in="SourceGraphic" in2="effect5_dropShadow_10538_2922" result="shape"/>
</filter>
<filter id="filter1_f_10538_2922" x="413" y="334.617" width="206.831" height="125.201" filterUnits="userSpaceOnUse" color-interpolation-filters="sRGB">
<feFlood flood-opacity="0" result="BackgroundImageFix"/>
<feBlend mode="normal" in="SourceGraphic" in2="BackgroundImageFix" result="shape"/>
<feGaussianBlur stdDeviation="23.5" result="effect1_foregroundBlur_10538_2922"/>
</filter>
<filter id="filter2_f_10538_2922" x="446.267" y="351.691" width="139.511" height="73.3281" filterUnits="userSpaceOnUse" color-interpolation-filters="sRGB">
<feFlood flood-opacity="0" result="BackgroundImageFix"/>
<feBlend mode="normal" in="SourceGraphic" in2="BackgroundImageFix" result="shape"/>
<feGaussianBlur stdDeviation="10" result="effect1_foregroundBlur_10538_2922"/>
</filter>
<filter id="filter3_f_10538_2922" x="30.588" y="37.2399" width="397.645" height="183.76" filterUnits="userSpaceOnUse" color-interpolation-filters="sRGB">
<feFlood flood-opacity="0" result="BackgroundImageFix"/>
<feBlend mode="normal" in="SourceGraphic" in2="BackgroundImageFix" result="shape"/>
<feGaussianBlur stdDeviation="24.5" result="effect1_foregroundBlur_10538_2922"/>
</filter>
<filter id="filter4_dddddd_10538_2922" x="163.868" y="58.3407" width="121.76" height="51.5005" filterUnits="userSpaceOnUse" color-interpolation-filters="sRGB">
<feFlood flood-opacity="0" result="BackgroundImageFix"/>
<feColorMatrix in="SourceAlpha" type="matrix" values="0 0 0 0 0 0 0 0 0 0 0 0 0 0 0 0 0 0 127 0" result="hardAlpha"/>
<feOffset dy="0.498"/>
<feGaussianBlur stdDeviation="0.249"/>
<feColorMatrix type="matrix" values="0 0 0 0 0 0 0 0 0 0 0 0 0 0 0 0 0 0 0.0702864 0"/>
<feBlend mode="normal" in2="BackgroundImageFix" result="effect1_dropShadow_10538_2922"/>
<feColorMatrix in="SourceAlpha" type="matrix" values="0 0 0 0 0 0 0 0 0 0 0 0 0 0 0 0 0 0 127 0" result="hardAlpha"/>
<feOffset dy="1.197"/>
<feGaussianBlur stdDeviation="0.599"/>
<feColorMatrix type="matrix" values="0 0 0 0 0 0 0 0 0 0 0 0 0 0 0 0 0 0 0.100973 0"/>
<feBlend mode="normal" in2="effect1_dropShadow_10538_2922" result="effect2_dropShadow_10538_2922"/>
<feColorMatrix in="SourceAlpha" type="matrix" values="0 0 0 0 0 0 0 0 0 0 0 0 0 0 0 0 0 0 127 0" result="hardAlpha"/>
<feOffset dy="2.254"/>
<feGaussianBlur stdDeviation="1.127"/>
<feColorMatrix type="matrix" values="0 0 0 0 0 0 0 0 0 0 0 0 0 0 0 0 0 0 0.125 0"/>
<feBlend mode="normal" in2="effect2_dropShadow_10538_2922" result="effect3_dropShadow_10538_2922"/>
<feColorMatrix in="SourceAlpha" type="matrix" values="0 0 0 0 0 0 0 0 0 0 0 0 0 0 0 0 0 0 127 0" result="hardAlpha"/>
<feOffset dy="4.021"/>
<feGaussianBlur stdDeviation="2.01"/>
<feColorMatrix type="matrix" values="0 0 0 0 0 0 0 0 0 0 0 0 0 0 0 0 0 0 0.149027 0"/>
<feBlend mode="normal" in2="effect3_dropShadow_10538_2922" result="effect4_dropShadow_10538_2922"/>
<feColorMatrix in="SourceAlpha" type="matrix" values="0 0 0 0 0 0 0 0 0 0 0 0 0 0 0 0 0 0 127 0" result="hardAlpha"/>
<feOffset dy="7.52"/>
<feGaussianBlur stdDeviation="3.76"/>
<feColorMatrix type="matrix" values="0 0 0 0 0 0 0 0 0 0 0 0 0 0 0 0 0 0 0.179714 0"/>
<feBlend mode="normal" in2="effect4_dropShadow_10538_2922" result="effect5_dropShadow_10538_2922"/>
<feColorMatrix in="SourceAlpha" type="matrix" values="0 0 0 0 0 0 0 0 0 0 0 0 0 0 0 0 0 0 127 0" result="hardAlpha"/>
<feOffset dy="18"/>
<feGaussianBlur stdDeviation="9"/>
<feColorMatrix type="matrix" values="0 0 0 0 0 0 0 0 0 0 0 0 0 0 0 0 0 0 0.25 0"/>
<feBlend mode="normal" in2="effect5_dropShadow_10538_2922" result="effect6_dropShadow_10538_2922"/>
<feBlend mode="normal" in="SourceGraphic" in2="effect6_dropShadow_10538_2922" result="shape"/>
</filter>
<filter id="filter5_dddddd_10538_2922" x="163.868" y="86.2389" width="212.688" height="48.3997" filterUnits="userSpaceOnUse" color-interpolation-filters="sRGB">
<feFlood flood-opacity="0" result="BackgroundImageFix"/>
<feColorMatrix in="SourceAlpha" type="matrix" values="0 0 0 0 0 0 0 0 0 0 0 0 0 0 0 0 0 0 127 0" result="hardAlpha"/>
<feOffset dy="0.498"/>
<feGaussianBlur stdDeviation="0.249"/>
<feColorMatrix type="matrix" values="0 0 0 0 0 0 0 0 0 0 0 0 0 0 0 0 0 0 0.0702864 0"/>
<feBlend mode="normal" in2="BackgroundImageFix" result="effect1_dropShadow_10538_2922"/>
<feColorMatrix in="SourceAlpha" type="matrix" values="0 0 0 0 0 0 0 0 0 0 0 0 0 0 0 0 0 0 127 0" result="hardAlpha"/>
<feOffset dy="1.197"/>
<feGaussianBlur stdDeviation="0.599"/>
<feColorMatrix type="matrix" values="0 0 0 0 0 0 0 0 0 0 0 0 0 0 0 0 0 0 0.100973 0"/>
<feBlend mode="normal" in2="effect1_dropShadow_10538_2922" result="effect2_dropShadow_10538_2922"/>
<feColorMatrix in="SourceAlpha" type="matrix" values="0 0 0 0 0 0 0 0 0 0 0 0 0 0 0 0 0 0 127 0" result="hardAlpha"/>
<feOffset dy="2.254"/>
<feGaussianBlur stdDeviation="1.127"/>
<feColorMatrix type="matrix" values="0 0 0 0 0 0 0 0 0 0 0 0 0 0 0 0 0 0 0.125 0"/>
<feBlend mode="normal" in2="effect2_dropShadow_10538_2922" result="effect3_dropShadow_10538_2922"/>
<feColorMatrix in="SourceAlpha" type="matrix" values="0 0 0 0 0 0 0 0 0 0 0 0 0 0 0 0 0 0 127 0" result="hardAlpha"/>
<feOffset dy="4.021"/>
<feGaussianBlur stdDeviation="2.01"/>
<feColorMatrix type="matrix" values="0 0 0 0 0 0 0 0 0 0 0 0 0 0 0 0 0 0 0.149027 0"/>
<feBlend mode="normal" in2="effect3_dropShadow_10538_2922" result="effect4_dropShadow_10538_2922"/>
<feColorMatrix in="SourceAlpha" type="matrix" values="0 0 0 0 0 0 0 0 0 0 0 0 0 0 0 0 0 0 127 0" result="hardAlpha"/>
<feOffset dy="7.52"/>
<feGaussianBlur stdDeviation="3.76"/>
<feColorMatrix type="matrix" values="0 0 0 0 0 0 0 0 0 0 0 0 0 0 0 0 0 0 0.179714 0"/>
<feBlend mode="normal" in2="effect4_dropShadow_10538_2922" result="effect5_dropShadow_10538_2922"/>
<feColorMatrix in="SourceAlpha" type="matrix" values="0 0 0 0 0 0 0 0 0 0 0 0 0 0 0 0 0 0 127 0" result="hardAlpha"/>
<feOffset dy="18"/>
<feGaussianBlur stdDeviation="9"/>
<feColorMatrix type="matrix" values="0 0 0 0 0 0 0 0 0 0 0 0 0 0 0 0 0 0 0.25 0"/>
<feBlend mode="normal" in2="effect5_dropShadow_10538_2922" result="effect6_dropShadow_10538_2922"/>
<feBlend mode="normal" in="SourceGraphic" in2="effect6_dropShadow_10538_2922" result="shape"/>
</filter>
<filter id="filter6_dddddd_10538_2922" x="163.868" y="107.937" width="212.688" height="48.3997" filterUnits="userSpaceOnUse" color-interpolation-filters="sRGB">
<feFlood flood-opacity="0" result="BackgroundImageFix"/>
<feColorMatrix in="SourceAlpha" type="matrix" values="0 0 0 0 0 0 0 0 0 0 0 0 0 0 0 0 0 0 127 0" result="hardAlpha"/>
<feOffset dy="0.498"/>
<feGaussianBlur stdDeviation="0.249"/>
<feColorMatrix type="matrix" values="0 0 0 0 0 0 0 0 0 0 0 0 0 0 0 0 0 0 0.0702864 0"/>
<feBlend mode="normal" in2="BackgroundImageFix" result="effect1_dropShadow_10538_2922"/>
<feColorMatrix in="SourceAlpha" type="matrix" values="0 0 0 0 0 0 0 0 0 0 0 0 0 0 0 0 0 0 127 0" result="hardAlpha"/>
<feOffset dy="1.197"/>
<feGaussianBlur stdDeviation="0.599"/>
<feColorMatrix type="matrix" values="0 0 0 0 0 0 0 0 0 0 0 0 0 0 0 0 0 0 0.100973 0"/>
<feBlend mode="normal" in2="effect1_dropShadow_10538_2922" result="effect2_dropShadow_10538_2922"/>
<feColorMatrix in="SourceAlpha" type="matrix" values="0 0 0 0 0 0 0 0 0 0 0 0 0 0 0 0 0 0 127 0" result="hardAlpha"/>
<feOffset dy="2.254"/>
<feGaussianBlur stdDeviation="1.127"/>
<feColorMatrix type="matrix" values="0 0 0 0 0 0 0 0 0 0 0 0 0 0 0 0 0 0 0.125 0"/>
<feBlend mode="normal" in2="effect2_dropShadow_10538_2922" result="effect3_dropShadow_10538_2922"/>
<feColorMatrix in="SourceAlpha" type="matrix" values="0 0 0 0 0 0 0 0 0 0 0 0 0 0 0 0 0 0 127 0" result="hardAlpha"/>
<feOffset dy="4.021"/>
<feGaussianBlur stdDeviation="2.01"/>
<feColorMatrix type="matrix" values="0 0 0 0 0 0 0 0 0 0 0 0 0 0 0 0 0 0 0.149027 0"/>
<feBlend mode="normal" in2="effect3_dropShadow_10538_2922" result="effect4_dropShadow_10538_2922"/>
<feColorMatrix in="SourceAlpha" type="matrix" values="0 0 0 0 0 0 0 0 0 0 0 0 0 0 0 0 0 0 127 0" result="hardAlpha"/>
<feOffset dy="7.52"/>
<feGaussianBlur stdDeviation="3.76"/>
<feColorMatrix type="matrix" values="0 0 0 0 0 0 0 0 0 0 0 0 0 0 0 0 0 0 0.179714 0"/>
<feBlend mode="normal" in2="effect4_dropShadow_10538_2922" result="effect5_dropShadow_10538_2922"/>
<feColorMatrix in="SourceAlpha" type="matrix" values="0 0 0 0 0 0 0 0 0 0 0 0 0 0 0 0 0 0 127 0" result="hardAlpha"/>
<feOffset dy="18"/>
<feGaussianBlur stdDeviation="9"/>
<feColorMatrix type="matrix" values="0 0 0 0 0 0 0 0 0 0 0 0 0 0 0 0 0 0 0.25 0"/>
<feBlend mode="normal" in2="effect5_dropShadow_10538_2922" result="effect6_dropShadow_10538_2922"/>
<feBlend mode="normal" in="SourceGraphic" in2="effect6_dropShadow_10538_2922" result="shape"/>
</filter>
<filter id="filter7_ddddd_10538_2922" x="55.6528" y="52.2275" width="125.906" height="125.906" filterUnits="userSpaceOnUse" color-interpolation-filters="sRGB">
<feFlood flood-opacity="0" result="BackgroundImageFix"/>
<feColorMatrix in="SourceAlpha" type="matrix" values="0 0 0 0 0 0 0 0 0 0 0 0 0 0 0 0 0 0 127 0" result="hardAlpha"/>
<feOffset dy="1.251"/>
<feGaussianBlur stdDeviation="0.695"/>
<feColorMatrix type="matrix" values="0 0 0 0 0 0 0 0 0 0.356863 0 0 0 0 0.819608 0 0 0 0.116246 0"/>
<feBlend mode="normal" in2="BackgroundImageFix" result="effect1_dropShadow_10538_2922"/>
<feColorMatrix in="SourceAlpha" type="matrix" values="0 0 0 0 0 0 0 0 0 0 0 0 0 0 0 0 0 0 127 0" result="hardAlpha"/>
<feOffset dy="2.909"/>
<feGaussianBlur stdDeviation="1.616"/>
<feColorMatrix type="matrix" values="0 0 0 0 0 0 0 0 0 0.356863 0 0 0 0 0.819608 0 0 0 0.167949 0"/>
<feBlend mode="normal" in2="effect1_dropShadow_10538_2922" result="effect2_dropShadow_10538_2922"/>
<feColorMatrix in="SourceAlpha" type="matrix" values="0 0 0 0 0 0 0 0 0 0 0 0 0 0 0 0 0 0 127 0" result="hardAlpha"/>
<feOffset dy="5.225"/>
<feGaussianBlur stdDeviation="2.903"/>
<feColorMatrix type="matrix" values="0 0 0 0 0.937255 0 0 0 0 0.560784 0 0 0 0 0.560784 0 0 0 0.207023 0"/>
<feBlend mode="normal" in2="effect2_dropShadow_10538_2922" result="effect3_dropShadow_10538_2922"/>
<feColorMatrix in="SourceAlpha" type="matrix" values="0 0 0 0 0 0 0 0 0 0 0 0 0 0 0 0 0 0 127 0" result="hardAlpha"/>
<feOffset dy="8.671"/>
<feGaussianBlur stdDeviation="4.817"/>
<feColorMatrix type="matrix" values="0 0 0 0 0 0 0 0 0 0.356863 0 0 0 0 0.819608 0 0 0 0.242977 0"/>
<feBlend mode="normal" in2="effect3_dropShadow_10538_2922" result="effect4_dropShadow_10538_2922"/>
<feColorMatrix in="SourceAlpha" type="matrix" values="0 0 0 0 0 0 0 0 0 0 0 0 0 0 0 0 0 0 127 0" result="hardAlpha"/>
<feOffset dy="24.966"/>
<feGaussianBlur stdDeviation="13.87"/>
<feColorMatrix type="matrix" values="0 0 0 0 0 0 0 0 0 0.356863 0 0 0 0 0.819608 0 0 0 0.333754 0"/>
<feBlend mode="normal" in2="effect4_dropShadow_10538_2922" result="effect5_dropShadow_10538_2922"/>
<feBlend mode="normal" in="SourceGraphic" in2="effect5_dropShadow_10538_2922" result="shape"/>
</filter>
<filter id="filter8_i_10538_2922" x="96.8397" y="66.0844" width="43.7065" height="55.7285" filterUnits="userSpaceOnUse" color-interpolation-filters="sRGB">
<feFlood flood-opacity="0" result="BackgroundImageFix"/>
<feBlend mode="normal" in="SourceGraphic" in2="BackgroundImageFix" result="shape"/>
<feColorMatrix in="SourceAlpha" type="matrix" values="0 0 0 0 0 0 0 0 0 0 0 0 0 0 0 0 0 0 127 0" result="hardAlpha"/>
<feOffset dy="1"/>
<feGaussianBlur stdDeviation="0.5"/>
<feComposite in2="hardAlpha" operator="arithmetic" k2="-1" k3="1"/>
<feColorMatrix type="matrix" values="0 0 0 0 1 0 0 0 0 1 0 0 0 0 1 0 0 0 0.25 0"/>
<feBlend mode="normal" in2="shape" result="effect1_innerShadow_10538_2922"/>
</filter>
<filter id="filter9_ddddddd_10538_2922" x="294.879" y="29" width="143.82" height="175.449" filterUnits="userSpaceOnUse" color-interpolation-filters="sRGB">
<feFlood flood-opacity="0" result="BackgroundImageFix"/>
<feColorMatrix in="SourceAlpha" type="matrix" values="0 0 0 0 0 0 0 0 0 0 0 0 0 0 0 0 0 0 127 0" result="hardAlpha"/>
<feOffset dy="1.9"/>
<feGaussianBlur stdDeviation="0.695"/>
<feColorMatrix type="matrix" values="0 0 0 0 0.796078 0 0 0 0 0 0 0 0 0 0.0901961 0 0 0 0.34 0"/>
<feBlend mode="normal" in2="BackgroundImageFix" result="effect1_dropShadow_10538_2922"/>
<feColorMatrix in="SourceAlpha" type="matrix" values="0 0 0 0 0 0 0 0 0 0 0 0 0 0 0 0 0 0 127 0" result="hardAlpha"/>
<feOffset dy="4.418"/>
<feGaussianBlur stdDeviation="1.616"/>
<feColorMatrix type="matrix" values="0 0 0 0 0.796078 0 0 0 0 0 0 0 0 0 0.0901961 0 0 0 0.25217 0"/>
<feBlend mode="normal" in2="effect1_dropShadow_10538_2922" result="effect2_dropShadow_10538_2922"/>
<feColorMatrix in="SourceAlpha" type="matrix" values="0 0 0 0 0 0 0 0 0 0 0 0 0 0 0 0 0 0 127 0" result="hardAlpha"/>
<feOffset dy="7.934"/>
<feGaussianBlur stdDeviation="2.903"/>
<feColorMatrix type="matrix" values="0 0 0 0 0.796078 0 0 0 0 0 0 0 0 0 0.0901961 0 0 0 0.213106 0"/>
<feBlend mode="normal" in2="effect2_dropShadow_10538_2922" result="effect3_dropShadow_10538_2922"/>
<feColorMatrix in="SourceAlpha" type="matrix" values="0 0 0 0 0 0 0 0 0 0 0 0 0 0 0 0 0 0 127 0" result="hardAlpha"/>
<feOffset dy="13.167"/>
<feGaussianBlur stdDeviation="4.817"/>
<feColorMatrix type="matrix" values="0 0 0 0 0.796078 0 0 0 0 0 0 0 0 0 0.0901961 0 0 0 0.183582 0"/>
<feBlend mode="normal" in2="effect3_dropShadow_10538_2922" result="effect4_dropShadow_10538_2922"/>
<feColorMatrix in="SourceAlpha" type="matrix" values="0 0 0 0 0 0 0 0 0 0 0 0 0 0 0 0 0 0 127 0" result="hardAlpha"/>
<feOffset dy="21.692"/>
<feGaussianBlur stdDeviation="7.936"/>
<feColorMatrix type="matrix" values="0 0 0 0 0.796078 0 0 0 0 0 0 0 0 0 0.0901961 0 0 0 0.156418 0"/>
<feBlend mode="normal" in2="effect4_dropShadow_10538_2922" result="effect5_dropShadow_10538_2922"/>
<feColorMatrix in="SourceAlpha" type="matrix" values="0 0 0 0 0 0 0 0 0 0 0 0 0 0 0 0 0 0 127 0" result="hardAlpha"/>
<feOffset dy="37.911"/>
<feGaussianBlur stdDeviation="13.87"/>
<feColorMatrix type="matrix" values="0 0 0 0 0.796078 0 0 0 0 0 0 0 0 0 0.0901961 0 0 0 0.126894 0"/>
<feBlend mode="normal" in2="effect5_dropShadow_10538_2922" result="effect6_dropShadow_10538_2922"/>
<feColorMatrix in="SourceAlpha" type="matrix" values="0 0 0 0 0 0 0 0 0 0 0 0 0 0 0 0 0 0 127 0" result="hardAlpha"/>
<feOffset dy="82"/>
<feGaussianBlur stdDeviation="30"/>
<feColorMatrix type="matrix" values="0 0 0 0 0.796078 0 0 0 0 0 0 0 0 0 0.0901961 0 0 0 0.0878304 0"/>
<feBlend mode="normal" in2="effect6_dropShadow_10538_2922" result="effect7_dropShadow_10538_2922"/>
<feBlend mode="normal" in="SourceGraphic" in2="effect7_dropShadow_10538_2922" result="shape"/>
</filter>
<filter id="filter10_f_10538_2922" x="80.5771" y="341.168" width="166.71" height="177.279" filterUnits="userSpaceOnUse" color-interpolation-filters="sRGB">
<feFlood flood-opacity="0" result="BackgroundImageFix"/>
<feBlend mode="normal" in="SourceGraphic" in2="BackgroundImageFix" result="shape"/>
<feGaussianBlur stdDeviation="27" result="effect1_foregroundBlur_10538_2922"/>
</filter>
<filter id="filter11_f_10538_2922" x="120.577" y="392.204" width="86.7119" height="66.7482" filterUnits="userSpaceOnUse" color-interpolation-filters="sRGB">
<feFlood flood-opacity="0" result="BackgroundImageFix"/>
<feBlend mode="normal" in="SourceGraphic" in2="BackgroundImageFix" result="shape"/>
<feGaussianBlur stdDeviation="7" result="effect1_foregroundBlur_10538_2922"/>
</filter>
<filter id="filter12_ii_10538_2922" x="132" y="347" width="63" height="80" filterUnits="userSpaceOnUse" color-interpolation-filters="sRGB">
<feFlood flood-opacity="0" result="BackgroundImageFix"/>
<feBlend mode="normal" in="SourceGraphic" in2="BackgroundImageFix" result="shape"/>
<feColorMatrix in="SourceAlpha" type="matrix" values="0 0 0 0 0 0 0 0 0 0 0 0 0 0 0 0 0 0 127 0" result="hardAlpha"/>
<feOffset dy="1"/>
<feGaussianBlur stdDeviation="0.5"/>
<feComposite in2="hardAlpha" operator="arithmetic" k2="-1" k3="1"/>
<feColorMatrix type="matrix" values="0 0 0 0 1 0 0 0 0 1 0 0 0 0 1 0 0 0 0.25 0"/>
<feBlend mode="normal" in2="shape" result="effect1_innerShadow_10538_2922"/>
<feColorMatrix in="SourceAlpha" type="matrix" values="0 0 0 0 0 0 0 0 0 0 0 0 0 0 0 0 0 0 127 0" result="hardAlpha"/>
<feOffset dy="1"/>
<feGaussianBlur stdDeviation="0.5"/>
<feComposite in2="hardAlpha" operator="arithmetic" k2="-1" k3="1"/>
<feColorMatrix type="matrix" values="0 0 0 0 1 0 0 0 0 1 0 0 0 0 1 0 0 0 0.25 0"/>
<feBlend mode="normal" in2="effect1_innerShadow_10538_2922" result="effect2_innerShadow_10538_2922"/>
</filter>
<filter id="filter13_f_10538_2922" x="122" y="107.191" width="206.831" height="125.201" filterUnits="userSpaceOnUse" color-interpolation-filters="sRGB">
<feFlood flood-opacity="0" result="BackgroundImageFix"/>
<feBlend mode="normal" in="SourceGraphic" in2="BackgroundImageFix" result="shape"/>
<feGaussianBlur stdDeviation="23.5" result="effect1_foregroundBlur_10538_2922"/>
</filter>
<filter id="filter14_f_10538_2922" x="155.267" y="124.265" width="139.511" height="73.3281" filterUnits="userSpaceOnUse" color-interpolation-filters="sRGB">
<feFlood flood-opacity="0" result="BackgroundImageFix"/>
<feBlend mode="normal" in="SourceGraphic" in2="BackgroundImageFix" result="shape"/>
<feGaussianBlur stdDeviation="10" result="effect1_foregroundBlur_10538_2922"/>
</filter>
<filter id="filter15_f_10538_2922" x="352.124" y="206.129" width="147.33" height="154.41" filterUnits="userSpaceOnUse" color-interpolation-filters="sRGB">
<feFlood flood-opacity="0" result="BackgroundImageFix"/>
<feBlend mode="normal" in="SourceGraphic" in2="BackgroundImageFix" result="shape"/>
<feGaussianBlur stdDeviation="27" result="effect1_foregroundBlur_10538_2922"/>
</filter>
<filter id="filter16_f_10538_2922" x="392" y="253.713" width="67.3313" height="53.9575" filterUnits="userSpaceOnUse" color-interpolation-filters="sRGB">
<feFlood flood-opacity="0" result="BackgroundImageFix"/>
<feBlend mode="normal" in="SourceGraphic" in2="BackgroundImageFix" result="shape"/>
<feGaussianBlur stdDeviation="7" result="effect1_foregroundBlur_10538_2922"/>
</filter>
<filter id="filter17_ii_10538_2922" x="404" y="226" width="43.7066" height="55.7285" filterUnits="userSpaceOnUse" color-interpolation-filters="sRGB">
<feFlood flood-opacity="0" result="BackgroundImageFix"/>
<feBlend mode="normal" in="SourceGraphic" in2="BackgroundImageFix" result="shape"/>
<feColorMatrix in="SourceAlpha" type="matrix" values="0 0 0 0 0 0 0 0 0 0 0 0 0 0 0 0 0 0 127 0" result="hardAlpha"/>
<feOffset dy="1"/>
<feGaussianBlur stdDeviation="0.5"/>
<feComposite in2="hardAlpha" operator="arithmetic" k2="-1" k3="1"/>
<feColorMatrix type="matrix" values="0 0 0 0 1 0 0 0 0 1 0 0 0 0 1 0 0 0 0.25 0"/>
<feBlend mode="normal" in2="shape" result="effect1_innerShadow_10538_2922"/>
<feColorMatrix in="SourceAlpha" type="matrix" values="0 0 0 0 0 0 0 0 0 0 0 0 0 0 0 0 0 0 127 0" result="hardAlpha"/>
<feOffset dy="1"/>
<feGaussianBlur stdDeviation="0.5"/>
<feComposite in2="hardAlpha" operator="arithmetic" k2="-1" k3="1"/>
<feColorMatrix type="matrix" values="0 0 0 0 1 0 0 0 0 1 0 0 0 0 1 0 0 0 0.25 0"/>
<feBlend mode="normal" in2="effect1_innerShadow_10538_2922" result="effect2_innerShadow_10538_2922"/>
</filter>
<linearGradient id="paint0_linear_10538_2922" x1="258.753" y1="-115.819" x2="385.849" y2="788.07" gradientUnits="userSpaceOnUse">
<stop stop-color="#EEF0F1"/>
<stop offset="1" stop-color="#9B9C9D"/>
</linearGradient>
<linearGradient id="paint1_linear_10538_2922" x1="302.015" y1="0.351563" x2="361.191" y2="696.905" gradientUnits="userSpaceOnUse">
<stop stop-color="#F6F6F6"/>
<stop offset="1" stop-color="#D6DADF"/>
</linearGradient>
<linearGradient id="paint2_linear_10538_2922" x1="302.015" y1="-0.331765" x2="302.157" y2="272.652" gradientUnits="userSpaceOnUse">
<stop stop-color="white"/>
<stop offset="1" stop-color="white" stop-opacity="0"/>
</linearGradient>
<linearGradient id="paint3_linear_10538_2922" x1="519.309" y1="335.537" x2="516.379" y2="415.269" gradientUnits="userSpaceOnUse">
<stop stop-color="#2B2B42"/>
<stop offset="1" stop-color="#18181B"/>
</linearGradient>
<radialGradient id="paint4_radial_10538_2922" cx="0" cy="0" r="1" gradientUnits="userSpaceOnUse" gradientTransform="translate(502.5 356.713) rotate(90) scale(45 169)">
<stop stop-color="white"/>
<stop offset="0.536458" stop-color="#2B2B42"/>
</radialGradient>
<linearGradient id="paint5_linear_10538_2922" x1="502.499" y1="355.892" x2="502.499" y2="402.533" gradientUnits="userSpaceOnUse">
<stop stop-color="white"/>
<stop offset="1" stop-color="#F2F2F2"/>
</linearGradient>
<linearGradient id="paint6_linear_10538_2922" x1="229.929" y1="33.544" x2="229.929" y2="145.136" gradientUnits="userSpaceOnUse">
<stop stop-color="white"/>
<stop offset="1" stop-color="#EDEDED"/>
</linearGradient>
<linearGradient id="paint7_linear_10538_2922" x1="229.929" y1="33.544" x2="229.929" y2="145.136" gradientUnits="userSpaceOnUse">
<stop stop-color="white"/>
<stop offset="1" stop-color="white" stop-opacity="0"/>
</linearGradient>
<linearGradient id="paint8_linear_10538_2922" x1="226.071" y1="83.948" x2="221.796" y2="38.6167" gradientUnits="userSpaceOnUse">
<stop stop-color="#121212"/>
<stop offset="1" stop-color="#777777"/>
</linearGradient>
<linearGradient id="paint9_linear_10538_2922" x1="272.938" y1="106.726" x2="271.6" y2="70.1865" gradientUnits="userSpaceOnUse">
<stop stop-color="#121212"/>
<stop offset="1" stop-color="#777777"/>
</linearGradient>
<linearGradient id="paint10_linear_10538_2922" x1="272.938" y1="128.424" x2="271.6" y2="91.8848" gradientUnits="userSpaceOnUse">
<stop stop-color="#121212"/>
<stop offset="1" stop-color="#777777"/>
</linearGradient>
<linearGradient id="paint11_linear_10538_2922" x1="136.441" y1="121.311" x2="95.283" y2="57.2878" gradientUnits="userSpaceOnUse">
<stop stop-color="#0050C7"/>
<stop offset="1" stop-color="#0057FF"/>
</linearGradient>
<linearGradient id="paint12_linear_10538_2922" x1="111.771" y1="69.7687" x2="127.116" y2="122.205" gradientUnits="userSpaceOnUse">
<stop stop-color="#9BC3FF"/>
<stop offset="1" stop-color="#005BD1"/>
</linearGradient>
<linearGradient id="paint13_linear_10538_2922" x1="366.789" y1="29" x2="366.789" y2="62.4496" gradientUnits="userSpaceOnUse">
<stop stop-color="#FF7272"/>
<stop offset="1" stop-color="#FF7272" stop-opacity="0"/>
</linearGradient>
<linearGradient id="paint14_linear_10538_2922" x1="163.5" y1="331.713" x2="163.5" y2="434.715" gradientUnits="userSpaceOnUse">
<stop stop-color="#FFC573"/>
<stop offset="1" stop-color="#EC7016"/>
</linearGradient>
<linearGradient id="paint15_linear_10538_2922" x1="163.501" y1="331.561" x2="163.532" y2="392.156" gradientUnits="userSpaceOnUse">
<stop stop-color="white"/>
<stop offset="1" stop-color="white" stop-opacity="0"/>
</linearGradient>
<linearGradient id="paint16_linear_10538_2922" x1="112.612" y1="258.595" x2="211.234" y2="433.656" gradientUnits="userSpaceOnUse">
<stop stop-color="white" stop-opacity="0.4"/>
<stop offset="1" stop-color="white" stop-opacity="0"/>
</linearGradient>
<linearGradient id="paint17_linear_10538_2922" x1="225" y1="132.287" x2="225" y2="177.288" gradientUnits="userSpaceOnUse">
<stop stop-color="#FF4848"/>
<stop offset="1" stop-color="#EC1616"/>
</linearGradient>
<linearGradient id="paint18_linear_10538_2922" x1="225.001" y1="132.221" x2="225.005" y2="158.694" gradientUnits="userSpaceOnUse">
<stop stop-color="white"/>
<stop offset="1" stop-color="white" stop-opacity="0"/>
</linearGradient>
<linearGradient id="paint19_linear_10538_2922" x1="425.5" y1="217.713" x2="425.5" y2="286.714" gradientUnits="userSpaceOnUse">
<stop stop-color="#68FFA5"/>
<stop offset="1" stop-color="#21D569"/>
</linearGradient>
<linearGradient id="paint20_linear_10538_2922" x1="425.5" y1="217.611" x2="425.521" y2="258.204" gradientUnits="userSpaceOnUse">
<stop stop-color="white"/>
<stop offset="1" stop-color="white" stop-opacity="0"/>
</linearGradient>
<linearGradient id="paint21_linear_10538_2922" x1="390.549" y1="164.756" x2="458.821" y2="286.116" gradientUnits="userSpaceOnUse">
<stop stop-color="white" stop-opacity="0.4"/>
<stop offset="1" stop-color="white" stop-opacity="0"/>
</linearGradient>
<clipPath id="clip0_10538_2922">
<rect width="608" height="625" fill="white" transform="translate(0 0.712891)"/>
</clipPath>
</defs>
</svg>
