<svg width="367" height="349" viewBox="0 0 367 349" fill="none" xmlns="http://www.w3.org/2000/svg">
<g filter="url(#filter0_d_10538_3021)">
<g clip-path="url(#clip0_10538_3021)">
<rect x="24" y="89.2424" width="265.6" height="240" rx="32" transform="rotate(-15 24 89.2424)" fill="white"/>
<g clip-path="url(#clip1_10538_3021)">
<path d="M97.0216 149.517C93.7246 150.4 90.6189 150.349 87.8148 149.775C85.0107 149.201 82.6996 147.17 81.2128 144.919L86.0992 140.075C88.3294 143.453 91.656 144.329 95.3652 143.335C97.4258 142.783 98.5518 142.039 99.1552 140.994C99.7586 139.949 99.9499 139.014 99.729 138.19C99.3977 136.954 98.7647 136.24 97.3075 135.747C95.8502 135.254 94.393 134.761 91.2872 134.71C89.5283 134.739 88.1815 134.659 86.8347 134.578C85.4878 134.497 84.4427 133.894 82.9855 133.401C81.9404 132.797 80.8953 132.194 79.7397 131.178C78.5842 130.163 78.2529 128.926 77.8112 127.278C76.9277 123.981 77.5015 121.177 79.1205 118.976C81.0411 116.253 83.293 114.766 86.59 113.883C89.4749 113.11 92.1685 113.271 94.5605 113.956C96.9524 114.64 99.1531 116.259 101.052 118.4L96.1657 123.243C94.1563 120.69 91.2418 119.704 88.3569 120.477C87.1205 120.808 85.9946 121.551 85.2807 122.184C84.6773 123.229 84.4861 124.164 84.7069 124.988C85.0382 126.225 85.6712 126.939 86.6059 127.13C87.651 127.733 89.4099 127.704 92.5157 127.755C93.5608 128.358 94.4955 128.55 95.3198 128.329C95.7319 128.218 96.6666 128.41 97.6013 128.601C98.5359 128.792 99.4706 128.983 99.9932 129.285C100.516 129.587 101.45 129.778 101.973 130.08C102.908 130.271 103.953 130.874 104.063 131.287C104.586 131.588 105.219 132.302 105.44 133.126C106.073 133.84 106.404 135.077 106.625 135.901C107.508 139.198 106.934 142.002 105.315 144.203C103.697 146.403 100.731 148.523 97.0216 149.517Z" fill="#2B2B42"/>
<path d="M136.769 131.357L151.194 127.492L152.961 134.086L131.53 139.829L122.254 105.21L143.272 99.5779L145.039 106.172L130.615 110.037L132.603 117.455L145.791 113.922L147.558 120.516L134.369 124.049L136.357 131.468L136.769 131.357Z" fill="#2B2B42"/>
<path d="M202.136 116.493C199.722 120.673 195.741 123.948 190.796 125.274C185.85 126.599 181.287 126.055 176.584 123.339C172.404 120.926 169.128 116.944 167.803 111.999C166.478 107.053 166.912 102.078 169.737 97.7873C172.453 93.0843 176.132 90.3315 181.078 89.0063C186.023 87.6812 190.586 88.2254 195.289 90.9407C199.47 93.3543 202.745 97.3355 204.07 102.281C205.396 107.227 204.851 111.79 202.136 116.493ZM180.204 117.069C182.817 118.577 186.033 119.04 188.918 118.267C191.803 117.494 194.357 115.485 195.865 112.872C197.374 110.259 197.837 107.043 196.954 103.746C196.07 100.449 194.061 97.8956 191.448 96.3871C188.946 95.2908 186.142 94.717 182.845 95.6004C179.548 96.4838 177.406 98.3828 175.898 100.996C174.389 103.608 173.926 106.825 174.809 110.122C175.693 113.419 177.592 115.56 180.204 117.069Z" fill="#2B2B42"/>
<path d="M114.664 170.851L116.431 177.445L106.952 179.985L114.462 208.01L107.868 209.776L100.358 181.752L90.8794 184.292L89.1125 177.698L114.664 170.851Z" fill="#2B2B42"/>
<path d="M152.671 190.704L167.096 186.839L168.863 193.433L147.432 199.175L138.156 164.556L159.174 158.924L160.941 165.519L146.517 169.384L148.504 176.802L161.693 173.268L163.459 179.862L150.271 183.396L152.259 190.814L152.671 190.704Z" fill="#2B2B42"/>
<path d="M215.543 181.366L211.826 175.737L198.226 179.381L197.41 186.225L189.991 188.213L192.667 150.392L201.322 148.073L222.962 179.379L215.543 181.366ZM198.52 172.235L207.999 169.695L199.299 157.008L198.52 172.235Z" fill="#2B2B42"/>
<path d="M268.388 129.661L277.664 164.279L271.07 166.046L265.107 143.791L259.523 162.515L258.699 162.735L244.802 148.79L250.876 171.457L243.87 173.335L234.594 138.716L241.6 136.839L255.908 150.673L261.382 131.538L268.388 129.661Z" fill="#2B2B42"/>
<path d="M122.002 262.529L135.191 258.995L136.957 265.589L116.763 271L107.487 236.381L114.493 234.504L122.002 262.529Z" fill="#2B2B42"/>
<path d="M168.573 250.05L182.997 246.185L184.764 252.779L163.334 258.522L154.058 223.903L175.076 218.271L176.843 224.865L162.419 228.73L164.406 236.148L177.594 232.615L179.361 239.209L166.173 242.742L168.161 250.161L168.573 250.05Z" fill="#2B2B42"/>
<path d="M231.445 240.713L227.728 235.083L214.128 238.727L213.312 245.572L205.893 247.56L208.569 209.738L217.224 207.419L238.864 238.725L231.445 240.713ZM214.422 231.581L223.901 229.041L215.201 216.354L214.422 231.581Z" fill="#2B2B42"/>
<path d="M264.508 194.308C269.454 192.983 273.604 193.637 277.785 196.051C281.965 198.464 284.718 202.144 286.043 207.09C287.368 212.035 286.824 216.598 284.411 220.779C281.997 224.959 278.73 227.601 273.784 228.927L260.184 232.571L250.908 197.952L264.508 194.308ZM272.017 222.332C274.902 221.559 277.154 220.073 278.663 217.46C280.171 214.847 280.333 212.153 279.449 208.856C278.566 205.559 277.079 203.307 274.466 201.799C271.853 200.29 269.572 200.018 266.275 200.902L259.269 202.779L265.011 224.21L272.017 222.332Z" fill="#2B2B42"/>
<rect x="216.111" y="81.7657" width="37.55" height="37.55" transform="rotate(-15 216.111 81.7657)" fill="#2B2B42"/>
</g>
</g>
</g>
<defs>
<filter id="filter0_d_10538_3021" x="-8" y="-7.49988" width="382.666" height="364.564" filterUnits="userSpaceOnUse" color-interpolation-filters="sRGB">
<feFlood flood-opacity="0" result="BackgroundImageFix"/>
<feColorMatrix in="SourceAlpha" type="matrix" values="0 0 0 0 0 0 0 0 0 0 0 0 0 0 0 0 0 0 127 0" result="hardAlpha"/>
<feOffset dy="4"/>
<feGaussianBlur stdDeviation="16"/>
<feComposite in2="hardAlpha" operator="out"/>
<feColorMatrix type="matrix" values="0 0 0 0 0.168627 0 0 0 0 0.168627 0 0 0 0 0.258824 0 0 0 0.5 0"/>
<feBlend mode="normal" in2="BackgroundImageFix" result="effect1_dropShadow_10538_3021"/>
<feBlend mode="normal" in="SourceGraphic" in2="effect1_dropShadow_10538_3021" result="shape"/>
</filter>
<clipPath id="clip0_10538_3021">
<rect x="24" y="89.2424" width="265.6" height="240" rx="32" transform="rotate(-15 24 89.2424)" fill="white"/>
</clipPath>
<clipPath id="clip1_10538_3021">
<rect width="185.6" height="160" fill="white" transform="translate(72.9898 117.527) rotate(-15)"/>
</clipPath>
</defs>
</svg>
