<svg width="49" height="49" viewBox="0 0 49 49" fill="none" xmlns="http://www.w3.org/2000/svg">
<path d="M24.5 48.2129C37.7548 48.2129 48.5 37.4677 48.5 24.2129C48.5 10.9581 37.7548 0.212891 24.5 0.212891C11.2452 0.212891 0.5 10.9581 0.5 24.2129C0.5 37.4677 11.2452 48.2129 24.5 48.2129Z" fill="#2B2B42"/>
<path d="M11.6757 22.597C18.1927 19.8237 22.4912 17.8825 24.5711 17.0505C30.6721 14.5546 32.0588 14 32.8907 14C33.0294 14 33.4454 14 33.7227 14.2773C34 14.416 34 14.6933 34 14.832C34 14.9706 34 15.3866 34 15.6639C33.7227 19.1304 32.1974 27.7274 31.5041 31.6099C31.2268 33.2738 30.5335 33.8285 29.9788 33.8285C28.7309 33.9671 27.7603 32.9965 26.5123 32.1645C24.5711 30.9166 23.4618 30.0846 21.5206 28.8367C19.302 27.4501 20.6886 26.6181 21.9365 25.3702C22.2139 25.0928 27.8989 19.8237 28.0376 19.4078C28.0376 19.4078 28.0376 19.1304 27.8989 18.9918C27.7603 18.8531 27.6216 18.8531 27.483 18.9918C27.3443 18.9918 24.1551 21.0717 18.1927 25.2315C17.3607 25.7861 16.5288 26.2021 15.8355 26.0635C15.0035 26.0635 13.4782 25.6475 12.369 25.2315C10.9824 24.8155 9.87307 24.5382 10.0117 23.7062C10.1504 23.4289 10.705 23.0129 11.6757 22.597Z" fill="white"/>
</svg>
