<svg width="135" height="90" viewBox="0 0 135 90" xmlns="http://www.w3.org/2000/svg">
<g clip-path="url(#clip0_10551_31)">
<path d="M133.479 55.9308C129.118 64.7494 122.27 71.2277 114.026 76.2815C99.2063 85.4053 82.9899 90.0181 65.547 89.7129C56.7915 89.5772 48.3767 87.3047 40.2003 84.3199C29.1963 80.3177 18.8737 75.0943 9.98195 67.3611C6.37073 64.2068 3.23646 60.6793 1.12424 56.3039C-0.783572 52.3695 -0.27255 49.1134 2.69137 45.8573C6.74548 41.448 11.9579 38.8363 17.3066 36.4621C20.3386 35.1054 23.507 34.02 27.0501 32.6294C26.2665 35.682 25.7555 38.2258 24.9378 40.6679C23.5751 44.7041 24.7675 48.0959 27.2885 51.2163C30.7975 55.5238 35.533 58.0677 40.5751 60.0349C49.9097 63.6302 59.6532 64.8173 69.6352 64.5799C78.6632 64.3424 87.4528 62.884 95.7995 59.2887C99.9558 57.4911 103.771 55.2186 106.803 51.7929C109.631 48.5368 111.13 44.9754 109.597 40.5661C108.745 38.1919 108.234 35.682 107.451 32.8329C110.653 34.0539 113.685 34.9358 116.445 36.3264C120.771 38.4972 124.996 40.9392 129.186 43.4152C130.345 44.0936 131.264 45.145 132.15 46.1626C134.705 49.1473 135.25 52.3017 133.479 55.9308Z"/>
<path d="M107.485 40.5323C104.419 44.5685 100.194 47.1123 95.5951 49.0117C84.0119 53.828 71.9177 54.9134 59.5169 53.8619C51.034 53.1497 42.8236 51.2842 35.2605 47.2141C32.0921 45.5182 29.1963 43.4153 27.0501 40.4644C26.6753 39.9557 26.4028 39.1077 26.505 38.4972C28.5491 28.5254 30.8657 18.6554 34.6472 9.15842C36.4869 4.5117 39.3827 2.2053 44.3907 1.69653C57.2003 0.37374 70.0099 0.407658 82.8195 1.35735C86.3285 1.62869 89.7694 2.23921 93.2784 2.64622C96.583 3.01932 97.8435 5.42748 98.9337 8.17481C93.1421 10.2777 87.6572 12.9233 82.547 16.349C80.4348 17.7735 78.2544 19.0963 76.0059 20.2834C70.9298 23.0308 65.9217 22.6237 61.2203 19.4694C57.7113 17.0952 54.3727 14.4496 50.8977 11.9736C47.1502 9.26017 42.9258 7.73388 38.3947 6.98769C38.1222 6.95377 37.8837 6.98769 37.2364 6.98769C39.3827 7.66604 41.1542 8.17481 42.9258 8.75141C48.036 10.4812 51.7154 14.2461 55.5991 17.7057C57.4047 19.2998 59.3466 20.8261 61.3907 22.1489C66.569 25.5407 71.9859 25.7442 77.3005 22.6577C80.3666 20.86 83.1261 18.5536 85.9878 16.4507C90.076 13.3981 94.3005 10.583 99.2063 8.5479C99.8876 10.2438 100.603 11.9058 101.25 13.5677C104.385 21.6401 106.395 30.0517 108.064 38.5311C108.166 39.1756 107.86 40.0235 107.485 40.5323Z"/>
</g>
<defs>
<clipPath id="clip0_10551_31">
<rect width="134.535" height="89" fill="white" transform="translate(0 0.712891)"/>
</clipPath>
</defs>
</svg>
