<svg width="95" height="90" viewBox="0 0 95 90" xmlns="http://www.w3.org/2000/svg">
<g clip-path="url(#clip0_10652_68)">
<path fill-rule="evenodd" clip-rule="evenodd" d="M71.5316 29.6756C66.1853 20.6859 56.4171 15.1904 45.2505 15.1904C28.3458 15.1904 15.1649 28.198 15.1649 45.2126C15.1649 62.2273 28.3458 76.5438 45.2505 76.5438C56.4171 76.5438 66.1853 70.0012 71.5316 61.0116H86.8539C80.5217 77.7882 64.1401 89.7127 45.2505 89.7127C20.8325 89.7127 0.514404 69.7894 0.514404 45.2126C0.514404 20.6359 20.8325 0.712646 45.2505 0.712646C64.1401 0.712646 80.5217 12.8989 86.8539 29.6755H71.5316V29.6756ZM94.4431 39.9775L79.0062 50.9716H59.6393C57.3836 56.7909 51.7373 60.9186 45.1239 60.9186C36.5261 60.9186 29.5564 53.9455 29.5564 45.3436C29.5564 36.7417 36.5261 29.7686 45.1239 29.7686C51.8368 29.7686 57.5569 34.0195 59.7425 39.9775H94.4431Z"/>
</g>
<defs>
<clipPath id="clip0_10652_68">
<rect width="93.9283" height="89" fill="white" transform="translate(0.514893 0.712891)"/>
</clipPath>
</defs>
</svg>
