<svg width="90" height="90" viewBox="0 0 90 90" xmlns="http://www.w3.org/2000/svg">
<path fill-rule="evenodd" clip-rule="evenodd" d="M88.0263 43.1406L63.2622 33.4991C60.2326 32.3195 57.8367 29.9235 56.657 26.894L47.0155 2.12987C46.2799 0.240555 43.6066 0.240555 42.871 2.12987L33.2294 26.894C32.0498 29.9235 29.6539 32.3195 26.6243 33.4991L1.86022 43.1406C-0.0290901 43.8763 -0.0290901 46.5495 1.86022 47.2851L26.6243 56.9267C29.6539 58.1063 32.0498 60.5022 33.2294 63.5318L42.871 88.2959C43.6066 90.1852 46.2799 90.1852 47.0155 88.2959L56.657 63.5318C57.8367 60.5022 60.2326 58.1063 63.2622 56.9267L88.0263 47.2851C89.9156 46.5495 89.9156 43.8763 88.0263 43.1406Z"/>
</svg>
