<svg width="56" height="90" viewBox="0 0 56 90" xmlns="http://www.w3.org/2000/svg">
<g clip-path="url(#clip0_10654_2614)">
<path d="M22.3267 79.565C18.1497 79.0383 14.064 77.9463 10.1811 76.3191C6.61999 74.8353 3.32925 72.7713 0.443237 70.2111L7.04008 59.8544C8.52368 61.0975 10.1181 62.2015 11.8038 63.1526C13.6096 64.172 15.5017 65.0305 17.458 65.7179C19.4489 66.414 21.4912 66.9537 23.566 67.3321C25.6033 67.7136 27.671 67.9094 29.7437 67.9168C32.835 68.0765 35.9161 67.4457 38.6961 66.0843C39.6708 65.6053 40.4887 64.8584 41.0543 63.9312C41.6199 63.004 41.9095 61.9346 41.8893 60.8487C41.9139 59.5344 41.51 58.248 40.7379 57.1841C39.8799 56.0592 38.7907 55.1308 37.5441 54.4617C35.9676 53.6079 34.3211 52.8901 32.6227 52.3155C30.7031 51.6523 28.5569 51.0095 26.1835 50.3871C22.4548 49.3773 18.7994 48.1152 15.2421 46.6091C12.5799 45.5266 10.0923 44.0565 7.86022 42.2463C6.09573 40.8018 4.68167 38.976 3.72435 36.9063C2.82601 34.8249 2.37969 32.5762 2.41531 30.3095C2.39913 27.9152 2.86198 25.542 3.77654 23.3292C4.67361 21.1845 5.9705 19.2304 7.5982 17.5706C9.3281 15.8394 11.3483 14.4248 13.5666 13.3911C16.0099 12.2388 18.5993 11.4258 21.2627 10.9743V0.712891H32.6755V10.7645C36.4368 11.1648 40.1315 12.0449 43.6697 13.3825C47.022 14.6225 50.1378 16.4251 52.8835 18.7135L47.02 28.87C44.1591 26.7795 40.9759 25.1702 37.5963 24.1057C34.1502 22.9662 30.5459 22.3777 26.9163 22.361C24.0692 22.2011 21.2358 22.8578 18.7495 24.2542C17.8575 24.7527 17.1151 25.4809 16.5996 26.3632C16.084 27.2454 15.8141 28.2497 15.8178 29.2715C15.8597 30.4662 16.2482 31.6229 16.9361 32.6006C17.624 33.5782 18.5813 34.3343 19.6916 34.7771C23.3495 36.5283 27.173 37.9111 31.1049 38.9045C34.9901 39.9016 38.803 41.161 42.5177 42.674C45.283 43.7743 47.8612 45.2958 50.1611 47.1848C51.9883 48.6874 53.4554 50.5809 54.454 52.7255C55.3923 54.9066 55.8564 57.2621 55.8153 59.636C55.8391 62.2495 55.3037 64.8378 54.2447 67.2272C53.2062 69.5664 51.6697 71.651 49.7425 73.3351C47.6624 75.1175 45.3045 76.547 42.7622 77.5669C39.8801 78.7232 36.8478 79.4637 33.7571 79.7658V89.7215H22.3267V79.565Z"/>
</g>
<defs>
<clipPath id="clip0_10654_2614">
<rect width="55.3894" height="89" fill="white" transform="translate(0.443237 0.712891)"/>
</clipPath>
</defs>
</svg>
