<svg width="131" height="90" viewBox="0 0 131 90" xmlns="http://www.w3.org/2000/svg">
<g clip-path="url(#clip0_10654_90)">
<path d="M123.217 39.899C116.14 38.0234 109.063 36.1229 102.011 34.2224C99.9604 33.6722 97.9348 33.097 95.9092 32.5469C96.1343 30.5963 95.7592 30.0712 93.9837 29.5961C93.3835 29.421 92.7834 29.246 92.1832 29.1209C91.8331 29.0459 91.2829 28.9709 91.1079 29.1709C90.0576 30.2963 89.2074 29.371 87.982 29.0959C89.6575 27.1454 91.0829 25.3449 92.6833 23.7194C94.4838 21.8939 95.4091 19.7933 95.3591 17.2426C95.3091 15.4421 95.3591 13.6666 95.3591 11.8661C95.3591 6.71464 92.1582 3.51374 87.0318 3.51374C77.4041 3.51374 67.7763 3.51374 58.1486 3.48873C57.5985 3.48873 56.9483 3.21365 56.5482 2.83855C55.0728 1.5882 53.4223 0.762966 51.4718 0.737959C48.3459 0.712952 45.22 0.662938 42.0941 0.762966C38.143 0.888001 34.8421 4.13891 34.8171 8.09002C34.7421 16.0423 34.7921 23.9945 34.7921 32.1218C34.2669 32.2218 33.2416 32.6719 32.9916 32.3969C31.9913 31.3716 31.066 31.9467 30.1158 32.1968C25.6145 33.3721 21.1382 34.5975 16.662 35.7728C15.7367 33.8723 15.3366 33.6972 13.286 34.2474C11.4355 34.7225 9.585 35.2226 7.73448 35.7478C5.98399 36.2229 5.58388 36.8731 6.05901 38.6736C7.53442 44.2252 9.03484 49.7517 10.5353 55.3033C10.9104 56.7037 11.6356 57.1788 13.036 56.8287C15.2616 56.2786 17.4622 55.6784 19.6628 55.0532C20.8882 54.7031 21.3133 53.9029 21.0382 52.6525C20.7881 51.5772 20.4631 50.5019 20.163 49.2766C24.2141 48.2013 28.1902 47.126 32.2664 46.0257C31.2911 48.3013 30.2908 50.3769 29.4906 52.5025C25.7896 62.3303 24.6892 72.3581 27.0649 82.661C27.49 84.5115 28.2152 84.9616 29.9907 84.4865C33.8418 83.4612 37.6929 82.4109 41.544 81.3606C43.2445 80.9105 43.5946 80.2603 43.1694 78.5098C40.1936 66.0563 40.7187 53.8279 45.3701 41.8245C45.5451 41.3744 45.4451 40.7242 45.295 40.224C45.045 39.4988 45.7952 37.6483 46.5204 37.6233C48.5209 37.5733 50.5215 37.5983 52.6471 37.5983C52.447 38.0484 52.322 38.3485 52.172 38.6486C47.9208 47.151 45.6201 56.1035 45.22 65.6312C45.045 69.9074 48.0208 74.4587 53.6224 74.3336C58.3987 74.2336 63.2001 74.3086 68.0014 74.3086C72.8028 74.3086 76.0787 71.1077 76.1787 66.2814C76.3538 58.2541 77.6791 50.4519 80.68 42.9998C81.9803 39.7489 83.6058 36.598 85.0812 33.4221C85.2312 33.4722 85.3563 33.5472 85.5063 33.5972C84.8311 36.0979 84.181 38.5986 83.5058 41.0993C82.9806 43.0498 82.5055 45.0504 81.8053 46.9509C81.3301 48.2513 81.3802 48.6514 82.6805 49.0265C84.7311 49.5767 86.7817 50.1268 88.8323 50.652C90.1826 51.0021 90.9829 50.5519 91.358 49.2016C91.6581 48.1763 91.9331 47.126 92.2582 45.9507C96.2844 47.026 100.235 48.0763 104.487 49.2266C98.8101 52.8776 94.0587 57.0788 90.0576 62.1302C86.1315 67.0816 83.2057 72.5581 81.4552 78.6098C81.0301 80.0352 81.4302 80.9105 82.7305 81.2606C86.8317 82.3859 90.9328 83.4862 95.034 84.5365C96.3594 84.8866 97.0846 84.3865 97.5097 83.0861C97.9098 81.8607 98.2349 80.6104 98.685 79.4101C102.836 67.8068 109.538 58.004 119.691 50.9521C122.742 48.8265 124.567 46.5258 125.142 42.9748C125.418 41.0493 125.192 40.4241 123.217 39.899ZM74.7783 57.4539C74.3782 60.3797 74.1781 63.3305 74.0781 66.2814C73.9281 69.7574 71.6774 72.158 68.1765 72.208C65.4757 72.258 62.7499 72.258 60.0492 72.258C57.7985 72.258 55.5479 72.258 53.2973 72.208C49.6463 72.133 47.2956 69.7573 47.3706 66.0813C47.5707 55.6034 50.5215 45.9256 55.5979 36.8231C55.848 36.398 56.1981 35.9729 56.2981 35.4977C56.3731 35.0976 56.3231 34.4974 56.0481 34.2724C55.798 34.0473 55.0728 33.9723 54.8227 34.1724C52.9722 35.6728 50.7966 35.5727 48.621 35.5227C46.6704 35.4727 44.6949 35.5227 42.7443 35.4977C39.3434 35.4477 36.9177 33.047 36.8927 29.6461C36.8677 28.2707 36.8677 26.9203 36.8677 25.5449C36.8677 23.4193 36.8677 21.2937 36.8677 19.1431C36.8677 18.1428 36.8677 17.1176 36.8677 16.1173C36.8677 15.117 36.8677 14.0917 36.8677 13.0664C36.8677 11.716 36.8677 10.3657 36.8677 9.01528C36.8677 5.13919 39.2433 2.81354 43.1194 2.81354C45.6701 2.81354 48.1958 2.83855 50.7466 2.81354C52.6221 2.78853 54.1225 3.48873 55.4229 4.8141C55.823 5.21422 56.5482 5.53931 57.1234 5.53931C67.2012 5.58932 77.279 5.56431 87.3819 5.58932C90.7328 5.58932 93.1335 7.99 93.2085 11.3159C93.2585 13.4415 93.2335 15.5671 93.2085 17.6927C93.1835 19.2432 92.6083 20.5935 91.508 21.7439C81.9553 31.7967 76.6538 43.8251 74.7783 57.4539Z"/>
<path d="M129.869 44.3503C129.394 45.8507 129.044 47.4011 128.618 48.9266C128.143 50.652 127.168 52.0024 125.643 52.9277C113.939 60.0547 106.662 70.5076 102.586 83.3862C102.361 84.1114 102.186 84.8367 101.886 85.5118C100.661 88.5377 97.3347 90.2882 94.1088 89.488C89.7826 88.4127 85.4814 87.2623 81.2052 86.037C77.3791 84.9617 75.4285 81.2606 76.5539 77.3846C78.7045 70.0825 82.2555 63.5557 87.1318 57.754C87.632 57.1539 88.1321 56.5537 88.7073 55.8535C86.4316 55.2533 84.281 54.6782 82.1054 54.103C81.7053 54.003 81.2052 53.978 80.9301 53.7279C80.555 53.3778 80.3799 52.8277 80.1049 52.3775C80.58 52.1775 81.1301 51.7023 81.5303 51.7774C83.6809 52.2525 85.7814 52.9527 87.932 53.4028C88.9073 53.6029 89.9576 53.3778 90.9829 53.4028C91.5581 53.4278 92.1082 53.5529 92.6834 53.6279C92.5083 54.203 92.5333 54.9533 92.1582 55.3284C87.9321 59.7046 84.256 64.4809 81.6803 70.0075C80.505 72.5332 79.5297 75.1339 78.6544 77.7847C77.6292 80.8355 79.0296 83.2112 82.1554 84.0864C86.1315 85.1867 90.1077 86.237 94.0838 87.3123C96.9846 88.0876 99.3102 86.7622 100.135 83.8614C102.386 76.0842 105.912 68.9822 111.064 62.7304C114.765 58.2292 118.991 54.3031 124.042 51.3522C125.293 50.627 126.143 49.6268 126.493 48.2014C126.918 46.5009 127.443 44.8254 127.868 43.1499C128.518 40.4492 127.143 38.1235 124.467 37.3983C116.365 35.1977 108.238 33.0221 100.11 30.8715C99.2352 30.6464 98.56 30.2963 98.1349 29.3711C97.6098 28.1707 96.5595 27.4455 95.2841 27.1204C94.5589 26.9204 93.8587 26.6203 94.1338 25.695C94.4339 24.6948 95.1841 24.8448 95.9593 25.0699C97.5848 25.545 98.8101 26.5203 99.8104 27.8706C100.16 28.3208 100.711 28.7459 101.236 28.8959C108.888 30.9965 116.54 33.1721 124.267 35.0477C128.894 36.098 131.269 40.0491 129.869 44.3503Z"/>
<path d="M48.1459 80.9855C47.4957 83.5612 45.9703 85.3117 43.4696 86.0369C39.1433 87.2622 34.8171 88.4376 30.4659 89.5379C26.8399 90.4381 23.2889 88.2875 22.3636 84.6365C20.7632 78.2847 20.288 71.8329 21.2133 65.3061C21.4634 63.4556 21.7385 61.605 22.0135 59.6045C19.3128 60.3047 16.7621 61.0049 14.1863 61.6801C10.4353 62.6303 6.98431 60.8798 5.90901 57.1788C4.15852 51.1521 2.55807 45.0754 1.03264 38.9737C0.157396 35.5227 2.28299 32.1468 5.78398 31.1465C8.18465 30.4463 10.6103 29.8211 13.011 29.2209C14.5864 28.8208 16.1369 29.0459 17.6373 29.6711C18.2125 29.9211 18.9877 29.9962 19.6129 29.8461C23.2889 28.9209 26.9149 27.8956 30.5909 26.9703C31.0911 26.8453 31.9913 26.9703 32.2164 27.2954C32.6915 27.9456 32.3914 28.6708 31.5162 28.8958C27.265 30.0462 23.0138 31.2215 18.7376 32.3218C18.2875 32.4468 17.6623 32.2468 17.2372 31.9967C15.9618 31.2215 14.6615 30.9714 13.1861 31.3715C10.9854 31.9967 8.75981 32.5469 6.55919 33.147C3.83343 33.8973 2.45804 36.2729 3.18325 39.0487C4.65866 44.6503 6.10907 50.2268 7.60949 55.8034C8.48474 59.0793 10.8104 60.3547 14.0863 59.4794C16.0869 58.9293 18.1374 58.4792 20.088 57.829C21.0633 57.5039 21.9135 56.7537 22.8388 56.2535C23.3389 55.9785 23.9141 55.8534 24.4392 55.6534C24.5643 56.2035 24.9144 56.8287 24.7893 57.3038C23.2139 63.4556 22.4387 69.6573 23.0888 75.9841C23.3639 78.7098 23.839 81.4356 24.4392 84.0863C25.0394 86.7121 27.5151 88.0625 30.1408 87.3623C34.292 86.287 38.4181 85.1867 42.5443 84.0363C45.2451 83.2861 46.5704 80.9855 45.9703 78.2597C45.7702 77.4095 45.4951 76.5592 45.4701 75.684C45.4451 75.3089 45.8952 74.7087 46.2203 74.6337C46.5704 74.5587 47.3206 74.9338 47.3957 75.2089C47.8458 77.1094 48.646 78.9599 48.1459 80.9855Z"/>
<path d="M89.4325 17.3926C89.3825 18.1178 89.0574 18.943 88.5573 19.4682C79.7798 28.7458 74.4283 39.7739 71.9276 52.1774C71.0023 56.7537 70.8273 61.505 70.3521 66.1813C70.2021 67.7567 69.6269 68.4319 68.0265 68.4319C63.2001 68.4319 58.3488 68.4319 53.5224 68.4319C51.6219 68.4319 50.9967 67.7817 51.0717 65.8312C51.4468 56.0285 54.1476 46.9009 58.999 38.3985C61.3746 34.2223 64.1504 30.3212 67.3513 26.7452C67.7014 26.3451 68.0265 25.945 68.4766 25.4199H53.0223C53.0223 26.7952 53.0473 28.1206 53.0223 29.446C52.9973 31.1215 52.3221 31.7716 50.6466 31.7966C48.0959 31.8217 45.5702 31.8217 43.0195 31.7966C41.319 31.7966 40.6438 31.1215 40.6438 29.446C40.6438 22.6191 40.6438 15.7671 40.6438 8.94023C40.6438 7.18973 41.319 6.53955 43.0695 6.53955C45.3951 6.53955 47.7458 6.53955 50.0714 6.53955C52.4221 6.53955 52.8222 6.88965 53.1223 9.31533H54.6977C65.3257 9.31533 75.9537 9.31533 86.5817 9.31533C89.0074 9.31533 89.4825 9.81547 89.4825 12.2412C89.4575 13.9666 89.5575 15.6921 89.4325 17.3926Z"/>
</g>
<defs>
<clipPath id="clip0_10654_90">
<rect width="129.436" height="89" fill="white" transform="translate(0.832642 0.712891)"/>
</clipPath>
</defs>
</svg>
