<svg width="81" height="90" viewBox="0 0 81 90" xmlns="http://www.w3.org/2000/svg">
<g clip-path="url(#clip0_10654_82)">
<path d="M69.506 13.0453C66.736 10.2754 63.4121 8.28101 59.8667 7.17305C51.7785 4.62473 42.6932 6.61907 36.267 13.0453C29.176 20.1362 27.6249 30.5511 31.2811 39.0825C32.3891 41.7416 34.0511 44.0683 36.267 46.2842C36.3778 46.395 36.4886 46.5058 36.4886 46.5058C37.7073 47.7246 39.1477 48.7218 40.4773 49.6081C49.6734 55.2588 61.6394 54.1508 69.506 46.2842C78.7021 37.0881 78.7021 22.2414 69.506 13.0453ZM59.5343 20.801C59.8667 21.1334 60.3098 21.355 60.753 21.7982C65.0741 26.1193 65.0741 32.9886 60.753 37.3097C57.4291 40.6336 52.6649 41.4092 48.5654 39.5256C47.3466 38.9717 46.1279 38.1961 45.1307 37.1989C40.8096 32.8779 40.8096 26.0085 45.1307 21.6874C49.1194 17.9203 55.2132 17.5879 59.5343 20.801Z"/>
<path d="M17.7639 75.6451L6.24107 75.6451L6.35187 64.2331L33.3862 37.1987L43.2471 47.0596L40.588 49.7187C39.2585 48.8324 37.8181 47.8352 36.5993 46.6164C37.3749 48.0568 38.4829 49.3864 39.7016 50.6051L33.3862 56.9205L26.0737 56.9205L26.0737 66.6706L17.7639 66.5598L17.7639 75.6451Z"/>
</g>
<defs>
<clipPath id="clip0_10654_82">
<rect width="80" height="89" fill="white" transform="translate(0.443237 0.712891)"/>
</clipPath>
</defs>
</svg>
