<?xml version="1.0" ?><svg xmlns="http://www.w3.org/2000/svg" xmlns:xlink="http://www.w3.org/1999/xlink" version="1.1" viewBox="0 0 64 64" style="enable-background:new 0 0 64 64;" xml:space="preserve"><style type="text/css">
	.Drop_x0020_Shadow{fill:none;}
	.Round_x0020_Corners_x0020_2_x0020_pt{fill:#FFFFFF;stroke:#231F20;stroke-miterlimit:10;}
	.Live_x0020_Reflect_x0020_X{fill:none;}
	.Bevel_x0020_Soft{fill:url(#SVGID_1_);}
	.Dusk{fill:#FFFFFF;}
	.Foliage_GS{fill:#FFDD00;}
	.Pompadour_GS{fill-rule:evenodd;clip-rule:evenodd;fill:#44ADE2;}
	.st0{fill:#FFFFFF;}
</style><linearGradient id="SVGID_1_" gradientUnits="userSpaceOnUse" x1="-327" y1="1" x2="-326.2929" y2="1.7071"><stop offset="0" style="stop-color:#DEDFE3"/><stop offset="0.1783" style="stop-color:#DADBDF"/><stop offset="0.3611" style="stop-color:#CECFD3"/><stop offset="0.546" style="stop-color:#B9BCBF"/><stop offset="0.7324" style="stop-color:#9CA0A2"/><stop offset="0.9181" style="stop-color:#787D7E"/><stop offset="1" style="stop-color:#656B6C"/></linearGradient><g id="Grid"/><g id="Object"><g><path d="M48,18.1c-3-1.3-6.3-1.6-9.5-1.9c-1.4-0.1-2.8-0.2-4.3-0.3c-0.2,0.6-0.4,1.2-0.6,1.9c2.4,0.1,4.1,0.5,4.1,0.9    c0.1,0.8-5.4,1.1-7.2,0.9c-5.7-0.2-5.9-1.5-0.2-1.8c0.1-0.5,0.2-1.2,0.4-2c-7.3,0-14.9,1.3-19.5,7c-4.7,5.9-5.6,13.9-3.5,21    C12,58.5,25.4,64.2,36.2,61.3c2.2-0.7,4.5,0.2,6.8-0.6c2.1-0.7,4.1-2,5.6-3.6C58.1,47.7,62.7,24.6,48,18.1z M16.1,28.7    c-1.1,2.4-1.7,5.1-1.5,7.8c0.2,2,0.3,5.2-2.3,5.6c-1.5,0.1-2.5-1.6-2.9-3c-1.3-4.8,0.2-10.3,3.8-13.8c0.8-0.8,1.8-1.5,3-1.4    C19.5,24,16.7,27.4,16.1,28.7z"/><path d="M21.9,11.8c4.3,1.8,9.3,0.3,10.8-0.2c-1.1,3.8-1.6,7.2-1.6,7.2s0.2,0.2,0.5,0.2c0.2,0.1,0.7-0.1,0.6-0.1    c2.6-11.1,7.4-14.7,7.4-14.7c-0.6-0.1-2.4-0.6-3-0.7C35.1,5.1,33.9,8,33,10.8C29,1.7,21.4,0.5,14.4,3.3    C14.4,3.3,16.7,9.6,21.9,11.8z"/></g></g></svg>