<?xml version="1.0" ?><svg xmlns="http://www.w3.org/2000/svg" xmlns:xlink="http://www.w3.org/1999/xlink" width="512" height="512"><path transform="scale(0.8 0.8)" d="M489.578 233.126L491.887 230.751C503.626 218.337 509.659 204.471 509.123 187.296C507.737 142.931 457.773 117.913 420.23 141.806C414.814 145.253 410.509 149.945 405.95 154.399L384.05 176.336C366.516 193.948 340.143 214.056 336.052 240.004L335.297 245.786C334.993 248.113 334.752 248.315 332.965 249.955L300.375 282.693C292.795 274.586 290.066 263.596 289.121 252.794C286.787 226.095 297.06 198.665 314.181 178.37C323.699 167.088 335.117 157.297 345.459 146.767L366.613 125.328C390.036 101.812 409.387 87.4244 443.57 84.5018L459.327 84.3595C507.309 86.0785 549.803 127.615 556.135 174.835C561.58 215.446 548.018 242.73 520.901 270.246L460.718 330.632C440.854 348.969 414.39 357.675 387.546 356.559C376.925 356.117 364.141 353.146 356.693 345.089C357.043 343.804 386.246 310.455 386.727 310.242C387.286 309.995 388.574 309.958 389.219 309.885L395.629 309.2C422.752 305.54 438.582 284.787 456.656 266.371L489.578 233.126Z"/><path transform="scale(0.8 0.8)" d="M268.052 403.491C246.865 405.664 234.532 381.635 247.175 365.421C252.284 358.869 258.628 352.967 264.242 346.819L342.745 263.383C352.279 253.229 360.989 239.127 375.949 237.306C395.667 235.838 409.175 259.055 397.111 274.845C394.323 278.493 390.759 281.62 387.743 285.099L297.27 381.722C288.599 390.666 281.379 401.761 268.052 403.491Z"/><path transform="scale(0.8 0.8)" d="M353.085 408.143L352.537 411.25C347.502 441.422 333.454 458.213 312.789 478.937L274.842 517.069C267.492 524.46 260.371 532.144 251.832 538.202C226.194 556.388 191.657 561.992 161.36 553.581C111.003 539.602 79.9912 491.033 85.1919 439.844C88.5748 406.547 105.773 387.271 128.261 364.986L165.513 327.357C190.125 301.73 209.009 285.668 247.391 282.944L247.409 282.924C261.753 281.858 279.656 283.667 290.871 293.512L262.344 323.82C258.504 327.945 258.048 331.477 253.019 331.634L247.031 331.946C226.335 333.877 213.47 347.089 199.937 361.287L157.952 403.718C152.902 408.803 147.265 413.826 143.027 419.606C106.061 470.019 170.7 534.117 220.71 500.814C226.965 496.649 232.254 491.341 237.543 486.054L292.317 430.506C301.648 419.819 304.644 409.321 307.49 395.543C308.226 391.977 313.58 388.937 316.163 386.34L336.589 365.253C339.283 362.436 341.913 358.563 345.159 356.427C353.491 365.856 355.366 394.676 353.085 408.143Z"/></svg>