<svg width="32" height="32" viewBox="0 0 32 32" fill="none" xmlns="http://www.w3.org/2000/svg">
<path d="M30.0709 0.212891H1.92914C1.37004 0.212891 1.09049 0.212891 0.87228 0.327384C0.685278 0.425504 0.524146 0.593199 0.433565 0.783967C0.32787 1.00657 0.338666 1.27693 0.360259 1.81765C0.76246 11.8896 5.02779 15.4017 11.1392 20.2114V29.6193C11.1392 30.5061 11.1392 30.9495 11.3221 31.2568C11.4825 31.5263 11.7348 31.7287 12.0327 31.8267C12.3724 31.9385 12.8052 31.8423 13.6708 31.6497L13.6708 31.6497L16.1085 31.1074C17.8069 30.7296 18.656 30.5407 19.2899 30.0839C19.849 29.6809 20.288 29.1336 20.5599 28.5003C20.8682 27.7824 20.8682 26.9124 20.8682 25.1725V20.2114C26.9687 15.4003 31.2383 11.9168 31.6399 1.81769C31.6614 1.27685 31.6722 1.00642 31.5664 0.783859C31.4758 0.593103 31.3147 0.42547 31.1277 0.32736C30.9095 0.212891 30.63 0.212891 30.0709 0.212891Z" fill="white"/>
</svg>
