<svg width="26" height="33" viewBox="0 0 26 33" fill="none" xmlns="http://www.w3.org/2000/svg">
<path d="M21.3128 7.53056C23.6622 9.13522 24.7212 12.1741 23.7019 14.9641L11.6813 10.6054C12.7006 7.81541 15.4726 6.16562 18.3077 6.44089L20.0173 1.76148C20.3193 0.934753 21.2369 0.508489 22.0667 0.809393C22.8966 1.1103 23.3244 2.02442 23.0224 2.85115L21.3128 7.53056ZM16.1949 32.1979C14.5809 31.8706 12.8923 31.3873 11.1289 30.7479C9.20971 30.0519 7.47756 29.2711 5.93246 28.4053L6.95968 25.8934C7.01841 25.7498 6.98812 25.5853 6.88205 25.4718C6.73161 25.3108 6.47867 25.3018 6.31708 25.4517L4.24295 27.3755C2.87804 26.4696 1.69039 25.4831 0.679993 24.4162C2.86755 18.4285 5.85151 14.1423 9.63187 11.5575L24.6576 17.0059C25.8858 21.4068 25.4061 26.601 23.2185 32.5887C21.6421 32.7723 19.9682 32.7523 18.1968 32.5288V28.9209C18.1968 28.701 18.0178 28.5227 17.7971 28.5227C17.6282 28.5227 17.4776 28.6283 17.4207 28.7867L16.1949 32.1979Z" fill="white"/>
</svg>
