<svg width="608" height="785" viewBox="0 0 608 785" fill="none" xmlns="http://www.w3.org/2000/svg">
<g clip-path="url(#clip0_10538_3178)">
<mask id="mask0_10538_3178" style="mask-type:alpha" maskUnits="userSpaceOnUse" x="30" y="8" width="231" height="324">
<mask id="path-1-outside-1_10538_3178" maskUnits="userSpaceOnUse" x="28" y="6.17725" width="237" height="327" fill="black">
<rect fill="white" x="28" y="6.17725" width="237" height="327"/>
<path d="M30.0413 8.34537H96.8496V193.974H101.782L186.973 98.0209H259.611L158.726 205.183L260.956 331.177H183.386L101.333 223.118H96.8496V331.177H30.0413V8.34537Z"/>
</mask>
<path d="M30.0413 8.34537H96.8496V193.974H101.782L186.973 98.0209H259.611L158.726 205.183L260.956 331.177H183.386L101.333 223.118H96.8496V331.177H30.0413V8.34537Z" fill="white"/>
<path d="M30.0413 8.34537V6.73121H28.4271V8.34537H30.0413ZM96.8496 8.34537H98.4637V6.73121H96.8496V8.34537ZM96.8496 193.974H95.2354V195.588H96.8496V193.974ZM101.782 193.974V195.588H102.507L102.989 195.045L101.782 193.974ZM186.973 98.0209V96.4067H186.248L185.766 96.9492L186.973 98.0209ZM259.611 98.0209L260.786 99.1273L263.347 96.4067H259.611V98.0209ZM158.726 205.183L157.55 204.077L156.583 205.104L157.472 206.2L158.726 205.183ZM260.956 331.177V332.791H264.344L262.209 330.16L260.956 331.177ZM183.386 331.177L182.101 332.153L182.585 332.791H183.386V331.177ZM101.333 223.118L102.619 222.142L102.134 221.504H101.333V223.118ZM96.8496 223.118V221.504H95.2354V223.118H96.8496ZM96.8496 331.177V332.791H98.4637V331.177H96.8496ZM30.0413 331.177H28.4271V332.791H30.0413V331.177ZM30.0413 9.95952H96.8496V6.73121H30.0413V9.95952ZM95.2354 8.34537V193.974H98.4637V8.34537H95.2354ZM96.8496 195.588H101.782V192.36H96.8496V195.588ZM102.989 195.045L188.181 99.0926L185.766 96.9492L100.575 192.902L102.989 195.045ZM186.973 99.635H259.611V96.4067H186.973V99.635ZM258.435 96.9144L157.55 204.077L159.901 206.29L260.786 99.1273L258.435 96.9144ZM157.472 206.2L259.702 332.194L262.209 330.16L159.979 204.166L157.472 206.2ZM260.956 329.563H183.386V332.791H260.956V329.563ZM184.672 330.201L102.619 222.142L100.048 224.094L182.101 332.153L184.672 330.201ZM101.333 221.504H96.8496V224.732H101.333V221.504ZM95.2354 223.118V331.177H98.4637V223.118H95.2354ZM96.8496 329.563H30.0413V332.791H96.8496V329.563ZM31.6555 331.177V8.34537H28.4271V331.177H31.6555Z" fill="#8E9096" mask="url(#path-1-outside-1_10538_3178)"/>
<path d="M30.0413 8.34537V6.73121H28.4271V8.34537H30.0413ZM96.8496 8.34537H98.4637V6.73121H96.8496V8.34537ZM96.8496 193.974H95.2354V195.588H96.8496V193.974ZM101.782 193.974V195.588H102.507L102.989 195.045L101.782 193.974ZM186.973 98.0209V96.4067H186.248L185.766 96.9492L186.973 98.0209ZM259.611 98.0209L260.786 99.1273L263.347 96.4067H259.611V98.0209ZM158.726 205.183L157.55 204.077L156.583 205.104L157.472 206.2L158.726 205.183ZM260.956 331.177V332.791H264.344L262.209 330.16L260.956 331.177ZM183.386 331.177L182.101 332.153L182.585 332.791H183.386V331.177ZM101.333 223.118L102.619 222.142L102.134 221.504H101.333V223.118ZM96.8496 223.118V221.504H95.2354V223.118H96.8496ZM96.8496 331.177V332.791H98.4637V331.177H96.8496ZM30.0413 331.177H28.4271V332.791H30.0413V331.177ZM30.0413 9.95952H96.8496V6.73121H30.0413V9.95952ZM95.2354 8.34537V193.974H98.4637V8.34537H95.2354ZM96.8496 195.588H101.782V192.36H96.8496V195.588ZM102.989 195.045L188.181 99.0926L185.766 96.9492L100.575 192.902L102.989 195.045ZM186.973 99.635H259.611V96.4067H186.973V99.635ZM258.435 96.9144L157.55 204.077L159.901 206.29L260.786 99.1273L258.435 96.9144ZM157.472 206.2L259.702 332.194L262.209 330.16L159.979 204.166L157.472 206.2ZM260.956 329.563H183.386V332.791H260.956V329.563ZM184.672 330.201L102.619 222.142L100.048 224.094L182.101 332.153L184.672 330.201ZM101.333 221.504H96.8496V224.732H101.333V221.504ZM95.2354 223.118V331.177H98.4637V223.118H95.2354ZM96.8496 329.563H30.0413V332.791H96.8496V329.563ZM31.6555 331.177V8.34537H28.4271V331.177H31.6555Z" fill="url(#paint0_linear_10538_3178)" fill-opacity="0.6" mask="url(#path-1-outside-1_10538_3178)"/>
</mask>
<g mask="url(#mask0_10538_3178)">
<path d="M30.2053 133.33H47.7225V150.832H30.2053V133.33ZM30.2053 277.412H47.7225V294.913H30.2053V277.412ZM30.2053 169.457H47.7225V186.959H30.2053V169.457ZM30.2053 313.54H47.7225V331.042H30.2053V313.54ZM30.2053 25.3761H47.7225V42.8778H30.2053V25.3761ZM30.2053 151.394H47.7225V168.896H30.2053V151.394ZM30.2053 295.476H47.7225V312.977H30.2053V295.476ZM30.2053 7.31299H47.7225V24.8146H30.2053V7.31299ZM30.2053 187.522H47.7225V205.023H30.2053V187.522ZM30.2053 43.4403H47.7225V60.942H30.2053V43.4403ZM102.525 133.33H120.042V150.832H102.525V133.33ZM102.525 277.412H120.042V294.913H102.525V277.412ZM102.525 169.457H120.042V186.959H102.525V169.457ZM102.525 313.54H120.042V331.042H102.525V313.54ZM102.525 25.3761H120.042V42.8778H102.525V25.3761ZM102.525 151.394H120.042V168.896H102.525V151.394ZM102.525 295.476H120.042V312.977H102.525V295.476ZM102.525 7.31299H120.042V24.8146H102.525V7.31299ZM102.525 187.522H120.042V205.023H102.525V187.522ZM102.525 43.4403H120.042V60.942H102.525V43.4403ZM66.3656 133.33H83.8827V150.832H66.3656V133.33ZM66.3656 277.412H83.8827V294.913H66.3656V277.412ZM66.3656 169.457H83.8827V186.959H66.3656V169.457ZM66.3656 313.54H83.8827V331.042H66.3656V313.54ZM66.3656 25.3761H83.8827V42.8778H66.3656V25.3761ZM66.3656 151.394H83.8827V168.896H66.3656V151.394ZM66.3656 295.476H83.8827V312.977H66.3656V295.476ZM66.3656 7.31299H83.8827V24.8146H66.3656V7.31299ZM66.3656 187.522H83.8827V205.023H66.3656V187.522ZM66.3656 43.4403H83.8827V60.942H66.3656V43.4403ZM138.683 133.33H156.2V150.832H138.683V133.33ZM138.683 277.412H156.2V294.913H138.683V277.412ZM138.683 169.457H156.2V186.959H138.683V169.457ZM138.683 313.54H156.2V331.042H138.683V313.54ZM138.683 25.3761H156.2V42.8778H138.683V25.3761ZM138.683 151.394H156.2V168.896H138.683V151.394ZM138.683 295.476H156.2V312.977H138.683V295.476ZM138.683 7.31299H156.2V24.8146H138.683V7.31299ZM138.683 187.522H156.2V205.023H138.683V187.522ZM138.683 43.4403H156.2V60.942H138.683V43.4403ZM48.2855 133.33H65.8026V150.832H48.2855V133.33ZM48.2855 277.412H65.8026V294.913H48.2855V277.412ZM48.2855 169.457H65.8026V186.959H48.2855V169.457ZM48.2855 313.54H65.8026V331.042H48.2855V313.54ZM48.2855 25.3761H65.8026V42.8778H48.2855V25.3761ZM48.2855 151.394H65.8026V168.896H48.2855V151.394ZM48.2855 295.476H65.8026V312.977H48.2855V295.476ZM48.2855 7.31299H65.8026V24.8146H48.2855V7.31299ZM48.2855 187.522H65.8026V205.023H48.2855V187.522ZM48.2855 43.4403H65.8026V60.942H48.2855V43.4403ZM120.605 133.33H138.122V150.832H120.605V133.33ZM120.605 277.412H138.122V294.913H120.605V277.412ZM120.605 169.457H138.122V186.959H120.605V169.457ZM120.605 313.54H138.122V331.042H120.605V313.54ZM120.605 25.3761H138.122V42.8778H120.605V25.3761ZM120.605 151.394H138.122V168.896H120.605V151.394ZM120.605 295.476H138.122V312.977H120.605V295.476ZM120.605 7.31299H138.122V24.8146H120.605V7.31299ZM120.605 187.522H138.122V205.023H120.605V187.522ZM120.605 43.4403H138.122V60.942H120.605V43.4403ZM84.4446 133.33H101.962V150.832H84.4446V133.33ZM84.4446 277.412H101.962V294.913H84.4446V277.412ZM84.4446 169.457H101.962V186.959H84.4446V169.457ZM84.4446 313.54H101.962V331.042H84.4446V313.54ZM84.4446 25.3761H101.962V42.8778H84.4446V25.3761ZM84.4446 151.394H101.962V168.896H84.4446V151.394ZM84.4446 295.476H101.962V312.977H84.4446V295.476ZM84.4446 7.31299H101.962V24.8146H84.4446V7.31299ZM84.4446 187.522H101.962V205.023H84.4446V187.522ZM84.4446 43.4403H101.962V60.942H84.4446V43.4403ZM12.5546 133.33H30.0717V150.832H12.5546V133.33ZM12.5546 277.412H30.0717V294.913H12.5546V277.412ZM156.764 133.33H174.281V150.832H156.764V133.33ZM156.764 277.412H174.281V294.913H156.764V277.412ZM12.5546 169.457H30.0717V186.959H12.5546V169.457ZM12.5546 313.54H30.0717V331.042H12.5546V313.54ZM12.5546 25.3761H30.0717V42.8778H12.5546V25.3761ZM156.764 169.457H174.281V186.959H156.764V169.457ZM156.764 313.54H174.281V331.042H156.764V313.54ZM156.764 25.3761H174.281V42.8778H156.764V25.3761ZM12.5546 151.394H30.0717V168.896H12.5546V151.394ZM12.5546 295.476H30.0717V312.977H12.5546V295.476ZM12.5546 7.31299H30.0717V24.8146H12.5546V7.31299ZM156.764 151.394H174.281V168.896H156.764V151.394ZM156.764 295.476H174.281V312.977H156.764V295.476ZM156.764 7.31299H174.281V24.8146H156.764V7.31299ZM12.5546 187.522H30.0717V205.023H12.5546V187.522ZM12.5546 43.4403H30.0717V60.942H12.5546V43.4403ZM156.764 187.522H174.281V205.023H156.764V187.522ZM156.764 43.4403H174.281V60.942H156.764V43.4403ZM30.2053 205.371H47.7225V222.873H30.2053V205.371ZM30.2053 61.2895H47.7225V78.7911H30.2053V61.2895ZM30.2053 241.499H47.7225V259.001H30.2053V241.499ZM30.2053 97.4168H47.7225V114.918H30.2053V97.4168ZM30.2053 223.435H47.7225V240.937H30.2053V223.435ZM30.2053 79.3537H47.7225V96.8553H30.2053V79.3537ZM30.2053 259.562H47.7225V277.064H30.2053V259.562ZM30.2053 115.481H47.7225V132.983H30.2053V115.481ZM102.525 205.371H120.042V222.873H102.525V205.371ZM102.525 61.2895H120.042V78.7911H102.525V61.2895ZM102.525 241.499H120.042V259.001H102.525V241.499ZM102.525 97.4168H120.042V114.918H102.525V97.4168ZM102.525 223.435H120.042V240.937H102.525V223.435ZM102.525 79.3537H120.042V96.8553H102.525V79.3537ZM102.525 259.562H120.042V277.064H102.525V259.562ZM102.525 115.481H120.042V132.983H102.525V115.481ZM66.3656 205.371H83.8827V222.873H66.3656V205.371ZM66.3656 61.2895H83.8827V78.7911H66.3656V61.2895ZM66.3656 241.499H83.8827V259.001H66.3656V241.499ZM66.3656 97.4168H83.8827V114.918H66.3656V97.4168ZM66.3656 223.435H83.8827V240.937H66.3656V223.435ZM66.3656 79.3537H83.8827V96.8553H66.3656V79.3537ZM66.3656 259.562H83.8827V277.064H66.3656V259.562ZM66.3656 115.481H83.8827V132.983H66.3656V115.481ZM138.683 205.371H156.2V222.873H138.683V205.371ZM138.683 61.2895H156.2V78.7911H138.683V61.2895ZM138.683 241.499H156.2V259.001H138.683V241.499ZM138.683 97.4168H156.2V114.918H138.683V97.4168ZM138.683 223.435H156.2V240.937H138.683V223.435ZM138.683 79.3537H156.2V96.8553H138.683V79.3537ZM138.683 259.562H156.2V277.064H138.683V259.562ZM138.683 115.481H156.2V132.983H138.683V115.481ZM48.2855 205.371H65.8026V222.873H48.2855V205.371ZM48.2855 61.2895H65.8026V78.7911H48.2855V61.2895ZM48.2855 241.499H65.8026V259.001H48.2855V241.499ZM48.2855 97.4168H65.8026V114.918H48.2855V97.4168ZM48.2855 223.435H65.8026V240.937H48.2855V223.435ZM48.2855 79.3537H65.8026V96.8553H48.2855V79.3537ZM48.2855 259.562H65.8026V277.064H48.2855V259.562ZM48.2855 115.481H65.8026V132.983H48.2855V115.481ZM120.605 205.371H138.122V222.873H120.605V205.371ZM120.605 61.2895H138.122V78.7911H120.605V61.2895ZM120.605 241.499H138.122V259.001H120.605V241.499ZM120.605 97.4168H138.122V114.918H120.605V97.4168ZM120.605 223.435H138.122V240.937H120.605V223.435ZM120.605 79.3537H138.122V96.8553H120.605V79.3537ZM120.605 259.562H138.122V277.064H120.605V259.562ZM120.605 115.481H138.122V132.983H120.605V115.481ZM84.4446 205.371H101.962V222.873H84.4446V205.371ZM84.4446 61.2895H101.962V78.7911H84.4446V61.2895ZM84.4446 241.499H101.962V259.001H84.4446V241.499ZM84.4446 97.4168H101.962V114.918H84.4446V97.4168ZM84.4446 223.435H101.962V240.937H84.4446V223.435ZM84.4446 79.3537H101.962V96.8553H84.4446V79.3537ZM84.4446 259.562H101.962V277.064H84.4446V259.562ZM84.4446 115.481H101.962V132.983H84.4446V115.481ZM12.5546 205.371H30.0717V222.873H12.5546V205.371ZM12.5546 61.2895H30.0717V78.7911H12.5546V61.2895ZM156.764 205.371H174.281V222.873H156.764V205.371ZM156.764 61.2895H174.281V78.7911H156.764V61.2895ZM12.5546 241.499H30.0717V259.001H12.5546V241.499ZM12.5546 97.4168H30.0717V114.918H12.5546V97.4168ZM156.764 241.499H174.281V259.001H156.764V241.499ZM156.764 97.4168H174.281V114.918H156.764V97.4168ZM12.5546 223.435H30.0717V240.937H12.5546V223.435ZM12.5546 79.3537H30.0717V96.8553H12.5546V79.3537ZM156.764 223.435H174.281V240.937H156.764V223.435ZM156.764 79.3537H174.281V96.8553H156.764V79.3537ZM12.5546 259.562H30.0717V277.064H12.5546V259.562ZM12.5546 115.481H30.0717V132.983H12.5546V115.481ZM156.764 259.562H174.281V277.064H156.764V259.562ZM156.764 115.481H174.281V132.983H156.764V115.481ZM174.413 133.33H191.93V150.832H174.413V133.33ZM174.413 277.412H191.93V294.913H174.413V277.412ZM318.622 133.33H336.139V150.832H318.622V133.33ZM318.622 277.412H336.139V294.913H318.622V277.412ZM174.413 169.457H191.93V186.959H174.413V169.457ZM174.413 313.54H191.93V331.042H174.413V313.54ZM174.413 25.3761H191.93V42.8778H174.413V25.3761ZM318.622 169.457H336.139V186.959H318.622V169.457ZM318.622 313.54H336.139V331.042H318.622V313.54ZM318.622 25.3761H336.139V42.8778H318.622V25.3761ZM174.413 151.394H191.93V168.896H174.413V151.394ZM174.413 295.476H191.93V312.977H174.413V295.476ZM174.413 7.31299H191.93V24.8146H174.413V7.31299ZM318.622 151.394H336.139V168.896H318.622V151.394ZM318.622 295.476H336.139V312.977H318.622V295.476ZM318.622 7.31299H336.139V24.8146H318.622V7.31299ZM174.413 187.522H191.93V205.023H174.413V187.522ZM174.413 43.4403H191.93V60.942H174.413V43.4403ZM318.622 187.522H336.139V205.023H318.622V187.522ZM318.622 43.4403H336.139V60.942H318.622V43.4403ZM246.733 133.33H264.25V150.832H246.733V133.33ZM246.733 277.412H264.25V294.913H246.733V277.412ZM246.733 169.457H264.25V186.959H246.733V169.457ZM246.733 313.54H264.25V331.042H246.733V313.54ZM246.733 25.3761H264.25V42.8778H246.733V25.3761ZM246.733 151.394H264.25V168.896H246.733V151.394ZM246.733 295.476H264.25V312.977H246.733V295.476ZM246.733 7.31299H264.25V24.8146H246.733V7.31299ZM246.733 187.522H264.25V205.023H246.733V187.522ZM246.733 43.4403H264.25V60.942H246.733V43.4403ZM210.573 133.33H228.09V150.832H210.573V133.33ZM210.573 277.412H228.09V294.913H210.573V277.412ZM210.573 169.457H228.09V186.959H210.573V169.457ZM210.573 313.54H228.09V331.042H210.573V313.54ZM210.573 25.3761H228.09V42.8778H210.573V25.3761ZM210.573 151.394H228.09V168.896H210.573V151.394ZM210.573 295.476H228.09V312.977H210.573V295.476ZM210.573 7.31299H228.09V24.8146H210.573V7.31299ZM210.573 187.522H228.09V205.023H210.573V187.522ZM210.573 43.4403H228.09V60.942H210.573V43.4403ZM282.892 133.33H300.409V150.832H282.892V133.33ZM282.892 277.412H300.409V294.913H282.892V277.412ZM282.892 169.457H300.409V186.959H282.892V169.457ZM282.892 313.54H300.409V331.042H282.892V313.54ZM282.892 25.3761H300.409V42.8778H282.892V25.3761ZM282.892 151.394H300.409V168.896H282.892V151.394ZM282.892 295.476H300.409V312.977H282.892V295.476ZM282.892 7.31299H300.409V24.8146H282.892V7.31299ZM282.892 187.522H300.409V205.023H282.892V187.522ZM282.892 43.4403H300.409V60.942H282.892V43.4403ZM192.494 133.33H210.011V150.832H192.494V133.33ZM192.494 277.412H210.011V294.913H192.494V277.412ZM336.701 133.33H354.218V150.832H336.701V133.33ZM336.701 277.412H354.218V294.913H336.701V277.412ZM192.494 169.457H210.011V186.959H192.494V169.457ZM192.494 313.54H210.011V331.042H192.494V313.54ZM192.494 25.3761H210.011V42.8778H192.494V25.3761ZM336.701 169.457H354.218V186.959H336.701V169.457ZM336.701 313.54H354.218V331.042H336.701V313.54ZM336.701 25.3761H354.218V42.8778H336.701V25.3761ZM192.494 151.394H210.011V168.896H192.494V151.394ZM192.494 295.476H210.011V312.977H192.494V295.476ZM192.494 7.31299H210.011V24.8146H192.494V7.31299ZM336.701 151.394H354.218V168.896H336.701V151.394ZM336.701 295.476H354.218V312.977H336.701V295.476ZM336.701 7.31299H354.218V24.8146H336.701V7.31299ZM192.494 187.522H210.011V205.023H192.494V187.522ZM192.494 43.4403H210.011V60.942H192.494V43.4403ZM336.701 187.522H354.218V205.023H336.701V187.522ZM336.701 43.4403H354.218V60.942H336.701V43.4403ZM264.813 133.33H282.33V150.832H264.813V133.33ZM264.813 277.412H282.33V294.913H264.813V277.412ZM264.813 169.457H282.33V186.959H264.813V169.457ZM264.813 313.54H282.33V331.042H264.813V313.54ZM264.813 25.3761H282.33V42.8778H264.813V25.3761ZM264.813 151.394H282.33V168.896H264.813V151.394ZM264.813 295.476H282.33V312.977H264.813V295.476ZM264.813 7.31299H282.33V24.8146H264.813V7.31299ZM264.813 187.522H282.33V205.023H264.813V187.522ZM264.813 43.4403H282.33V60.942H264.813V43.4403ZM228.653 133.33H246.17V150.832H228.653V133.33ZM228.653 277.412H246.17V294.913H228.653V277.412ZM228.653 169.457H246.17V186.959H228.653V169.457ZM228.653 313.54H246.17V331.042H228.653V313.54ZM228.653 25.3761H246.17V42.8778H228.653V25.3761ZM228.653 151.394H246.17V168.896H228.653V151.394ZM228.653 295.476H246.17V312.977H228.653V295.476ZM228.653 7.31299H246.17V24.8146H228.653V7.31299ZM228.653 187.522H246.17V205.023H228.653V187.522ZM228.653 43.4403H246.17V60.942H228.653V43.4403ZM300.972 133.33H318.49V150.832H300.972V133.33ZM300.972 277.412H318.49V294.913H300.972V277.412ZM300.972 169.457H318.49V186.959H300.972V169.457ZM300.972 313.54H318.49V331.042H300.972V313.54ZM300.972 25.3761H318.49V42.8778H300.972V25.3761ZM300.972 151.394H318.49V168.896H300.972V151.394ZM300.972 295.476H318.49V312.977H300.972V295.476ZM300.972 7.31299H318.49V24.8146H300.972V7.31299ZM300.972 187.522H318.49V205.023H300.972V187.522ZM300.972 43.4403H318.49V60.942H300.972V43.4403ZM174.413 205.371H191.93V222.873H174.413V205.371ZM174.413 61.2895H191.93V78.7911H174.413V61.2895ZM318.622 205.371H336.139V222.873H318.622V205.371ZM318.622 61.2895H336.139V78.7911H318.622V61.2895ZM174.413 241.499H191.93V259.001H174.413V241.499ZM174.413 97.4168H191.93V114.918H174.413V97.4168ZM318.622 241.499H336.139V259.001H318.622V241.499ZM318.622 97.4168H336.139V114.918H318.622V97.4168ZM174.413 223.435H191.93V240.937H174.413V223.435ZM174.413 79.3537H191.93V96.8553H174.413V79.3537ZM318.622 223.435H336.139V240.937H318.622V223.435ZM318.622 79.3537H336.139V96.8553H318.622V79.3537ZM174.413 259.562H191.93V277.064H174.413V259.562ZM174.413 115.481H191.93V132.983H174.413V115.481ZM318.622 259.562H336.139V277.064H318.622V259.562ZM318.622 115.481H336.139V132.983H318.622V115.481ZM246.733 205.371H264.25V222.873H246.733V205.371ZM246.733 61.2895H264.25V78.7911H246.733V61.2895ZM246.733 241.499H264.25V259.001H246.733V241.499ZM246.733 97.4168H264.25V114.918H246.733V97.4168ZM246.733 223.435H264.25V240.937H246.733V223.435ZM246.733 79.3537H264.25V96.8553H246.733V79.3537ZM246.733 259.562H264.25V277.064H246.733V259.562ZM246.733 115.481H264.25V132.983H246.733V115.481ZM210.573 205.371H228.09V222.873H210.573V205.371ZM210.573 61.2895H228.09V78.7911H210.573V61.2895ZM210.573 241.499H228.09V259.001H210.573V241.499ZM210.573 97.4168H228.09V114.918H210.573V97.4168ZM210.573 223.435H228.09V240.937H210.573V223.435ZM210.573 79.3537H228.09V96.8553H210.573V79.3537ZM210.573 259.562H228.09V277.064H210.573V259.562ZM210.573 115.481H228.09V132.983H210.573V115.481ZM282.892 205.371H300.409V222.873H282.892V205.371ZM282.892 61.2895H300.409V78.7911H282.892V61.2895ZM282.892 241.499H300.409V259.001H282.892V241.499ZM282.892 97.4168H300.409V114.918H282.892V97.4168ZM282.892 223.435H300.409V240.937H282.892V223.435ZM282.892 79.3537H300.409V96.8553H282.892V79.3537ZM282.892 259.562H300.409V277.064H282.892V259.562ZM282.892 115.481H300.409V132.983H282.892V115.481ZM192.494 205.371H210.011V222.873H192.494V205.371ZM192.494 61.2895H210.011V78.7911H192.494V61.2895ZM336.701 205.371H354.218V222.873H336.701V205.371ZM336.701 61.2895H354.218V78.7911H336.701V61.2895ZM192.494 241.499H210.011V259.001H192.494V241.499ZM192.494 97.4168H210.011V114.918H192.494V97.4168ZM336.701 241.499H354.218V259.001H336.701V241.499ZM336.701 97.4168H354.218V114.918H336.701V97.4168ZM192.494 223.435H210.011V240.937H192.494V223.435ZM192.494 79.3537H210.011V96.8553H192.494V79.3537ZM336.701 223.435H354.218V240.937H336.701V223.435ZM336.701 79.3537H354.218V96.8553H336.701V79.3537ZM192.494 259.562H210.011V277.064H192.494V259.562ZM192.494 115.481H210.011V132.983H192.494V115.481ZM336.701 259.562H354.218V277.064H336.701V259.562ZM336.701 115.481H354.218V132.983H336.701V115.481ZM264.813 205.371H282.33V222.873H264.813V205.371ZM264.813 61.2895H282.33V78.7911H264.813V61.2895ZM264.813 241.499H282.33V259.001H264.813V241.499ZM264.813 97.4168H282.33V114.918H264.813V97.4168ZM264.813 223.435H282.33V240.937H264.813V223.435ZM264.813 79.3537H282.33V96.8553H264.813V79.3537ZM264.813 259.562H282.33V277.064H264.813V259.562ZM264.813 115.481H282.33V132.983H264.813V115.481ZM228.653 205.371H246.17V222.873H228.653V205.371ZM228.653 61.2895H246.17V78.7911H228.653V61.2895ZM228.653 241.499H246.17V259.001H228.653V241.499ZM228.653 97.4168H246.17V114.918H228.653V97.4168ZM228.653 223.435H246.17V240.937H228.653V223.435ZM228.653 79.3537H246.17V96.8553H228.653V79.3537ZM228.653 259.562H246.17V277.064H228.653V259.562ZM228.653 115.481H246.17V132.983H228.653V115.481ZM300.972 205.371H318.49V222.873H300.972V205.371ZM300.972 61.2895H318.49V78.7911H300.972V61.2895ZM300.972 241.499H318.49V259.001H300.972V241.499ZM300.972 97.4168H318.49V114.918H300.972V97.4168ZM300.972 223.435H318.49V240.937H300.972V223.435ZM300.972 79.3537H318.49V96.8553H300.972V79.3537ZM300.972 259.562H318.49V277.064H300.972V259.562ZM300.972 115.481H318.49V132.983H300.972V115.481Z" stroke="#8E9096" stroke-opacity="0.2" stroke-width="0.717404"/>
</g>
<mask id="path-4-outside-2_10538_3178" maskUnits="userSpaceOnUse" x="27" y="6.17725" width="239" height="328" fill="black">
<rect fill="white" x="27" y="6.17725" width="239" height="328"/>
<path d="M30.0413 8.34537H96.8496V193.974H101.782L186.973 98.0209H259.611L158.726 205.183L260.956 331.177H183.386L101.333 223.118H96.8496V331.177H30.0413V8.34537Z"/>
</mask>
<path d="M30.0413 8.34537V6.19315H27.8891V8.34537H30.0413ZM96.8496 8.34537H99.0018V6.19315H96.8496V8.34537ZM96.8496 193.974H94.6974V196.126H96.8496V193.974ZM101.782 193.974V196.126H102.749L103.391 195.403L101.782 193.974ZM186.973 98.0209V95.8687H186.006L185.364 96.592L186.973 98.0209ZM259.611 98.0209L261.178 99.4961L264.593 95.8687H259.611V98.0209ZM158.726 205.183L157.159 203.708L155.869 205.078L157.054 206.539L158.726 205.183ZM260.956 331.177V333.329H265.474L262.627 329.821L260.956 331.177ZM183.386 331.177L181.672 332.479L182.318 333.329H183.386V331.177ZM101.333 223.118L103.047 221.817L102.401 220.966H101.333V223.118ZM96.8496 223.118V220.966H94.6974V223.118H96.8496ZM96.8496 331.177V333.329H99.0018V331.177H96.8496ZM30.0413 331.177H27.8891V333.329H30.0413V331.177ZM30.0413 10.4976H96.8496V6.19315H30.0413V10.4976ZM94.6974 8.34537V193.974H99.0018V8.34537H94.6974ZM96.8496 196.126H101.782V191.821H96.8496V196.126ZM103.391 195.403L188.583 99.4498L185.364 96.592L100.172 192.545L103.391 195.403ZM186.973 100.173H259.611V95.8687H186.973V100.173ZM258.044 96.5456L157.159 203.708L160.293 206.658L261.178 99.4961L258.044 96.5456ZM157.054 206.539L259.284 332.533L262.627 329.821L160.397 203.827L157.054 206.539ZM260.956 329.025H183.386V333.329H260.956V329.025ZM185.1 329.876L103.047 221.817L99.6193 224.42L181.672 332.479L185.1 329.876ZM101.333 220.966H96.8496V225.27H101.333V220.966ZM94.6974 223.118V331.177H99.0018V223.118H94.6974ZM96.8496 329.025H30.0413V333.329H96.8496V329.025ZM32.1935 331.177V8.34537H27.8891V331.177H32.1935Z" fill="#8E9096" fill-opacity="0.8" mask="url(#path-4-outside-2_10538_3178)"/>
<mask id="mask1_10538_3178" style="mask-type:alpha" maskUnits="userSpaceOnUse" x="317" y="48" width="394" height="349">
<path d="M501.286 48.5635L318.348 396.504" stroke="#8E9096" stroke-opacity="0.55" stroke-width="0.896755"/>
<path d="M675.257 48.5635L492.319 396.504" stroke="#8E9096" stroke-opacity="0.55" stroke-width="0.896755"/>
<path d="M536.26 48.5635L353.322 396.504" stroke="#8E9096" stroke-opacity="0.55" stroke-width="0.896755"/>
<path d="M710.23 48.5635L527.292 396.504" stroke="#8E9096" stroke-opacity="0.55" stroke-width="0.896755"/>
<path d="M571.233 48.5635L387.398 396.504" stroke="#8E9096" stroke-opacity="0.55" stroke-width="0.896755"/>
<path d="M605.31 48.5635L422.372 396.504" stroke="#8E9096" stroke-opacity="0.55" stroke-width="0.896755"/>
<path d="M640.283 48.5635L457.345 396.504" stroke="#8E9096" stroke-opacity="0.55" stroke-width="0.896755"/>
</mask>
<g mask="url(#mask1_10538_3178)">
<mask id="path-13-outside-3_10538_3178" maskUnits="userSpaceOnUse" x="468.687" y="44.6021" width="81" height="337" fill="black">
<rect fill="white" x="468.687" y="44.6021" width="81" height="337"/>
<path d="M508.46 115.059C497.101 115.059 487.835 112.07 480.661 106.092C473.786 99.8144 470.348 91.4447 470.348 80.9826C470.348 70.8193 473.786 62.5991 480.661 56.3218C487.835 49.7456 497.101 46.4575 508.46 46.4575C520.118 46.4575 529.534 49.7456 536.708 56.3218C544.181 62.5991 547.917 70.8193 547.917 80.9826C547.917 91.4447 544.181 99.8144 536.708 106.092C529.534 112.07 520.118 115.059 508.46 115.059ZM475.729 146.446H542.537V379.602H475.729V146.446Z"/>
</mask>
<path d="M508.46 115.059C497.101 115.059 487.835 112.07 480.661 106.092C473.786 99.8144 470.348 91.4447 470.348 80.9826C470.348 70.8193 473.786 62.5991 480.661 56.3218C487.835 49.7456 497.101 46.4575 508.46 46.4575C520.118 46.4575 529.534 49.7456 536.708 56.3218C544.181 62.5991 547.917 70.8193 547.917 80.9826C547.917 91.4447 544.181 99.8144 536.708 106.092C529.534 112.07 520.118 115.059 508.46 115.059ZM475.729 146.446H542.537V379.602H475.729V146.446Z" fill="#8E9096"/>
<path d="M480.661 106.092L479.572 107.284L479.599 107.308L479.627 107.332L480.661 106.092ZM480.661 56.3218L481.749 57.5138L481.751 57.5117L480.661 56.3218ZM536.708 56.3218L535.617 57.5117L535.643 57.5353L535.67 57.5578L536.708 56.3218ZM536.708 106.092L537.741 107.332L537.746 107.328L536.708 106.092ZM475.729 146.446V144.832H474.114V146.446H475.729ZM542.537 146.446H544.151V144.832H542.537V146.446ZM542.537 379.602V381.216H544.151V379.602H542.537ZM475.729 379.602H474.114V381.216H475.729V379.602ZM508.46 113.445C497.394 113.445 488.519 110.539 481.694 104.852L479.627 107.332C487.151 113.601 496.808 116.673 508.46 116.673V113.445ZM481.749 104.9C475.252 98.9678 471.962 91.0533 471.962 80.9826H468.734C468.734 91.8361 472.319 100.661 479.572 107.284L481.749 104.9ZM471.962 80.9826C471.962 71.2264 475.242 63.4553 481.749 57.5138L479.572 55.1298C472.329 61.7429 468.734 70.4122 468.734 80.9826H471.962ZM481.751 57.5117C488.579 51.2534 497.433 48.0716 508.46 48.0716V44.8433C496.769 44.8433 487.091 48.2378 479.57 55.1319L481.751 57.5117ZM508.46 48.0716C519.799 48.0716 528.798 51.2605 535.617 57.5117L537.799 55.1319C530.27 48.2307 520.437 44.8433 508.46 44.8433V48.0716ZM535.67 57.5578C542.761 63.5141 546.303 71.2735 546.303 80.9826H549.532C549.532 70.3651 545.601 61.6841 537.746 55.0858L535.67 57.5578ZM546.303 80.9826C546.303 91.007 542.749 98.9094 535.67 104.856L537.746 107.328C545.613 100.719 549.532 91.8824 549.532 80.9826H546.303ZM535.675 104.852C528.857 110.533 519.837 113.445 508.46 113.445V116.673C520.399 116.673 530.211 113.607 537.741 107.332L535.675 104.852ZM475.729 148.06H542.537V144.832H475.729V148.06ZM540.923 146.446V379.602H544.151V146.446H540.923ZM542.537 377.988H475.729V381.216H542.537V377.988ZM477.343 379.602V146.446H474.114V379.602H477.343Z" fill="#8E9096" mask="url(#path-13-outside-3_10538_3178)"/>
</g>
<mask id="path-15-outside-4_10538_3178" maskUnits="userSpaceOnUse" x="467.687" y="43.6021" width="83" height="339" fill="black">
<rect fill="white" x="467.687" y="43.6021" width="83" height="339"/>
<path d="M508.46 115.059C497.101 115.059 487.835 112.07 480.661 106.092C473.786 99.8144 470.348 91.4447 470.348 80.9826C470.348 70.8193 473.786 62.5991 480.661 56.3218C487.835 49.7456 497.101 46.4575 508.46 46.4575C520.118 46.4575 529.534 49.7456 536.708 56.3218C544.181 62.5991 547.917 70.8193 547.917 80.9826C547.917 91.4447 544.181 99.8144 536.708 106.092C529.534 112.07 520.118 115.059 508.46 115.059ZM475.729 146.446H542.537V379.602H475.729V146.446Z"/>
</mask>
<path d="M508.46 115.059C497.101 115.059 487.835 112.07 480.661 106.092C473.786 99.8144 470.348 91.4447 470.348 80.9826C470.348 70.8193 473.786 62.5991 480.661 56.3218C487.835 49.7456 497.101 46.4575 508.46 46.4575C520.118 46.4575 529.534 49.7456 536.708 56.3218C544.181 62.5991 547.917 70.8193 547.917 80.9826C547.917 91.4447 544.181 99.8144 536.708 106.092C529.534 112.07 520.118 115.059 508.46 115.059ZM475.729 146.446H542.537V379.602H475.729V146.446Z" fill="#8E9096" fill-opacity="0.17"/>
<path d="M480.661 106.092L479.21 107.681L479.246 107.714L479.283 107.745L480.661 106.092ZM480.661 56.3218L482.112 57.9112L482.115 57.9083L480.661 56.3218ZM536.708 56.3218L535.254 57.9083L535.288 57.9398L535.324 57.9698L536.708 56.3218ZM536.708 106.092L538.086 107.745L538.092 107.74L536.708 106.092ZM475.729 146.446V144.293H473.576V146.446H475.729ZM542.537 146.446H544.689V144.293H542.537V146.446ZM542.537 379.602V381.754H544.689V379.602H542.537ZM475.729 379.602H473.576V381.754H475.729V379.602ZM508.46 112.907C497.492 112.907 488.747 110.029 482.039 104.438L479.283 107.745C486.923 114.111 496.711 117.211 508.46 117.211V112.907ZM482.112 104.502C475.741 98.6856 472.5 90.9229 472.5 80.9826H468.196C468.196 91.9665 471.83 100.943 479.21 107.681L482.112 104.502ZM472.5 80.9826C472.5 71.3621 475.727 63.7407 482.112 57.9112L479.21 54.7324C471.844 61.4574 468.196 70.2765 468.196 80.9826H472.5ZM482.115 57.9083C488.827 51.7559 497.544 48.6097 508.46 48.6097V44.3053C496.659 44.3053 486.843 47.7352 479.206 54.7353L482.115 57.9083ZM508.46 48.6097C519.692 48.6097 528.552 51.7655 535.254 57.9083L538.162 54.7353C530.515 47.7257 520.544 44.3053 508.46 44.3053V48.6097ZM535.324 57.9698C542.287 63.8191 545.765 71.4249 545.765 80.9826H550.07C550.07 70.2137 546.075 61.3791 538.092 54.6738L535.324 57.9698ZM545.765 80.9826C545.765 90.8611 542.271 98.6078 535.324 104.444L538.092 107.74C546.091 101.021 550.07 92.0283 550.07 80.9826H545.765ZM535.33 104.438C528.631 110.021 519.743 112.907 508.46 112.907V117.211C520.493 117.211 530.436 114.12 538.086 107.745L535.33 104.438ZM475.729 148.598H542.537V144.293H475.729V148.598ZM540.385 146.446V379.602H544.689V146.446H540.385ZM542.537 377.45H475.729V381.754H542.537V377.45ZM477.881 379.602V146.446H473.576V379.602H477.881Z" fill="#8E9096" mask="url(#path-15-outside-4_10538_3178)"/>
<mask id="mask2_10538_3178" style="mask-type:luminance" maskUnits="userSpaceOnUse" x="331" y="359" width="161" height="139">
<path d="M331.171 359.076H491.473V497.866H331.171V359.076Z" fill="#C4C4C4"/>
</mask>
<g mask="url(#mask2_10538_3178)">
<mask id="mask3_10538_3178" style="mask-type:luminance" maskUnits="userSpaceOnUse" x="174" y="227" width="313" height="365">
<path fill-rule="evenodd" clip-rule="evenodd" d="M230.261 591.75H290.066V464.255C312.394 482.149 337.432 491.096 365.181 491.096C399.31 491.096 428.176 478.635 451.779 453.711C475.063 428.468 486.706 396.993 486.706 359.288C486.706 321.264 475.063 289.949 451.779 265.346C428.496 240.102 399.629 227.48 365.181 227.48C339.067 227.48 295.58 235.223 261.347 274.995C242.662 255.851 209.43 244.793 174.892 253.192V306.411C201.104 297.962 230.229 312.557 230.229 344.052C230.229 344.592 230.239 345.118 230.261 345.631V591.75ZM357.526 287.394C376.345 287.394 392.134 294.264 404.892 308.004C417.97 322.063 424.508 339.158 424.508 359.288C424.508 379.419 417.97 396.514 404.892 410.574C392.134 424.314 376.345 431.184 357.526 431.184C338.707 431.184 322.919 424.314 310.161 410.574C286.407 384.993 286.407 333.585 310.161 308.004C322.919 294.264 338.707 287.394 357.526 287.394Z" fill="#C4C4C4"/>
</mask>
<g mask="url(#mask3_10538_3178)">
<path d="M368.288 379.477H383V394.189H368.288V379.477ZM368.288 409.822H383V424.535H368.288V409.822ZM368.288 394.65H383V409.362H368.288V394.65ZM368.288 424.995H383V439.707H368.288V424.995ZM428.977 379.477H443.689V394.189H428.977V379.477ZM428.977 409.822H443.689V424.535H428.977V409.822ZM428.977 394.65H443.689V409.362H428.977V394.65ZM428.977 424.995H443.689V439.707H428.977V424.995ZM398.633 379.477H413.345V394.189H398.633V379.477ZM398.633 409.822H413.345V424.535H398.633V409.822ZM398.633 394.65H413.345V409.362H398.633V394.65ZM398.633 424.995H413.345V439.707H398.633V424.995ZM338.303 379.477H353.015V394.189H338.303V379.477ZM459.323 379.477H474.035V394.189H459.323V379.477ZM338.303 409.822H353.015V424.535H338.303V409.822ZM459.323 409.822H474.035V424.535H459.323V409.822ZM338.303 394.65H353.015V409.362H338.303V394.65ZM459.323 394.65H474.035V409.362H459.323V394.65ZM338.303 424.995H353.015V439.707H338.303V424.995ZM459.323 424.995H474.035V439.707H459.323V424.995ZM383.46 379.477H398.172V394.189H383.46V379.477ZM383.46 409.822H398.172V424.535H383.46V409.822ZM383.46 394.65H398.172V409.362H383.46V394.65ZM383.46 424.995H398.172V439.707H383.46V424.995ZM323.131 379.477H337.843V394.189H323.131V379.477ZM444.15 379.477H458.863V394.189H444.15V379.477ZM323.131 409.822H337.843V424.535H323.131V409.822ZM444.15 409.822H458.863V424.535H444.15V409.822ZM323.131 394.65H337.843V409.362H323.131V394.65ZM444.15 394.65H458.863V409.362H444.15V394.65ZM323.131 424.995H337.843V439.707H323.131V424.995ZM444.15 424.995H458.863V439.707H444.15V424.995ZM413.805 379.477H428.517V394.189H413.805V379.477ZM413.805 409.822H428.517V424.535H413.805V409.822ZM413.805 394.65H428.517V409.362H413.805V394.65ZM413.805 424.995H428.517V439.707H413.805V424.995ZM353.475 379.477H368.187V394.189H353.475V379.477ZM474.496 379.477H489.208V394.189H474.496V379.477ZM353.475 409.822H368.187V424.535H353.475V409.822ZM474.496 409.822H489.208V424.535H474.496V409.822ZM353.475 394.65H368.187V409.362H353.475V394.65ZM474.496 394.65H489.208V409.362H474.496V394.65ZM353.475 424.995H368.187V439.707H353.475V424.995ZM474.496 424.995H489.208V439.707H474.496V424.995ZM368.288 439.987H383V454.7H368.288V439.987ZM368.288 349.312H383V364.024H368.288V349.312ZM368.288 470.332H383V485.044H368.288V470.332ZM368.288 455.16H383V469.872H368.288V455.16ZM368.288 364.485H383V379.197H368.288V364.485ZM368.288 485.505H383V500.217H368.288V485.505ZM428.977 439.987H443.689V454.7H428.977V439.987ZM428.977 349.312H443.689V364.024H428.977V349.312ZM428.977 470.332H443.689V485.044H428.977V470.332ZM428.977 455.16H443.689V469.872H428.977V455.16ZM428.977 364.485H443.689V379.197H428.977V364.485ZM428.977 485.505H443.689V500.217H428.977V485.505ZM398.633 439.987H413.345V454.7H398.633V439.987ZM398.633 349.312H413.345V364.024H398.633V349.312ZM398.633 470.332H413.345V485.044H398.633V470.332ZM398.633 455.16H413.345V469.872H398.633V455.16ZM398.633 364.485H413.345V379.197H398.633V364.485ZM398.633 485.505H413.345V500.217H398.633V485.505ZM338.303 439.987H353.015V454.7H338.303V439.987ZM459.323 439.987H474.035V454.7H459.323V439.987ZM338.303 349.312H353.015V364.024H338.303V349.312ZM338.303 470.332H353.015V485.044H338.303V470.332ZM459.323 349.312H474.035V364.024H459.323V349.312ZM459.323 470.332H474.035V485.044H459.323V470.332ZM338.303 455.16H353.015V469.872H338.303V455.16ZM459.323 455.16H474.035V469.872H459.323V455.16ZM338.303 364.485H353.015V379.197H338.303V364.485ZM338.303 485.505H353.015V500.217H338.303V485.505ZM459.323 364.485H474.035V379.197H459.323V364.485ZM459.323 485.505H474.035V500.217H459.323V485.505ZM383.46 439.987H398.172V454.7H383.46V439.987ZM383.46 349.312H398.172V364.024H383.46V349.312ZM383.46 470.332H398.172V485.044H383.46V470.332ZM383.46 455.16H398.172V469.872H383.46V455.16ZM383.46 364.485H398.172V379.197H383.46V364.485ZM383.46 485.505H398.172V500.217H383.46V485.505ZM323.131 439.987H337.843V454.7H323.131V439.987ZM444.15 439.987H458.863V454.7H444.15V439.987ZM323.131 349.312H337.843V364.024H323.131V349.312ZM323.131 470.332H337.843V485.044H323.131V470.332ZM444.15 349.312H458.863V364.024H444.15V349.312ZM444.15 470.332H458.863V485.044H444.15V470.332ZM323.131 455.16H337.843V469.872H323.131V455.16ZM444.15 455.16H458.863V469.872H444.15V455.16ZM323.131 364.485H337.843V379.197H323.131V364.485ZM323.131 485.505H337.843V500.217H323.131V485.505ZM444.15 364.485H458.863V379.197H444.15V364.485ZM444.15 485.505H458.863V500.217H444.15V485.505ZM413.805 439.987H428.517V454.7H413.805V439.987ZM413.805 349.312H428.517V364.024H413.805V349.312ZM413.805 470.332H428.517V485.044H413.805V470.332ZM413.805 455.16H428.517V469.872H413.805V455.16ZM413.805 364.485H428.517V379.197H413.805V364.485ZM413.805 485.505H428.517V500.217H413.805V485.505ZM353.475 439.987H368.187V454.7H353.475V439.987ZM474.496 439.987H489.208V454.7H474.496V439.987ZM353.475 349.312H368.187V364.024H353.475V349.312ZM353.475 470.332H368.187V485.044H353.475V470.332ZM474.496 349.312H489.208V364.024H474.496V349.312ZM474.496 470.332H489.208V485.044H474.496V470.332ZM353.475 455.16H368.187V469.872H353.475V455.16ZM474.496 455.16H489.208V469.872H474.496V455.16ZM353.475 364.485H368.187V379.197H353.475V364.485ZM353.475 485.505H368.187V500.217H353.475V485.505ZM474.496 364.485H489.208V379.197H474.496V364.485ZM474.496 485.505H489.208V500.217H474.496V485.505Z" stroke="#8E9096" stroke-opacity="0.4" stroke-width="0.717404"/>
</g>
<mask id="mask4_10538_3178" style="mask-type:luminance" maskUnits="userSpaceOnUse" x="173" y="225" width="316" height="370">
<path d="M173.098 225.687H488.756V594.253H173.098V225.687Z" fill="white"/>
</mask>
<g mask="url(#mask4_10538_3178)">
<path d="M290.066 591.75V593.364H291.68V591.75H290.066ZM230.261 591.75H228.647V593.364H230.261V591.75ZM290.066 464.256L291.075 462.997L288.452 460.894V464.256H290.066ZM451.779 453.712L452.951 454.821L452.959 454.814L452.966 454.806L451.779 453.712ZM451.779 265.346L450.593 266.44L450.6 266.448L450.607 266.456L451.779 265.346ZM261.347 274.995L260.192 276.124L261.421 277.383L262.57 276.049L261.347 274.995ZM174.892 253.193L174.51 251.624L173.277 251.924V253.193H174.892ZM174.892 306.411H173.277V308.628L175.387 307.948L174.892 306.411ZM230.261 345.631H231.875V345.597L231.873 345.564L230.261 345.631ZM404.892 308.004L403.709 309.102L403.71 309.104L404.892 308.004ZM404.892 410.574L403.71 409.475L403.709 409.476L404.892 410.574ZM290.066 590.136H230.261V593.364H290.066V590.136ZM288.452 464.256V591.75H291.68V464.256H288.452ZM365.181 489.482C337.811 489.482 313.126 480.668 291.075 462.997L289.057 465.516C311.66 483.631 337.053 492.711 365.181 492.711V489.482ZM450.608 452.601C427.307 477.206 398.864 489.482 365.181 489.482V492.711C399.756 492.711 429.045 480.065 452.951 454.821L450.608 452.601ZM485.092 359.289C485.092 396.631 473.575 427.702 450.593 452.617L452.966 454.806C476.553 429.234 488.32 397.357 488.32 359.289H485.092ZM450.607 266.456C473.572 290.723 485.092 321.622 485.092 359.289H488.32C488.32 320.907 476.555 289.178 452.952 264.236L450.607 266.456ZM365.181 229.095C399.18 229.095 427.615 241.529 450.593 266.44L452.966 264.251C429.375 238.676 400.078 225.867 365.181 225.867V229.095ZM262.57 276.049C296.396 236.751 339.356 229.095 365.181 229.095V225.867C338.779 225.867 294.765 233.696 260.124 273.943L262.57 276.049ZM262.502 273.868C243.399 254.296 209.574 243.098 174.51 251.624L175.274 254.761C209.286 246.49 241.925 257.407 260.192 276.124L262.502 273.868ZM173.277 253.193V306.411H176.506V253.193H173.277ZM175.387 307.948C188.081 303.856 201.418 305.365 211.54 311.625C221.618 317.858 228.614 328.858 228.614 344.053H231.843C231.843 327.752 224.277 315.706 213.239 308.88C202.245 302.081 187.915 300.518 174.396 304.875L175.387 307.948ZM228.614 344.053C228.614 344.614 228.625 345.163 228.647 345.698L231.873 345.564C231.852 345.06 231.842 344.557 231.843 344.053H228.614ZM231.875 591.75V345.631H228.647V591.75H231.875ZM406.075 306.906C393.01 292.835 376.792 285.78 357.526 285.78V289.008C375.898 289.008 391.257 295.693 403.709 309.102L406.075 306.906ZM426.122 359.289C426.122 338.772 419.444 321.278 406.074 306.905L403.71 309.104C416.495 322.848 422.894 339.545 422.894 359.289H426.122ZM406.074 411.673C419.444 397.299 426.122 379.805 426.122 359.289H422.894C422.894 379.033 416.495 395.729 403.71 409.475L406.074 411.673ZM357.526 432.798C376.792 432.798 393.01 425.743 406.075 411.673L403.709 409.476C391.257 422.886 375.898 429.57 357.526 429.57V432.798ZM308.978 411.673C322.043 425.743 338.261 432.798 357.526 432.798V429.57C339.155 429.57 323.795 422.886 311.344 409.476L308.978 411.673ZM308.978 306.906C296.751 320.073 290.731 339.756 290.731 359.289C290.731 378.823 296.751 398.506 308.978 411.673L311.344 409.476C299.817 397.063 293.959 378.251 293.959 359.289C293.959 340.328 299.817 321.516 311.344 309.102L308.978 306.906ZM357.526 285.78C338.261 285.78 322.043 292.835 308.978 306.906L311.344 309.102C323.795 295.693 339.155 289.008 357.526 289.008V285.78Z" fill="#8E9096"/>
</g>
</g>
<g filter="url(#filter0_ddddd_10538_3178)">
<path fill-rule="evenodd" clip-rule="evenodd" d="M269.785 607.864H205.668V331.436C205.643 330.846 205.631 330.256 205.631 329.665C205.631 295.532 175.175 279.071 146.589 286.485L143.481 274.277V227.616C182.272 218.184 219.597 230.603 240.581 252.104C279.031 207.434 327.873 198.738 357.203 198.738C395.893 198.738 428.314 212.914 454.465 241.266C480.616 268.9 493.692 304.07 493.692 346.777C493.692 373.262 488.577 397.011 478.348 418.021L418.042 386.955L418.167 386.822L415.114 371.943C415.114 371.943 423.835 357.008 423.835 346.777C423.835 324.167 416.492 304.967 401.804 289.177C387.474 273.745 369.741 266.029 348.606 266.029C327.469 266.029 309.737 273.745 295.406 289.177C268.728 317.907 268.728 375.647 295.406 404.378C309.737 419.81 327.469 427.526 348.606 427.526C361.369 427.526 372.891 424.712 383.174 419.084L409.391 473.042L411.603 483.732C395.031 491.122 376.896 494.816 357.203 494.816C326.036 494.816 297.915 484.767 272.838 464.67V595.125C272.049 599.322 270.904 603.899 269.785 607.864Z" fill="url(#paint1_linear_10538_3178)"/>
<path fill-rule="evenodd" clip-rule="evenodd" d="M272.838 594.893H205.668V318.465C205.644 317.89 205.631 317.3 205.631 316.694C205.631 281.32 172.92 264.927 143.481 274.418V214.644C182.272 205.212 219.597 217.631 240.581 239.133C279.031 194.464 327.873 185.767 357.203 185.767C395.893 185.767 428.314 199.943 454.465 228.295C480.616 255.929 493.692 291.099 493.692 333.806C493.692 360.175 488.622 383.831 478.483 404.773L415.303 372.055C420.992 360.625 423.835 347.876 423.835 333.806C423.835 311.197 416.492 291.997 401.804 276.206C387.474 260.773 369.741 253.058 348.605 253.058C327.469 253.058 309.737 260.773 295.406 276.206C268.728 304.937 268.728 362.676 295.406 391.406C309.737 406.839 327.469 414.554 348.605 414.554C360.48 414.554 371.281 412.119 381.007 407.249L409.727 471.58C393.664 478.423 376.156 481.845 357.203 481.845C326.036 481.845 297.915 471.796 272.838 451.699V594.893Z" fill="url(#paint2_linear_10538_3178)"/>
<mask id="mask5_10538_3178" style="mask-type:luminance" maskUnits="userSpaceOnUse" x="143" y="185" width="351" height="410">
<path fill-rule="evenodd" clip-rule="evenodd" d="M272.838 594.893H205.668V318.465C205.644 317.89 205.631 317.3 205.631 316.694C205.631 281.32 172.92 264.927 143.481 274.418V214.644C182.272 205.212 219.597 217.631 240.581 239.133C279.031 194.464 327.873 185.767 357.203 185.767C395.893 185.767 428.314 199.943 454.465 228.295C480.616 255.929 493.692 291.099 493.692 333.806C493.692 360.175 488.622 383.831 478.483 404.773L415.303 372.055C420.992 360.625 423.835 347.876 423.835 333.806C423.835 311.197 416.492 291.997 401.804 276.206C387.474 260.773 369.741 253.058 348.605 253.058C327.469 253.058 309.737 260.773 295.406 276.206C268.728 304.937 268.728 362.676 295.406 391.406C309.737 406.839 327.469 414.554 348.605 414.554C360.48 414.554 371.281 412.119 381.007 407.249L409.727 471.58C393.664 478.423 376.156 481.845 357.203 481.845C326.036 481.845 297.915 471.796 272.838 451.699V594.893Z" fill="white"/>
</mask>
<g mask="url(#mask5_10538_3178)">
<path d="M205.668 594.893H203.606V596.955H205.668V594.893ZM272.838 594.893V596.955H274.9V594.893H272.838ZM205.668 318.465H207.731V318.422L207.729 318.379L205.668 318.465ZM143.481 274.418H141.418V277.25L144.114 276.381L143.481 274.418ZM143.481 214.644L142.994 212.641L141.418 213.024V214.644H143.481ZM240.581 239.133L239.105 240.574L240.677 242.184L242.145 240.479L240.581 239.133ZM454.465 228.295L452.949 229.694L452.958 229.704L452.967 229.713L454.465 228.295ZM478.483 404.773L477.535 406.605L479.416 407.579L480.34 405.672L478.483 404.773ZM415.303 372.055L413.457 371.136L412.553 372.953L414.355 373.887L415.303 372.055ZM401.804 276.206L400.293 277.609L400.294 277.611L401.804 276.206ZM381.007 407.249L382.89 406.407L382.011 404.438L380.083 405.404L381.007 407.249ZM409.726 471.58L410.534 473.478L412.465 472.655L411.61 470.739L409.726 471.58ZM272.838 451.699L274.127 450.089L270.775 447.403V451.699H272.838ZM205.668 596.955H272.838V592.83H205.668V596.955ZM203.606 318.465V594.893H207.731V318.465H203.606ZM203.569 316.694C203.569 317.327 203.581 317.947 203.607 318.551L207.729 318.379C207.705 317.818 207.694 317.256 207.694 316.694H203.569ZM144.114 276.381C158.307 271.805 173.21 273.497 184.511 280.486C195.754 287.439 203.569 299.714 203.569 316.694H207.694C207.694 298.3 199.152 284.691 186.681 276.978C174.267 269.3 158.094 267.54 142.848 272.455L144.114 276.381ZM141.418 214.644V274.418H145.543V214.644H141.418ZM242.057 237.693C220.538 215.643 182.457 203.045 142.994 212.641L143.968 216.649C182.087 207.38 218.654 219.62 239.105 240.574L242.057 237.693ZM357.203 183.705C327.504 183.705 277.99 192.513 239.018 237.788L242.145 240.479C280.073 196.414 328.241 187.831 357.203 187.831V183.705ZM455.981 226.897C429.437 198.12 396.466 183.705 357.203 183.705V187.831C395.319 187.831 427.189 201.767 452.949 229.694L455.981 226.897ZM495.755 333.806C495.755 290.642 482.522 254.942 455.963 226.877L452.967 229.713C478.71 256.916 491.63 291.556 491.63 333.806H495.755ZM480.34 405.672C490.632 384.415 495.755 360.445 495.755 333.806H491.63C491.63 359.905 486.613 383.248 476.626 403.874L480.34 405.672ZM414.355 373.887L477.535 406.605L479.431 402.941L416.252 370.223L414.355 373.887ZM421.773 333.806C421.773 347.59 418.989 360.02 413.457 371.136L417.15 372.974C422.994 361.231 425.898 348.162 425.898 333.806H421.773ZM400.294 277.611C414.608 293 421.773 311.69 421.773 333.806H425.898C425.898 310.703 418.375 290.993 403.314 274.801L400.294 277.611ZM348.605 255.12C369.17 255.12 386.354 262.599 400.293 277.609L403.315 274.802C388.594 258.949 370.312 250.995 348.605 250.995V255.12ZM296.918 277.609C310.856 262.599 328.04 255.12 348.605 255.12V250.995C326.898 250.995 308.616 258.949 293.895 274.802L296.918 277.609ZM296.918 390.003C284.026 376.12 277.46 355.058 277.46 333.806C277.46 312.555 284.026 291.493 296.918 277.609L293.895 274.802C280.109 289.649 273.335 311.823 273.335 333.806C273.335 355.789 280.109 377.963 293.895 392.81L296.918 390.003ZM348.605 412.492C328.04 412.492 310.856 405.013 296.918 390.003L293.895 392.81C308.616 408.665 326.898 416.617 348.605 416.617V412.492ZM380.083 405.404C370.669 410.119 360.189 412.492 348.605 412.492V416.617C360.771 416.617 371.891 414.12 381.931 409.092L380.083 405.404ZM411.61 470.739L382.89 406.407L379.123 408.089L407.842 472.42L411.61 470.739ZM357.203 483.908C376.409 483.908 394.196 480.439 410.534 473.478L408.918 469.683C393.132 476.408 375.902 479.783 357.203 479.783V483.908ZM271.548 453.309C296.978 473.689 325.552 483.908 357.203 483.908V479.783C326.52 479.783 298.851 469.904 274.127 450.089L271.548 453.309ZM274.9 594.893V451.699H270.775V594.893H274.9Z" fill="url(#paint3_linear_10538_3178)" fill-opacity="0.6"/>
</g>
<path d="M478.444 417.724V404.753C481.115 399.031 482.26 396.741 484.167 391.019L486.838 395.978C486.838 395.978 484.93 402.845 483.404 406.66C481.878 410.476 478.444 417.724 478.444 417.724Z" fill="url(#paint4_linear_10538_3178)" fill-opacity="0.75"/>
</g>
<g opacity="0.3" filter="url(#filter1_f_10538_3178)">
<path d="M433.198 656.036H175.454C148.251 656.036 126.198 666.152 126.198 678.631V678.632C126.198 691.111 148.251 701.226 175.454 701.226H433.198C460.402 701.226 482.454 691.111 482.454 678.632V678.631C482.454 666.152 460.402 656.036 433.198 656.036Z" fill="black"/>
</g>
<g opacity="0.08" filter="url(#filter2_f_10538_3178)">
<path d="M407.57 641.659H198.602C169.544 641.659 145.987 652.465 145.987 665.794C145.987 679.124 169.544 689.93 198.602 689.93H407.57C436.628 689.93 460.185 679.124 460.185 665.794C460.185 652.465 436.628 641.659 407.57 641.659Z" fill="black"/>
</g>
<rect x="126.942" y="628.311" width="355.012" height="54.2432" rx="13.8481" fill="url(#paint5_linear_10538_3178)"/>
<rect x="126.942" y="628.311" width="355.012" height="54.2432" rx="13.8481" fill="url(#paint6_radial_10538_3178)" fill-opacity="0.15"/>
<rect x="126.942" y="628.311" width="355.012" height="54.2432" rx="13.8481" fill="#F2F2F2"/>
<rect x="126.942" y="628.311" width="355.012" height="54.2432" rx="13.8481" stroke="url(#paint7_linear_10538_3178)"/>
<path d="M148.919 662.197C149.421 661.879 149.998 661.503 150.651 661.068C151.321 660.616 151.999 660.122 152.685 659.586C153.388 659.05 154.075 658.481 154.744 657.879C155.43 657.276 156.033 656.657 156.552 656.021C157.088 655.368 157.514 654.707 157.833 654.037C158.167 653.367 158.335 652.706 158.335 652.053C158.335 651.133 158.042 650.396 157.456 649.844C156.887 649.291 156.125 649.015 155.171 649.015C154.2 649.015 153.363 649.325 152.66 649.944C151.957 650.547 151.488 651.459 151.254 652.681L148.793 652.053C149.061 650.312 149.764 648.965 150.902 648.011C152.057 647.057 153.497 646.58 155.221 646.58C156.075 646.58 156.853 646.705 157.556 646.956C158.276 647.207 158.887 647.567 159.389 648.036C159.908 648.505 160.31 649.065 160.595 649.718C160.879 650.354 161.021 651.066 161.021 651.852C161.021 652.874 160.745 653.886 160.193 654.891C159.657 655.878 158.979 656.816 158.159 657.703C157.355 658.59 156.477 659.41 155.522 660.164C154.585 660.9 153.715 661.536 152.911 662.072H161.498V664.432H148.919V662.197ZM170.396 664.683C169.324 664.683 168.353 664.474 167.483 664.055C166.629 663.62 165.893 663.018 165.273 662.248C164.671 661.461 164.202 660.507 163.867 659.385C163.549 658.264 163.39 657.017 163.39 655.644C163.39 654.255 163.549 653.007 163.867 651.903C164.202 650.781 164.671 649.835 165.273 649.065C165.893 648.279 166.629 647.676 167.483 647.257C168.353 646.822 169.324 646.605 170.396 646.605C171.467 646.605 172.429 646.822 173.283 647.257C174.154 647.676 174.89 648.279 175.493 649.065C176.095 649.835 176.556 650.781 176.874 651.903C177.208 653.007 177.376 654.255 177.376 655.644C177.376 657.017 177.208 658.264 176.874 659.385C176.556 660.507 176.095 661.461 175.493 662.248C174.89 663.018 174.154 663.62 173.283 664.055C172.429 664.474 171.467 664.683 170.396 664.683ZM170.396 662.248C171.768 662.248 172.831 661.678 173.584 660.54C174.338 659.385 174.714 657.753 174.714 655.644C174.714 653.535 174.338 651.911 173.584 650.773C172.831 649.618 171.768 649.04 170.396 649.04C169.023 649.04 167.96 649.618 167.207 650.773C166.453 651.911 166.077 653.535 166.077 655.644C166.077 657.753 166.453 659.385 167.207 660.54C167.96 661.678 169.023 662.248 170.396 662.248Z" fill="#2B2B42"/>
<rect x="187.932" y="654.535" width="194.032" height="1.79351" fill="url(#paint8_linear_10538_3178)"/>
<path d="M398.49 664.683C396.85 664.683 395.452 664.315 394.297 663.578C393.142 662.842 392.372 661.796 391.987 660.44L394.397 659.812C395.067 661.436 396.439 662.248 398.515 662.248C399.754 662.248 400.725 661.913 401.428 661.243C402.148 660.557 402.508 659.645 402.508 658.506C402.508 657.469 402.198 656.665 401.578 656.096C400.959 655.527 400.047 655.242 398.842 655.242C398.406 655.242 397.979 655.284 397.561 655.368C397.159 655.451 396.766 655.61 396.381 655.845L395.427 654.137L400.85 649.241H392.84V646.856H404.24V648.99L399.319 653.233C399.402 653.217 399.486 653.208 399.57 653.208C399.653 653.208 399.737 653.208 399.821 653.208C400.557 653.225 401.252 653.359 401.905 653.61C402.574 653.861 403.152 654.221 403.637 654.69C404.123 655.142 404.508 655.694 404.792 656.347C405.077 657 405.219 657.728 405.219 658.531C405.219 659.452 405.06 660.289 404.742 661.042C404.441 661.796 403.997 662.44 403.411 662.976C402.826 663.511 402.114 663.93 401.277 664.231C400.457 664.533 399.528 664.683 398.49 664.683ZM414.638 664.683C413.567 664.683 412.596 664.474 411.726 664.055C410.872 663.62 410.135 663.018 409.516 662.248C408.913 661.461 408.445 660.507 408.11 659.385C407.792 658.264 407.633 657.017 407.633 655.644C407.633 654.255 407.792 653.007 408.11 651.903C408.445 650.781 408.913 649.835 409.516 649.065C410.135 648.279 410.872 647.676 411.726 647.257C412.596 646.822 413.567 646.605 414.638 646.605C415.709 646.605 416.672 646.822 417.526 647.257C418.396 647.676 419.133 648.279 419.735 649.065C420.338 649.835 420.798 650.781 421.116 651.903C421.451 653.007 421.619 654.255 421.619 655.644C421.619 657.017 421.451 658.264 421.116 659.385C420.798 660.507 420.338 661.461 419.735 662.248C419.133 663.018 418.396 663.62 417.526 664.055C416.672 664.474 415.709 664.683 414.638 664.683ZM414.638 662.248C416.011 662.248 417.074 661.678 417.827 660.54C418.58 659.385 418.957 657.753 418.957 655.644C418.957 653.535 418.58 651.911 417.827 650.773C417.074 649.618 416.011 649.04 414.638 649.04C413.266 649.04 412.203 649.618 411.449 650.773C410.696 651.911 410.319 653.535 410.319 655.644C410.319 657.753 410.696 659.385 411.449 660.54C412.203 661.678 413.266 662.248 414.638 662.248ZM430.92 664.683C429.849 664.683 428.878 664.474 428.007 664.055C427.154 663.62 426.417 663.018 425.798 662.248C425.195 661.461 424.726 660.507 424.391 659.385C424.073 658.264 423.914 657.017 423.914 655.644C423.914 654.255 424.073 653.007 424.391 651.903C424.726 650.781 425.195 649.835 425.798 649.065C426.417 648.279 427.154 647.676 428.007 647.257C428.878 646.822 429.849 646.605 430.92 646.605C431.991 646.605 432.954 646.822 433.807 647.257C434.678 647.676 435.414 648.279 436.017 649.065C436.62 649.835 437.08 650.781 437.398 651.903C437.733 653.007 437.9 654.255 437.9 655.644C437.9 657.017 437.733 658.264 437.398 659.385C437.08 660.507 436.62 661.461 436.017 662.248C435.414 663.018 434.678 663.62 433.807 664.055C432.954 664.474 431.991 664.683 430.92 664.683ZM430.92 662.248C432.293 662.248 433.355 661.678 434.109 660.54C434.862 659.385 435.239 657.753 435.239 655.644C435.239 653.535 434.862 651.911 434.109 650.773C433.355 649.618 432.293 649.04 430.92 649.04C429.547 649.04 428.484 649.618 427.731 650.773C426.978 651.911 426.601 653.535 426.601 655.644C426.601 657.753 426.978 659.385 427.731 660.54C428.484 661.678 429.547 662.248 430.92 662.248ZM444.239 655.995C443.636 655.995 443.084 655.887 442.582 655.669C442.079 655.435 441.644 655.117 441.276 654.715C440.924 654.313 440.648 653.836 440.447 653.284C440.246 652.731 440.146 652.129 440.146 651.476V651.149C440.146 650.513 440.246 649.919 440.447 649.367C440.648 648.814 440.924 648.337 441.276 647.935C441.644 647.534 442.079 647.224 442.582 647.006C443.084 646.772 443.636 646.655 444.239 646.655H444.44C445.042 646.655 445.595 646.772 446.097 647.006C446.599 647.224 447.026 647.534 447.377 647.935C447.746 648.337 448.022 648.814 448.206 649.367C448.407 649.919 448.507 650.513 448.507 651.149V651.476C448.507 652.129 448.407 652.731 448.206 653.284C448.022 653.836 447.746 654.313 447.377 654.715C447.026 655.117 446.599 655.435 446.097 655.669C445.595 655.887 445.042 655.995 444.44 655.995H444.239ZM454.91 646.78H457.873L444.113 664.432H441.15L454.91 646.78ZM444.364 653.911C444.95 653.911 445.427 653.677 445.795 653.208C446.164 652.723 446.348 652.129 446.348 651.426V651.225C446.348 650.522 446.164 649.936 445.795 649.467C445.427 648.982 444.95 648.739 444.364 648.739H444.314C443.728 648.739 443.251 648.982 442.883 649.467C442.515 649.936 442.33 650.522 442.33 651.225V651.426C442.33 652.129 442.515 652.723 442.883 653.208C443.251 653.677 443.728 653.911 444.314 653.911H444.364ZM454.584 664.633C453.964 664.633 453.404 664.524 452.901 664.307C452.399 664.072 451.964 663.754 451.596 663.352C451.244 662.951 450.968 662.474 450.767 661.921C450.583 661.369 450.491 660.775 450.491 660.138V659.812C450.491 659.159 450.583 658.557 450.767 658.004C450.968 657.452 451.244 656.975 451.596 656.573C451.964 656.171 452.399 655.862 452.901 655.644C453.404 655.41 453.964 655.292 454.584 655.292H454.759C455.379 655.292 455.94 655.41 456.442 655.644C456.944 655.862 457.371 656.171 457.722 656.573C458.091 656.975 458.367 657.452 458.551 658.004C458.752 658.557 458.852 659.159 458.852 659.812V660.138C458.852 660.775 458.752 661.369 458.551 661.921C458.367 662.474 458.091 662.951 457.722 663.352C457.371 663.754 456.944 664.072 456.442 664.307C455.94 664.524 455.379 664.633 454.759 664.633H454.584ZM454.709 662.549C455.295 662.549 455.764 662.315 456.115 661.846C456.484 661.36 456.668 660.766 456.668 660.063V659.862C456.668 659.159 456.484 658.573 456.115 658.105C455.764 657.619 455.295 657.376 454.709 657.376H454.634C454.048 657.376 453.571 657.619 453.203 658.105C452.851 658.573 452.675 659.159 452.675 659.862V660.063C452.675 660.766 452.851 661.36 453.203 661.846C453.571 662.315 454.048 662.549 454.634 662.549H454.709Z" fill="#2B2B42"/>
<g filter="url(#filter3_ddddd_10538_3178)">
<path d="M320.142 665.789C326.085 665.789 330.903 660.971 330.903 655.028C330.903 649.084 326.085 644.267 320.142 644.267C314.198 644.267 309.381 649.084 309.381 655.028C309.381 660.971 314.198 665.789 320.142 665.789Z" fill="url(#paint9_linear_10538_3178)"/>
</g>
<g opacity="0.3" filter="url(#filter4_f_10538_3178)">
<path d="M342.87 424.987H85.1265C57.923 424.987 35.8702 435.103 35.8702 447.582V447.583C35.8702 460.062 57.923 470.178 85.1265 470.178H342.87C370.074 470.178 392.126 460.062 392.126 447.583V447.582C392.126 435.103 370.074 424.987 342.87 424.987Z" fill="black"/>
</g>
<g opacity="0.08" filter="url(#filter5_f_10538_3178)">
<path d="M317.242 410.61H108.274C79.2155 410.61 55.6588 421.416 55.6588 434.745C55.6588 448.075 79.2155 458.881 108.274 458.881H317.242C346.3 458.881 369.857 448.075 369.857 434.745C369.857 421.416 346.3 410.61 317.242 410.61Z" fill="black"/>
</g>
<rect x="36.5629" y="397.21" width="343.201" height="54.3465" rx="13.8997" fill="url(#paint10_linear_10538_3178)"/>
<rect x="36.5629" y="397.21" width="343.201" height="54.3465" rx="13.8997" fill="url(#paint11_radial_10538_3178)" fill-opacity="0.15"/>
<rect x="36.5629" y="397.21" width="343.201" height="54.3465" rx="13.8997" fill="#F2F2F2"/>
<rect x="36.5629" y="397.21" width="343.201" height="54.3465" rx="13.8997" stroke="url(#paint12_linear_10538_3178)" stroke-width="0.896755"/>
<g clip-path="url(#clip1_10538_3178)">
<path fill-rule="evenodd" clip-rule="evenodd" d="M69.4737 422.062V425.212H77.0102C76.7848 426.984 76.1942 428.277 75.2949 429.177C74.1983 430.274 72.4816 431.483 69.4737 431.483C64.8336 431.483 61.2056 427.743 61.2056 423.102C61.2056 418.462 64.8336 414.723 69.4737 414.723C71.9756 414.723 73.8037 415.707 75.154 416.973L77.3753 414.751C75.4909 412.951 72.9889 411.573 69.4737 411.573C63.1182 411.573 57.7748 416.747 57.7748 423.102C57.7748 429.458 63.1182 434.632 69.4737 434.632C72.9044 434.632 75.4909 433.507 77.5163 431.399C79.5967 429.317 80.2437 426.394 80.2437 424.03C80.2437 423.3 80.1886 422.625 80.0746 422.062H69.4737Z" fill="#4285F4"/>
<path fill-rule="evenodd" clip-rule="evenodd" d="M89.6641 431.456C87.4094 431.456 85.4634 429.595 85.4634 426.945C85.4634 424.269 87.4094 422.436 89.6641 422.436C91.9188 422.436 93.8635 424.269 93.8635 426.945C93.8635 429.595 91.9188 431.456 89.6641 431.456ZM89.6641 419.504C85.5493 419.504 82.1941 422.633 82.1941 426.945C82.1941 431.23 85.5493 434.388 89.6641 434.388C93.7789 434.388 97.1341 431.23 97.1341 426.945C97.1341 422.633 93.7789 419.504 89.6641 419.504Z" fill="#E94235"/>
<path fill-rule="evenodd" clip-rule="evenodd" d="M122.529 431.456C120.274 431.456 118.555 429.539 118.555 426.946C118.555 424.324 120.274 422.436 122.529 422.436C124.756 422.436 126.503 424.353 126.503 426.974C126.503 429.567 124.756 431.456 122.529 431.456ZM126.276 421.167H126.163C125.431 420.294 124.021 419.504 122.246 419.504C118.526 419.504 115.286 422.746 115.286 426.946C115.286 431.117 118.526 434.388 122.246 434.388C124.021 434.388 125.431 433.598 126.163 432.696H126.276V433.737C126.276 436.584 124.754 438.106 122.302 438.106C120.301 438.106 119.06 436.668 118.553 435.456L115.706 436.64C116.525 438.613 118.693 441.038 122.302 441.038C126.135 441.038 129.378 438.782 129.378 433.286V419.887H126.276V421.167Z" fill="#4285F4"/>
<path fill-rule="evenodd" clip-rule="evenodd" d="M106.318 431.456C104.063 431.456 102.119 429.595 102.119 426.945C102.119 424.269 104.063 422.436 106.318 422.436C108.573 422.436 110.517 424.269 110.517 426.945C110.517 429.595 108.573 431.456 106.318 431.456ZM106.318 419.504C102.203 419.504 98.8481 422.633 98.8481 426.945C98.8481 431.23 102.203 434.388 106.318 434.388C110.433 434.388 113.788 431.23 113.788 426.945C113.788 422.633 110.433 419.504 106.318 419.504Z" fill="#FBBC04"/>
<path fill-rule="evenodd" clip-rule="evenodd" d="M131.939 434.388H135.155V411.88H131.939V434.388Z" fill="#34A853"/>
<path fill-rule="evenodd" clip-rule="evenodd" d="M144.847 422.293C146.171 422.293 147.292 422.966 147.666 423.935L140.945 426.72C140.945 423.583 143.164 422.293 144.847 422.293ZM145.089 431.456C143.427 431.456 142.243 430.695 141.481 429.201L151.431 425.085L151.093 424.24C150.473 422.577 148.584 419.505 144.723 419.505C140.889 419.505 137.704 422.521 137.704 426.945C137.704 431.118 140.861 434.387 145.089 434.387C148.5 434.387 150.473 432.302 151.291 431.09L148.753 429.397C147.908 430.639 146.752 431.456 145.089 431.456Z" fill="#E94235"/>
<path d="M168.014 433.802C167.037 433.802 166.07 433.595 165.111 433.182C164.153 432.768 163.308 432.158 162.575 431.35C161.842 430.542 161.307 429.537 160.968 428.334L163.251 427.404C163.571 428.569 164.153 429.546 164.999 430.335C165.844 431.124 166.868 431.519 168.071 431.519C168.822 431.519 169.508 431.387 170.128 431.124C170.767 430.842 171.274 430.438 171.65 429.912C172.045 429.386 172.242 428.747 172.242 427.996C172.242 427 171.866 426.211 171.115 425.628C170.382 425.027 169.292 424.473 167.845 423.966L166.577 423.515C165.825 423.233 165.074 422.876 164.322 422.444C163.571 422.011 162.951 421.448 162.462 420.753C161.974 420.039 161.729 419.146 161.729 418.075C161.729 417.098 161.992 416.206 162.519 415.398C163.045 414.59 163.768 413.942 164.689 413.453C165.609 412.964 166.671 412.72 167.873 412.72C169.132 412.72 170.185 412.955 171.03 413.425C171.894 413.876 172.571 414.421 173.059 415.059C173.567 415.68 173.905 416.253 174.074 416.779L171.847 417.737C171.735 417.342 171.518 416.938 171.199 416.525C170.88 416.093 170.448 415.736 169.903 415.454C169.377 415.153 168.71 415.003 167.902 415.003C167.244 415.003 166.624 415.135 166.042 415.398C165.478 415.661 165.018 416.027 164.66 416.497C164.322 416.948 164.153 417.474 164.153 418.075C164.153 418.921 164.491 419.588 165.168 420.076C165.844 420.565 166.755 421.006 167.902 421.401L169.226 421.852C169.827 422.058 170.438 422.312 171.058 422.613C171.697 422.913 172.289 423.298 172.834 423.768C173.379 424.238 173.82 424.82 174.158 425.516C174.497 426.192 174.666 427.009 174.666 427.968C174.666 429.001 174.459 429.893 174.046 430.645C173.651 431.378 173.125 431.979 172.467 432.449C171.81 432.919 171.086 433.257 170.297 433.463C169.527 433.689 168.766 433.802 168.014 433.802ZM184.122 433.802C182.732 433.802 181.492 433.473 180.402 432.815C179.331 432.158 178.485 431.256 177.865 430.11C177.264 428.963 176.963 427.658 176.963 426.192C176.963 424.82 177.245 423.552 177.809 422.387C178.391 421.222 179.199 420.292 180.233 419.597C181.285 418.883 182.516 418.526 183.925 418.526C185.353 418.526 186.575 418.845 187.589 419.484C188.622 420.104 189.411 420.969 189.957 422.077C190.52 423.186 190.802 424.454 190.802 425.882C190.802 426.014 190.792 426.145 190.774 426.277C190.774 426.408 190.764 426.521 190.746 426.615H179.359C179.434 427.742 179.707 428.682 180.176 429.433C180.665 430.166 181.266 430.72 181.98 431.096C182.694 431.453 183.436 431.631 184.207 431.631C185.259 431.631 186.124 431.387 186.8 430.899C187.494 430.391 188.049 429.771 188.463 429.039L190.492 430.025C189.928 431.115 189.12 432.017 188.068 432.731C187.015 433.445 185.7 433.802 184.122 433.802ZM183.925 420.696C182.76 420.696 181.792 421.063 181.022 421.795C180.251 422.528 179.744 423.477 179.5 424.642H188.266C188.246 424.097 188.086 423.524 187.787 422.923C187.505 422.303 187.054 421.777 186.434 421.344C185.814 420.912 184.977 420.696 183.925 420.696ZM198.336 433.802C197.265 433.802 196.326 433.595 195.518 433.182C194.711 432.768 194.072 432.205 193.601 431.491C193.15 430.758 192.925 429.931 192.925 429.01C192.925 427.958 193.198 427.075 193.742 426.361C194.288 425.628 195.021 425.084 195.941 424.726C196.862 424.351 197.876 424.163 198.984 424.163C199.943 424.163 200.788 424.266 201.521 424.473C202.254 424.679 202.78 424.886 203.099 425.093V424.219C203.099 423.129 202.715 422.265 201.944 421.626C201.174 420.987 200.235 420.668 199.125 420.668C198.336 420.668 197.594 420.846 196.899 421.204C196.222 421.542 195.687 422.021 195.292 422.641L193.489 421.288C194.052 420.443 194.823 419.776 195.8 419.287C196.796 418.78 197.904 418.526 199.125 418.526C201.08 418.526 202.611 419.043 203.719 420.076C204.829 421.11 205.382 422.5 205.382 424.247V433.351H203.099V431.293H202.987C202.611 431.932 202.019 432.515 201.211 433.041C200.404 433.548 199.446 433.802 198.336 433.802ZM198.562 431.688C199.389 431.688 200.14 431.481 200.816 431.068C201.512 430.654 202.067 430.1 202.479 429.405C202.893 428.71 203.099 427.949 203.099 427.122C202.668 426.821 202.123 426.577 201.465 426.389C200.827 426.201 200.122 426.107 199.351 426.107C197.98 426.107 196.974 426.389 196.335 426.953C195.697 427.517 195.377 428.212 195.377 429.039C195.377 429.828 195.678 430.467 196.279 430.955C196.881 431.444 197.642 431.688 198.562 431.688ZM208.716 433.351V418.977H210.998V421.288H211.111C211.299 420.743 211.609 420.273 212.041 419.879C212.492 419.465 212.999 419.146 213.563 418.921C214.146 418.676 214.719 418.554 215.282 418.554C215.714 418.554 216.052 418.582 216.297 418.639C216.542 418.676 216.767 418.742 216.973 418.836V421.429C216.373 421.128 215.696 420.978 214.944 420.978C214.248 420.978 213.611 421.175 213.028 421.57C212.445 421.964 211.976 422.491 211.618 423.148C211.28 423.806 211.111 424.529 211.111 425.318V433.351H208.716ZM224.942 433.802C223.532 433.802 222.273 433.473 221.165 432.815C220.075 432.139 219.22 431.228 218.6 430.081C217.98 428.917 217.67 427.611 217.67 426.164C217.67 424.698 217.98 423.392 218.6 422.246C219.22 421.1 220.075 420.198 221.165 419.541C222.273 418.864 223.532 418.526 224.942 418.526C226.557 418.526 227.882 418.902 228.916 419.653C229.967 420.386 230.71 421.335 231.142 422.5L228.972 423.402C228.615 422.519 228.079 421.852 227.365 421.401C226.67 420.931 225.824 420.696 224.829 420.696C223.983 420.696 223.194 420.922 222.461 421.373C221.748 421.824 221.165 422.462 220.714 423.289C220.263 424.097 220.038 425.055 220.038 426.164C220.038 427.254 220.263 428.212 220.714 429.039C221.165 429.865 221.748 430.504 222.461 430.955C223.194 431.406 223.983 431.631 224.829 431.631C225.844 431.631 226.717 431.397 227.45 430.927C228.183 430.457 228.727 429.79 229.085 428.926L231.227 429.828C230.756 430.936 229.996 431.876 228.944 432.646C227.892 433.416 226.557 433.802 224.942 433.802ZM233.817 433.351V413.171H236.213V419.118L236.1 421.091H236.213C236.588 420.377 237.199 419.776 238.045 419.287C238.908 418.78 239.857 418.526 240.891 418.526C242.713 418.526 244.066 419.062 244.95 420.133C245.832 421.185 246.274 422.519 246.274 424.135V433.351H243.879V424.501C243.879 423.111 243.521 422.134 242.808 421.57C242.112 420.987 241.286 420.696 240.327 420.696C239.538 420.696 238.834 420.922 238.214 421.373C237.594 421.824 237.104 422.406 236.748 423.12C236.391 423.834 236.213 424.576 236.213 425.347V433.351H233.817ZM265.674 433.802C264.19 433.802 262.809 433.539 261.531 433.013C260.273 432.468 259.163 431.725 258.205 430.786C257.266 429.828 256.533 428.71 256.007 427.432C255.481 426.136 255.217 424.745 255.217 423.261C255.217 421.758 255.481 420.367 256.007 419.09C256.533 417.812 257.266 416.704 258.205 415.764C259.163 414.806 260.273 414.064 261.531 413.538C262.809 412.993 264.19 412.72 265.674 412.72C267.215 412.72 268.605 413.011 269.845 413.594C271.085 414.158 272.156 414.966 273.058 416.018L271.338 417.681C269.855 415.896 267.967 415.003 265.674 415.003C264.227 415.003 262.894 415.341 261.671 416.018C260.451 416.694 259.473 417.652 258.74 418.892C258.008 420.114 257.641 421.57 257.641 423.261C257.641 424.933 258.008 426.389 258.74 427.629C259.473 428.869 260.451 429.828 261.671 430.504C262.894 431.181 264.227 431.519 265.674 431.519C266.989 431.519 268.154 431.246 269.168 430.701C270.202 430.157 271.113 429.424 271.902 428.503L273.65 430.194C272.767 431.246 271.64 432.111 270.268 432.787C268.897 433.463 267.365 433.802 265.674 433.802ZM282.688 433.802C281.241 433.802 279.964 433.463 278.855 432.787C277.746 432.111 276.873 431.199 276.233 430.053C275.613 428.888 275.303 427.592 275.303 426.164C275.303 424.736 275.613 423.449 276.233 422.303C276.873 421.138 277.746 420.217 278.855 419.541C279.964 418.864 281.241 418.526 282.688 418.526C284.135 418.526 285.412 418.874 286.521 419.569C287.63 420.245 288.493 421.166 289.113 422.331C289.753 423.477 290.072 424.755 290.072 426.164C290.072 427.592 289.753 428.888 289.113 430.053C288.493 431.199 287.63 432.111 286.521 432.787C285.412 433.463 284.135 433.802 282.688 433.802ZM282.688 431.631C283.552 431.631 284.361 431.415 285.111 430.983C285.883 430.551 286.503 429.931 286.971 429.123C287.442 428.296 287.676 427.31 287.676 426.164C287.676 425.018 287.442 424.041 286.971 423.233C286.503 422.406 285.883 421.777 285.111 421.344C284.361 420.912 283.552 420.696 282.688 420.696C281.824 420.696 281.007 420.912 280.236 421.344C279.466 421.777 278.846 422.406 278.375 423.233C277.907 424.041 277.671 425.018 277.671 426.164C277.671 427.31 277.907 428.296 278.375 429.123C278.846 429.931 279.466 430.551 280.236 430.983C281.007 431.415 281.824 431.631 282.688 431.631ZM292.579 433.351V418.977H294.862V421.091H294.974C295.35 420.396 295.961 419.794 296.806 419.287C297.67 418.78 298.61 418.526 299.625 418.526C301.39 418.526 302.715 419.043 303.599 420.076C304.5 421.091 304.951 422.444 304.951 424.135V433.351H302.556V424.501C302.556 423.111 302.218 422.134 301.541 421.57C300.883 420.987 300.028 420.696 298.976 420.696C298.187 420.696 297.492 420.922 296.891 421.373C296.289 421.805 295.82 422.368 295.482 423.064C295.144 423.759 294.974 424.492 294.974 425.262V433.351H292.579ZM313.255 433.802C311.64 433.802 310.324 433.426 309.31 432.674C308.295 431.904 307.59 430.993 307.196 429.94L309.338 428.982C309.714 429.847 310.259 430.514 310.973 430.983C311.687 431.453 312.505 431.688 313.424 431.688C314.308 431.688 315.041 431.509 315.623 431.152C316.225 430.795 316.525 430.269 316.525 429.574C316.525 428.935 316.243 428.437 315.679 428.08C315.135 427.723 314.365 427.423 313.368 427.178L311.621 426.728C310.944 426.54 310.306 426.277 309.704 425.938C309.103 425.6 308.615 425.168 308.239 424.642C307.883 424.097 307.703 423.439 307.703 422.669C307.703 421.805 307.957 421.063 308.464 420.443C308.971 419.823 309.639 419.353 310.465 419.033C311.293 418.695 312.175 418.526 313.114 418.526C314.337 418.526 315.445 418.799 316.44 419.343C317.455 419.87 318.17 420.63 318.582 421.626L316.497 422.585C316.14 421.871 315.661 421.373 315.059 421.091C314.458 420.809 313.791 420.668 313.058 420.668C312.269 420.668 311.584 420.846 311.001 421.204C310.419 421.542 310.127 422.011 310.127 422.613C310.127 423.214 310.363 423.665 310.832 423.966C311.321 424.266 311.913 424.51 312.607 424.698L314.693 425.234C317.53 425.967 318.948 427.357 318.948 429.405C318.948 430.307 318.695 431.087 318.188 431.744C317.68 432.402 316.995 432.909 316.13 433.266C315.267 433.623 314.308 433.802 313.255 433.802ZM328.321 433.802C326.875 433.802 325.597 433.463 324.488 432.787C323.38 432.111 322.506 431.199 321.867 430.053C321.247 428.888 320.937 427.592 320.937 426.164C320.937 424.736 321.247 423.449 321.867 422.303C322.506 421.138 323.38 420.217 324.488 419.541C325.597 418.864 326.875 418.526 328.321 418.526C329.769 418.526 331.046 418.874 332.154 419.569C333.263 420.245 334.127 421.166 334.747 422.331C335.386 423.477 335.705 424.755 335.705 426.164C335.705 427.592 335.386 428.888 334.747 430.053C334.127 431.199 333.263 432.111 332.154 432.787C331.046 433.463 329.769 433.802 328.321 433.802ZM328.321 431.631C329.186 431.631 329.994 431.415 330.745 430.983C331.516 430.551 332.136 429.931 332.605 429.123C333.075 428.296 333.309 427.31 333.309 426.164C333.309 425.018 333.075 424.041 332.605 423.233C332.136 422.406 331.516 421.777 330.745 421.344C329.994 420.912 329.186 420.696 328.321 420.696C327.457 420.696 326.64 420.912 325.869 421.344C325.099 421.777 324.479 422.406 324.009 423.233C323.54 424.041 323.304 425.018 323.304 426.164C323.304 427.31 323.54 428.296 324.009 429.123C324.479 429.931 325.099 430.551 325.869 430.983C326.64 431.415 327.457 431.631 328.321 431.631ZM338.349 433.351V413.171H340.745V433.351H338.349ZM350.555 433.802C349.164 433.802 347.924 433.473 346.835 432.815C345.764 432.158 344.919 431.256 344.298 430.11C343.696 428.963 343.397 427.658 343.397 426.192C343.397 424.82 343.678 423.552 344.242 422.387C344.824 421.222 345.632 420.292 346.666 419.597C347.718 418.883 348.949 418.526 350.358 418.526C351.785 418.526 353.007 418.845 354.022 419.484C355.054 420.104 355.844 420.969 356.389 422.077C356.953 423.186 357.235 424.454 357.235 425.882C357.235 426.014 357.225 426.145 357.207 426.277C357.207 426.408 357.196 426.521 357.178 426.615H345.792C345.867 427.742 346.139 428.682 346.61 429.433C347.098 430.166 347.698 430.72 348.413 431.096C349.127 431.453 349.869 431.631 350.64 431.631C351.692 431.631 352.556 431.387 353.233 430.899C353.927 430.391 354.482 429.771 354.896 429.039L356.925 430.025C356.361 431.115 355.553 432.017 354.501 432.731C353.448 433.445 352.134 433.802 350.555 433.802ZM350.358 420.696C349.192 420.696 348.225 421.063 347.455 421.795C346.684 422.528 346.177 423.477 345.933 424.642H354.698C354.679 424.097 354.519 423.524 354.219 422.923C353.937 422.303 353.486 421.777 352.866 421.344C352.246 420.912 351.41 420.696 350.358 420.696Z" fill="#5E5E5E"/>
</g>
<g opacity="0.7" filter="url(#filter6_f_10538_3178)">
<path d="M378.442 144.773H277.983C268.579 144.773 260.956 154.47 260.956 166.431V180.508C260.956 192.469 268.579 202.166 277.983 202.166H378.442C387.846 202.166 395.469 192.469 395.469 180.508V166.431C395.469 154.47 387.846 144.773 378.442 144.773Z" fill="black"/>
</g>
<g opacity="0.3" filter="url(#filter7_f_10538_3178)">
<path d="M362.82 147.464H297.192C290.551 147.464 285.168 159.308 285.168 173.918C285.168 188.528 290.551 200.372 297.192 200.372H362.82C369.461 200.372 374.844 188.528 374.844 173.918C374.844 159.308 369.461 147.464 362.82 147.464Z" fill="black"/>
</g>
<g clip-path="url(#clip2_10538_3178)">
<rect x="232.26" y="0.395996" width="196.089" height="195.493" rx="35.8702" fill="url(#paint13_linear_10538_3178)"/>
<rect x="232.26" y="0.395996" width="196.089" height="195.493" rx="35.8702" fill="url(#paint14_radial_10538_3178)" fill-opacity="0.15"/>
<g filter="url(#filter8_d_10538_3178)">
<path d="M307.479 136.826C300.234 136.826 294.136 135.212 289.186 131.983C284.236 128.755 280.864 124.092 279.07 117.994L291.553 115.088C292.916 118.317 294.889 120.684 297.472 122.191C300.054 123.626 303.39 124.343 307.479 124.343C312.286 124.343 316.088 123.088 318.886 120.577C321.684 117.994 323.083 114.479 323.083 110.031C323.083 106.013 321.827 102.893 319.317 100.669C316.877 98.3729 313.29 97.2251 308.556 97.2251C304.753 97.2251 301.238 98.1577 298.01 100.023L293.49 91.737L315.335 72.4747H282.729V60.3147H332.66V70.7529L312.537 87.4325C315.981 87.4325 319.173 87.9706 322.114 89.0467C325.128 90.0511 327.746 91.5576 329.97 93.5663C332.194 95.5033 333.916 97.9066 335.135 100.776C336.427 103.574 337.072 106.767 337.072 110.354C337.072 114.299 336.355 117.922 334.92 121.222C333.557 124.451 331.584 127.213 329.002 129.508C326.491 131.804 323.406 133.597 319.747 134.889C316.088 136.18 311.999 136.826 307.479 136.826ZM375.404 60.3147V135.642H361.953V82.9129C359.657 84.7781 357.003 86.2129 353.99 87.2173C351.049 88.2217 347.856 88.7239 344.413 88.7239V77.64C347.139 77.4965 349.614 76.9943 351.838 76.1334C354.062 75.2008 355.963 73.9812 357.541 72.4747C359.191 70.9681 360.447 69.1746 361.307 67.0941C362.24 65.0137 362.706 62.7538 362.706 60.3147H375.404Z" fill="#F0F0F0"/>
</g>
<g opacity="0.48" filter="url(#filter9_ddddddd_10538_3178)">
<path fill-rule="evenodd" clip-rule="evenodd" d="M381.38 2.60244C381.381 1.84195 381.231 1.08882 380.941 0.386065C380.65 -0.316687 380.224 -0.955294 379.686 -1.49328C379.149 -2.03126 378.51 -2.45809 377.808 -2.74937C377.105 -3.04066 376.352 -3.1907 375.592 -3.19092H354.626C353.866 -3.1907 353.113 -3.04066 352.41 -2.74937C351.708 -2.45809 351.069 -2.03126 350.532 -1.49328C349.994 -0.955294 349.568 -0.316687 349.277 0.386065C348.987 1.08882 348.837 1.84195 348.838 2.60244V39.2841C348.838 39.9033 349.015 40.5096 349.347 41.0319C349.68 41.5542 350.155 41.9709 350.715 42.2332C351.276 42.4954 351.9 42.5923 352.514 42.5126C353.129 42.4329 353.707 42.1798 354.182 41.7829L363.817 33.7159C364.179 33.4125 364.637 33.2463 365.109 33.2463C365.581 33.2463 366.039 33.4125 366.401 33.7159L376.035 41.7829C376.51 42.1812 377.089 42.4355 377.704 42.516C378.318 42.5965 378.943 42.4998 379.504 42.2373C380.066 41.9748 380.541 41.5575 380.873 41.0343C381.205 40.5111 381.381 39.9039 381.38 39.2841V2.60244Z" fill="#FB3636"/>
</g>
<path fill-rule="evenodd" clip-rule="evenodd" d="M381.38 1.24467C381.38 -1.95505 380.146 -3.19092 376.95 -3.19092H353.268C350.072 -3.19092 348.838 -1.95505 348.838 1.24467V39.2858C348.838 39.9049 349.015 40.5109 349.348 41.033C349.681 41.555 350.155 41.9715 350.716 42.2335C351.277 42.4956 351.901 42.5923 352.515 42.5125C353.129 42.4327 353.707 42.1797 354.182 41.7829L363.817 33.7159C364.179 33.4125 364.637 33.2463 365.109 33.2463C365.581 33.2463 366.039 33.4125 366.401 33.7159L376.035 41.7829C376.51 42.1812 377.089 42.4355 377.704 42.516C378.318 42.5965 378.943 42.4998 379.504 42.2373C380.066 41.9748 380.541 41.5575 380.873 41.0343C381.205 40.5111 381.381 39.9039 381.38 39.2841V1.24467Z" fill="#FB3636"/>
<path fill-rule="evenodd" clip-rule="evenodd" d="M381.38 1.24467C381.38 -1.95505 380.146 -3.19092 376.95 -3.19092H353.268C350.072 -3.19092 348.838 -1.95505 348.838 1.24467V39.2858C348.838 39.9049 349.015 40.5109 349.348 41.033C349.681 41.555 350.155 41.9715 350.716 42.2335C351.277 42.4956 351.901 42.5923 352.515 42.5125C353.129 42.4327 353.707 42.1797 354.182 41.7829L363.817 33.7159C364.179 33.4125 364.637 33.2463 365.109 33.2463C365.581 33.2463 366.039 33.4125 366.401 33.7159L376.035 41.7829C376.51 42.1812 377.089 42.4355 377.704 42.516C378.318 42.5965 378.943 42.4998 379.504 42.2373C380.066 41.9748 380.541 41.5575 380.873 41.0343C381.205 40.5111 381.381 39.9039 381.38 39.2841V1.24467Z" fill="url(#paint15_linear_10538_3178)"/>
</g>
<g opacity="0.7" filter="url(#filter10_f_10538_3178)">
<path d="M489.22 550.107H402.155C394.005 550.107 387.398 558.137 387.398 568.042V579.7C387.398 589.605 394.005 597.635 402.155 597.635H489.22C497.37 597.635 503.976 589.605 503.976 579.7V568.042C503.976 558.137 497.37 550.107 489.22 550.107Z" fill="black"/>
</g>
<g opacity="0.3" filter="url(#filter11_f_10538_3178)">
<path d="M493.476 564.455H397.002C387.241 564.455 379.327 574.091 379.327 585.977C379.327 597.864 387.241 607.499 397.002 607.499H493.476C503.237 607.499 511.15 597.864 511.15 585.977C511.15 574.091 503.237 564.455 493.476 564.455Z" fill="black"/>
</g>
<rect x="369.463" y="538.449" width="154.089" height="51.6962" rx="14.3481" fill="url(#paint16_linear_10538_3178)"/>
<rect x="369.463" y="538.449" width="154.089" height="51.6962" rx="14.3481" fill="url(#paint17_radial_10538_3178)" fill-opacity="0.15"/>
<g filter="url(#filter12_d_10538_3178)">
<path d="M413.831 564.401C413.831 562.744 414.1 561.205 414.638 559.785C415.198 558.364 415.972 557.138 416.962 556.105C417.952 555.072 419.125 554.264 420.481 553.683C421.859 553.102 423.355 552.812 424.969 552.812H425.195C426.809 552.812 428.294 553.102 429.65 553.683C431.027 554.264 432.211 555.072 433.201 556.105C434.191 557.138 434.955 558.364 435.493 559.785C436.053 561.184 436.332 562.712 436.332 564.369V564.627C436.332 566.285 436.053 567.823 435.493 569.244C434.955 570.643 434.191 571.859 433.201 572.892C432.211 573.925 431.027 574.732 429.65 575.313C428.294 575.894 426.809 576.185 425.195 576.185H424.969C423.355 576.185 421.859 575.894 420.481 575.313C419.125 574.71 417.952 573.893 416.962 572.86C415.994 571.827 415.23 570.6 414.67 569.179C414.111 567.759 413.831 566.231 413.831 564.595V564.401ZM418.222 564.595C418.222 565.757 418.383 566.823 418.706 567.791C419.05 568.738 419.524 569.556 420.126 570.245C420.729 570.912 421.439 571.439 422.257 571.827C423.096 572.192 424.011 572.375 425.001 572.375H425.227C426.195 572.375 427.089 572.192 427.906 571.827C428.724 571.439 429.435 570.912 430.037 570.245C430.64 569.556 431.103 568.738 431.425 567.791C431.77 566.823 431.942 565.757 431.942 564.595V564.401C431.942 563.239 431.77 562.185 431.425 561.238C431.103 560.269 430.64 559.441 430.037 558.752C429.456 558.063 428.746 557.536 427.906 557.17C427.089 556.783 426.185 556.589 425.195 556.589H424.969C424 556.589 423.096 556.783 422.257 557.17C421.439 557.536 420.729 558.063 420.126 558.752C419.524 559.441 419.05 560.269 418.706 561.238C418.383 562.185 418.222 563.239 418.222 564.401V564.595ZM440.377 553.199H444.639V562.82H444.832L453.226 553.199H458.133L448.706 563.594L458.908 575.797H453.71L444.832 564.918H444.639V575.797H440.377V553.199ZM461.721 553.199H470.373C472.891 553.199 474.849 553.823 476.248 555.072C477.669 556.298 478.379 557.988 478.379 560.14V560.463C478.379 561.926 478.024 563.196 477.314 564.272C476.603 565.327 475.624 566.112 474.376 566.629L479.929 575.797H474.925L470.276 567.565H465.95V575.797H461.721V553.199ZM469.856 564.24C471.298 564.24 472.374 563.917 473.085 563.271C473.795 562.626 474.15 561.743 474.15 560.624V560.301C474.15 559.204 473.795 558.354 473.085 557.751C472.374 557.127 471.309 556.815 469.888 556.815H465.853V564.24H469.856Z" fill="#F0F0F0"/>
</g>
</g>
<defs>
<filter id="filter0_ddddd_10538_3178" x="71.7404" y="185.767" width="493.692" height="583.513" filterUnits="userSpaceOnUse" color-interpolation-filters="sRGB">
<feFlood flood-opacity="0" result="BackgroundImageFix"/>
<feColorMatrix in="SourceAlpha" type="matrix" values="0 0 0 0 0 0 0 0 0 0 0 0 0 0 0 0 0 0 127 0" result="hardAlpha"/>
<feOffset dy="3.08035"/>
<feGaussianBlur stdDeviation="1.23214"/>
<feColorMatrix type="matrix" values="0 0 0 0 0.0784314 0 0 0 0 0.0784314 0 0 0 0 0.0784314 0 0 0 0.108506 0"/>
<feBlend mode="normal" in2="BackgroundImageFix" result="effect1_dropShadow_10538_3178"/>
<feColorMatrix in="SourceAlpha" type="matrix" values="0 0 0 0 0 0 0 0 0 0 0 0 0 0 0 0 0 0 127 0" result="hardAlpha"/>
<feOffset dy="7.79011"/>
<feGaussianBlur stdDeviation="3.11622"/>
<feColorMatrix type="matrix" values="0 0 0 0 0.0784314 0 0 0 0 0.0784314 0 0 0 0 0.0784314 0 0 0 0.05 0"/>
<feBlend mode="normal" in2="effect1_dropShadow_10538_3178" result="effect2_dropShadow_10538_3178"/>
<feColorMatrix in="SourceAlpha" type="matrix" values="0 0 0 0 0 0 0 0 0 0 0 0 0 0 0 0 0 0 127 0" result="hardAlpha"/>
<feOffset dx="2.69027" dy="15.8914"/>
<feGaussianBlur stdDeviation="6.3562"/>
<feColorMatrix type="matrix" values="0 0 0 0 0.0784314 0 0 0 0 0.0784314 0 0 0 0 0.0784314 0 0 0 0.08 0"/>
<feBlend mode="normal" in2="effect2_dropShadow_10538_3178" result="effect3_dropShadow_10538_3178"/>
<feColorMatrix in="SourceAlpha" type="matrix" values="0 0 0 0 0 0 0 0 0 0 0 0 0 0 0 0 0 0 127 0" result="hardAlpha"/>
<feOffset dy="32.7334"/>
<feGaussianBlur stdDeviation="13.0935"/>
<feColorMatrix type="matrix" values="0 0 0 0 0.0784314 0 0 0 0 0.0784314 0 0 0 0 0.0784314 0 0 0 0.17 0"/>
<feBlend mode="normal" in2="effect3_dropShadow_10538_3178" result="effect4_dropShadow_10538_3178"/>
<feColorMatrix in="SourceAlpha" type="matrix" values="0 0 0 0 0 0 0 0 0 0 0 0 0 0 0 0 0 0 127 0" result="hardAlpha"/>
<feOffset dy="89.6755"/>
<feGaussianBlur stdDeviation="35.8702"/>
<feColorMatrix type="matrix" values="0 0 0 0 0.0784314 0 0 0 0 0.0784314 0 0 0 0 0.0784314 0 0 0 0.07 0"/>
<feBlend mode="normal" in2="effect4_dropShadow_10538_3178" result="effect5_dropShadow_10538_3178"/>
<feBlend mode="normal" in="SourceGraphic" in2="effect5_dropShadow_10538_3178" result="shape"/>
</filter>
<filter id="filter1_f_10538_3178" x="84.0507" y="613.889" width="440.551" height="129.485" filterUnits="userSpaceOnUse" color-interpolation-filters="sRGB">
<feFlood flood-opacity="0" result="BackgroundImageFix"/>
<feBlend mode="normal" in="SourceGraphic" in2="BackgroundImageFix" result="shape"/>
<feGaussianBlur stdDeviation="21.0737" result="effect1_foregroundBlur_10538_3178"/>
</filter>
<filter id="filter2_f_10538_3178" x="128.052" y="623.724" width="350.069" height="84.1412" filterUnits="userSpaceOnUse" color-interpolation-filters="sRGB">
<feFlood flood-opacity="0" result="BackgroundImageFix"/>
<feBlend mode="normal" in="SourceGraphic" in2="BackgroundImageFix" result="shape"/>
<feGaussianBlur stdDeviation="8.96755" result="effect1_foregroundBlur_10538_3178"/>
</filter>
<filter id="filter3_ddddd_10538_3178" x="284.505" y="641.779" width="71.2741" height="71.2739" filterUnits="userSpaceOnUse" color-interpolation-filters="sRGB">
<feFlood flood-opacity="0" result="BackgroundImageFix"/>
<feColorMatrix in="SourceAlpha" type="matrix" values="0 0 0 0 0 0 0 0 0 0 0 0 0 0 0 0 0 0 127 0" result="hardAlpha"/>
<feOffset dy="1.12184"/>
<feGaussianBlur stdDeviation="0.623245"/>
<feColorMatrix type="matrix" values="0 0 0 0 0.247059 0 0 0 0 0.411765 0 0 0 0 1 0 0 0 0.116246 0"/>
<feBlend mode="normal" in2="BackgroundImageFix" result="effect1_dropShadow_10538_3178"/>
<feColorMatrix in="SourceAlpha" type="matrix" values="0 0 0 0 0 0 0 0 0 0 0 0 0 0 0 0 0 0 127 0" result="hardAlpha"/>
<feOffset dy="2.60866"/>
<feGaussianBlur stdDeviation="1.44916"/>
<feColorMatrix type="matrix" values="0 0 0 0 0.247059 0 0 0 0 0.411765 0 0 0 0 1 0 0 0 0.167949 0"/>
<feBlend mode="normal" in2="effect1_dropShadow_10538_3178" result="effect2_dropShadow_10538_3178"/>
<feColorMatrix in="SourceAlpha" type="matrix" values="0 0 0 0 0 0 0 0 0 0 0 0 0 0 0 0 0 0 127 0" result="hardAlpha"/>
<feOffset dy="4.68555"/>
<feGaussianBlur stdDeviation="2.60328"/>
<feColorMatrix type="matrix" values="0 0 0 0 0.937255 0 0 0 0 0.560784 0 0 0 0 0.560784 0 0 0 0.207023 0"/>
<feBlend mode="normal" in2="effect2_dropShadow_10538_3178" result="effect3_dropShadow_10538_3178"/>
<feColorMatrix in="SourceAlpha" type="matrix" values="0 0 0 0 0 0 0 0 0 0 0 0 0 0 0 0 0 0 127 0" result="hardAlpha"/>
<feOffset dy="7.77576"/>
<feGaussianBlur stdDeviation="4.31967"/>
<feColorMatrix type="matrix" values="0 0 0 0 0.247059 0 0 0 0 0.411765 0 0 0 0 1 0 0 0 0.242977 0"/>
<feBlend mode="normal" in2="effect3_dropShadow_10538_3178" result="effect4_dropShadow_10538_3178"/>
<feColorMatrix in="SourceAlpha" type="matrix" values="0 0 0 0 0 0 0 0 0 0 0 0 0 0 0 0 0 0 127 0" result="hardAlpha"/>
<feOffset dy="22.3884"/>
<feGaussianBlur stdDeviation="12.438"/>
<feColorMatrix type="matrix" values="0 0 0 0 0.247059 0 0 0 0 0.411765 0 0 0 0 1 0 0 0 0.333754 0"/>
<feBlend mode="normal" in2="effect4_dropShadow_10538_3178" result="effect5_dropShadow_10538_3178"/>
<feBlend mode="normal" in="SourceGraphic" in2="effect5_dropShadow_10538_3178" result="shape"/>
</filter>
<filter id="filter4_f_10538_3178" x="-6.27728" y="382.84" width="440.551" height="129.485" filterUnits="userSpaceOnUse" color-interpolation-filters="sRGB">
<feFlood flood-opacity="0" result="BackgroundImageFix"/>
<feBlend mode="normal" in="SourceGraphic" in2="BackgroundImageFix" result="shape"/>
<feGaussianBlur stdDeviation="21.0737" result="effect1_foregroundBlur_10538_3178"/>
</filter>
<filter id="filter5_f_10538_3178" x="37.7237" y="392.675" width="350.069" height="84.1412" filterUnits="userSpaceOnUse" color-interpolation-filters="sRGB">
<feFlood flood-opacity="0" result="BackgroundImageFix"/>
<feBlend mode="normal" in="SourceGraphic" in2="BackgroundImageFix" result="shape"/>
<feGaussianBlur stdDeviation="8.96755" result="effect1_foregroundBlur_10538_3178"/>
</filter>
<filter id="filter6_f_10538_3178" x="243.021" y="126.838" width="170.383" height="93.2623" filterUnits="userSpaceOnUse" color-interpolation-filters="sRGB">
<feFlood flood-opacity="0" result="BackgroundImageFix"/>
<feBlend mode="normal" in="SourceGraphic" in2="BackgroundImageFix" result="shape"/>
<feGaussianBlur stdDeviation="8.96755" result="effect1_foregroundBlur_10538_3178"/>
</filter>
<filter id="filter7_f_10538_3178" x="243.021" y="105.316" width="173.971" height="137.204" filterUnits="userSpaceOnUse" color-interpolation-filters="sRGB">
<feFlood flood-opacity="0" result="BackgroundImageFix"/>
<feBlend mode="normal" in="SourceGraphic" in2="BackgroundImageFix" result="shape"/>
<feGaussianBlur stdDeviation="21.0737" result="effect1_foregroundBlur_10538_3178"/>
</filter>
<filter id="filter8_d_10538_3178" x="277.277" y="59.4177" width="99.9212" height="80.0983" filterUnits="userSpaceOnUse" color-interpolation-filters="sRGB">
<feFlood flood-opacity="0" result="BackgroundImageFix"/>
<feColorMatrix in="SourceAlpha" type="matrix" values="0 0 0 0 0 0 0 0 0 0 0 0 0 0 0 0 0 0 127 0" result="hardAlpha"/>
<feOffset dy="0.896755"/>
<feGaussianBlur stdDeviation="0.896755"/>
<feColorMatrix type="matrix" values="0 0 0 0 0 0 0 0 0 0 0 0 0 0 0 0 0 0 1 0"/>
<feBlend mode="normal" in2="BackgroundImageFix" result="effect1_dropShadow_10538_3178"/>
<feBlend mode="normal" in="SourceGraphic" in2="effect1_dropShadow_10538_3178" result="shape"/>
</filter>
<filter id="filter9_ddddddd_10538_3178" x="295.032" y="-3.19092" width="140.153" height="173.074" filterUnits="userSpaceOnUse" color-interpolation-filters="sRGB">
<feFlood flood-opacity="0" result="BackgroundImageFix"/>
<feColorMatrix in="SourceAlpha" type="matrix" values="0 0 0 0 0 0 0 0 0 0 0 0 0 0 0 0 0 0 127 0" result="hardAlpha"/>
<feOffset dy="1.70383"/>
<feGaussianBlur stdDeviation="0.623245"/>
<feColorMatrix type="matrix" values="0 0 0 0 0.796078 0 0 0 0 0 0 0 0 0 0.0901961 0 0 0 0.34 0"/>
<feBlend mode="normal" in2="BackgroundImageFix" result="effect1_dropShadow_10538_3178"/>
<feColorMatrix in="SourceAlpha" type="matrix" values="0 0 0 0 0 0 0 0 0 0 0 0 0 0 0 0 0 0 127 0" result="hardAlpha"/>
<feOffset dy="3.96186"/>
<feGaussianBlur stdDeviation="1.44916"/>
<feColorMatrix type="matrix" values="0 0 0 0 0.796078 0 0 0 0 0 0 0 0 0 0.0901961 0 0 0 0.25217 0"/>
<feBlend mode="normal" in2="effect1_dropShadow_10538_3178" result="effect2_dropShadow_10538_3178"/>
<feColorMatrix in="SourceAlpha" type="matrix" values="0 0 0 0 0 0 0 0 0 0 0 0 0 0 0 0 0 0 127 0" result="hardAlpha"/>
<feOffset dy="7.11486"/>
<feGaussianBlur stdDeviation="2.60328"/>
<feColorMatrix type="matrix" values="0 0 0 0 0.796078 0 0 0 0 0 0 0 0 0 0.0901961 0 0 0 0.213106 0"/>
<feBlend mode="normal" in2="effect2_dropShadow_10538_3178" result="effect3_dropShadow_10538_3178"/>
<feColorMatrix in="SourceAlpha" type="matrix" values="0 0 0 0 0 0 0 0 0 0 0 0 0 0 0 0 0 0 127 0" result="hardAlpha"/>
<feOffset dy="11.8076"/>
<feGaussianBlur stdDeviation="4.31967"/>
<feColorMatrix type="matrix" values="0 0 0 0 0.796078 0 0 0 0 0 0 0 0 0 0.0901961 0 0 0 0.183582 0"/>
<feBlend mode="normal" in2="effect3_dropShadow_10538_3178" result="effect4_dropShadow_10538_3178"/>
<feColorMatrix in="SourceAlpha" type="matrix" values="0 0 0 0 0 0 0 0 0 0 0 0 0 0 0 0 0 0 127 0" result="hardAlpha"/>
<feOffset dy="19.4524"/>
<feGaussianBlur stdDeviation="7.11665"/>
<feColorMatrix type="matrix" values="0 0 0 0 0.796078 0 0 0 0 0 0 0 0 0 0.0901961 0 0 0 0.156418 0"/>
<feBlend mode="normal" in2="effect4_dropShadow_10538_3178" result="effect5_dropShadow_10538_3178"/>
<feColorMatrix in="SourceAlpha" type="matrix" values="0 0 0 0 0 0 0 0 0 0 0 0 0 0 0 0 0 0 127 0" result="hardAlpha"/>
<feOffset dy="33.9969"/>
<feGaussianBlur stdDeviation="12.438"/>
<feColorMatrix type="matrix" values="0 0 0 0 0.796078 0 0 0 0 0 0 0 0 0 0.0901961 0 0 0 0.126894 0"/>
<feBlend mode="normal" in2="effect5_dropShadow_10538_3178" result="effect6_dropShadow_10538_3178"/>
<feColorMatrix in="SourceAlpha" type="matrix" values="0 0 0 0 0 0 0 0 0 0 0 0 0 0 0 0 0 0 127 0" result="hardAlpha"/>
<feOffset dy="73.5339"/>
<feGaussianBlur stdDeviation="26.9027"/>
<feColorMatrix type="matrix" values="0 0 0 0 0.796078 0 0 0 0 0 0 0 0 0 0.0901961 0 0 0 0.0878304 0"/>
<feBlend mode="normal" in2="effect6_dropShadow_10538_3178" result="effect7_dropShadow_10538_3178"/>
<feBlend mode="normal" in="SourceGraphic" in2="effect7_dropShadow_10538_3178" result="shape"/>
</filter>
<filter id="filter10_f_10538_3178" x="369.463" y="532.172" width="152.448" height="83.398" filterUnits="userSpaceOnUse" color-interpolation-filters="sRGB">
<feFlood flood-opacity="0" result="BackgroundImageFix"/>
<feBlend mode="normal" in="SourceGraphic" in2="BackgroundImageFix" result="shape"/>
<feGaussianBlur stdDeviation="8.96755" result="effect1_foregroundBlur_10538_3178"/>
</filter>
<filter id="filter11_f_10538_3178" x="337.18" y="522.308" width="216.118" height="127.339" filterUnits="userSpaceOnUse" color-interpolation-filters="sRGB">
<feFlood flood-opacity="0" result="BackgroundImageFix"/>
<feBlend mode="normal" in="SourceGraphic" in2="BackgroundImageFix" result="shape"/>
<feGaussianBlur stdDeviation="21.0737" result="effect1_foregroundBlur_10538_3178"/>
</filter>
<filter id="filter12_d_10538_3178" x="412.037" y="551.915" width="69.6846" height="26.9601" filterUnits="userSpaceOnUse" color-interpolation-filters="sRGB">
<feFlood flood-opacity="0" result="BackgroundImageFix"/>
<feColorMatrix in="SourceAlpha" type="matrix" values="0 0 0 0 0 0 0 0 0 0 0 0 0 0 0 0 0 0 127 0" result="hardAlpha"/>
<feOffset dy="0.896755"/>
<feGaussianBlur stdDeviation="0.896755"/>
<feColorMatrix type="matrix" values="0 0 0 0 0 0 0 0 0 0 0 0 0 0 0 0 0 0 1 0"/>
<feBlend mode="normal" in2="BackgroundImageFix" result="effect1_dropShadow_10538_3178"/>
<feBlend mode="normal" in="SourceGraphic" in2="effect1_dropShadow_10538_3178" result="shape"/>
</filter>
<linearGradient id="paint0_linear_10538_3178" x1="131.823" y1="16.2157" x2="131.937" y2="201.446" gradientUnits="userSpaceOnUse">
<stop stop-color="white"/>
<stop offset="1" stop-color="white" stop-opacity="0"/>
</linearGradient>
<linearGradient id="paint1_linear_10538_3178" x1="283.471" y1="95.0716" x2="409.541" y2="874.713" gradientUnits="userSpaceOnUse">
<stop stop-color="#EEF0F1"/>
<stop offset="1" stop-color="#9B9C9D"/>
</linearGradient>
<linearGradient id="paint2_linear_10538_3178" x1="318.587" y1="185.768" x2="359.994" y2="873.076" gradientUnits="userSpaceOnUse">
<stop stop-color="#F2F2F2"/>
<stop offset="1" stop-color="#DFDFDF"/>
</linearGradient>
<linearGradient id="paint3_linear_10538_3178" x1="318.587" y1="185.768" x2="322.027" y2="363.551" gradientUnits="userSpaceOnUse">
<stop stop-color="white"/>
<stop offset="1" stop-color="white" stop-opacity="0"/>
</linearGradient>
<linearGradient id="paint4_linear_10538_3178" x1="478.826" y1="410.857" x2="486.838" y2="395.215" gradientUnits="userSpaceOnUse">
<stop stop-color="#E6E5E5"/>
<stop offset="1" stop-color="#E6E5E5" stop-opacity="0"/>
</linearGradient>
<linearGradient id="paint5_linear_10538_3178" x1="339.858" y1="601.814" x2="337.76" y2="699.783" gradientUnits="userSpaceOnUse">
<stop stop-color="#2B2B42"/>
<stop offset="1" stop-color="#18181B"/>
</linearGradient>
<radialGradient id="paint6_radial_10538_3178" cx="0" cy="0" r="1" gradientUnits="userSpaceOnUse" gradientTransform="translate(304.448 627.811) rotate(90) scale(55.2432 356.012)">
<stop stop-color="white"/>
<stop offset="0.536458" stop-color="#2B2B42"/>
</radialGradient>
<linearGradient id="paint7_linear_10538_3178" x1="304.447" y1="626.803" x2="304.447" y2="684.06" gradientUnits="userSpaceOnUse">
<stop stop-color="white"/>
<stop offset="1" stop-color="#F2F2F2"/>
</linearGradient>
<linearGradient id="paint8_linear_10538_3178" x1="377.494" y1="655.027" x2="183.014" y2="654.135" gradientUnits="userSpaceOnUse">
<stop stop-color="#2B2B42"/>
<stop offset="1" stop-color="#2B2B42" stop-opacity="0.2"/>
</linearGradient>
<linearGradient id="paint9_linear_10538_3178" x1="325.592" y1="664.531" x2="313.014" y2="644.965" gradientUnits="userSpaceOnUse">
<stop stop-color="#002DCC"/>
<stop offset="1" stop-color="#3F69FF"/>
</linearGradient>
<linearGradient id="paint10_linear_10538_3178" x1="242.388" y1="370.765" x2="240.218" y2="468.731" gradientUnits="userSpaceOnUse">
<stop stop-color="#2B2B42"/>
<stop offset="1" stop-color="#18181B"/>
</linearGradient>
<radialGradient id="paint11_radial_10538_3178" cx="0" cy="0" r="1" gradientUnits="userSpaceOnUse" gradientTransform="translate(208.163 396.762) rotate(90) scale(55.2432 344.098)">
<stop stop-color="white"/>
<stop offset="0.536458" stop-color="#2B2B42"/>
</radialGradient>
<linearGradient id="paint12_linear_10538_3178" x1="208.162" y1="395.754" x2="208.162" y2="453.011" gradientUnits="userSpaceOnUse">
<stop stop-color="white"/>
<stop offset="1" stop-color="#F2F2F2"/>
</linearGradient>
<linearGradient id="paint13_linear_10538_3178" x1="349.807" y1="-91.5996" x2="302.971" y2="248.806" gradientUnits="userSpaceOnUse">
<stop stop-color="#2B2B42"/>
<stop offset="1" stop-color="#18181B"/>
</linearGradient>
<radialGradient id="paint14_radial_10538_3178" cx="0" cy="0" r="1" gradientUnits="userSpaceOnUse" gradientTransform="translate(330.304 0.395996) rotate(90) scale(195.493 196.089)">
<stop stop-color="white"/>
<stop offset="0.536458" stop-color="#2B2B42"/>
</radialGradient>
<linearGradient id="paint15_linear_10538_3178" x1="365.109" y1="-3.19092" x2="365.109" y2="42.5431" gradientUnits="userSpaceOnUse">
<stop stop-color="#FF7272"/>
<stop offset="1" stop-color="#FF7272" stop-opacity="0"/>
</linearGradient>
<linearGradient id="paint16_linear_10538_3178" x1="461.833" y1="514.122" x2="457.596" y2="605.647" gradientUnits="userSpaceOnUse">
<stop stop-color="#2B2B42"/>
<stop offset="1" stop-color="#18181B"/>
</linearGradient>
<radialGradient id="paint17_radial_10538_3178" cx="0" cy="0" r="1" gradientUnits="userSpaceOnUse" gradientTransform="translate(446.507 538.449) rotate(90) scale(51.6962 154.089)">
<stop stop-color="white"/>
<stop offset="0.536458" stop-color="#2B2B42"/>
</radialGradient>
<clipPath id="clip0_10538_3178">
<rect width="608" height="784" fill="white" transform="translate(0 0.712891)"/>
</clipPath>
<clipPath id="clip1_10538_3178">
<rect width="301.054" height="35.8702" fill="white" transform="translate(57.6366 406.448)"/>
</clipPath>
<clipPath id="clip2_10538_3178">
<rect x="232.26" y="0.395996" width="196.089" height="195.493" rx="35.8702" fill="white"/>
</clipPath>
</defs>
</svg>
