<svg width="163" height="24" viewBox="0 0 163 24" fill="none" xmlns="http://www.w3.org/2000/svg">
<path d="M15.8 5.79443H19.9L15.8 18.5944H12.2L10.2 11.7944L8.2 18.5944H4.6L0.5 5.79443H4.6L6.4 12.6944L8.4 5.79443H12L14 12.6944L15.8 5.79443Z" fill="#2B2B42"/>
<path d="M31.9 16.9945C31 17.9945 29.7 18.5945 28.4 18.8945C27.1 19.1945 25.7 18.9945 24.5 18.4945C23.3 17.9945 22.2 17.0945 21.5 15.9945C20.8 14.8945 20.4 13.5945 20.4 12.1945C20.4 11.2945 20.6 10.3945 20.9 9.59453C21.2 8.79453 21.8 7.99453 22.4 7.39453C23.7 6.09453 25.4 5.39453 27.2 5.39453C29 5.39453 30.7 6.09453 32 7.39453C32.6 7.99453 33.2 8.79453 33.5 9.59453C33.8 10.3945 34 11.2945 34 12.1945C34 13.0945 33.8 13.9945 33.5 14.7945C33 15.6945 32.5 16.3945 31.9 16.9945ZM25 14.3945C25.6 14.8945 26.3 15.2945 27.1 15.2945C27.9 15.2945 28.6 14.9945 29.2 14.3945C29.5 14.0945 29.7 13.7945 29.8 13.3945C29.9 12.9945 30 12.5945 30 12.1945C30 11.3945 29.7 10.5945 29.2 10.0945C28.6 9.59453 27.9 9.19453 27.1 9.19453C26.3 9.19453 25.6 9.49453 25 10.0945C24.7 10.3945 24.5 10.6945 24.4 11.0945C24.3 11.4945 24.2 11.8945 24.2 12.2945C24.2 12.6945 24.3 13.0945 24.4 13.3945C24.5 13.7945 24.7 14.0945 25 14.3945Z" fill="#2B2B42"/>
<path d="M39.8 8.09439C40 7.29439 40.5 6.59438 41.2 6.19438C41.9 5.79438 42.7 5.49438 43.6 5.49438V9.89438C42.7 9.69438 41.8 9.89438 41 10.3944C40.6 10.6944 40.3 10.9944 40 11.3944C39.8 11.7944 39.7 12.2944 39.7 12.7944V18.5944H35.9V5.79438H39.7V8.09439H39.8Z" fill="#2B2B42"/>
<path d="M57.8 18.5946H53.5L49.4 12.9946V18.5946H45.5V0.69458H49.3V11.3946L53.1 5.79458H57.6L52.9 12.1946L57.8 18.5946Z" fill="#2B2B42"/>
<path d="M62.7 3.99448C62.5 4.19448 62.2 4.39448 62 4.49448C61.7 4.59448 61.4 4.69448 61.1 4.69448C60.8 4.69448 60.5 4.59448 60.2 4.49448C59.9 4.39448 59.7 4.19448 59.4 3.99448C59.2 3.79448 59 3.49448 58.9 3.29448C58.8 2.99448 58.7 2.69448 58.7 2.39448C58.7 2.09448 58.8 1.79448 58.9 1.49448C59 1.19448 59.2 0.994483 59.4 0.794483C59.6 0.594483 59.9 0.394483 60.2 0.294483C60.5 0.194483 60.8 0.0944824 61.1 0.0944824C61.4 0.0944824 61.7 0.194483 62 0.294483C62.3 0.394483 62.5 0.594483 62.7 0.794483C62.9 0.994483 63.1 1.29448 63.2 1.49448C63.3 1.79448 63.4 2.09448 63.4 2.39448C63.4 2.69448 63.3 2.99448 63.2 3.29448C63.1 3.59448 62.9 3.79448 62.7 3.99448ZM59.2 18.5945V5.79448H63V18.5945H59.2Z" fill="#2B2B42"/>
<path d="M73.3 5.49437C73.9 5.49437 74.6 5.59437 75.2 5.79437C75.8 5.99437 76.3 6.39437 76.8 6.89437C77.3 7.39437 77.6 7.99437 77.9 8.69437C78.1 9.39437 78.2 10.0944 78.2 10.7944V18.6944H74.4V11.3944C74.4 11.0944 74.4 10.7944 74.3 10.4944C74.2 10.1944 74 9.89437 73.8 9.69437C73.6 9.49437 73.3 9.29437 73.1 9.19437C72.8 9.09437 72.5 8.99437 72.2 9.09437C71.9 9.09437 71.6 9.09437 71.3 9.29437C71 9.39437 70.7 9.59437 70.5 9.79437C70.3 10.0944 70.1 10.3944 70 10.6944C69.9 10.9944 69.8 11.3944 69.9 11.7944V18.7944H66.1V5.79437H69.9V6.99437C70.3 6.49437 70.9 5.99437 71.5 5.79437C72.1 5.59437 72.6 5.39437 73.3 5.49437Z" fill="#2B2B42"/>
<path d="M90.1 5.79443H93.8V17.8944C93.9 18.7944 93.7 19.5944 93.4 20.3944C93.1 21.1944 92.5 21.8944 91.8 22.3944C90.4 23.3944 88.8 23.9944 87 23.8944C84.1 23.8944 82.1 22.8944 80.9 20.7944L84.2 18.8944C84.5 19.2944 84.8 19.5944 85.2 19.8944C85.6 20.1944 86 20.2944 86.5 20.3944C87 20.4944 87.4 20.4944 87.9 20.3944C88.4 20.2944 88.8 20.0944 89.2 19.7944C89.5 19.4944 89.7 19.1944 89.8 18.8944C89.9 18.5944 90 18.1944 90 17.7944V16.5944C89.6 17.1944 89 17.5944 88.3 17.8944C87.7 18.1944 86.9 18.2944 86.2 18.2944C85.4 18.2944 84.5 18.1944 83.7 17.7944C82.9 17.4944 82.2 16.9944 81.7 16.3944C81.1 15.7944 80.7 15.0944 80.3 14.2944C80 13.4944 79.8 12.6944 79.9 11.7944C79.9 10.9944 80 10.0944 80.3 9.29443C80.6 8.49443 81.1 7.79443 81.7 7.19443C82.3 6.59443 83 6.09443 83.7 5.79443C84.5 5.49443 85.3 5.29443 86.1 5.29443C86.8 5.29443 87.5 5.39443 88.2 5.69443C88.9 5.99443 89.4 6.39443 89.9 6.99443V5.79443H90.1ZM84.8 14.0944C85.4 14.5944 86.2 14.8944 87 14.8944C87.8 14.8944 88.6 14.5944 89.2 14.0944C89.5 13.7944 89.7 13.4944 89.9 13.0944C90.1 12.6944 90.1 12.2944 90.1 11.8944C90.1 11.4944 90 11.0944 89.9 10.6944C89.8 10.2944 89.5 9.99443 89.2 9.69443C88.6 9.19443 87.8 8.89443 87 8.89443C86.2 8.89443 85.4 9.19443 84.8 9.69443C84.5 9.99443 84.3 10.2944 84.1 10.6944C84 11.0944 83.9 11.4944 83.9 11.8944C83.9 12.2944 84 12.6944 84.1 13.0944C84.3 13.4944 84.5 13.7944 84.8 14.0944Z" fill="#2B2B42"/>
<path d="M106 0.69458H109.8V18.5946H106V17.3946C105.5 17.8946 104.9 18.2946 104.3 18.5946C103.7 18.8946 102.9 18.9946 102.2 18.9946C101.4 18.9946 100.6 18.7946 99.8 18.4946C99.1 18.1946 98.4 17.6946 97.8 17.0946C96.6 15.7946 96 14.0946 96 12.2946C96 10.4946 96.6 8.79458 97.8 7.49458C98.3 6.89458 99 6.39458 99.7 5.99458C100.4 5.69458 101.3 5.49458 102.1 5.49458C102.8 5.49458 103.5 5.59458 104.2 5.89458C104.9 6.19458 105.4 6.59458 105.9 7.09458V0.69458H106ZM100.7 14.4946C101 14.7946 101.3 14.9946 101.7 15.1946C102.1 15.2946 102.5 15.3946 102.9 15.3946C103.3 15.3946 103.7 15.3946 104.1 15.1946C104.5 14.9946 104.8 14.7946 105.1 14.4946C105.4 14.1946 105.6 13.7946 105.8 13.4946C105.9 13.0946 106 12.6946 106 12.2946C106 11.8946 106 11.4946 105.8 11.0946C105.7 10.6946 105.4 10.2946 105.1 10.0946C104.8 9.79458 104.5 9.59458 104.1 9.49458C103.7 9.39458 103.3 9.29458 102.9 9.29458C102.5 9.29458 102.1 9.39458 101.7 9.49458C101.3 9.59458 101 9.89458 100.7 10.0946C100.4 10.3946 100.2 10.7946 100 11.1946C99.9 11.5946 99.8 11.9946 99.8 12.3946C99.8 12.7946 99.8 13.1946 100 13.5946C100.2 13.7946 100.4 14.1946 100.7 14.4946Z" fill="#2B2B42"/>
<path d="M116.5 8.09439C116.7 7.29439 117.2 6.59438 117.9 6.19438C118.6 5.79438 119.5 5.49438 120.3 5.49438V9.89438C119.4 9.69438 118.5 9.89438 117.7 10.3944C117.3 10.6944 117 10.9944 116.7 11.3944C116.5 11.7944 116.4 12.2944 116.4 12.7944V18.5944H112.6V5.79438H116.4V8.09439H116.5Z" fill="#2B2B42"/>
<path d="M132.6 16.9945C131.7 17.9945 130.4 18.5945 129.1 18.8945C127.8 19.1945 126.4 18.9945 125.2 18.4945C124 17.9945 122.9 17.0945 122.2 15.9945C121.5 14.8945 121.1 13.5945 121.1 12.1945C121.1 11.2945 121.3 10.3945 121.6 9.59453C121.9 8.79453 122.5 7.99453 123.1 7.39453C124.4 6.09453 126.1 5.39453 127.9 5.39453C129.7 5.39453 131.4 6.09453 132.7 7.39453C133.3 7.99453 133.9 8.79453 134.2 9.59453C134.5 10.3945 134.7 11.2945 134.7 12.1945C134.7 13.0945 134.5 13.9945 134.2 14.7945C133.8 15.6945 133.3 16.3945 132.6 16.9945ZM125.7 14.3945C126 14.6945 126.3 14.8945 126.7 14.9945C127.1 15.0945 127.4 15.1945 127.8 15.1945C128.2 15.1945 128.6 15.0945 128.9 14.9945C129.3 14.8945 129.6 14.5945 129.9 14.3945C130.2 14.0945 130.4 13.7945 130.5 13.3945C130.6 12.9945 130.7 12.5945 130.7 12.1945C130.7 11.7945 130.6 11.3945 130.5 10.9945C130.4 10.5945 130.1 10.2945 129.9 9.99453C129.6 9.69453 129.3 9.49453 128.9 9.39453C128.5 9.29453 128.2 9.19453 127.8 9.19453C127.4 9.19453 127 9.29453 126.7 9.39453C126.3 9.49453 126 9.79453 125.7 9.99453C125.4 10.2945 125.2 10.5945 125.1 10.9945C125 11.3945 124.9 11.7945 124.9 12.1945C124.9 12.5945 125 12.9945 125.1 13.3945C125.2 13.7945 125.5 14.0945 125.7 14.3945Z" fill="#2B2B42"/>
<path d="M144.5 5.49453C145.3 5.49453 146.1 5.69453 146.9 5.99453C147.6 6.29453 148.3 6.79453 148.8 7.49453C150 8.79453 150.6 10.4945 150.6 12.2945C150.6 14.0945 150 15.7945 148.8 17.0945C148.3 17.6945 147.6 18.1945 146.8 18.4945C146.1 18.7945 145.2 18.9945 144.4 18.9945C143.7 18.9945 143 18.8945 142.3 18.6945C141.6 18.3945 141 17.9945 140.6 17.4945V23.7945H136.8V5.79453H140.6V6.99453C141.1 6.49453 141.7 6.09453 142.3 5.79453C143 5.49453 143.7 5.39453 144.5 5.49453ZM141.5 14.4945C142.1 14.9945 142.9 15.2945 143.7 15.2945C144.5 15.2945 145.3 14.9945 145.9 14.4945C146.2 14.1945 146.4 13.7945 146.6 13.4945C146.7 13.0945 146.8 12.6945 146.8 12.2945C146.8 11.8945 146.8 11.4945 146.6 11.0945C146.5 10.6945 146.2 10.3945 145.9 9.99453C145.3 9.49453 144.5 9.19453 143.7 9.19453C142.9 9.19453 142.1 9.49453 141.5 9.99453C141.2 10.2945 141 10.6945 140.8 10.9945C140.7 11.3945 140.6 11.7945 140.6 12.1945C140.6 12.5945 140.6 12.9945 140.8 13.3945C140.9 13.7945 141.2 14.1945 141.5 14.4945Z" fill="#2B2B42"/>
<path d="M156.1 9.59458C156.1 9.89458 156.3 10.0946 156.8 10.1946C157.3 10.3946 157.8 10.5946 158.4 10.6946C159 10.8946 159.6 11.0946 160.2 11.2946C160.9 11.5946 161.5 12.0946 161.9 12.6946C162.3 13.2946 162.5 14.0946 162.5 14.7946C162.5 15.3946 162.4 15.9946 162.1 16.5946C161.8 17.0946 161.4 17.5946 160.9 17.9946C159.8 18.6946 158.5 19.0946 157.1 19.0946C154.4 19.0946 152.6 18.0946 151.6 16.0946L154.9 14.1946C155 14.6946 155.3 15.0946 155.7 15.2946C156.1 15.5946 156.6 15.6946 157.1 15.6946C158 15.6946 158.5 15.3946 158.5 14.8946C158.5 14.5946 158.3 14.3946 157.9 14.2946C157.4 14.0946 156.9 13.8946 156.3 13.7946C155.7 13.5946 155.1 13.3946 154.5 13.1946C153.9 12.8946 153.3 12.4946 152.9 11.9946C152.5 11.3946 152.2 10.6946 152.3 9.89458C152.3 9.29458 152.4 8.69458 152.6 8.19458C152.9 7.69458 153.2 7.19458 153.7 6.79458C154.7 5.99458 156 5.69458 157.3 5.69458C158.3 5.69458 159.3 5.89458 160.2 6.39458C161.1 6.89458 161.8 7.59458 162.3 8.39458L159 10.1946C158.9 9.89458 158.6 9.59458 158.3 9.39458C158 9.19458 157.6 9.09458 157.3 9.09458C156.5 8.89458 156.1 9.09458 156.1 9.59458Z" fill="#2B2B42"/>
</svg>
