<svg width="24" height="25" viewBox="0 0 24 25" xmlns="http://www.w3.org/2000/svg">
<g clip-path="url(#clip0_10650_29)">
<path d="M20.8115 3.05308C20.2175 2.50405 17.8053 0.753441 12.4365 0.73094C12.4365 0.73094 6.10462 0.348416 3.01742 3.17909C1.30281 4.8982 0.695277 7.41386 0.632273 10.5281C0.569269 13.6422 0.488264 19.4881 6.11812 21.0722H6.12262L6.11812 23.4889C6.11812 23.4889 6.08211 24.4654 6.72565 24.6679C7.5042 24.911 7.96323 24.1684 8.70578 23.3629C9.1153 22.9218 9.67784 22.2783 10.1054 21.7833C13.9576 22.1073 16.9188 21.3647 17.2563 21.2567C18.0349 21.0047 22.4361 20.4422 23.1517 14.6008C23.8897 8.57943 22.7917 4.77219 20.8115 3.05308ZM21.4641 14.1688C20.861 19.0471 17.2923 19.3531 16.6353 19.5646C16.3563 19.6546 13.7551 20.3027 10.4834 20.0867C10.4834 20.0867 8.04424 23.0253 7.28369 23.7904C7.16668 23.9119 7.02717 23.9569 6.93267 23.9344C6.80216 23.9029 6.76616 23.7454 6.76616 23.5204C6.76616 23.1963 6.78866 19.5016 6.78866 19.5016C2.02286 18.183 2.29738 13.2102 2.35138 10.6091C2.40538 8.00789 2.89591 5.87026 4.34951 4.43467C6.95967 2.07202 12.3375 2.42305 12.3375 2.42305C16.8783 2.44105 19.0564 3.80913 19.5605 4.26816C21.2346 5.70375 22.0896 9.13747 21.4641 14.1688Z"/>
<path d="M14.6461 10.6991C14.4841 10.6991 14.3491 10.5731 14.3446 10.4111C14.2951 9.38049 13.8091 8.87646 12.819 8.82245C12.6525 8.81345 12.522 8.66945 12.531 8.50294C12.54 8.33642 12.6795 8.20592 12.8505 8.21492C14.1601 8.28242 14.8847 9.02947 14.9522 10.3796C14.9612 10.5461 14.8307 10.6901 14.6642 10.6991C14.6552 10.6946 14.6507 10.6991 14.6461 10.6991Z"/>
<path d="M16.2032 11.221H16.1987C16.0322 11.2165 15.8972 11.077 15.9017 10.9105C15.9242 9.87093 15.6272 9.03388 14.9972 8.34083C14.3671 7.65229 13.4986 7.27427 12.351 7.19326C12.1845 7.17976 12.0585 7.03575 12.072 6.86924C12.0855 6.70273 12.2295 6.57672 12.396 6.59022C13.6876 6.68473 14.7137 7.13926 15.4427 7.93581C16.1762 8.73686 16.5318 9.74492 16.5093 10.9285C16.5048 11.086 16.3698 11.221 16.2032 11.221Z"/>
<path d="M17.8008 11.842C17.6343 11.842 17.4993 11.707 17.4993 11.5405C17.4858 9.7089 16.9368 8.25081 15.8657 7.20674C14.7947 6.16268 13.4401 5.62714 11.838 5.61364C11.6715 5.61364 11.5365 5.47413 11.5365 5.30762C11.5365 5.14111 11.6715 5.0061 11.838 5.0061C13.6021 5.0196 15.0962 5.61364 16.2843 6.77021C17.4768 7.93129 18.0844 9.53339 18.1024 11.5315C18.1024 11.7025 17.9674 11.842 17.8008 11.842Z"/>
<path d="M12.891 14.4612C12.891 14.4612 13.3186 14.4972 13.5481 14.2137L13.9981 13.6512C14.2141 13.3721 14.7362 13.1921 15.2447 13.4757C15.6272 13.6962 16.0007 13.9302 16.3563 14.1867C16.6938 14.4342 17.3913 15.0147 17.3913 15.0147C17.7198 15.2938 17.7964 15.7033 17.5713 16.1353C17.5713 16.1398 17.5713 16.1443 17.5713 16.1443C17.3238 16.5763 17.0088 16.9634 16.6398 17.2919C16.6353 17.2919 16.6353 17.2964 16.6308 17.2964C16.3113 17.5664 15.9917 17.7194 15.6857 17.7554C15.6407 17.7644 15.5957 17.7644 15.5462 17.7644C15.4112 17.7644 15.2717 17.7464 15.1457 17.7014L15.1367 17.6879C14.6597 17.5529 13.8631 17.2154 12.5355 16.4818C11.766 16.0633 11.0369 15.5818 10.3484 15.0372C10.0019 14.7672 9.67785 14.4747 9.36283 14.1642L9.33132 14.1327L9.29982 14.1012L9.26832 14.0697C9.25932 14.0607 9.24582 14.0472 9.23682 14.0382C8.9263 13.7277 8.63828 13.3991 8.36376 13.0526C7.81923 12.3641 7.3377 11.635 6.91917 10.8655C6.18563 9.5379 5.84811 8.74135 5.7131 8.26432L5.6996 8.25532C5.65909 8.12482 5.63659 7.98981 5.63659 7.8548C5.63209 7.8098 5.63659 7.76029 5.64559 7.71529C5.6861 7.40477 5.8391 7.08975 6.10462 6.76573C6.10462 6.76123 6.10912 6.76123 6.10912 6.75673C6.43764 6.38771 6.82917 6.07269 7.25669 5.82517C7.25669 5.82517 7.26119 5.82517 7.26569 5.82517C7.69772 5.60016 8.10725 5.67666 8.38626 6.00518C8.38626 6.00518 8.9668 6.70273 9.21432 7.04025C9.47083 7.40027 9.70485 7.77379 9.92536 8.15632C10.2089 8.66485 10.0334 9.19138 9.75435 9.4029L9.19181 9.85292C8.9083 10.0824 8.9443 10.51 8.9443 10.51C8.9443 10.51 9.77235 13.6647 12.891 14.4612Z"/>
</g>
<defs>
<clipPath id="clip0_10650_29">
<rect width="22.7624" height="24" fill="white" transform="translate(0.618774 0.712891)"/>
</clipPath>
</defs>
</svg>
