<?xml version="1.0" ?><svg viewBox="0 0 512 512" xmlns="http://www.w3.org/2000/svg" xmlns:xlink="http://www.w3.org/1999/xlink"><style>:root>svg{display:none}:root>svg:target{display:block}</style><svg viewBox="0 0 64 64" id="apple" xmlns="http://www.w3.org/2000/svg"><style/><linearGradient id="aSVGID_1_" gradientUnits="userSpaceOnUse" x1="-327" y1="1" x2="-326.293" y2="1.707"><stop offset="0" stop-color="#dedfe3"/><stop offset=".178" stop-color="#dadbdf"/><stop offset=".361" stop-color="#cecfd3"/><stop offset=".546" stop-color="#b9bcbf"/><stop offset=".732" stop-color="#9ca0a2"/><stop offset=".918" stop-color="#787d7e"/><stop offset="1" stop-color="#656b6c"/></linearGradient><g id="aObject"><path d="M48 18.1c-3-1.3-6.3-1.6-9.5-1.9-1.4-.1-2.8-.2-4.3-.3-.2.6-.4 1.2-.6 1.9 2.4.1 4.1.5 4.1.9.1.8-5.4 1.1-7.2.9-5.7-.2-5.9-1.5-.2-1.8.1-.5.2-1.2.4-2-7.3 0-14.9 1.3-19.5 7-4.7 5.9-5.6 13.9-3.5 21C12 58.5 25.4 64.2 36.2 61.3c2.2-.7 4.5.2 6.8-.6 2.1-.7 4.1-2 5.6-3.6 9.5-9.4 14.1-32.5-.6-39zM16.1 28.7c-1.1 2.4-1.7 5.1-1.5 7.8.2 2 .3 5.2-2.3 5.6-1.5.1-2.5-1.6-2.9-3-1.3-4.8.2-10.3 3.8-13.8.8-.8 1.8-1.5 3-1.4 3.3.1.5 3.5-.1 4.8z"/><path d="M21.9 11.8c4.3 1.8 9.3.3 10.8-.2-1.1 3.8-1.6 7.2-1.6 7.2s.2.2.5.2c.2.1.7-.1.6-.1 2.6-11.1 7.4-14.7 7.4-14.7-.6-.1-2.4-.6-3-.7-1.5 1.6-2.7 4.5-3.6 7.3C29 1.7 21.4.5 14.4 3.3c0 0 2.3 6.3 7.5 8.5z"/></g></svg><svg viewBox="0 0 512 512" id="game" xmlns="http://www.w3.org/2000/svg"><path d="M483.13 245.38C461.92 149.49 430 98.31 382.65 84.33A107.13 107.13 0 00352 80c-13.71 0-25.65 3.34-38.28 6.88C298.5 91.15 281.21 96 256 96s-42.51-4.84-57.76-9.11C185.6 83.34 173.67 80 160 80a115.74 115.74 0 00-31.73 4.32c-47.1 13.92-79 65.08-100.52 161C4.61 348.54 16 413.71 59.69 428.83a56.62 56.62 0 0018.64 3.22c29.93 0 53.93-24.93 70.33-45.34 18.53-23.1 40.22-34.82 107.34-34.82 59.95 0 84.76 8.13 106.19 34.82 13.47 16.78 26.2 28.52 38.9 35.91 16.89 9.82 33.77 12 50.16 6.37 25.82-8.81 40.62-32.1 44-69.24 2.57-28.48-1.39-65.89-12.12-114.37zM208 240h-32v32a16 16 0 01-32 0v-32h-32a16 16 0 010-32h32v-32a16 16 0 0132 0v32h32a16 16 0 010 32zm84 4a20 20 0 1120-20 20 20 0 01-20 20zm44 44a20 20 0 1120-19.95A20 20 0 01336 288zm0-88a20 20 0 1120-20 20 20 0 01-20 20zm44 44a20 20 0 1120-20 20 20 0 01-20 20z"/></svg><svg viewBox="0 0 135 90" id="hat" xmlns="http://www.w3.org/2000/svg"><g clip-path="url(#cclip0_10551_31)"><path d="M133.479 55.93c-4.361 8.82-11.209 15.298-19.453 20.351-14.82 9.124-31.036 13.737-48.479 13.432-8.755-.136-17.17-2.408-25.347-5.393-11.004-4.002-21.326-9.226-30.218-16.959-3.611-3.154-6.746-6.682-8.858-11.057-1.908-3.934-1.397-7.19 1.567-10.447 4.054-4.409 9.267-7.02 14.616-9.395 3.032-1.357 6.2-2.442 9.743-3.833-.784 3.053-1.294 5.597-2.112 8.039-1.363 4.036-.17 7.428 2.35 10.548 3.51 4.308 8.245 6.852 13.287 8.819 9.335 3.595 19.078 4.782 29.06 4.545 9.028-.238 17.818-1.696 26.164-5.291 4.157-1.798 7.972-4.07 11.004-7.496 2.828-3.256 4.327-6.818 2.794-11.227-.852-2.374-1.363-4.884-2.146-7.733 3.202 1.22 6.234 2.103 8.994 3.493 4.326 2.171 8.551 4.613 12.741 7.09 1.159.678 2.078 1.729 2.964 2.747 2.555 2.984 3.1 6.139 1.329 9.768z"/><path d="M107.485 40.532c-3.066 4.037-7.291 6.58-11.89 8.48-11.583 4.816-23.677 5.901-36.078 4.85-8.483-.712-16.693-2.578-24.257-6.648-3.168-1.696-6.064-3.799-8.21-6.75-.375-.508-.647-1.356-.545-1.967 2.044-9.972 4.36-19.842 8.142-29.339 1.84-4.646 4.736-6.953 9.744-7.461C57.2.374 70.01.407 82.82 1.357c3.509.272 6.95.882 10.458 1.29 3.305.372 4.566 2.78 5.656 5.528-5.792 2.103-11.277 4.748-16.387 8.174a71.015 71.015 0 01-6.541 3.934c-5.076 2.748-10.084 2.34-14.786-.814-3.509-2.374-6.847-5.02-10.322-7.495-3.748-2.714-7.972-4.24-12.503-4.986-.273-.034-.511 0-1.159 0 2.147.678 3.918 1.187 5.69 1.763 5.11 1.73 8.79 5.495 12.673 8.955 1.806 1.594 3.748 3.12 5.792 4.443 5.178 3.392 10.595 3.595 15.91.509 3.066-1.798 5.825-4.104 8.687-6.207 4.088-3.053 8.313-5.868 13.218-7.903.682 1.696 1.397 3.358 2.044 5.02 3.135 8.072 5.145 16.484 6.814 24.963.102.645-.204 1.492-.579 2.001z"/></g><defs><clipPath id="cclip0_10551_31"><path fill="#fff" transform="translate(0 .713)" d="M0 0h134.535v89H0z"/></clipPath></defs></svg><svg viewBox="0 0 512 512" id="link" xmlns="http://www.w3.org/2000/svg"><path d="M391.662 186.5l1.848-1.9c9.39-9.93 14.217-21.023 13.788-34.763-1.108-35.492-41.08-55.507-71.114-36.392-4.333 2.757-7.777 6.511-11.424 10.074l-17.52 17.55c-14.027 14.09-35.126 30.176-38.398 50.934l-.604 4.626c-.244 1.861-.436 2.023-1.866 3.335l-26.072 26.19c-6.064-6.485-8.247-15.277-9.003-23.919-1.867-21.359 6.351-43.303 20.048-59.539 7.614-9.026 16.749-16.858 25.022-25.282l16.923-17.152c18.739-18.812 34.22-30.322 61.566-32.66l12.606-.114c38.385 1.375 72.38 34.604 77.446 72.38 4.356 32.489-6.494 54.316-28.187 76.329l-48.147 48.309c-15.89 14.67-37.062 21.634-58.537 20.741-8.497-.353-18.724-2.73-24.683-9.176.28-1.028 23.643-27.707 24.028-27.877.447-.198 1.477-.228 1.993-.286l5.128-.548c21.699-2.928 34.363-19.53 48.822-34.263l26.337-26.596z"/><path d="M214.442 322.793c-16.95 1.738-26.816-17.485-16.702-30.456 4.087-5.242 9.162-9.963 13.654-14.882l62.802-66.749c7.627-8.123 14.595-19.404 26.563-20.861 15.775-1.175 26.581 17.399 16.93 30.031-2.23 2.918-5.082 5.42-7.495 8.203l-72.378 77.299c-6.937 7.155-12.713 16.03-23.374 17.415z"/><path d="M282.468 326.514L282.03 329c-4.028 24.138-15.267 37.57-31.799 54.15l-30.357 30.505c-5.88 5.913-11.577 12.06-18.408 16.907-20.51 14.548-48.14 19.032-72.378 12.303-40.286-11.183-65.095-50.039-60.934-90.99 2.706-26.637 16.464-42.058 34.455-59.886l29.801-30.103c19.69-20.502 34.797-33.352 65.503-35.53l.014-.017c11.475-.853 25.798.595 34.77 8.47l-22.822 24.247c-3.072 3.3-3.437 6.126-7.46 6.251l-4.79.25c-16.557 1.545-26.849 12.114-37.675 23.473l-33.588 33.944c-4.04 4.068-8.55 8.087-11.94 12.71-29.573 40.331 22.138 91.61 62.146 64.967 5.004-3.332 9.235-7.578 13.466-11.808l43.82-44.438c7.464-8.55 9.861-16.948 12.138-27.97.589-2.853 4.872-5.285 6.938-7.363l16.341-16.87c2.155-2.253 4.26-5.352 6.856-7.06 6.666 7.543 8.166 30.599 6.341 41.372z"/></svg></svg>