<svg width="126" height="25" viewBox="0 0 126 25" fill="none" xmlns="http://www.w3.org/2000/svg">
<path d="M12.7383 16.7207L0.738281 12.291V9.15039L12.7383 4.7207V7.88477L3.87891 10.6152V10.8262L12.7383 13.5566V16.7207ZM20.1328 19.2637C19.1875 19.2637 18.3477 19.2324 17.6133 19.1699C16.8867 19.1152 16.2461 19.0293 15.6914 18.9121L16.0664 15.877C17.0508 16.002 17.8789 16.0957 18.5508 16.1582C19.2227 16.2207 19.75 16.252 20.1328 16.252C21.1953 16.252 21.9648 16.1816 22.4414 16.041C22.918 15.8926 23.1562 15.6582 23.1562 15.3379C23.1562 15.1504 23.0977 15.002 22.9805 14.8926C22.8633 14.7832 22.6758 14.6895 22.418 14.6113L18.375 13.4395C17.5469 13.1973 16.9219 12.8301 16.5 12.3379C16.0859 11.8379 15.8789 11.1699 15.8789 10.334C15.8789 8.99805 16.4414 8.00586 17.5664 7.35742C18.6914 6.70117 20.3984 6.37305 22.6875 6.37305C23.2188 6.37305 23.7695 6.39258 24.3398 6.43164C24.918 6.4707 25.5273 6.5293 26.168 6.60742L25.8281 9.54883C25.1172 9.48633 24.4961 9.44336 23.9648 9.41992C23.4336 9.39648 22.9844 9.38477 22.6172 9.38477C21.3906 9.38477 20.5 9.45508 19.9453 9.5957C19.3984 9.72852 19.125 9.95117 19.125 10.2637C19.125 10.459 19.1797 10.6113 19.2891 10.7207C19.4062 10.8223 19.5859 10.9082 19.8281 10.9785L23.3086 11.9395C24.3789 12.2285 25.1758 12.6504 25.6992 13.2051C26.2305 13.752 26.4961 14.4668 26.4961 15.3496C26.4961 16.6699 25.9727 17.6543 24.9258 18.3027C23.8789 18.9434 22.2812 19.2637 20.1328 19.2637ZM34.3945 19.0293V7.31055H37.5586V19.0293H34.3945ZM29.8008 19.0293V16.0996H34.6289V19.0293H29.8008ZM37.3242 19.0293V16.0996H41.2383V19.0293H37.3242ZM30.5039 9.53711V6.60742H37.5586V9.53711H30.5039ZM35.8359 4.93164C35.2344 4.93164 34.7461 4.74414 34.3711 4.36914C33.9961 3.99414 33.8086 3.50586 33.8086 2.9043C33.8086 2.30273 33.9961 1.81445 34.3711 1.43945C34.7461 1.06445 35.2344 0.876953 35.8359 0.876953C36.4375 0.876953 36.9258 1.06445 37.3008 1.43945C37.6758 1.81445 37.8633 2.30273 37.8633 2.9043C37.8633 3.50586 37.6758 3.99414 37.3008 4.36914C36.9258 4.74414 36.4375 4.93164 35.8359 4.93164ZM51.8555 19.2637C49.7148 19.2637 48.168 18.834 47.2148 17.9746C46.2617 17.1152 45.7852 15.7402 45.7852 13.8496V12.2324H48.9492V13.5449C48.9492 14.4902 49.1914 15.1777 49.6758 15.6074C50.168 16.0371 50.9727 16.252 52.0898 16.252C52.4492 16.252 52.832 16.2324 53.2383 16.1934C53.6523 16.1465 54.1211 16.0879 54.6445 16.0176L54.9258 18.9824C54.4102 19.0762 53.9062 19.1465 53.4141 19.1934C52.9297 19.2402 52.4102 19.2637 51.8555 19.2637ZM45.7852 12.9707V2.85742H48.9492V12.9707H45.7852ZM42.8086 9.52539V6.60742H54.457V9.52539H42.8086ZM64.2656 19.2637C62.1172 19.2637 60.457 18.709 59.2852 17.5996C58.1133 16.4824 57.5273 14.8809 57.5273 12.7949C57.5273 10.7637 58.0234 9.18555 59.0156 8.06055C60.0156 6.93555 61.4219 6.37305 63.2344 6.37305C65.0078 6.37305 66.3789 6.89258 67.3477 7.93164C68.3164 8.9707 68.8008 10.4824 68.8008 12.4668C68.8008 13.0293 68.7773 13.5645 68.7305 14.0723H59.6133V11.8691H65.6836C65.6836 11.0332 65.4688 10.3926 65.0391 9.94727C64.6172 9.50195 64.0234 9.2793 63.2578 9.2793C62.4297 9.2793 61.7852 9.57617 61.3242 10.1699C60.8711 10.7559 60.6445 11.5918 60.6445 12.6777C60.6445 13.8496 60.9805 14.7402 61.6523 15.3496C62.332 15.959 63.2969 16.2637 64.5469 16.2637C65.1094 16.2637 65.6641 16.2363 66.2109 16.1816C66.7578 16.1191 67.3164 16.0371 67.8867 15.9355L68.1914 18.9355C67.3945 19.0762 66.668 19.166 66.0117 19.2051C65.3555 19.2441 64.7734 19.2637 64.2656 19.2637ZM80.1445 19.0293V10.6152C80.1445 9.75586 79.8945 9.32617 79.3945 9.32617C78.832 9.32617 78.5508 9.79102 78.5508 10.7207L77.707 8.1543H78.7617C78.832 7.59961 79.0469 7.16602 79.4062 6.85352C79.7734 6.5332 80.2539 6.37305 80.8477 6.37305C81.6836 6.37305 82.293 6.60352 82.6758 7.06445C83.0664 7.52539 83.2617 8.27148 83.2617 9.30273V19.0293H80.1445ZM71.4258 19.0293V6.60742H74.2734L74.5547 9.23242V19.0293H71.4258ZM76.1953 19.0293V10.3809C76.1953 9.67773 75.9453 9.32617 75.4453 9.32617C74.8516 9.32617 74.5547 9.79102 74.5547 10.7207L73.8281 8.1543H74.7188C74.8906 6.9668 75.5195 6.37305 76.6055 6.37305C77.207 6.37305 77.6797 6.5957 78.0234 7.04102C78.375 7.48633 78.5508 8.16211 78.5508 9.06836V19.0293H76.1953ZM93.6914 19.1465L93.4219 15.4668L93.375 13.8496V11.4238C93.375 10.7598 93.0898 10.2754 92.5195 9.9707C91.957 9.6582 91.1172 9.48633 90 9.45508L86.8242 9.37305L87.0586 6.49023L89.7656 6.52539C92.0156 6.55664 93.6875 7.00195 94.7812 7.86133C95.875 8.71289 96.4219 9.95898 96.4219 11.5996V16.1934L98.1445 16.4512V19.0293L93.6914 19.1465ZM89.4844 19.2637C88.1641 19.2637 87.1367 18.9395 86.4023 18.291C85.668 17.6426 85.3008 16.7207 85.3008 15.5254C85.3008 14.1348 85.7812 13.0684 86.7422 12.3262C87.7031 11.584 89.0664 11.2129 90.832 11.2129C91.5117 11.2129 92.0977 11.248 92.5898 11.3184C93.0898 11.3887 93.5938 11.498 94.1016 11.6465L93.5859 14.1191C93.0859 14.002 92.6367 13.9355 92.2383 13.9199C91.8398 13.8965 91.4219 13.8848 90.9844 13.8848C89.3438 13.8848 88.5234 14.3535 88.5234 15.291C88.5234 15.7129 88.6719 16.0371 88.9688 16.2637C89.2656 16.4824 89.6992 16.5918 90.2695 16.5918C90.957 16.5918 91.5312 16.4629 91.9922 16.2051C92.4531 15.9473 92.7969 15.6191 93.0234 15.2207C93.2578 14.8223 93.375 14.4121 93.375 13.9902V13.2168L93.8203 16.4043H92.8242L93.2344 16.0293C93.2109 16.748 93.0469 17.3496 92.7422 17.834C92.4375 18.3105 92.0078 18.6699 91.4531 18.9121C90.9062 19.1465 90.25 19.2637 89.4844 19.2637ZM100.207 24.4199V6.60742H103.148L103.383 9.23242V24.4199H100.207ZM106.699 19.2637C105.832 19.2637 105.137 19.0566 104.613 18.6426C104.09 18.2285 103.766 17.6074 103.641 16.7793H102.539L103.383 12.8301C103.383 14.0332 103.562 14.9082 103.922 15.4551C104.281 16.002 104.91 16.2754 105.809 16.2754C106.637 16.2754 107.262 15.9863 107.684 15.4082C108.113 14.8301 108.328 13.9707 108.328 12.8301C108.328 11.7285 108.109 10.877 107.672 10.2754C107.234 9.66602 106.613 9.36133 105.809 9.36133C105.004 9.36133 104.398 9.63867 103.992 10.1934C103.586 10.748 103.383 11.627 103.383 12.8301L102.656 8.85742H103.57C103.719 8.02148 104.035 7.40039 104.52 6.99414C105.012 6.58008 105.73 6.37305 106.676 6.37305C108.23 6.37305 109.434 6.93555 110.285 8.06055C111.145 9.18555 111.574 10.7754 111.574 12.8301C111.574 14.9004 111.145 16.4902 110.285 17.5996C109.434 18.709 108.238 19.2637 106.699 19.2637ZM113.824 16.7207V13.5566L122.613 10.8262V10.6152L113.824 7.88477V4.7207L125.824 9.15039V12.291L113.824 16.7207Z" fill="#FF6A00"/>
</svg>
