<svg width="64" height="19" viewBox="0 0 64 19" fill="none" xmlns="http://www.w3.org/2000/svg">
<g clip-path="url(#clip0_10538_2980)">
<path d="M1.26731 7.17936H7.34084V8.88623L5.05689 9.0616C1.36752 9.33803 0.21344 10.3142 0.21344 13.0525V13.6045C0.21344 15.6086 1.61888 16.817 3.77673 16.817C5.48362 16.817 6.46233 16.4153 7.66736 15.1853H7.86777V16.4905H10.302V4.5188H1.26731V7.17936ZM7.34084 12.9523C6.58927 13.7038 5.45857 14.2049 4.52997 14.2049C3.52787 14.2049 3.09947 13.8283 3.12453 12.9998C3.14958 11.8458 3.5763 11.5693 5.50868 11.394L7.34084 11.2186V12.9523Z" fill="#FF8800"/>
<path fill-rule="evenodd" clip-rule="evenodd" d="M15.4207 4.51962H20.1138V6.95388H22.6733V16.4905H19.6871V7.20523H15.4207V16.4905H12.4336V0.93045H15.4207V4.51962ZM59.0913 9.33803L57.2842 9.1618C56.282 9.0616 56.0316 8.81106 56.0316 8.00775C56.0316 7.1042 56.3831 6.87789 57.7852 6.87789C59.0378 6.87789 59.3911 7.07915 59.5673 7.9326H62.3782C62.303 5.07162 61.4246 4.34176 57.9356 4.34176C54.1209 4.34176 53.1672 5.06995 53.1672 8.00608C53.1672 10.6917 53.8695 11.4191 56.7063 11.6954L58.1869 11.8458C59.5172 11.971 59.8429 12.2224 59.8429 13.0257C59.8429 14.0045 59.4412 14.2549 57.8102 14.2549C56.3798 14.2549 56.0031 14.0295 55.928 13.1009H53.0888C53.1638 16.0621 54.0675 16.8153 57.6817 16.8153C61.6968 16.8153 62.7005 16.012 62.7005 12.7494C62.7047 10.3167 61.9773 9.6136 59.0913 9.33803ZM43.7162 9.56354C43.7162 5.69876 42.3868 4.34343 38.5713 4.34343C34.8068 4.34343 33.3262 6.09709 33.3262 10.4671C33.3262 15.2362 34.6314 16.8137 38.8478 16.8137C41.8849 16.8137 43.1642 15.8851 43.5909 13.2746H40.7049C40.3785 14.0813 40.0277 14.2567 38.8018 14.2567C36.9446 14.2567 36.4677 13.7297 36.3675 11.4959H43.52C43.6397 10.8584 43.7054 10.212 43.7162 9.56354ZM36.3885 9.13677C36.4135 7.45577 37.0907 6.82862 38.6974 6.82862C40.2281 6.82862 40.8553 7.45577 40.9062 9.13677H36.3885ZM45.4548 5.04572V16.4905H48.4418V7.07913H52.0328V4.51879H48.4418V4.19311C48.4661 3.48997 48.6423 3.28955 49.2194 3.28955H52.482V0.93045H48.9672C46.5838 0.93045 45.4548 1.65781 45.4548 5.04572ZM27.8498 16.4905H24.8635V4.51963H32.2923V7.33051H27.8498V16.4905Z" fill="white"/>
</g>
<defs>
<clipPath id="clip0_10538_2980">
<rect width="63.4286" height="18" fill="white" transform="translate(0 0.212891)"/>
</clipPath>
</defs>
</svg>
