<svg width="24" height="25" viewBox="0 0 24 25" fill="none" xmlns="http://www.w3.org/2000/svg">
<path d="M4.92999 1.71301C4.60782 1.692 4.28477 1.73732 3.98081 1.84617C3.67686 1.95501 3.39847 2.12507 3.16287 2.34581C2.92727 2.56655 2.73947 2.83328 2.61108 3.12951C2.48269 3.42573 2.41645 3.74515 2.41645 4.06801C2.41645 4.39086 2.48269 4.71028 2.61108 5.00651C2.73947 5.30274 2.92727 5.56947 3.16287 5.79021C3.39847 6.01095 3.67686 6.181 3.98081 6.28985C4.28477 6.39869 4.60782 6.44401 4.92999 6.42301H14.95L1.69999 19.693C1.30621 20.1437 1.09834 20.7271 1.11846 21.3252C1.13858 21.9233 1.38518 22.4915 1.80836 22.9146C2.23153 23.3378 2.79967 23.5844 3.39779 23.6045C3.99591 23.6247 4.57934 23.4168 5.02999 23.023L18.3 9.76301V19.783C18.279 20.1052 18.3243 20.4282 18.4331 20.7322C18.542 21.0361 18.712 21.3145 18.9328 21.5501C19.1535 21.7857 19.4203 21.9735 19.7165 22.1019C20.0127 22.2303 20.3321 22.2966 20.655 22.2966C20.9778 22.2966 21.2973 22.2303 21.5935 22.1019C21.8897 21.9735 22.1564 21.7857 22.3772 21.5501C22.5979 21.3145 22.768 21.0361 22.8768 20.7322C22.9857 20.4282 23.031 20.1052 23.01 19.783V1.71301H4.92999Z" fill="white"/>
</svg>
