<svg width="693" height="102" viewBox="0 0 693 102" fill="none" xmlns="http://www.w3.org/2000/svg">
<g clip-path="url(#clip0_10106_17343)">
<mask id="mask0_10106_17343" style="mask-type:luminance" maskUnits="userSpaceOnUse" x="0" y="0" width="693" height="102">
<path d="M0 0H693V101.912H0V0Z" fill="white"/>
</mask>
<g mask="url(#mask0_10106_17343)">
<path d="M178.984 44.2568C178.237 44.2568 177.5 44.284 176.763 44.3078C176.643 44.3142 176.526 44.3418 176.416 44.3893C176.221 44.4557 176.045 44.5697 175.905 44.7209C175.766 44.8722 175.665 45.0559 175.614 45.2556L172.455 56.2926C171.093 61.0383 171.599 65.4205 173.889 68.6375C175.988 71.6133 179.48 73.3594 183.72 73.5633L200.858 74.6028C201.367 74.6299 201.809 74.8745 202.077 75.2788C202.218 75.4946 202.307 75.7399 202.337 75.9956C202.367 76.2514 202.337 76.5106 202.251 76.7531C202.113 77.1473 201.864 77.4935 201.534 77.7501C201.205 78.0067 200.808 78.163 200.392 78.2002L182.585 79.2397C172.91 79.6882 162.502 87.5829 158.85 97.2102L157.566 100.607C157.51 100.748 157.49 100.9 157.505 101.051C157.52 101.201 157.571 101.346 157.653 101.473C157.736 101.6 157.847 101.705 157.978 101.78C158.11 101.855 158.257 101.898 158.408 101.905H219.739C220.095 101.906 220.443 101.791 220.727 101.576C221.012 101.361 221.218 101.059 221.315 100.716C222.404 96.8005 222.953 92.7545 222.946 88.6904C222.946 64.1636 203.28 44.284 179.011 44.284" fill="#FBAD41"/>
<path d="M290.513 64.1568H300.67V92.1791H318.396V101.171H290.513V64.1568ZM328.9 82.7693V82.6606C328.9 72.0278 337.369 63.4162 348.674 63.4162C359.976 63.4162 368.34 71.9361 368.34 82.5519V82.6606C368.34 93.29 359.871 101.905 348.565 101.905C337.26 101.905 328.9 93.3953 328.9 82.7693ZM357.985 82.7693V82.6606C357.985 77.317 354.17 72.6664 348.565 72.6664C342.96 72.6664 339.308 77.2083 339.308 82.5519V82.6606C339.308 88.0008 343.12 92.6547 348.674 92.6547C354.225 92.6547 357.985 88.1095 357.985 82.7693ZM380.763 84.9366V64.1704H391.066V84.7396C391.066 90.0798 393.726 92.6106 397.809 92.6106C401.889 92.6106 404.552 90.1749 404.552 84.9944V64.1568H414.852V84.6716C414.852 96.6259 408.109 101.847 397.7 101.847C387.292 101.847 380.749 96.5036 380.749 84.9298M430.387 64.167H444.515C457.587 64.167 465.173 71.7798 465.173 82.45V82.5587C465.173 93.2254 457.478 101.164 444.301 101.164H430.387V64.1568V64.167ZM444.661 92.0772C450.735 92.0772 454.751 88.6972 454.751 82.7217V82.613C454.751 76.6885 450.725 73.2541 444.661 73.2541H440.527V92.0772H444.661ZM479.926 64.1568H509.212V73.1522H490.066V79.4368H507.378V87.9464H490.066V101.171H479.926V64.1568ZM523.33 64.1568H533.484V92.1791H551.213V101.171H523.33V64.1568ZM577.728 63.8952H587.504L603.093 101.164H592.216L589.539 94.5537H575.411L572.802 101.164H562.125L577.714 63.8952H577.728ZM586.624 86.574L582.541 76.0533L578.407 86.574H586.624ZM616.169 64.167H633.48C639.075 64.167 642.954 65.6549 645.4 68.1823C647.557 70.2919 648.641 73.159 648.641 76.7973V76.906C648.641 82.5587 645.655 86.3158 641.106 88.2657L649.844 101.164H638.124L630.752 89.9541H626.309V101.164H616.155V64.1568L616.169 64.167ZM633.015 81.9336C636.466 81.9336 638.457 80.2453 638.457 77.5514V77.4461C638.457 74.5382 636.371 73.0639 632.96 73.0639H626.322V81.9506H633.025L633.015 81.937V81.9336ZM663.286 64.1568H692.735V72.8804H673.334V78.4788H690.914V86.5774H673.334V92.4475H693.003V101.171H663.286V64.1568ZM268.286 87.1073C266.866 90.3549 263.87 92.6547 259.895 92.6547C254.358 92.6547 250.533 88.0008 250.533 82.6606V82.5485C250.533 77.2049 254.249 72.663 259.79 72.663C263.965 72.663 267.148 75.2584 268.5 78.8015H279.191C277.475 69.9997 269.825 63.4128 259.885 63.4128C248.593 63.4128 240.111 72.0278 240.111 82.6572V82.7659C240.111 93.3953 248.471 101.902 259.78 101.902C269.438 101.902 276.996 95.5694 278.99 87.0903H268.272L268.286 87.1073Z" fill="black"/>
<path d="M152.215 100.478L153.35 96.4867C154.716 91.741 154.21 87.3588 151.923 84.1417C149.817 81.1659 146.328 79.4198 142.085 79.216L61.694 78.1765C61.4439 78.172 61.1985 78.1083 60.9777 77.9909C60.7569 77.8734 60.567 77.7054 60.4235 77.5005C60.2824 77.285 60.1931 77.0398 60.1625 76.784C60.1318 76.5283 60.1607 76.2689 60.2469 76.0262C60.386 75.6295 60.6373 75.2817 60.9701 75.0248C61.3029 74.768 61.703 74.6131 62.122 74.579L143.264 73.5395C152.898 73.0945 163.307 65.1964 166.959 55.5691L171.585 43.3397C171.774 42.8212 171.821 42.2619 171.721 41.7193C166.449 17.8651 145.36 0 120.147 0C96.9045 0 77.1846 15.1577 70.1085 36.2296C65.3445 32.6068 59.378 30.9374 53.4256 31.5621C42.2832 32.6831 33.315 41.76 32.2075 53.0247C31.9208 55.8381 32.1277 58.68 32.819 61.4222C14.6108 61.9657 0.00341797 77.0419 0.00341797 95.5695C0.00341797 97.2442 0.122315 98.8952 0.363506 100.505C0.411508 100.883 0.595733 101.23 0.881586 101.482C1.16744 101.733 1.53525 101.872 1.91596 101.871H150.381C150.799 101.864 151.204 101.722 151.534 101.466C151.865 101.21 152.104 100.854 152.215 100.451" fill="#F6821F"/>
</g>
</g>
<defs>
<clipPath id="clip0_10106_17343">
<rect width="693" height="101.912" fill="white"/>
</clipPath>
</defs>
</svg>
