<svg width="1226" height="259" viewBox="0 0 1226 259" fill="none" xmlns="http://www.w3.org/2000/svg">
<path d="M160.062 4.19775V203.912H108.158V182.523C100.893 191.605 94.2627 197.736 88.2686 200.915C80.2764 205.092 71.376 207.181 61.5674 207.181C41.8594 207.181 26.7832 199.688 16.3389 184.703C5.98535 169.718 0.808594 151.508 0.808594 130.075C0.808594 106.098 6.53027 87.7524 17.9736 75.0376C29.5078 62.3228 44.1299 55.9653 61.8398 55.9653C70.4678 55.9653 78.2783 57.4185 85.2715 60.3247C92.3555 63.231 98.6221 67.5903 104.071 73.4028V4.19775H160.062ZM104.48 131.165C104.48 119.812 102.073 111.366 97.2598 105.826C92.4463 100.195 86.3613 97.3794 79.0049 97.3794C72.5566 97.3794 67.1528 100.059 62.7935 105.417C58.4341 110.775 56.2544 119.767 56.2544 132.391C56.2544 144.197 58.4795 152.871 62.9297 158.411C67.4707 163.86 73.0562 166.584 79.686 166.584C86.77 166.584 92.6733 163.814 97.396 158.274C102.119 152.734 104.48 143.698 104.48 131.165ZM194.392 59.2349H246.296V82.939C251.291 72.6763 256.422 65.6377 261.69 61.8232C267.048 57.918 273.633 55.9653 281.443 55.9653C289.617 55.9653 298.563 58.5083 308.281 63.5942L291.116 103.101C284.577 100.376 279.4 99.0142 275.585 99.0142C268.32 99.0142 262.689 102.011 258.693 108.005C252.971 116.452 250.11 132.254 250.11 155.414V203.912H194.392V59.2349ZM315.637 131.982C315.637 109.913 323.084 91.7485 337.979 77.4897C352.874 63.1401 372.99 55.9653 398.329 55.9653C427.301 55.9653 449.188 64.3662 463.992 81.168C475.89 94.7002 481.838 111.366 481.838 131.165C481.838 153.416 474.437 171.67 459.633 185.929C444.92 200.097 424.531 207.181 398.465 207.181C375.215 207.181 356.416 201.278 342.066 189.471C324.447 174.849 315.637 155.686 315.637 131.982ZM371.219 131.846C371.219 144.742 373.808 154.278 378.984 160.454C384.252 166.63 390.836 169.718 398.738 169.718C406.73 169.718 413.269 166.675 418.355 160.59C423.532 154.505 426.12 144.742 426.12 131.301C426.12 118.768 423.532 109.458 418.355 103.374C413.178 97.1978 406.775 94.1099 399.146 94.1099C391.063 94.1099 384.388 97.2432 379.121 103.51C373.853 109.686 371.219 119.131 371.219 131.846ZM508.812 258.949V59.2349H560.716V80.623C567.891 71.6318 574.475 65.5469 580.469 62.3682C588.552 58.0996 597.498 55.9653 607.307 55.9653C626.651 55.9653 641.591 63.3672 652.126 78.1709C662.752 92.9746 668.065 111.275 668.065 133.072C668.065 157.139 662.298 175.53 650.764 188.245C639.23 200.869 624.653 207.181 607.034 207.181C598.497 207.181 590.687 205.728 583.603 202.822C576.609 199.916 570.343 195.602 564.803 189.88V258.949H508.812ZM564.394 131.982C564.394 143.425 566.801 151.917 571.614 157.457C576.428 162.997 582.513 165.767 589.869 165.767C596.317 165.767 601.721 163.133 606.081 157.866C610.44 152.507 612.62 143.471 612.62 130.756C612.62 119.04 610.349 110.458 605.808 105.008C601.267 99.4683 595.727 96.6982 589.188 96.6982C582.104 96.6982 576.201 99.4683 571.478 105.008C566.755 110.548 564.394 119.54 564.394 131.982ZM684.822 163.86L739.859 158.683C742.129 165.222 745.308 169.899 749.395 172.715C753.482 175.53 758.931 176.938 765.743 176.938C773.19 176.938 778.957 175.349 783.044 172.17C786.223 169.809 787.812 166.857 787.812 163.315C787.812 159.319 785.723 156.231 781.545 154.051C778.548 152.507 770.602 150.6 757.705 148.33C738.451 144.969 725.055 141.881 717.517 139.066C710.07 136.16 703.758 131.301 698.581 124.489C693.495 117.678 690.952 109.913 690.952 101.194C690.952 91.6577 693.722 83.4385 699.262 76.5361C704.802 69.6338 712.431 64.5024 722.149 61.1421C731.867 57.6909 744.899 55.9653 761.247 55.9653C778.503 55.9653 791.218 57.2822 799.392 59.916C807.656 62.5498 814.513 66.6367 819.962 72.1768C825.502 77.7168 830.089 85.2095 833.722 94.6548L781.137 99.8315C779.774 95.1997 777.504 91.7939 774.325 89.6143C769.966 86.708 764.698 85.2549 758.522 85.2549C752.256 85.2549 747.669 86.3901 744.763 88.6606C741.948 90.8403 740.54 93.5195 740.54 96.6982C740.54 100.24 742.356 102.919 745.989 104.736C749.622 106.552 757.523 108.187 769.693 109.64C788.13 111.729 801.844 114.635 810.835 118.359C819.826 122.083 826.683 127.396 831.406 134.298C836.219 141.2 838.626 148.784 838.626 157.048C838.626 165.404 836.083 173.532 830.997 181.434C826.002 189.335 818.055 195.647 807.157 200.37C796.349 205.001 781.591 207.317 762.882 207.317C736.453 207.317 717.608 203.548 706.346 196.01C695.175 188.472 688 177.755 684.822 163.86ZM854.565 109.64H935.213V152.553H854.565V109.64ZM1019.81 59.2349H1046.24V99.8315H1019.81V203.912H964.23V99.8315H943.523V59.2349H964.23V52.6958C964.23 46.7925 964.866 40.2988 966.138 33.2148C967.409 26.1309 969.771 20.3638 973.222 15.9136C976.764 11.3726 981.668 7.73975 987.935 5.01514C994.292 2.19971 1003.56 0.791992 1015.73 0.791992C1025.44 0.791992 1039.57 1.92725 1058.09 4.19775L1051.96 37.7104C1045.33 36.6206 1039.97 36.0757 1035.89 36.0757C1030.89 36.0757 1027.31 36.9385 1025.13 38.6641C1022.95 40.2988 1021.4 42.9326 1020.49 46.5654C1020.04 48.5635 1019.81 52.7866 1019.81 59.2349ZM1083.98 4.19775H1215.71V48.4727H1126.48L1121.71 78.4434C1127.89 75.5371 1133.97 73.3574 1139.97 71.9043C1146.05 70.4512 1152.05 69.7246 1157.95 69.7246C1177.93 69.7246 1194.14 75.7642 1206.58 87.8433C1219.03 99.9224 1225.25 115.135 1225.25 133.48C1225.25 146.377 1222.02 158.774 1215.58 170.671C1209.22 182.569 1200.14 191.651 1188.33 197.917C1176.61 204.184 1161.58 207.317 1143.24 207.317C1130.07 207.317 1118.76 206.091 1109.32 203.639C1099.96 201.096 1091.97 197.373 1085.34 192.468C1078.8 187.473 1073.49 181.842 1069.4 175.576C1065.31 169.309 1061.91 161.499 1059.18 152.144L1115.31 146.014C1116.67 155.005 1119.85 161.862 1124.85 166.584C1129.84 171.216 1135.79 173.532 1142.69 173.532C1150.41 173.532 1156.77 170.626 1161.76 164.813C1166.85 158.91 1169.39 150.146 1169.39 138.521C1169.39 126.624 1166.85 117.905 1161.76 112.365C1156.68 106.825 1149.91 104.055 1141.47 104.055C1136.11 104.055 1130.93 105.372 1125.94 108.005C1122.21 109.913 1118.13 113.364 1113.68 118.359L1066.4 111.547L1083.98 4.19775Z" fill="#2B2B42"/>
</svg>
