<svg class="svgSubjects" width="135" height="90" viewBox="0 0 135 90" xmlns="http://www.w3.org/2000/svg">
	<style>
		.svgSubjects path{
			opacity: 0;
		}
	</style>
	<g fill="#2B2B42">
		<!-- 1 -->
		<path fill-rule="evenodd" d="M71.532 29.676C66.185 20.686 56.417 15.19 45.25 15.19c-16.905 0-30.086 13.008-30.086 30.023 0 17.014 13.18 31.33 30.086 31.33 11.166 0 20.934-6.542 26.28-15.531h15.323c-6.332 16.776-22.714 28.7-41.603 28.7-24.418 0-44.737-19.923-44.737-44.5 0-24.576 20.319-44.5 44.736-44.5 18.89 0 35.272 12.187 41.604 28.963H71.532Zm22.911 10.302L79.006 50.971H59.64c-2.255 5.819-7.902 9.947-14.515 9.947-8.598 0-15.568-6.973-15.568-15.575s6.97-15.575 15.568-15.575c6.713 0 12.433 4.25 14.618 10.209h34.701Z" clip-rule="evenodd">
			<animate id="r1" begin="r6_h.end+5ms;5ms" values="0;1" attributeName="opacity" attributeType="CSS" dur="5ms" fill="freeze"/>
			<animate id="r1_h" begin="r1.end+300ms" values="1;0" attributeName="opacity" attributeType="CSS" dur="5ms" fill="freeze"/>
		</path>
		<!-- 2 -->
		<path d="M69.506 13.045c-2.77-2.77-6.094-4.764-9.64-5.872-8.087-2.548-17.173-.554-23.599 5.872-7.091 7.091-8.642 17.506-4.986 26.038 1.108 2.659 2.77 4.985 4.986 7.201l.222.222c1.218 1.219 2.659 2.216 3.988 3.102 9.196 5.65 21.162 4.543 29.029-3.324 9.196-9.196 9.196-24.043 0-33.239Zm-9.972 7.756c.333.332.776.554 1.219.997 4.321 4.321 4.321 11.19 0 15.512-3.324 3.324-8.088 4.1-12.188 2.216-1.218-.554-2.437-1.33-3.434-2.327-4.321-4.321-4.321-11.19 0-15.512 3.988-3.767 10.082-4.1 14.403-.886Z">
			<animate id="r2" begin="r1_h.end+5ms" values="0;1" attributeName="opacity" attributeType="CSS" dur="5ms" fill="freeze"/>
			<animate id="r2_h" begin="r2.end+300ms" values="1;0" attributeName="opacity" attributeType="CSS" dur="5ms" fill="freeze"/>
		</path>
		<path d="M17.764 75.645H6.24l.11-11.412L33.387 37.2l9.861 9.86-2.659 2.66c-1.33-.887-2.77-1.884-3.989-3.103.776 1.44 1.884 2.77 3.103 3.99l-6.316 6.314h-7.312v9.75l-8.31-.11v9.085Z">
			<animate begin="r1_h.end+5ms" values="0;1" attributeName="opacity" attributeType="CSS" dur="5ms" fill="freeze"/>
			<animate begin="r2.end+300ms" values="1;0" attributeName="opacity" attributeType="CSS" dur="5ms" fill="freeze"/>
		</path>
		<!-- 3 -->
		<path fill-rule="evenodd" d="M88.026 43.14 63.262 33.5a11.608 11.608 0 0 1-6.605-6.606L47.016 2.13c-.736-1.89-3.41-1.89-4.145 0l-9.642 24.764a11.608 11.608 0 0 1-6.605 6.605L1.86 43.141c-1.89.735-1.89 3.409 0 4.144l24.764 9.642a11.607 11.607 0 0 1 6.605 6.605l9.642 24.764c.736 1.89 3.409 1.89 4.145 0l9.641-24.764a11.608 11.608 0 0 1 6.605-6.605l24.764-9.642c1.89-.735 1.89-3.409 0-4.144Z" clip-rule="evenodd">
			<animate id="r3" begin="r2_h.end+5ms" values="0;1" attributeName="opacity" attributeType="CSS" dur="5ms" fill="freeze"/>
			<animate id="r3_h" begin="r3.end+300ms" values="1;0" attributeName="opacity" attributeType="CSS" dur="5ms" fill="freeze"/>
		</path>
		<!-- 4 -->
		<path d="M22.327 79.565a46.463 46.463 0 0 1-12.146-3.246 34.903 34.903 0 0 1-9.738-6.108L7.04 59.854a31.578 31.578 0 0 0 4.764 3.299 35.32 35.32 0 0 0 5.654 2.565 40.55 40.55 0 0 0 6.108 1.614c2.037.382 4.105.577 6.178.585 3.091.16 6.172-.471 8.952-1.833a5.715 5.715 0 0 0 3.193-5.235 6.046 6.046 0 0 0-1.151-3.665 9.913 9.913 0 0 0-3.194-2.722 31.597 31.597 0 0 0-4.921-2.147 88.805 88.805 0 0 0-6.44-1.928 85.16 85.16 0 0 1-10.94-3.778 29.152 29.152 0 0 1-7.383-4.363 15.086 15.086 0 0 1-4.136-5.34 16.013 16.013 0 0 1-1.309-6.596 17.957 17.957 0 0 1 1.362-6.98 18.322 18.322 0 0 1 3.821-5.76 20.943 20.943 0 0 1 5.969-4.179 29.666 29.666 0 0 1 7.696-2.417V.713h11.412v10.052a44.37 44.37 0 0 1 10.995 2.617 31.411 31.411 0 0 1 9.213 5.332L47.02 28.87a32.545 32.545 0 0 0-9.424-4.764 34.524 34.524 0 0 0-10.68-1.745c-2.847-.16-5.68.497-8.166 1.893a5.724 5.724 0 0 0-2.932 5.017 6.16 6.16 0 0 0 3.874 5.506 61.083 61.083 0 0 0 11.413 4.127 88.727 88.727 0 0 1 11.413 3.77 28.843 28.843 0 0 1 7.643 4.51 15.82 15.82 0 0 1 4.293 5.541 16.753 16.753 0 0 1 1.361 6.911 18.323 18.323 0 0 1-1.57 7.591 17.59 17.59 0 0 1-4.502 6.108 25.077 25.077 0 0 1-6.98 4.232 32.739 32.739 0 0 1-9.006 2.199v9.956h-11.43V79.565Z">
			<animate id="r4" begin="r3_h.end+5ms" values="0;1" attributeName="opacity" attributeType="CSS" dur="5ms" fill="freeze"/>
			<animate id="r4_h" begin="r4.end+300ms" values="1;0" attributeName="opacity" attributeType="CSS" dur="5ms" fill="freeze"/>
		</path>
		<!-- 5 -->
		<path d="M123.217 39.899a5263.811 5263.811 0 0 1-21.206-5.677c-2.05-.55-4.076-1.125-6.102-1.675.225-1.95-.15-2.476-1.925-2.95-.6-.176-1.2-.351-1.8-.476-.35-.075-.901-.15-1.076.05-1.05 1.125-1.9.2-3.126-.075 1.675-1.95 3.1-3.751 4.701-5.377 1.8-1.825 2.726-3.926 2.676-6.476-.05-1.8 0-3.576 0-5.377 0-5.151-3.2-8.352-8.327-8.352-9.628 0-19.256 0-28.883-.025-.55 0-1.2-.275-1.6-.65-1.476-1.25-3.127-2.076-5.077-2.101-3.126-.025-6.252-.075-9.378.025-3.951.125-7.252 3.376-7.277 7.327-.075 7.952-.025 15.904-.025 24.032-.525.1-1.55.55-1.8.275-1-1.025-1.926-.45-2.876-.2-4.502 1.175-8.978 2.4-13.454 3.576-.925-1.9-1.325-2.076-3.376-1.526-1.85.475-3.701.976-5.552 1.5-1.75.476-2.15 1.126-1.675 2.927 1.475 5.551 2.976 11.078 4.476 16.63.375 1.4 1.1 1.875 2.501 1.525a198.58 198.58 0 0 0 6.627-1.776c1.225-.35 1.65-1.15 1.375-2.4-.25-1.076-.575-2.151-.875-3.376 4.051-1.076 8.027-2.151 12.103-3.251-.975 2.275-1.975 4.35-2.775 6.476-3.701 9.828-4.802 19.856-2.426 30.159.425 1.85 1.15 2.3 2.926 1.826 3.85-1.026 7.702-2.076 11.553-3.126 1.7-.45 2.05-1.1 1.625-2.851-2.975-12.454-2.45-24.682 2.201-36.686.175-.45.075-1.1-.075-1.6-.25-.725.5-2.576 1.225-2.6 2-.05 4.002-.026 6.127-.026-.2.45-.325.75-.475 1.05-4.251 8.503-6.552 17.455-6.952 26.983-.175 4.276 2.8 8.828 8.402 8.703 4.777-.1 9.578-.025 14.38-.025 4.8 0 8.077-3.201 8.177-8.028.175-8.027 1.5-15.83 4.501-23.281 1.3-3.251 2.926-6.402 4.401-9.578.15.05.275.125.425.175-.675 2.5-1.325 5.002-2 7.502-.525 1.95-1 3.951-1.7 5.852-.476 1.3-.426 1.7.874 2.075 2.051.55 4.102 1.1 6.152 1.626 1.35.35 2.15-.1 2.526-1.45.3-1.026.575-2.076.9-3.251 4.026 1.075 7.977 2.125 12.229 3.276-5.677 3.65-10.428 7.852-14.43 12.903-3.925 4.952-6.851 10.428-8.602 16.48-.425 1.425-.025 2.3 1.276 2.65a745.592 745.592 0 0 0 12.303 3.276c1.325.35 2.05-.15 2.476-1.45.4-1.225.725-2.476 1.175-3.676 4.151-11.603 10.853-21.406 21.006-28.458 3.051-2.125 4.876-4.426 5.451-7.977.276-1.926.05-2.55-1.925-3.076ZM74.778 57.454c-.4 2.926-.6 5.877-.7 8.827-.15 3.476-2.4 5.877-5.901 5.927-2.701.05-5.427.05-8.128.05-2.25 0-4.501 0-6.752-.05-3.65-.075-6.001-2.45-5.926-6.127.2-10.478 3.15-20.155 8.227-29.258.25-.425.6-.85.7-1.325.075-.4.025-1-.25-1.226-.25-.225-.975-.3-1.225-.1-1.85 1.5-4.026 1.4-6.202 1.35-1.95-.05-3.926 0-5.877-.024-3.4-.05-5.826-2.451-5.851-5.852-.025-1.375-.025-2.726-.025-4.101V9.015c0-3.876 2.375-6.201 6.251-6.201 2.551 0 5.077.025 7.628 0 1.875-.025 3.376.675 4.676 2 .4.4 1.125.725 1.7.725 10.078.05 20.156.025 30.259.05 3.35 0 5.751 2.401 5.826 5.727.05 2.125.026 4.251 0 6.377-.025 1.55-.6 2.9-1.7 4.05-9.553 10.054-14.854 22.082-16.73 35.71Z">
			<animate id="r5" begin="r4_h.end+5ms" values="0;1" attributeName="opacity" attributeType="CSS" dur="5ms" fill="freeze"/>
			<animate id="r5_h" begin="r5.end+300ms" values="1;0" attributeName="opacity" attributeType="CSS" dur="5ms" fill="freeze"/>
		</path>
		<path d="M129.869 44.35c-.475 1.5-.825 3.051-1.251 4.577-.475 1.725-1.45 3.075-2.975 4-11.704 7.128-18.981 17.58-23.057 30.46-.225.724-.4 1.45-.7 2.125-1.225 3.026-4.551 4.776-7.777 3.976a376.843 376.843 0 0 1-12.904-3.451c-3.826-1.075-5.776-4.776-4.651-8.652 2.15-7.303 5.701-13.83 10.578-19.631.5-.6 1-1.2 1.575-1.9-2.275-.6-4.426-1.176-6.602-1.751-.4-.1-.9-.125-1.175-.375-.375-.35-.55-.9-.825-1.35.475-.2 1.025-.676 1.425-.6 2.15.474 4.251 1.175 6.402 1.625.975.2 2.026-.025 3.05 0 .576.025 1.126.15 1.701.225-.175.575-.15 1.325-.525 1.7-4.226 4.377-7.902 9.153-10.478 14.68-1.175 2.525-2.15 5.126-3.026 7.777-1.025 3.05.376 5.426 3.501 6.301 3.977 1.1 7.953 2.151 11.929 3.226 2.9.776 5.226-.55 6.051-3.45 2.251-7.778 5.777-14.88 10.929-21.132 3.701-4.5 7.927-8.427 12.978-11.378 1.251-.725 2.101-1.725 2.451-3.15.425-1.701.95-3.377 1.375-5.052.65-2.7-.725-5.026-3.401-5.752-8.102-2.2-16.229-4.376-24.357-6.527-.875-.225-1.55-.575-1.975-1.5-.525-1.2-1.576-1.925-2.85-2.25-.726-.2-1.426-.5-1.151-1.426.3-1 1.05-.85 1.825-.625 1.626.475 2.851 1.45 3.851 2.8.35.45.901.876 1.426 1.026 7.652 2.1 15.304 4.276 23.031 6.152 4.627 1.05 7.002 5.001 5.602 9.302ZM48.146 80.986c-.65 2.575-2.176 4.326-4.676 5.05a475.36 475.36 0 0 1-13.004 3.502c-3.626.9-7.177-1.25-8.102-4.901-1.6-6.352-2.076-12.804-1.15-19.33.25-1.851.524-3.702.8-5.703-2.701.7-5.252 1.4-7.828 2.076-3.75.95-7.202-.8-8.277-4.501-1.75-6.027-3.35-12.104-4.876-18.205-.876-3.451 1.25-6.827 4.751-7.827 2.4-.7 4.826-1.326 7.227-1.926 1.575-.4 3.126-.175 4.626.45a3.33 3.33 0 0 0 1.976.175c3.676-.925 7.302-1.95 10.978-2.876.5-.125 1.4 0 1.625.325.475.65.175 1.376-.7 1.6-4.251 1.151-8.502 2.326-12.778 3.427-.45.125-1.076-.075-1.5-.325-1.276-.776-2.576-1.026-4.052-.625-2.2.625-4.426 1.175-6.627 1.775-2.726.75-4.101 3.126-3.376 5.902C4.66 44.65 6.11 50.227 7.61 55.803c.876 3.276 3.201 4.552 6.477 3.676 2-.55 4.051-1 6.002-1.65.975-.325 1.825-1.075 2.75-1.575.5-.276 1.076-.4 1.601-.6.125.55.475 1.175.35 1.65-1.575 6.152-2.35 12.353-1.7 18.68.275 2.726.75 5.452 1.35 8.102.6 2.626 3.076 3.977 5.702 3.276a695.725 695.725 0 0 0 12.403-3.326c2.701-.75 4.026-3.05 3.426-5.776-.2-.85-.475-1.7-.5-2.576-.025-.375.425-.975.75-1.05.35-.075 1.1.3 1.176.575.45 1.9 1.25 3.75.75 5.776ZM89.433 17.393c-.05.725-.376 1.55-.876 2.075-8.777 9.278-14.129 20.306-16.63 32.71-.925 4.576-1.1 9.327-1.575 14.003-.15 1.576-.725 2.25-2.326 2.25H53.523c-1.9 0-2.525-.65-2.45-2.6.375-9.803 3.076-18.93 7.927-27.433 2.376-4.176 5.151-8.077 8.352-11.653.35-.4.675-.8 1.126-1.325H53.022c0 1.375.025 2.7 0 4.026-.025 1.675-.7 2.326-2.375 2.35-2.551.026-5.077.026-7.627 0-1.701 0-2.376-.674-2.376-2.35V8.94c0-1.75.675-2.4 2.425-2.4h7.002c2.351 0 2.751.35 3.051 2.775h33.46c2.425 0 2.9.5 2.9 2.926-.025 1.726.076 3.451-.05 5.152Z">
			<animate begin="r4_h.end+5ms" values="0;1" attributeName="opacity" attributeType="CSS" dur="5ms" fill="freeze"/>
			<animate begin="r5.end+300ms" values="1;0" attributeName="opacity" attributeType="CSS" dur="5ms" fill="freeze"/>
		</path>
		<!-- 6 -->
		<path d="M133.479 55.93c-4.361 8.82-11.209 15.298-19.453 20.351-14.82 9.124-31.036 13.737-48.479 13.432-8.755-.136-17.17-2.408-25.347-5.393-11.004-4.002-21.326-9.226-30.218-16.959-3.611-3.154-6.746-6.682-8.858-11.057-1.908-3.934-1.397-7.19 1.567-10.447 4.054-4.409 9.267-7.02 14.616-9.395 3.032-1.357 6.2-2.442 9.743-3.833-.784 3.053-1.294 5.597-2.112 8.039-1.363 4.036-.17 7.428 2.35 10.548 3.51 4.308 8.245 6.852 13.287 8.819 9.335 3.595 19.078 4.782 29.06 4.545 9.028-.238 17.818-1.696 26.164-5.291 4.157-1.798 7.972-4.07 11.004-7.496 2.828-3.256 4.327-6.818 2.794-11.227-.852-2.374-1.363-4.884-2.146-7.733 3.202 1.22 6.234 2.103 8.994 3.493 4.326 2.171 8.551 4.613 12.741 7.09 1.159.678 2.078 1.729 2.964 2.747 2.555 2.984 3.1 6.139 1.329 9.768Z">
			<animate id="r6" begin="r5_h.end+5ms" values="0;1" attributeName="opacity" attributeType="CSS" dur="5ms" fill="freeze"/>
			<animate id="r6_h" begin="r6.end+3s" values="1;0" attributeName="opacity" attributeType="CSS" dur="5ms" fill="freeze"/>
		</path>
		<path d="M107.485 40.532c-3.066 4.037-7.291 6.58-11.89 8.48-11.583 4.816-23.677 5.901-36.078 4.85-8.483-.712-16.693-2.578-24.257-6.648-3.168-1.696-6.064-3.799-8.21-6.75-.375-.508-.647-1.356-.545-1.967 2.044-9.972 4.36-19.842 8.142-29.339 1.84-4.646 4.736-6.953 9.744-7.461C57.2.374 70.01.407 82.82 1.357c3.509.272 6.95.882 10.458 1.29 3.305.372 4.566 2.78 5.656 5.528-5.792 2.103-11.277 4.748-16.387 8.174a71.015 71.015 0 0 1-6.541 3.934c-5.076 2.748-10.084 2.34-14.786-.814-3.509-2.374-6.847-5.02-10.322-7.495-3.748-2.714-7.972-4.24-12.503-4.986-.273-.034-.511 0-1.159 0 2.147.678 3.918 1.187 5.69 1.763 5.11 1.73 8.79 5.495 12.673 8.955 1.806 1.594 3.748 3.12 5.792 4.443 5.178 3.392 10.595 3.595 15.91.509 3.066-1.798 5.825-4.104 8.687-6.207 4.088-3.053 8.313-5.868 13.218-7.903.682 1.696 1.397 3.358 2.044 5.02 3.135 8.072 5.145 16.484 6.814 24.963.102.645-.204 1.492-.579 2.001Z">
			<animate begin="r5_h.end+5ms" values="0;1" attributeName="opacity" attributeType="CSS" dur="5ms" fill="freeze"/>
			<animate begin="r6.end+3s" values="1;0" attributeName="opacity" attributeType="CSS" dur="5ms" fill="freeze"/>
		</path>
	</g>
</svg>