<svg class="graph" width="288" height="90" viewBox="0 0 288 90" fill="none" xmlns="http://www.w3.org/2000/svg">
<rect y="0.712891" width="16.6667" height="89" rx="8.33333" fill="url(#paint0_linear_10538_2814)"/>
<rect x="24.6667" y="67.7129" width="16.6667" height="22" rx="8.33333" fill="url(#paint1_linear_10538_2814)"/>
<rect x="49.3333" y="28.7129" width="16.6667" height="61" rx="8.33333" fill="url(#paint2_linear_10538_2814)"/>
<rect x="74" y="52.7129" width="16.6667" height="37" rx="8.33333" fill="url(#paint3_linear_10538_2814)"/>
<rect x="98.6667" y="11.7129" width="16.6667" height="78" rx="8.33333" fill="url(#paint4_linear_10538_2814)"/>
<rect x="123.333" y="0.712891" width="16.6667" height="89" rx="8.33333" fill="url(#paint5_linear_10538_2814)"/>
<rect x="148" y="21.7129" width="16.6667" height="68" rx="8.33333" fill="url(#paint6_linear_10538_2814)"/>
<rect x="172.667" y="33.7129" width="16.6667" height="56" rx="8.33333" fill="url(#paint7_linear_10538_2814)"/>
<rect x="197.333" y="33.7129" width="16.6667" height="56" rx="8.33333" fill="url(#paint8_linear_10538_2814)"/>
<rect x="222" y="28.7129" width="16.6667" height="61" rx="8.33333" fill="url(#paint9_linear_10538_2814)"/>
<rect x="246.667" y="0.712891" width="16.6667" height="89" rx="8.33333" fill="url(#paint10_linear_10538_2814)"/>
<rect x="271.333" y="21.7129" width="16.6667" height="68" rx="8.33333" fill="url(#paint11_linear_10538_2814)"/>
<defs>
<linearGradient id="paint0_linear_10538_2814" x1="8.33333" y1="0.712891" x2="8.33333" y2="89.7129" gradientUnits="userSpaceOnUse">
<stop stop-color="#2B2B42"/>
<stop offset="1" stop-color="#2B2B42" stop-opacity="0"/>
</linearGradient>
<linearGradient id="paint1_linear_10538_2814" x1="33" y1="67.7129" x2="33" y2="89.7129" gradientUnits="userSpaceOnUse">
<stop stop-color="#2B2B42"/>
<stop offset="1" stop-color="#2B2B42" stop-opacity="0"/>
</linearGradient>
<linearGradient id="paint2_linear_10538_2814" x1="57.6667" y1="28.7129" x2="57.6667" y2="89.7129" gradientUnits="userSpaceOnUse">
<stop stop-color="#2B2B42"/>
<stop offset="1" stop-color="#2B2B42" stop-opacity="0"/>
</linearGradient>
<linearGradient id="paint3_linear_10538_2814" x1="82.3333" y1="52.7129" x2="82.3333" y2="89.7129" gradientUnits="userSpaceOnUse">
<stop stop-color="#2B2B42"/>
<stop offset="1" stop-color="#2B2B42" stop-opacity="0"/>
</linearGradient>
<linearGradient id="paint4_linear_10538_2814" x1="107" y1="11.7129" x2="107" y2="89.7129" gradientUnits="userSpaceOnUse">
<stop stop-color="#2B2B42"/>
<stop offset="1" stop-color="#2B2B42" stop-opacity="0"/>
</linearGradient>
<linearGradient id="paint5_linear_10538_2814" x1="131.667" y1="0.712891" x2="131.667" y2="89.7129" gradientUnits="userSpaceOnUse">
<stop stop-color="#2B2B42"/>
<stop offset="1" stop-color="#2B2B42" stop-opacity="0"/>
</linearGradient>
<linearGradient id="paint6_linear_10538_2814" x1="156.333" y1="21.7129" x2="156.333" y2="89.7129" gradientUnits="userSpaceOnUse">
<stop stop-color="#2B2B42"/>
<stop offset="1" stop-color="#2B2B42" stop-opacity="0"/>
</linearGradient>
<linearGradient id="paint7_linear_10538_2814" x1="181" y1="33.7129" x2="181" y2="89.7129" gradientUnits="userSpaceOnUse">
<stop stop-color="#2B2B42"/>
<stop offset="1" stop-color="#2B2B42" stop-opacity="0"/>
</linearGradient>
<linearGradient id="paint8_linear_10538_2814" x1="205.667" y1="33.7129" x2="205.667" y2="89.7129" gradientUnits="userSpaceOnUse">
<stop stop-color="#2B2B42"/>
<stop offset="1" stop-color="#2B2B42" stop-opacity="0"/>
</linearGradient>
<linearGradient id="paint9_linear_10538_2814" x1="230.333" y1="28.7129" x2="230.333" y2="89.7129" gradientUnits="userSpaceOnUse">
<stop stop-color="#2B2B42"/>
<stop offset="1" stop-color="#2B2B42" stop-opacity="0"/>
</linearGradient>
<linearGradient id="paint10_linear_10538_2814" x1="255" y1="0.712891" x2="255" y2="89.7129" gradientUnits="userSpaceOnUse">
<stop stop-color="#2B2B42"/>
<stop offset="1" stop-color="#2B2B42" stop-opacity="0"/>
</linearGradient>
<linearGradient id="paint11_linear_10538_2814" x1="279.667" y1="21.7129" x2="279.667" y2="89.7129" gradientUnits="userSpaceOnUse">
<stop stop-color="#2B2B42"/>
<stop offset="1" stop-color="#2B2B42" stop-opacity="0"/>
</linearGradient>
</defs>
</svg>
