<svg width="132" height="41" viewBox="0 0 132 41" fill="none" xmlns="http://www.w3.org/2000/svg">
<path d="M16.4267 14.6284V19.0017H26.88C26.56 21.455 25.7422 23.2506 24.4978 24.5128C22.9689 26.0417 20.5867 27.7128 16.4267 27.7128C9.99111 27.7128 4.96 22.5217 4.96 16.0861C4.96 9.65058 9.99111 4.45947 16.4267 4.45947C19.8933 4.45947 22.4356 5.82836 24.3022 7.58836L27.3778 4.5128C24.7822 1.98836 21.2978 0.0683594 16.4267 0.0683594C7.60889 0.0683594 0.195557 7.25058 0.195557 16.0684C0.195557 24.8861 7.60889 32.0684 16.4267 32.0684C21.1911 32.0684 24.7822 30.5039 27.5911 27.5884C30.4711 24.7084 31.3778 20.6372 31.3778 17.3661C31.3778 16.3528 31.3067 15.4106 31.1467 14.6284H16.4267Z" fill="#4285F4"/>
<path d="M44.4444 11.073C38.7378 11.073 34.08 15.4108 34.08 21.4019C34.08 27.3397 38.7378 31.7308 44.4444 31.7308C50.1511 31.7308 54.8089 27.3574 54.8089 21.4019C54.8089 15.4108 50.1511 11.073 44.4444 11.073ZM44.4444 27.6597C41.3156 27.6597 38.6133 25.0819 38.6133 21.4019C38.6133 17.6863 41.3156 15.1441 44.4444 15.1441C47.5733 15.1441 50.2756 17.6863 50.2756 21.4019C50.2756 25.0819 47.5733 27.6597 44.4444 27.6597Z" fill="#EA4335"/>
<path d="M95.2533 13.3841H95.0933C94.08 12.1752 92.1244 11.073 89.6533 11.073C84.4978 11.073 80 15.5708 80 21.4019C80 27.1974 84.4978 31.7308 89.6533 31.7308C92.1244 31.7308 94.08 30.6286 95.0933 29.3841H95.2533V30.8241C95.2533 34.7708 93.1378 36.8863 89.7422 36.8863C86.9689 36.8863 85.2444 34.8952 84.5333 33.2063L80.5867 34.8419C81.7244 37.5797 84.7289 40.9397 89.7422 40.9397C95.0578 40.9397 99.5556 37.8108 99.5556 30.1841V11.6063H95.2533V13.3841ZM90.0444 27.6597C86.9156 27.6597 84.5333 24.993 84.5333 21.4019C84.5333 17.7574 86.9156 15.1441 90.0444 15.1441C93.1378 15.1441 95.5556 17.8108 95.5556 21.4374C95.5733 25.0463 93.1378 27.6597 90.0444 27.6597Z" fill="#4285F4"/>
<path d="M67.5555 11.073C61.8489 11.073 57.1911 15.4108 57.1911 21.4019C57.1911 27.3397 61.8489 31.7308 67.5555 31.7308C73.2622 31.7308 77.92 27.3574 77.92 21.4019C77.92 15.4108 73.2622 11.073 67.5555 11.073ZM67.5555 27.6597C64.4267 27.6597 61.7244 25.0819 61.7244 21.4019C61.7244 17.6863 64.4267 15.1441 67.5555 15.1441C70.6844 15.1441 73.3867 17.6863 73.3867 21.4019C73.3867 25.0819 70.6844 27.6597 67.5555 27.6597Z" fill="#FBBC05"/>
<path d="M103.111 0.495117H107.573V31.7307H103.111V0.495117Z" fill="#34A853"/>
<path d="M121.351 27.6597C119.04 27.6597 117.404 26.6108 116.338 24.5308L130.151 18.8241L129.689 17.6508C128.836 15.3397 126.204 11.073 120.853 11.073C115.538 11.073 111.111 15.2508 111.111 21.4019C111.111 27.1974 115.484 31.7308 121.351 31.7308C126.08 31.7308 128.818 28.833 129.956 27.1619L126.436 24.8152C125.262 26.5219 123.662 27.6597 121.351 27.6597ZM121.031 14.9486C122.862 14.9486 124.427 15.8908 124.942 17.2241L115.609 21.0819C115.609 16.7441 118.684 14.9486 121.031 14.9486Z" fill="#EA4335"/>
</svg>
