<svg width="44" height="43" viewBox="0 0 44 43" fill="none" xmlns="http://www.w3.org/2000/svg">
<path d="M7.40965 41.1716C7.92409 42.0333 8.85082 42.5371 9.85442 42.5415C16.6152 42.5711 29.3099 40.9835 37.7946 34.2992C49.4169 25.9283 42.6737 9.99655 30.6613 11.7197C29.4082 11.8995 27.8768 12.049 26.7069 12.3529C26.178 12.4902 25.5642 12.181 25.398 11.6604C24.9325 10.2021 24.0608 8.17285 23.461 6.93876C19.1681 -1.89454 2.72312 -3.01235 0.44939 13.5528C-1.02252 20.7278 3.59225 34.7771 7.40965 41.1716Z" fill="url(#paint0_radial_9889_842)"/>
<path d="M7.40965 41.1716C7.92409 42.0333 8.85082 42.5371 9.85442 42.5415C16.6152 42.5711 29.3099 40.9835 37.7946 34.2992C49.4169 25.9283 42.6737 9.99655 30.6613 11.7197C29.4082 11.8995 27.8768 12.049 26.7069 12.3529C26.178 12.4902 25.5642 12.181 25.398 11.6604C24.9325 10.2021 24.0608 8.17285 23.461 6.93876C19.1681 -1.89454 2.72312 -3.01235 0.44939 13.5528C-1.02252 20.7278 3.59225 34.7771 7.40965 41.1716Z" fill="url(#paint1_radial_9889_842)"/>
<path d="M7.40965 41.1716C7.92409 42.0333 8.85082 42.5371 9.85442 42.5415C16.6152 42.5711 29.3099 40.9835 37.7946 34.2992C49.4169 25.9283 42.6737 9.99655 30.6613 11.7197C29.4082 11.8995 27.8768 12.049 26.7069 12.3529C26.178 12.4902 25.5642 12.181 25.398 11.6604C24.9325 10.2021 24.0608 8.17285 23.461 6.93876C19.1681 -1.89454 2.72312 -3.01235 0.44939 13.5528C-1.02252 20.7278 3.59225 34.7771 7.40965 41.1716Z" fill="url(#paint2_radial_9889_842)"/>
<path d="M7.40965 41.1716C7.92409 42.0333 8.85082 42.5371 9.85442 42.5415C16.6152 42.5711 29.3099 40.9835 37.7946 34.2992C49.4169 25.9283 42.6737 9.99655 30.6613 11.7197C29.4082 11.8995 27.8768 12.049 26.7069 12.3529C26.178 12.4902 25.5642 12.181 25.398 11.6604C24.9325 10.2021 24.0608 8.17285 23.461 6.93876C19.1681 -1.89454 2.72312 -3.01235 0.44939 13.5528C-1.02252 20.7278 3.59225 34.7771 7.40965 41.1716Z" fill="url(#paint3_radial_9889_842)"/>
<path d="M7.40965 41.1716C7.92409 42.0333 8.85082 42.5371 9.85442 42.5415C16.6152 42.5711 29.3099 40.9835 37.7946 34.2992C49.4169 25.9283 42.6737 9.99655 30.6613 11.7197C29.4082 11.8995 27.8768 12.049 26.7069 12.3529C26.178 12.4902 25.5642 12.181 25.398 11.6604C24.9325 10.2021 24.0608 8.17285 23.461 6.93876C19.1681 -1.89454 2.72312 -3.01235 0.44939 13.5528C-1.02252 20.7278 3.59225 34.7771 7.40965 41.1716Z" fill="url(#paint4_linear_9889_842)"/>
<path d="M7.40965 41.1716C7.92409 42.0333 8.85082 42.5371 9.85442 42.5415C16.6152 42.5711 29.3099 40.9835 37.7946 34.2992C49.4169 25.9283 42.6737 9.99655 30.6613 11.7197C29.4082 11.8995 27.8768 12.049 26.7069 12.3529C26.178 12.4902 25.5642 12.181 25.398 11.6604C24.9325 10.2021 24.0608 8.17285 23.461 6.93876C19.1681 -1.89454 2.72312 -3.01235 0.44939 13.5528C-1.02252 20.7278 3.59225 34.7771 7.40965 41.1716Z" fill="url(#paint5_linear_9889_842)"/>
<path d="M7.40965 41.1716C7.92409 42.0333 8.85082 42.5371 9.85442 42.5415C16.6152 42.5711 29.3099 40.9835 37.7946 34.2992C49.4169 25.9283 42.6737 9.99655 30.6613 11.7197C29.4082 11.8995 27.8768 12.049 26.7069 12.3529C26.178 12.4902 25.5642 12.181 25.398 11.6604C24.9325 10.2021 24.0608 8.17285 23.461 6.93876C19.1681 -1.89454 2.72312 -3.01235 0.44939 13.5528C-1.02252 20.7278 3.59225 34.7771 7.40965 41.1716Z" fill="url(#paint6_radial_9889_842)" fill-opacity="0.6"/>
<defs>
<radialGradient id="paint0_radial_9889_842" cx="0" cy="0" r="1" gradientUnits="userSpaceOnUse" gradientTransform="translate(27.6589 8.28011) rotate(120) scale(37.6538 39.9761)">
<stop stop-color="#FC0000"/>
<stop offset="0.527969" stop-color="#FF3B79"/>
<stop offset="1" stop-color="#F724B3"/>
</radialGradient>
<radialGradient id="paint1_radial_9889_842" cx="0" cy="0" r="1" gradientUnits="userSpaceOnUse" gradientTransform="translate(33.0986 22.2589) rotate(164.402) scale(34.8363 65.2518)">
<stop offset="0.797874" stop-color="#C82092" stop-opacity="0"/>
<stop offset="0.908039" stop-color="#C82092"/>
</radialGradient>
<radialGradient id="paint2_radial_9889_842" cx="0" cy="0" r="1" gradientUnits="userSpaceOnUse" gradientTransform="translate(23.5393 28.8947) rotate(-128.663) scale(37.268 52.6836)">
<stop offset="0.40984" stop-color="#B91D43" stop-opacity="0"/>
<stop offset="0.833898" stop-color="#B91D43"/>
</radialGradient>
<radialGradient id="paint3_radial_9889_842" cx="0" cy="0" r="1" gradientUnits="userSpaceOnUse" gradientTransform="translate(20.4993 19.6238) rotate(120) scale(32.4355 32.4355)">
<stop offset="0.671096" stop-color="#FF7AF2" stop-opacity="0"/>
<stop offset="0.933555" stop-color="#FFBCE6"/>
</radialGradient>
<linearGradient id="paint4_linear_9889_842" x1="21.7011" y1="24.7019" x2="25.2581" y2="44.7932" gradientUnits="userSpaceOnUse">
<stop offset="0.694491" stop-color="#FF7AF2" stop-opacity="0"/>
<stop offset="0.933555" stop-color="#FFBCE6"/>
</linearGradient>
<linearGradient id="paint5_linear_9889_842" x1="19.9665" y1="24.4519" x2="-2.05227" y2="31.7813" gradientUnits="userSpaceOnUse">
<stop offset="0.694491" stop-color="#FF7AF2" stop-opacity="0"/>
<stop offset="0.933555" stop-color="#FFBCE6"/>
</linearGradient>
<radialGradient id="paint6_radial_9889_842" cx="0" cy="0" r="1" gradientUnits="userSpaceOnUse" gradientTransform="translate(25.2067 20.6017) rotate(-165.382) scale(28.2014 29.7832)">
<stop offset="0.802083" stop-color="#FF73A6" stop-opacity="0"/>
<stop offset="1" stop-color="#FF93BA"/>
</radialGradient>
</defs>
</svg>
