<svg width="40" height="41" viewBox="0 0 40 41" fill="none" xmlns="http://www.w3.org/2000/svg">
<path fill-rule="evenodd" clip-rule="evenodd" d="M39.3632 20.9605L28.2332 25.2938C26.8716 25.824 25.7948 26.9008 25.2646 28.2624L20.9313 39.3923C20.6007 40.2415 19.3993 40.2415 19.0687 39.3923L14.7354 28.2624C14.2052 26.9008 13.1284 25.824 11.7668 25.2938L0.636846 20.9605C-0.212282 20.6299 -0.212282 19.4284 0.636846 19.0978L11.7668 14.7645C13.1284 14.2344 14.2052 13.1576 14.7354 11.7959L19.0687 0.666021C19.3993 -0.183107 20.6007 -0.183107 20.9313 0.666021L25.2646 11.7959C25.7948 13.1576 26.8716 14.2344 28.2332 14.7645L39.3632 19.0978C40.2123 19.4284 40.2123 20.6299 39.3632 20.9605Z" fill="#2B2B42"/>
</svg>
