<svg width="24" height="21" viewBox="0 0 24 21" fill="none" xmlns="http://www.w3.org/2000/svg">
<path d="M1.67565 9.38895C8.1927 6.61573 12.4912 4.67449 14.5711 3.84252C20.6721 1.34663 22.0588 0.791992 22.8907 0.791992C23.0294 0.791992 23.4454 0.791992 23.7227 1.06931C24 1.20797 24 1.48529 24 1.62395C24 1.76262 24 2.1786 24 2.45592C23.7227 5.92243 22.1974 14.5194 21.5041 18.4019C21.2268 20.0658 20.5335 20.6204 19.9788 20.6204C18.7309 20.7591 17.7603 19.7885 16.5123 18.9565C14.5711 17.7086 13.4618 16.8766 11.5206 15.6287C9.30198 14.2421 10.6886 13.4101 11.9365 12.1622C12.2139 11.8848 17.8989 6.61573 18.0376 6.19975C18.0376 6.19975 18.0376 5.92243 17.8989 5.78377C17.7603 5.64511 17.6216 5.64511 17.483 5.78377C17.3443 5.78377 14.1551 7.86368 8.1927 12.0235C7.36074 12.5781 6.52877 12.9941 5.83547 12.8555C5.00351 12.8555 3.47824 12.4395 2.36896 12.0235C0.982351 11.6075 -0.126933 11.3302 0.0117271 10.4982C0.150388 10.2209 0.70503 9.80493 1.67565 9.38895Z" fill="#2B2B42"/>
</svg>
